<svg xmlns="http://www.w3.org/2000/svg" height="1200" width="1600" version="1.1" xmlns:xlink="http://www.w3.org/1999/xlink" xmlns:svgjs="http://svgjs.com/svgjs"><rect fill="#ffffff" width="1600" height="1200"></rect><g><path d="M291.76 646.76H810.8" stroke="#006633" stroke-width="2" stroke-linecap="round" stroke-linejoin="round" opacity="1" fill="none"></path><path d="M291.76 560.25H810.8" stroke="#006633" stroke-width="2" stroke-linecap="round" stroke-linejoin="round" opacity="1" fill="none"></path><path d="M291.76 473.75H810.8" stroke="#006633" stroke-width="2" stroke-linecap="round" stroke-linejoin="round" opacity="1" fill="none"></path><path d="M291.76 387.24H810.8" stroke="#006633" stroke-width="2" stroke-linecap="round" stroke-linejoin="round" opacity="1" fill="none"></path><path d="M291.76 300.73H810.8" stroke="#006633" stroke-width="2" stroke-linecap="round" stroke-linejoin="round" opacity="1" fill="none"></path><path d="M724.28 214.23V733.27" stroke="#006633" stroke-width="2" stroke-linecap="round" stroke-linejoin="round" opacity="1" fill="none"></path><path d="M637.78 214.23V733.27" stroke="#006633" stroke-width="2" stroke-linecap="round" stroke-linejoin="round" opacity="1" fill="none"></path><path d="M551.28 214.23V733.27" stroke="#006633" stroke-width="2" stroke-linecap="round" stroke-linejoin="round" opacity="1" fill="none"></path><path d="M464.76 214.23V733.27" stroke="#006633" stroke-width="2" stroke-linecap="round" stroke-linejoin="round" opacity="1" fill="none"></path><path d="M378.26 214.23V733.27" stroke="#006633" stroke-width="2" stroke-linecap="round" stroke-linejoin="round" opacity="1" fill="none"></path></g><g><path d="M1028.82 496.28L1019.15 513.34C1017.44 516.75 1020.86 520.73 1024.84 519.02L1062.37 498.55C1084.54 486.04 1110.13 479.79 1135.15 479.79H1236.94C1252.29 479.79 1264.8 467.28 1264.8 451.92V242.1C1264.8 226.74 1252.29 214.24 1236.94 214.24L1003.8 214.24C988.44 214.24 975.93 226.74 975.93 242.1L975.93 451.92C975.93 467.28 988.44 479.79 1003.8 479.79H1018.58C1027.68 479.79 1032.8 488.89 1028.82 496.28Z" fill="#ffffff" opacity="1" stroke-width="2" stroke="none"></path></g><g><path d="M548.09 992.91C548.04 992.91 548.02 992.9 547.99 992.87 547.96 992.84 547.95 992.81 547.95 992.77 547.69 989.33 547.6 985.46 547.65 982.63 548.71 929.71 578.26 879.48 578.26 879.48 578.26 879.48 678.15 867.64 785.59 921.1 785.59 921.1 788.34 958.76 790.32 992.76 790.32 992.8 790.31 992.84 790.28 992.87 790.27 992.88 790.25 992.88 790.24 992.9 790.21 992.9 790.2 992.91 790.18 992.91L548.09 992.91Z" fill="#000000" opacity="1" stroke-width="2" stroke="none"></path><path d="M579.51 860.97L575.9 875.76C575.78 876.23 575.76 876.74 575.85 877.21 575.92 877.7 576.1 878.16 576.35 878.58 576.61 878.99 576.96 879.36 577.37 879.64 577.76 879.93 578.22 880.12 578.69 880.22L788.51 925.58C789.02 925.69 789.57 925.69 790.08 925.58 790.6 925.47 791.09 925.23 791.51 924.92 791.92 924.6 792.27 924.2 792.52 923.72 792.78 923.26 792.93 922.75 792.96 922.22L794.38 900.97C794.43 900.06 794.16 899.18 793.61 898.47 793.05 897.76 792.26 897.27 791.38 897.11L583.77 858.22C582.85 858.05 581.88 858.23 581.09 858.75 580.31 859.26 579.74 860.05 579.51 860.97V860.97Z" fill="#3d3d35" opacity="1" stroke-width="2" stroke="none"></path><path d="M859.37 681.74L919.37 581.64 962.69 543.59C964.12 542.33 965.92 541.57 967.82 541.4L990.81 539.49 1008.42 535.8 1013.2 535.14C1013.2 535.14 1019.48 533.55 1022.74 532.69 1023.37 532.45 1024.07 532.46 1024.69 532.71 1025.32 532.98 1025.82 533.45 1026.12 534.07 1026.59 535 1026.74 536.07 1026.55 537.11 1026.34 538.14 1025.81 539.07 1025.01 539.77L1024.97 539.81C1024.97 539.81 1028.44 539.55 1030.69 539.59 1032.93 539.64 1034.37 545.54 1031.16 547.44 1027.97 549.33 1026.74 550.05 1026.74 550.05L1028.58 550.44C1029.71 550.67 1032.12 556.03 1028.11 558.19 1024.11 560.35 1016.37 560.84 1016.37 560.84L1007.25 563.74 1006.22 566.67C1005.97 567.35 1005.62 567.99 1005.21 568.59L1009.22 569.73C1009.73 569.89 1010.22 570.11 1010.67 570.4L1013.01 571.94C1013.01 571.94 1015.35 572.58 1017.89 572.98 1020.41 573.39 1019.05 578.24 1014.24 578.25 1011.46 578.27 1008.7 578.02 1005.97 577.51L1001.53 576.57 991.9 575.62 977.09 579.02 968.15 589.48C964.83 593.37 960.29 595.97 955.27 596.88L947.28 621.23 908.98 730.18C897.34 761.9 875.35 799.42 865 816.31 863.31 819.07 860.94 821.35 858.13 822.93 855.31 824.52 852.12 825.34 848.88 825.34H830.55L819.6 731.04 859.37 681.74Z" fill="#cd835b" opacity="1" stroke-width="2" stroke="none"></path><path d="M865.02 816.31C863.33 819.07 860.96 821.35 858.13 822.93 855.31 824.52 852.13 825.34 848.9 825.34H830.55L824.23 770.95 826.28 772.09C829.01 773.63 832.03 774.6 835.13 774.95 838.24 775.31 841.4 775.03 844.41 774.15 847.42 773.28 850.21 771.8 852.63 769.82 855.07 767.84 857.07 765.38 858.55 762.62 875.08 731.42 896.93 681.43 896.93 681.43L928.9 600.94C930.42 597.13 933.09 593.9 936.52 591.67 939.96 589.45 944.02 588.36 948.1 588.56L968.15 589.49C964.85 593.38 960.29 595.99 955.27 596.89L947.28 621.24 908.98 730.18C897.34 761.9 875.35 799.42 865.02 816.31Z" fill="#cb6b37" opacity="0.6" stroke-width="2" stroke="none"></path><path d="M830.55 825.34L830.18 822.23C831.44 817.95 833.61 814 836.54 810.64 839.47 807.28 843.1 804.59 847.15 802.77 851.23 800.94 855.63 800.02 860.09 800.05 864.56 800.09 868.95 801.09 872.98 802.99 869.94 808.19 867.2 812.72 865.02 816.31 863.33 819.07 860.96 821.35 858.13 822.94 855.31 824.52 852.13 825.35 848.9 825.35L830.55 825.34Z" fill="#cb6b37" opacity="0.6" stroke-width="2" stroke="none"></path><path d="M942.09 648.37L946.95 643.67C947.15 643.48 947.32 643.24 947.43 642.98 947.55 642.71 947.6 642.42 947.61 642.13 947.61 641.85 947.56 641.55 947.46 641.29 947.35 641.01 947.2 640.77 946.99 640.56L906.94 599.17C906.75 598.96 906.51 598.79 906.25 598.68 905.97 598.57 905.69 598.5 905.39 598.5 905.1 598.48 904.82 598.54 904.54 598.65 904.28 598.75 904.03 598.92 903.83 599.11L898.98 603.8C898.77 604.01 898.6 604.24 898.49 604.51 898.38 604.77 898.31 605.07 898.31 605.36 898.3 605.64 898.35 605.93 898.47 606.19 898.56 606.47 898.73 606.71 898.93 606.92L938.97 648.32C939.18 648.53 939.42 648.69 939.68 648.81 939.95 648.92 940.24 648.99 940.52 648.99 940.81 648.99 941.1 648.94 941.37 648.83 941.63 648.72 941.88 648.57 942.09 648.37V648.37Z" fill="#aaaaa2" opacity="1" stroke-width="2" stroke="none"></path><path d="M1005.21 568.6C1004.94 569.38 1004.38 570.03 1003.65 570.4 1003.1 570.88 1002.48 571.27 1001.84 571.59 1000.46 572.26 998.74 573.05 996.97 573.79 995.3 574.45 991.91 575.63 991.91 575.63" stroke="#cb6b37" stroke-width="2" stroke-linecap="round" stroke-linejoin="round" opacity="1" fill="none"></path><path d="M965.31 560.53L968.11 561.84C971.68 563.5 975.72 563.75 979.48 562.57L986.95 560.18C987.92 559.88 988.94 559.72 989.97 559.74L994.32 559.79C994.32 559.79 999.92 558.3 1002.96 557.66 1008.32 556.53 1007.21 563.6 1007.25 563.74" stroke="#cb6b37" stroke-width="2" stroke-linecap="round" stroke-linejoin="round" opacity="1" fill="none"></path><path d="M970.27 562.65C971.14 561.03 973.06 557.6 973.06 557.6L984.82 553.43 995.43 550.18 1008.52 547.58C1011.77 546.68 1014.96 545.6 1018.07 544.31 1019.88 543.42 1021.6 542.38 1023.23 541.18L1024.99 539.81" stroke="#cb6b37" stroke-width="2" stroke-linecap="round" stroke-linejoin="round" opacity="1" fill="none"></path><path d="M1002.96 557.66L1010.55 553.59 1020.38 552.12C1020.38 552.12 1022.09 551.63 1024.99 550.63L1026.74 550.05" stroke="#cb6b37" stroke-width="2" stroke-linecap="round" stroke-linejoin="round" opacity="1" fill="none"></path><path d="M955.27 596.89C952.19 597.86 948.98 598.34 945.76 598.34" stroke="#cb6b37" stroke-width="2" stroke-linecap="round" stroke-linejoin="round" opacity="1" fill="none"></path><path d="M805.59 465.84L809.6 489.45 811.91 501.3C812.03 501.95 812.02 502.62 811.85 503.27 811.7 503.91 811.4 504.51 811 505.02 810.58 505.54 810.06 505.96 809.48 506.25 808.88 506.56 808.24 506.72 807.58 506.74L804.74 506.85C801.38 506.96 798.02 506.43 794.85 505.29L791.16 503.93 790.07 496.81C789.86 495.36 789.97 493.87 790.39 492.47 790.82 491.07 791.56 489.78 792.55 488.69L795.97 484.96 805.59 465.84Z" fill="#cb6b37" opacity="1" stroke-width="2" stroke="none"></path><path d="M799.09 497.12C799.5 497.28 799.93 497.38 800.36 497.38 803.09 497.38 807.72 494.2 814.3 479.07 822.14 461.03 819.45 456.65 817.13 455.65 816.73 455.47 816.3 455.38 815.87 455.38 813.13 455.38 808.5 458.56 801.94 473.69 794.09 491.73 796.79 496.11 799.09 497.12ZM814.25 463.1C813.27 467.92 811.75 472.6 809.7 477.07 807.86 481.51 805.55 485.74 802.79 489.67 802.69 489.75 802.58 489.82 802.44 489.84 802.38 489.84 802.33 489.82 802.27 489.8 802.21 489.77 802.16 489.74 802.12 489.68 802.08 489.64 802.05 489.59 802.03 489.53 802.02 489.46 802.02 489.41 802.02 489.35 803.02 484.64 804.53 480.06 806.52 475.7 808.38 471.18 810.75 466.9 813.56 462.93 813.96 462.43 814.35 462.68 814.25 463.1Z" fill="#f9f9f2" opacity="1" stroke-width="2" stroke="none"></path><path d="M679.83 449.49C686.63 427.04 688.52 415.52 695.12 405.9 701.73 396.27 715.68 384.19 730.78 383.26 745.88 382.31 782.11 388.72 798.9 413.25 805.09 422.31 810.97 444.95 808.14 457.41 805.31 469.86 784.19 521.18 784.19 521.18 781.63 525.27 777.91 528.49 773.49 530.41 769.09 532.34 764.19 532.87 759.46 531.93L742.48 528.92 736.14 553.32C735.23 563.24 733.21 569.51 730.81 573.82L728.78 581.64 647.04 505.68C650.6 502.76 653.52 499.18 655.66 495.12 664.66 478.31 679.83 449.49 679.83 449.49Z" fill="#cd835b" opacity="1" stroke-width="2" stroke="none"></path><path d="M711.47 455.45C711.47 455.45 711.82 455.04 712.45 454.35 713.77 462.59 717.84 470.89 725.42 475.66 726.8 476.36 727.93 475.7 729.35 474.4L736.9 497.05C739.65 505.26 745.33 512.16 752.84 516.43L775.6 529.38C770.7 532.14 764.97 533.05 759.46 531.93L742.48 528.91 736.12 553.32C735.76 558.16 735.18 560.85 733.31 564.2L731.02 561.24C723.6 551.59 718.75 540.23 716.94 528.2L712.42 498.22C711.76 493.8 710.37 489.52 708.27 485.57 703.33 476.37 705.24 464.82 708.22 455.8L711.47 455.45Z" fill="#cb6b37" opacity="0.6" stroke-width="2" stroke="none"></path><path d="M761.5 476.22C756.4 470.46 756.61 461.95 761.96 457.18 767.31 452.43 775.81 453.24 780.9 459 786 464.74 785.8 473.26 780.44 478.01 775.08 482.77 766.6 481.96 761.5 476.22Z" fill="#cb6b37" opacity="0.4" stroke-width="2" stroke="none"></path><path d="M726.32 480.43C726.38 479.27 726.68 478.14 727.2 477.09 727.72 476.05 728.46 475.14 729.35 474.4 733.03 471.36 738.98 464.64 739.41 452.72 739.41 452.71 739.41 452.69 739.43 452.67 739.43 452.65 739.44 452.64 739.46 452.62 739.47 452.61 739.5 452.6 739.51 452.6 739.53 452.58 739.55 452.58 739.57 452.58L749.22 454.02C749.26 454.02 749.29 454.03 749.3 454.07L764.18 473.66C766.51 476.75 767.82 480.5 767.9 484.36L768.17 496.56C768.17 496.59 768.18 496.61 768.19 496.64 768.21 496.67 768.22 496.68 768.25 496.7 768.28 496.7 768.3 496.7 768.33 496.7 768.36 496.7 768.39 496.68 768.4 496.66L777.47 487.05C777.77 486.73 778.15 486.46 778.55 486.28 778.96 486.1 779.4 486 779.85 486 780.3 485.99 780.74 486.07 781.16 486.24 781.56 486.41 781.94 486.66 782.26 486.98L793.49 498.08C788.49 510.71 784.19 521.17 784.19 521.17 781.63 525.27 777.91 528.48 773.51 530.4 769.09 532.32 764.19 532.85 759.46 531.93L742.48 528.91C742.48 528.91 739.47 525.52 735.86 520.95 728.93 512.22 725.39 501.27 725.89 490.13L726.32 480.43Z" fill="#1d2f3a" opacity="0.4" stroke-width="2" stroke="none"></path><path d="M794.42 468.73C795.23 468.73 796.02 468.49 796.71 468.04 797.39 467.6 797.93 466.97 798.25 466.22L799.09 464.32C799.52 463.3 799.55 462.15 799.15 461.12 798.74 460.08 797.93 459.26 796.93 458.81 795.91 458.37 794.76 458.35 793.72 458.76 792.69 459.16 791.85 459.96 791.42 460.98L790.59 462.87C790.31 463.51 790.2 464.21 790.25 464.91 790.31 465.59 790.54 466.26 790.92 466.85 791.3 467.42 791.83 467.91 792.43 468.23 793.04 468.56 793.72 468.73 794.42 468.73L794.42 468.73Z" fill="#182126" opacity="1" stroke-width="2" stroke="none"></path><path d="M674.42 459.76L708.22 455.83 711.46 455.45C711.46 455.45 711.82 455.04 712.45 454.35 711.82 450.99 712.03 447.53 713.08 444.27 713.9 441.85 715.53 439.77 717.69 438.4 723.35 434.93 728.08 435.57 732.43 438.09 733.56 438.44 734.58 439.07 735.38 439.94 736.19 440.79 736.77 441.85 737.03 442.99 737.09 443.09 737.14 443.17 737.18 443.27 738.87 446.01 739.65 449.22 739.43 452.44 739.43 452.47 739.44 452.51 739.46 452.54 739.48 452.57 739.51 452.58 739.55 452.58L749.16 454.02C749.19 454.02 749.22 454.02 749.24 454 749.27 453.99 749.29 453.96 749.3 453.93L752.16 447.28 754.35 442.17 754.58 441.62C755.21 440.17 756.16 438.88 757.36 437.84 758.54 436.8 759.97 436.06 761.49 435.64L766.85 434.22C768.43 433.8 769.85 432.94 770.95 431.74 772.06 430.54 772.79 429.06 773.09 427.46 774.64 419.05 775.56 407.21 775.67 405.64 775.68 405.59 775.71 405.55 775.74 405.52 775.75 405.51 775.78 405.51 775.79 405.5 775.82 405.5 775.83 405.5 775.85 405.51 783.46 408.01 800.18 415.33 800.18 415.33 807.26 412.63 816.13 407 821.44 403.42 821.96 403.07 822.36 402.6 822.61 402.04 822.88 401.49 822.98 400.88 822.92 400.27 822.86 399.65 822.63 399.07 822.27 398.58 821.9 398.09 821.41 397.7 820.84 397.46 814.85 395.07 808.73 392.99 802.51 391.23L817.12 384.22C817.65 383.97 818.08 383.58 818.38 383.07 818.68 382.59 818.82 382.02 818.79 381.43 818.77 380.86 818.57 380.3 818.24 379.83 817.89 379.37 817.41 379 816.87 378.81 808.78 375.84 794.64 371.11 784.21 370.29 768.78 369.08 742.36 372.94 742.36 372.94 743 370.93 743.33 368.82 743.35 366.72 743.36 366.45 743.3 366.19 743.18 365.95 743.05 365.72 742.87 365.52 742.65 365.37 742.41 365.23 742.16 365.14 741.9 365.13 741.62 365.12 741.35 365.17 741.12 365.3 733.78 369.16 713.42 375.14 710.04 380.66 707.3 385.38 704.92 390.3 702.9 395.36 702.9 395.39 702.88 395.41 702.86 395.43 702.83 395.44 702.8 395.44 702.77 395.44 696.75 395.72 689.82 398.57 685.86 400.43 685.52 400.6 685.22 400.85 684.99 401.16 684.77 401.48 684.65 401.84 684.6 402.22 684.56 402.61 684.62 402.99 684.77 403.35 684.92 403.7 685.16 404 685.45 404.24 686.82 405.31 687.81 406.79 688.3 408.45 688.77 410.12 688.72 411.9 688.12 413.53 684.6 423.41 680.6 440.34 678.94 446.31 676.91 453.61 674.42 459.76 674.42 459.76Z" fill="#182126" opacity="1" stroke-width="2" stroke="none"></path><path d="M732.43 438.09C734.31 439.52 735.93 441.27 737.18 443.27 740.15 443.25 743.11 443.8 745.87 444.86L752.16 447.28 814.12 471.25C814.46 471.38 814.79 471.43 815.14 471.43 815.8 471.43 816.42 471.2 816.91 470.78 817.41 470.37 817.75 469.79 817.86 469.16 817.98 468.52 817.87 467.86 817.57 467.29 817.25 466.73 816.76 466.29 816.14 466.05L754.35 442.17 747.88 439.66C742.97 437.76 737.63 437.22 732.43 438.09V438.09Z" fill="#f9f9f2" opacity="1" stroke-width="2" stroke="none"></path><path d="M712.45 454.35L713.08 457.35C715 464.67 719.35 471.13 725.42 475.66 725.42 475.66 727.03 476.79 729.35 474.4" stroke="#cb6b37" stroke-width="2" stroke-linecap="round" stroke-linejoin="round" opacity="1" fill="none"></path><path d="M731.4 459.96C735.71 449.89 728.92 440.24 720.94 443.59" stroke="#cb6b37" stroke-width="2" stroke-linecap="round" stroke-linejoin="round" opacity="1" fill="none"></path><path d="M732.28 457.35C733.5 449.32 724.15 446.64 722.01 452.57" stroke="#cb6b37" stroke-width="2" stroke-linecap="round" stroke-linejoin="round" opacity="1" fill="none"></path><path d="M572.74 846.06C570.05 842.1 568.28 837.58 567.55 832.86 566.84 828.12 567.2 823.28 568.6 818.7L579.03 784.5C580.89 778.38 581.27 771.9 580.11 765.61 575.87 742.42 565.81 681.42 568.67 638.93 570.98 604.58 623.87 526.54 625.6 524 625.61 523.99 625.61 523.96 625.61 523.93 625.61 523.92 625.61 523.89 625.6 523.86L624.68 522.21C624.3 521.52 624.1 520.74 624.15 519.94 624.19 519.15 624.45 518.38 624.91 517.74L641.81 493.62C642.45 492.7 643.42 492.04 644.52 491.78 645.62 491.51 646.78 491.66 647.78 492.21L655.1 496.15 652.9 500.25C652.88 500.28 652.87 500.31 652.88 500.34 652.88 500.37 652.9 500.39 652.92 500.42L730.81 573.8 736.14 553.31 753.43 572.58C754.57 573.69 755.44 575.07 755.94 576.59 756.43 578.11 756.55 579.73 756.29 581.31 755.39 586.44 753.92 594.41 752.28 600.48 755.71 604.26 756.72 608.41 757.3 612.78L770.8 717.28 779.08 716.93C782.19 716.81 785.3 717.17 788.29 718.03L813.7 725.4C815.5 725.91 817.05 727.07 818.07 728.64L819.6 731.04 841.69 827.2C841.7 827.24 841.69 827.26 841.67 827.29 841.66 827.33 841.63 827.35 841.59 827.36L829.66 830.95H829.59L797.52 826.89 807.49 859.72C808.89 864.38 809.37 869.28 808.88 874.13 808.39 878.97 806.93 883.68 804.61 887.95L797.66 900.73C797.66 900.73 759.3 894.58 713.55 886.27L695.9 902.89 659.13 937.51 642.22 953.44 640.79 954.78C640.38 955.18 639.86 955.49 639.3 955.67 638.73 955.85 638.14 955.91 637.56 955.84 636.97 955.77 636.4 955.57 635.91 955.25 635.41 954.94 634.98 954.52 634.66 954.02L624.91 938.87C623.84 937.19 623.11 935.3 622.82 933.32L622.4 930.64C622.29 929.85 622.35 929.02 622.6 928.26 622.83 927.49 623.25 926.78 623.81 926.21L628.19 921.65 621.29 910.62C619.25 907.35 618.32 903.53 618.62 899.7L620.52 875.16C620.72 872.65 620.6 870.11 620.2 867.62 605.75 864.34 592.94 861.11 583.07 858.11 579.21 854.47 575.75 850.44 572.74 846.06V846.06Z" fill="#006633" opacity="1" stroke-width="2" stroke="none"></path><path d="M743.63 584.97L749.43 578.11H752.87L754.88 578.11" stroke="#001d0f" stroke-width="2" stroke-linecap="round" stroke-linejoin="round" opacity="1" fill="none"></path><path d="M781.17 898.05L715.18 866.42" stroke="#001d0f" stroke-width="2" stroke-linecap="round" stroke-linejoin="round" opacity="1" fill="none"></path><path d="M771.26 720.7L781.98 775.69 797.43 826.89" stroke="#001d0f" stroke-width="2" stroke-linecap="round" stroke-linejoin="round" opacity="1" fill="none"></path><path d="M718.23 878.12L712.56 873.49 719.71 854.22 714.85 841.14C713.34 837.07 712.63 832.73 712.77 828.38 713.37 810.51 715.01 760.5 715.88 732.63 715.88 732.63 722.79 714.74 727.2 700.03L736.71 729.93C739.16 737.62 740.15 745.72 739.62 753.78L736.88 796.06C735.9 811.13 737.21 826.25 740.77 840.93L741.95 845.81C743.81 853.42 747.93 860.28 753.78 865.48 759.63 870.68 766.94 873.97 774.7 874.91L808.06 878.94C807.3 882.08 806.15 885.12 804.61 887.95L797.66 900.73C797.66 900.73 759.3 894.58 713.55 886.26L715.91 884.04 718.36 881.74C718.61 881.5 718.81 881.23 718.93 880.9 719.06 880.58 719.13 880.25 719.11 879.9 719.1 879.55 719.02 879.22 718.86 878.91 718.71 878.6 718.5 878.34 718.23 878.12V878.12Z" fill="#001d0f" opacity="0.6" stroke-width="2" stroke="none"></path><path d="M609.62 846.76C612.1 847.83 614.59 848.82 617.12 849.78 618.44 857.44 619.49 863.46 620.13 867.13 620.16 867.3 620.19 867.46 620.2 867.63 605.75 864.34 592.94 861.12 583.07 858.11 579.21 854.48 575.75 850.44 572.74 846.07 569.21 840.89 567.29 834.77 567.22 828.49L609.62 846.76Z" fill="#001d0f" opacity="0.6" stroke-width="2" stroke="none"></path><path d="M749.47 595.01C749.47 595.01 743.25 592.03 741.17 591.07L731.44 586.59C729.93 586.59 728.46 586.98 727.13 587.72 725.82 588.47 724.72 589.55 723.94 590.84L707.08 618.98C706.7 619.62 706.19 620.15 705.55 620.54 704.92 620.93 704.21 621.17 703.47 621.23 702.74 621.28 701.99 621.16 701.32 620.86 700.64 620.57 700.04 620.12 699.56 619.55 686.07 603.16 643.5 551.05 628.19 527.74L625.64 523.94" stroke="#001d0f" stroke-width="2" stroke-linecap="round" stroke-linejoin="round" opacity="1" fill="none"></path><path d="M620.2 867.62C620.2 867.62 619.54 863.78 619.21 861.87 615.17 838.89 594.98 722.76 594.4 695.52 593.76 665.23 607.89 623.69 661.19 629.47 714.48 635.25 717.05 694.33 716.14 724.5 715.35 750.9 713.2 815.55 712.67 831.41 712.6 833.75 712.98 836.09 713.79 838.29L717.44 848.1C718.9 852.06 718.9 856.39 717.44 860.34L712.56 873.49 718.14 878.05C718.42 878.27 718.64 878.55 718.81 878.87 718.96 879.19 719.04 879.55 719.06 879.9 719.07 880.26 719.02 880.63 718.88 880.95 718.74 881.28 718.54 881.59 718.28 881.82L715.91 884.04" stroke="#001d0f" stroke-width="2" stroke-linecap="round" stroke-linejoin="round" opacity="1" fill="none"></path><path d="M785.47 503.74C784.07 502.37 782.96 500.71 782.21 498.9 781.47 497.09 781.09 495.14 781.1 493.17" stroke="#494644" stroke-width="2" stroke-linecap="round" stroke-linejoin="round" opacity="1" fill="none"></path><path d="M782.57 746.23C782.57 746.25 782.55 746.3 782.53 746.32 782.53 746.34 782.5 746.34 782.49 746.35 782.47 746.37 782.46 746.37 782.43 746.37L776.29 746.53 771.26 720.7 756.61 612.78C755.84 607.1 753.57 601.73 750.04 597.22L740.92 585.56 732.47 577.39C731.93 576.19 731.37 575 730.81 573.82L736.14 553.32C778.57 631.11 782.37 739.73 782.57 746.23Z" fill="#3d3d35" opacity="1" stroke-width="2" stroke="none"></path><path d="M628.19 921.65L673.64 887.75 712.56 873.49" stroke="#001d0f" stroke-width="2" stroke-linecap="round" stroke-linejoin="round" opacity="1" fill="none"></path><path d="M673.64 887.75L640.86 899.09C639.37 899.6 638.01 900.44 636.86 901.53 635.72 902.61 634.83 903.94 634.24 905.4L633.06 908.39" stroke="#001d0f" stroke-width="2" stroke-linecap="round" stroke-linejoin="round" opacity="1" fill="none"></path><path d="M699.76 839.58L683.64 834.15C657.22 825.26 633.42 809.96 614.36 789.6" stroke="#001d0f" stroke-width="2" stroke-linecap="round" stroke-linejoin="round" opacity="1" fill="none"></path><path d="M729.63 687.61C727.17 707.27 715.88 732.63 715.88 732.63" stroke="#001d0f" stroke-width="2" stroke-linecap="round" stroke-linejoin="round" opacity="1" fill="none"></path><path d="M596.86 721.39C590.08 713.64 585.24 704.41 582.72 694.43" stroke="#001d0f" stroke-width="2" stroke-linecap="round" stroke-linejoin="round" opacity="1" fill="none"></path><path d="M722.5 887.18L722.84 885.8 723.17 884.43C723.27 884.07 723.46 883.76 723.76 883.53 724.05 883.3 724.4 883.18 724.76 883.18H893.61C897.01 883.18 900.42 883.6 903.74 884.42L1052.94 921.28C1053.18 921.34 1053.4 921.44 1053.6 921.58 1053.78 921.72 1053.95 921.9 1054.07 922.11 1054.2 922.32 1054.28 922.54 1054.31 922.78 1054.35 923.01 1054.34 923.25 1054.28 923.49L1053.26 927.6C1052.87 929.2 1051.95 930.63 1050.66 931.64 1049.36 932.66 1047.76 933.21 1046.11 933.21H990.34L850.85 944.81 731.98 891.54 723.63 889.13C723.23 889.02 722.88 888.75 722.67 888.38 722.46 888.02 722.4 887.58 722.5 887.18V887.18Z" fill="#aaaaa2" opacity="1" stroke-width="2" stroke="none"></path><path d="M923.94 898.86L970.33 910.32C970.7 910.41 971.03 910.63 971.25 910.95 971.47 911.26 971.57 911.65 971.51 912.03 971.47 912.4 971.29 912.75 971 913 970.72 913.25 970.34 913.39 969.97 913.39H887.14C885.07 913.39 882.99 913.14 880.97 912.64L832.89 900.76C832.57 900.69 832.3 900.49 832.12 900.23 831.94 899.96 831.86 899.64 831.9 899.34 831.94 899.02 832.1 898.72 832.33 898.51 832.57 898.29 832.88 898.18 833.2 898.18H918.29C920.2 898.18 922.1 898.4 923.94 898.86V898.86Z" fill="#3b3b3b" opacity="1" stroke-width="2" stroke="none"></path><path d="M1051.88 921.83H888.72C882.86 921.83 877.02 921.12 871.33 919.71L733.38 885.63 725.79 883.72" stroke="#8f8f8f" stroke-width="2" stroke-linecap="round" stroke-linejoin="round" opacity="1" fill="none"></path><path d="M893.22 926.25H1045.13C1048.41 926.25 1051.63 925.36 1054.42 923.65 1057.22 921.97 1059.51 919.53 1061.03 916.63L1129.32 785.94C1129.94 784.78 1130.23 783.5 1130.19 782.2 1130.15 780.9 1129.77 779.63 1129.1 778.52 1128.42 777.4 1127.47 776.48 1126.34 775.84 1125.21 775.21 1123.93 774.88 1122.63 774.88H970.7C967.43 774.87 964.21 775.77 961.42 777.46 958.62 779.16 956.33 781.59 954.81 784.5L886.52 915.19C885.9 916.33 885.61 917.63 885.65 918.93 885.69 920.22 886.07 921.49 886.75 922.61 887.42 923.72 888.37 924.64 889.5 925.27 890.64 925.91 891.91 926.25 893.22 926.25V926.25Z" fill="#aaaaa2" opacity="1" stroke-width="2" stroke="none"></path><path d="M642.22 953.42C646.2 958.15 651.86 961.12 658.01 961.69 688.52 964.52 752.4 970.34 828.08 970.34 845.44 970.34 863.41 970.03 881.76 969.32 913.65 970.89 957.82 964.8 971.44 962.77 972.74 962.57 973.95 962.05 974.99 961.26 976.02 960.46 976.83 959.4 977.33 958.21 978.92 954.47 980.65 950.09 981.85 947.05L987.12 942.77C988.12 941.98 988.86 940.89 989.25 939.68L993.96 924.99C994.42 921.83 995.13 918.69 996.11 915.64 997 913.22 994.32 913.07 991.73 914.87 992.46 912.26 993.14 909.71 993.75 907.37L994.23 901C994.23 901 994.92 898.28 995.73 895.2 996.85 890.86 992.14 890.62 992.14 890.62 992.14 890.62 992.79 888.39 994.39 884.2 995.13 882.24 990.6 879.4 986.61 883.44 985.55 884.63 984.59 885.91 983.74 887.25 982.85 885.03 980.73 883.99 976.55 887.25 974.14 889.45 971.93 891.86 969.94 894.46 968.22 896.6 966.98 899.09 966.27 901.74L962.76 914.94 953.55 928.76 946.58 933.21 884.63 933.18H884.61C878.57 932.98 872.59 932.05 866.77 930.38L731.98 891.54 723.63 889.14C723.23 889.03 722.88 888.75 722.67 888.39 722.46 888.02 722.39 887.58 722.49 887.16L722.84 885.8 715.91 884.04 695.9 902.89 642.22 953.42Z" fill="#cd835b" opacity="1" stroke-width="2" stroke="none"></path><path d="M1015.25 865.13C1010.85 862.62 1010.99 854.06 1015.57 846.02 1020.16 837.96 1027.45 833.47 1031.86 835.98 1036.27 838.49 1036.13 847.05 1031.54 855.11 1026.95 863.15 1019.66 867.64 1015.25 865.13Z" fill="#cccccc" opacity="1" stroke-width="2" stroke="none"></path><path d="M642.22 953.42C646.2 958.15 651.86 961.12 658.01 961.69 688.52 964.52 752.4 970.34 828.08 970.34 845.44 970.34 863.41 970.03 881.76 969.32 913.65 970.89 957.82 964.8 971.44 962.77 972.74 962.57 973.95 962.05 974.99 961.26 976.02 960.46 976.83 959.4 977.33 958.21 978.92 954.47 980.65 950.09 981.85 947.05L987.12 942.77C988.12 941.98 988.86 940.89 989.25 939.68L993.96 924.99C994.42 921.83 995.13 918.69 996.11 915.64 997 913.22 994.32 913.07 991.73 914.87 992.46 912.26 993.14 909.71 993.75 907.37L994.23 901C994.23 901 994.92 898.28 995.73 895.2 996.85 890.86 992.14 890.62 992.14 890.62 992.14 890.62 992.79 888.39 994.39 884.2 995.13 882.24 990.6 879.4 986.61 883.44 985.55 884.63 984.59 885.91 983.74 887.25 982.85 885.03 980.73 883.99 976.55 887.25 974.14 889.45 971.93 891.86 969.94 894.46 968.22 896.6 966.98 899.09 966.27 901.74L962.76 914.94 953.55 928.76 946.58 933.21 884.63 933.18H884.61C878.57 932.98 872.59 932.05 866.77 930.38L731.98 891.54C736.72 897.29 743.01 901.54 750.08 903.84L883.52 947.04 892.76 950.19C893.32 950.37 893.78 950.75 894.09 951.23 894.38 951.74 894.51 952.32 894.42 952.89 894.34 953.47 894.06 953.99 893.63 954.37 893.19 954.76 892.64 954.98 892.05 955L882.86 955.29C863.22 952.82 797.82 947.83 797.82 947.83L716.52 936.62C710.8 935.84 705.57 933.01 701.78 928.66 697.99 924.31 695.9 918.73 695.9 912.96V902.89L642.22 953.42Z" fill="#cb6b37" opacity="0.6" stroke-width="2" stroke="none"></path><path d="M813.49 730.81L808.59 821.19" stroke="#001d0f" stroke-width="2" stroke-linecap="round" stroke-linejoin="round" opacity="1" fill="none"></path><path d="M719.04 879.82L628.19 929.5 622.64 932.41" stroke="#001d0f" stroke-width="2" stroke-linecap="round" stroke-linejoin="round" opacity="1" fill="none"></path><path d="M808.59 812.25C802.01 787.55 797.01 759.01 795.13 747.52 794.57 744.16 795.12 740.72 796.67 737.68L799.69 731.75" stroke="#001d0f" stroke-width="2" stroke-linecap="round" stroke-linejoin="round" opacity="1" fill="none"></path><path d="M758.38 708.45L743.03 706.06 741.76 694.94 757.12 697.34 758.38 708.45Z" stroke="#001d0f" stroke-width="2" stroke-linecap="round" stroke-linejoin="round" opacity="1" fill="none"></path><path d="M652.84 500.35L648.1 495.35C648.1 495.35 644.34 491.72 647.78 492.21" stroke="#001d0f" stroke-width="2" stroke-linecap="round" stroke-linejoin="round" opacity="1" fill="none"></path><path d="M771.26 838.6C771.26 839.98 771.72 841.31 772.57 842.38 773.42 843.47 774.62 844.22 775.96 844.54L784.48 846.56C785.05 846.69 785.64 846.7 786.19 846.58 786.77 846.45 787.28 846.2 787.74 845.84 788.19 845.47 788.56 845.03 788.82 844.5 789.07 843.98 789.19 843.41 789.19 842.84V775.77C789.19 774.39 788.73 773.05 787.88 771.98 787.03 770.91 785.83 770.14 784.49 769.83L775.97 767.81C775.42 767.67 774.83 767.67 774.26 767.8 773.7 767.92 773.17 768.17 772.71 768.54 772.26 768.88 771.89 769.34 771.64 769.86 771.39 770.39 771.26 770.96 771.26 771.53V838.6Z" fill="#f9f9f2" opacity="1" stroke-width="2" stroke="none"></path><path d="M775.5 738.92C778.34 738.49 781.24 739.12 783.67 740.68 786.1 742.24 787.85 744.64 788.63 747.41 789.41 750.19 789.15 753.14 787.91 755.74 786.65 758.33 784.49 760.38 781.83 761.49 781.8 761.51 781.79 761.52 781.77 761.55 781.75 761.58 781.75 761.62 781.75 761.65L783.25 771.59C783.36 772.31 783.18 773.07 782.74 773.67 782.3 774.25 781.65 774.66 780.91 774.77 780.77 774.78 780.63 774.8 780.49 774.8 779.84 774.8 779.18 774.56 778.68 774.13 778.18 773.68 777.84 773.08 777.74 772.43L776.24 762.5C776.24 762.46 776.22 762.43 776.2 762.41 776.18 762.39 776.14 762.37 776.11 762.37 773.25 762.09 770.58 760.78 768.61 758.66 766.65 756.56 765.53 753.81 765.45 750.93 765.38 748.04 766.35 745.24 768.21 743.02 770.05 740.82 772.64 739.35 775.5 738.92L775.5 738.92ZM771.09 751.54C771.3 752.98 772.01 754.29 773.09 755.25 774.16 756.21 775.53 756.78 776.98 756.84 778.41 756.91 779.84 756.47 780.99 755.61 782.15 754.75 782.97 753.51 783.32 752.11 783.66 750.7 783.52 749.22 782.89 747.93 782.28 746.62 781.22 745.57 779.91 744.96 778.61 744.34 777.13 744.2 775.72 744.57 774.33 744.92 773.09 745.74 772.24 746.91 771.75 747.57 771.4 748.32 771.21 749.11 771 749.91 770.97 750.73 771.08 751.54H771.09Z" fill="#393939" opacity="1" stroke-width="2" stroke="none"></path><path d="M881.27 932.97L873.73 973.17C873.48 974.44 872.78 975.58 871.75 976.35 870.73 977.13 869.45 977.49 868.17 977.38L847.35 975.45C846.64 975.38 845.94 975.17 845.31 974.83 844.69 974.48 844.14 974 843.71 973.43 843.26 972.85 842.96 972.19 842.79 971.49 842.62 970.8 842.61 970.07 842.73 969.36L850.78 925.77 866.77 930.38C871.51 931.73 876.36 932.59 881.27 932.97Z" fill="#494949" opacity="1" stroke-width="2" stroke="none"></path><path d="M921.86 957.24L944.02 953.48C945.58 953.21 947.03 952.53 948.23 951.51L956.04 944.85C956.04 944.85 961.34 941.61 963.12 940.71 969.97 937.22 964.75 930.35 957.96 931.34 955.31 931.57 952.75 932.41 950.46 933.78 949.15 934.1 948.16 933.09 946.58 933.21" stroke="#cb6b37" stroke-width="2" stroke-linecap="round" stroke-linejoin="round" opacity="1" fill="none"></path><path d="M966.93 941.84L976.49 917.3 978.62 904.94 979.75 898.04 983.02 890.73C983.02 890.73 984.22 888.06 983.76 887.25" stroke="#cb6b37" stroke-width="2" stroke-linecap="round" stroke-linejoin="round" opacity="1" fill="none"></path><path d="M976.49 944.85L977.75 937.14 982.53 924.97 986.87 908.8 988.75 899.88 990.83 894.58 992.12 890.61" stroke="#cb6b37" stroke-width="2" stroke-linecap="round" stroke-linejoin="round" opacity="1" fill="none"></path><path d="M981.85 947.05L983.74 941.84 984.87 938.11 988.19 927.15 991.22 916.7 991.73 914.88" stroke="#cb6b37" stroke-width="2" stroke-linecap="round" stroke-linejoin="round" opacity="1" fill="none"></path><path d="M770.61 753.56C770.62 753.57 770.62 753.59 770.63 753.6 770.65 753.62 770.66 753.63 770.68 753.64 770.69 753.64 770.72 753.64 770.73 753.66 770.74 753.66 770.77 753.64 770.79 753.64L783.74 749.28C783.75 749.28 783.77 749.27 783.78 749.27 783.8 749.25 783.81 749.24 783.82 749.21 783.84 749.18 783.84 749.14 783.82 749.11L756.66 668.41C742.51 626.38 723.88 585.99 701.11 547.93L661.03 480.96C661.01 480.93 660.98 480.9 660.94 480.89 660.9 480.89 660.87 480.89 660.83 480.91L649.12 487.93C649.08 487.94 649.06 487.97 649.05 488.01 649.03 488.05 649.05 488.08 649.06 488.12L689.15 555.08C711.4 592.29 729.61 631.77 743.44 672.86L770.61 753.56Z" fill="#3d3d35" opacity="1" stroke-width="2" stroke="none"></path><path d="M659.13 937.51C663.38 940.29 666.9 944.08 669.34 948.53 671.78 952.99 673.07 957.98 673.11 963.07 667.45 962.57 662.38 962.1 658.01 961.69 651.86 961.12 646.2 958.15 642.22 953.42L659.13 937.51Z" fill="#cb6b37" opacity="0.6" stroke-width="2" stroke="none"></path></g><g><path d="M1177.71 433.74C1177.71 433.83 1177.71 433.83 1177.62 433.83H1051.17C1051.08 433.83 1051.08 433.83 1051.08 433.74V261.82C1051.08 261.73 1051.08 261.73 1051.17 261.73H1177.62C1177.71 261.73 1177.71 261.73 1177.71 261.82V433.74ZM1060 424.83C1060 424.92 1060 424.92 1060.09 424.92H1168.7C1168.79 424.92 1168.79 424.92 1168.79 424.83V270.73C1168.79 270.64 1168.79 270.64 1168.7 270.64H1060.09C1060 270.64 1060 270.64 1060 270.73V424.83Z" fill="#006633" opacity="1" stroke-width="2" stroke="none"></path><path d="M1107.08 349.12C1107.08 349.21 1107.08 349.21 1107.08 349.12 1106.99 349.21 1106.9 349.21 1106.9 349.12L1102.18 342.25C1102.18 342.25 1102.09 342.16 1102.09 342.25L1094.06 344.48H1093.97V344.39L1106.64 309.52C1106.64 309.44 1106.73 309.44 1106.73 309.44L1119.74 314.16C1119.83 314.16 1119.83 314.25 1119.83 314.25L1107.08 349.12Z" fill="#02341b" opacity="1" stroke-width="2" stroke="none"></path><path d="M1124.2 349.12C1124.2 349.21 1124.2 349.21 1124.2 349.12 1124.29 349.21 1124.38 349.21 1124.38 349.12L1129.11 342.25C1129.11 342.25 1129.2 342.16 1129.2 342.25L1137.22 344.48H1137.31V344.39L1124.65 309.52C1124.65 309.44 1124.56 309.44 1124.56 309.44L1111.54 314.16C1111.45 314.16 1111.45 314.25 1111.45 314.25L1124.2 349.12Z" fill="#02341b" opacity="1" stroke-width="2" stroke="none"></path><path d="M1114.93 288.39C1115.29 287.85 1116.09 287.85 1116.45 288.39L1118.85 291.87C1119.12 292.22 1119.48 292.31 1119.92 292.22L1123.94 290.89C1124.56 290.71 1125.18 291.15 1125.18 291.78L1125.1 295.97C1125.1 296.42 1125.36 296.77 1125.72 296.86L1129.73 298.11C1130.36 298.29 1130.53 299 1130.18 299.54L1127.59 302.93C1127.32 303.28 1127.32 303.73 1127.59 304L1130.18 307.38C1130.53 307.92 1130.36 308.63 1129.73 308.81L1125.72 310.06C1125.36 310.15 1125.1 310.51 1125.1 310.95L1125.18 315.14C1125.18 315.77 1124.56 316.21 1123.94 316.03L1119.92 314.7C1119.57 314.61 1119.12 314.7 1118.85 315.05L1116.45 318.53C1116.09 319.07 1115.29 319.07 1114.93 318.53L1112.52 315.05C1112.25 314.7 1111.9 314.61 1111.45 314.7L1107.44 316.03C1106.81 316.21 1106.19 315.77 1106.19 315.14L1106.28 310.95C1106.28 310.51 1106.01 310.15 1105.66 310.06L1101.64 308.81C1101.02 308.63 1100.84 307.92 1101.2 307.38L1103.78 304C1104.05 303.64 1104.05 303.19 1103.78 302.93L1101.2 299.54C1100.84 299 1101.02 298.29 1101.64 298.11L1105.66 296.86C1106.01 296.77 1106.28 296.42 1106.28 295.97L1106.19 291.78C1106.19 291.15 1106.81 290.71 1107.44 290.89L1111.45 292.22C1111.81 292.31 1112.25 292.22 1112.52 291.87L1114.93 288.39Z" fill="#02341b" opacity="1" stroke-width="2" stroke="none"></path><path d="M1146.14 370.97H1086.04C1084.79 370.97 1083.81 369.98 1083.81 368.74 1083.81 367.49 1084.79 366.51 1086.04 366.51H1146.14C1147.39 366.51 1148.37 367.49 1148.37 368.74 1148.37 369.98 1147.39 370.97 1146.14 370.97Z" fill="#006633" opacity="1" stroke-width="2" stroke="none"></path><path d="M1146.14 383.27H1086.04C1084.79 383.27 1083.81 382.29 1083.81 381.04 1083.81 379.79 1084.79 378.81 1086.04 378.81H1146.14C1147.39 378.81 1148.37 379.79 1148.37 381.04 1148.37 382.29 1147.39 383.27 1146.14 383.27Z" fill="#006633" opacity="1" stroke-width="2" stroke="none"></path><path d="M1146.14 395.67H1086.04C1084.79 395.67 1083.81 394.69 1083.81 393.44 1083.81 392.19 1084.79 391.21 1086.04 391.21H1146.14C1147.39 391.21 1148.37 392.19 1148.37 393.44 1148.37 394.69 1147.39 395.67 1146.14 395.67Z" fill="#006633" opacity="1" stroke-width="2" stroke="none"></path></g></svg>