<svg xmlns="http://www.w3.org/2000/svg" height="1200" width="1600" version="1.1" xmlns:xlink="http://www.w3.org/1999/xlink" xmlns:svgjs="http://svgjs.com/svgjs"><rect fill="#ffffff" width="1600" height="1200"></rect><g><path d="M1139.76 943.22C1258.31 902.62 1288.81 743.99 1243.48 675.59 1198.15 607.18 1179.85 554.55 1192.92 465.84 1206 377.12 1170.26 298.94 1036.89 301.19 903.53 303.45 805.03 317.74 730.94 277.14 656.84 236.54 524.35 231.28 464.2 283.91 404.06 336.54 388.37 406.45 407.55 493.66 426.73 580.86 419.75 630.48 361.35 722.95 302.96 815.42 354.38 922.18 444.16 947.73 533.93 973.28 658.59 945.48 768.42 942.46 878.25 939.45 1021.22 983.82 1139.76 943.22Z" fill="#ffffcc" opacity="1" stroke-width="3" stroke="none"></path></g><g><path d="M604.91 468.35C642.78 468.35 673.48 437.65 673.48 399.78 673.48 361.92 642.78 331.21 604.91 331.21 567.04 331.21 536.34 361.92 536.34 399.78 536.34 437.65 567.04 468.35 604.91 468.35Z" fill="#79a947" opacity="1" stroke-width="3" stroke="none"></path><path d="M598.87 462.31C636.73 462.31 667.44 431.6 667.44 393.74 667.44 355.87 636.73 325.17 598.87 325.17 561 325.17 530.3 355.87 530.3 393.74 530.3 431.6 561 462.31 598.87 462.31Z" fill="#99c665" opacity="1" stroke-width="3" stroke="none"></path><path d="M661.91 366.73C668.07 381.11 669.13 397.15 664.91 412.21 660.7 427.26 651.46 440.43 638.75 449.52 626.02 458.62 610.57 463.08 594.96 462.2 579.35 461.31 564.51 455.1 552.9 444.63" stroke="#8dbb5e" stroke-width="3" stroke-linecap="round" stroke-linejoin="round" opacity="1" fill="none"></path><path d="M598.04 381.88C598.02 381.9 598 381.92 597.97 381.93 597.94 381.93 597.91 381.93 597.88 381.9 596.75 381.15 585.28 373.75 576.91 375.69 567.6 377.86 561.64 383.76 561.22 393.27 560.76 403.81 571.06 411.64 581.38 415.27 589.87 418.25 601.52 421.34 605.39 422.35 605.79 422.46 606.22 422.47 606.63 422.38 607.04 422.28 607.42 422.09 607.73 421.81V421.81C614.14 416.34 620.15 410.43 625.73 404.12 633.45 395.03 638.03 386.49 632.17 376.27 626.34 366.07 610.79 365.23 598.04 381.88Z" fill="#ffffcc" opacity="1" stroke-width="3" stroke="none"></path><path d="M610.29 419.57C615.77 414.76 620.92 409.61 625.73 404.13 628.31 401.24 630.53 398.06 632.39 394.66" stroke="#f8f884" stroke-width="3" stroke-linecap="round" stroke-linejoin="round" opacity="1" fill="none"></path></g><g><path d="M1087.12 443.34L890.9 443.28C886.28 443.28 881.84 441.61 878.58 438.65 875.31 435.68 873.47 431.66 873.47 427.46V245.67C873.47 241.47 875.31 237.45 878.58 234.48 881.84 231.52 886.28 229.85 890.9 229.85L1087.09 229.77C1091.73 229.79 1096.17 231.47 1099.44 234.44 1102.72 237.42 1104.56 241.46 1104.57 245.67V427.47C1104.57 431.68 1102.73 435.71 1099.45 438.68 1096.18 441.64 1091.75 443.33 1087.12 443.34V443.34Z" fill="#99c665" opacity="1" stroke-width="3" stroke="none"></path><path d="M1087.13 443.39C1087.1 443.39 1087.07 443.38 1087.05 443.36 1087.03 443.34 1087.01 443.32 1087.01 443.28 1087.01 443.25 1087.03 443.23 1087.05 443.21 1087.07 443.18 1087.1 443.17 1087.13 443.17 1087.23 443.17 1096.86 442.63 1096.86 432.67V247.08C1096.86 232.77 1087.21 229.98 1087.11 229.96 1087.07 229.95 1087.05 229.92 1087.04 229.9 1087.03 229.88 1087.01 229.86 1087.03 229.84 1087.03 229.8 1087.04 229.78 1087.06 229.76 1087.09 229.75 1087.11 229.74 1087.15 229.74 1091.79 229.74 1096.25 231.42 1099.55 234.41 1102.84 237.39 1104.69 241.44 1104.69 245.67V427.46C1104.69 431.69 1102.84 435.74 1099.54 438.72 1096.25 441.71 1091.79 443.39 1087.13 443.39Z" fill="#282828" opacity="1" stroke-width="3" stroke="none"></path></g><g><path d="M1003.52 290.84L967.83 307.2C967.48 307.36 967.1 307.41 966.73 307.36 964.45 307.04 955.49 305.76 943.54 303.76 929.63 301.45 920.55 312.46 920.17 320.77 919.83 328.08 923.9 336.01 934.41 340.66 934.74 340.8 935.02 341.06 935.19 341.38 935.36 341.7 935.42 342.07 935.35 342.43L932.67 358.15C932.4 359.56 932.7 361.02 933.49 362.22 934.27 363.42 935.49 364.27 936.89 364.59 937.6 364.74 938.34 364.74 939.04 364.59 939.75 364.45 940.43 364.16 941.03 363.75 941.62 363.34 942.13 362.81 942.52 362.2 942.91 361.6 943.17 360.91 943.3 360.2L945.75 345.84C945.79 345.62 945.87 345.41 946 345.22 946.12 345.02 946.29 344.86 946.48 344.74 946.67 344.61 946.89 344.53 947.12 344.5 947.34 344.46 947.57 344.47 947.79 344.53 954.12 346.2 957.91 347.01 959.38 347.43 959.84 347.56 960.23 347.84 960.49 348.24L982.13 383.92C983.52 385.82 986.3 384.33 986.83 382.06L1006.21 295.47C1006.64 293.62 1005.42 290.2 1003.52 290.84Z" fill="#006633" opacity="1" stroke-width="3" stroke="none"></path><path d="M966.92 309.76L959.67 344.62" stroke="#000000" stroke-width="3" stroke-linecap="round" stroke-linejoin="round" opacity="1" fill="none"></path><path d="M1003.94 290.65L1003.52 290.85 982.13 383.92 982.3 384.19C982.6 384.64 983.02 384.99 983.52 385.2 984.02 385.41 984.56 385.47 985.1 385.38 985.63 385.28 986.12 385.03 986.51 384.66 986.9 384.28 987.17 383.81 987.29 383.28L1007.79 293.78C1007.9 293.28 1007.87 292.75 1007.71 292.26 1007.54 291.78 1007.24 291.35 1006.84 291.02 1006.44 290.69 1005.95 290.48 1005.45 290.42 1004.93 290.35 1004.41 290.43 1003.94 290.65V290.65Z" fill="#99c665" opacity="1" stroke-width="3" stroke="none"></path><path d="M1050.95 304L1021.11 314.25C1021.07 314.27 1021.06 314.31 1021.07 314.34L1022.81 319.41C1022.82 319.45 1022.86 319.47 1022.89 319.45L1052.74 309.2C1052.77 309.19 1052.79 309.15 1052.78 309.12L1051.04 304.05C1051.03 304.01 1050.99 303.99 1050.95 304Z" fill="#006633" opacity="1" stroke-width="3" stroke="none"></path><path d="M1015 356.69L1009.74 360.08C1009.72 360.1 1009.7 360.14 1009.72 360.17L1026.79 386.71C1026.81 386.73 1026.85 386.74 1026.89 386.73L1032.14 383.34C1032.18 383.32 1032.18 383.28 1032.16 383.24L1015.1 356.71C1015.08 356.68 1015.04 356.67 1015 356.69Z" fill="#006633" opacity="1" stroke-width="3" stroke="none"></path><path d="M1023.06 337.01L1021.87 342.4C1021.87 342.43 1021.89 342.47 1021.92 342.48L1052.73 349.27C1052.77 349.27 1052.81 349.25 1052.81 349.21L1054 343.83C1054.01 343.79 1053.99 343.75 1053.95 343.74L1023.14 336.96C1023.11 336.95 1023.06 336.97 1023.06 337.01Z" fill="#006633" opacity="1" stroke-width="3" stroke="none"></path></g><g><path d="M1294.56 418.86C1294.55 416.46 1295.01 414.08 1295.93 411.86 1296.84 409.63 1298.18 407.61 1299.87 405.91 1301.56 404.2 1303.58 402.85 1305.8 401.92 1308.01 400.99 1310.39 400.51 1312.79 400.5L1371.41 400.3C1376.27 400.28 1380.92 402.2 1384.36 405.62 1387.81 409.03 1389.75 413.68 1389.77 418.53L1389.94 469.65C1389.96 474.51 1388.05 479.16 1384.62 482.6 1381.21 486.05 1376.56 487.99 1371.71 488.01L1337.02 488.13C1336.42 488.13 1335.86 488.35 1335.42 488.74L1320.06 502.41C1319.82 502.62 1319.53 502.76 1319.22 502.81 1318.91 502.86 1318.59 502.82 1318.3 502.68 1318.02 502.55 1317.77 502.35 1317.6 502.08 1317.43 501.82 1317.33 501.51 1317.33 501.2L1317.3 490.62C1317.3 489.98 1317.04 489.37 1316.58 488.91 1316.13 488.46 1315.52 488.21 1314.88 488.21L1313.09 488.22C1308.24 488.23 1303.58 486.32 1300.14 482.9 1296.69 479.48 1294.75 474.84 1294.74 469.98L1294.56 418.86Z" fill="#ffffcc" opacity="1" stroke-width="3" stroke="none"></path><path d="M1340.9 418.79C1340.91 418.79 1340.92 418.79 1340.93 418.79 1340.94 418.79 1340.95 418.79 1340.95 418.79 1341.51 419.25 1350.66 426.85 1351.54 438.72 1351.54 438.74 1351.55 438.76 1351.56 438.77 1351.57 438.78 1351.58 438.79 1351.6 438.8 1351.62 438.81 1351.63 438.81 1351.65 438.8 1351.67 438.79 1351.69 438.78 1351.7 438.77 1355.12 434.65 1359.54 431.48 1364.54 429.55 1364.56 429.54 1364.58 429.54 1364.6 429.55 1364.62 429.56 1364.64 429.58 1364.64 429.6 1367.67 436.08 1368.64 443.34 1367.45 450.41 1365.4 462.21 1356.74 470.51 1343.37 470.38 1330 470.26 1318.57 465.49 1315.81 450.75 1314.21 442.17 1316.55 432.49 1316.81 431.44 1316.82 431.42 1316.82 431.41 1316.83 431.4 1316.84 431.4 1316.85 431.39 1316.85 431.38 1316.86 431.38 1316.88 431.37 1316.89 431.37 1316.91 431.37 1316.92 431.37 1316.92 431.38 1317.86 431.72 1325.71 434.69 1330.52 440.02 1330.54 440.04 1330.55 440.05 1330.57 440.05 1330.58 440.06 1330.61 440.06 1330.62 440.05 1330.63 440.04 1330.65 440.03 1330.66 440.01 1330.67 440.01 1330.68 439.99 1330.68 439.97 1330.69 438.16 1331.15 426.11 1340.9 418.79Z" fill="#99c665" opacity="1" stroke-width="3" stroke="none"></path><path d="M1355.1 445.38C1355.09 445.36 1355.08 445.35 1355.07 445.34 1355.07 445.33 1355.06 445.32 1355.04 445.32 1355.03 445.31 1355.01 445.31 1355 445.32 1354.99 445.32 1354.98 445.32 1354.97 445.33 1354.3 445.82 1350.03 448.98 1348.12 452.2 1348.11 452.21 1348.11 452.23 1348.09 452.23 1348.07 452.24 1348.05 452.25 1348.04 452.24 1348.02 452.24 1348 452.23 1347.99 452.21 1347.98 452.2 1347.97 452.19 1347.97 452.17 1347.66 450.57 1345.72 441.22 1341.44 438.35 1341.43 438.35 1341.4 438.34 1341.38 438.35 1341.36 438.35 1341.34 438.36 1341.32 438.38 1340.82 439.07 1336.73 445 1336.17 452.2 1336.17 452.21 1336.16 452.24 1336.15 452.25 1336.14 452.27 1336.13 452.27 1336.11 452.27 1336.08 452.28 1336.06 452.28 1336.05 452.27 1336.03 452.27 1336.02 452.25 1336.01 452.24 1335.4 451.17 1332.81 447.1 1328.19 445.72 1328.17 445.71 1328.14 445.71 1328.13 445.72 1328.1 445.73 1328.09 445.75 1328.08 445.77 1327.67 446.94 1323.06 460.95 1336.65 464.85 1351.56 469.12 1360.49 458.27 1355.1 445.38Z" fill="#ffffcc" opacity="1" stroke-width="3" stroke="none"></path></g><g><path d="M513.28 946.3C464.04 955.7 374.47 963.37 318.38 931.6 318.28 931.54 318.65 931.61 323.37 867.25 324.31 854.42 327.17 844.93 331.45 836.84 335.32 829.52 336.08 814.81 336.18 812.1 336.18 812.07 336.17 812.04 336.16 812.03 336.15 812.01 336.13 811.99 336.11 811.99 336.08 811.98 336.06 811.98 336.03 811.99 336.01 812 335.99 812.02 335.98 812.04 334.82 814.08 329.06 824.14 321.72 835.67 315.64 845.2 308.44 855.78 301.99 863.44 286.78 881.49 259.22 887.66 240.22 879.6 221.21 871.52 214.56 859.16 206.95 836.37 199.97 815.42 192.37 780.77 191.79 778.11 191.78 778.09 191.78 778.07 191.79 778.06 191.79 778.04 191.8 778.03 191.81 778.01 191.82 777.99 191.84 777.98 191.87 777.98 191.88 777.98 191.9 777.97 191.91 777.98 194.53 778.55 227.83 785.23 231.63 755.38 231.64 755.36 231.64 755.34 231.67 755.33 231.68 755.31 231.7 755.3 231.72 755.3 231.73 755.29 231.75 755.29 231.77 755.3 231.79 755.3 231.8 755.31 231.83 755.33L258.67 788.76C258.68 788.77 258.69 788.78 258.71 788.79 258.72 788.79 258.74 788.8 258.75 788.8 258.78 788.8 258.79 788.79 258.81 788.79 258.82 788.78 258.83 788.77 258.84 788.76 259.5 787.87 264.15 781.52 272.05 767.49 280.61 752.28 291.53 734.71 305.32 705.72 319.11 676.72 330.1 670.42 361.38 653.93 371.03 648.84 382.58 642.27 393.21 636.24L426.94 616.89C426.95 616.89 426.97 616.88 426.98 616.89 427.87 616.96 466 619.77 472.56 622.59 479.21 625.43 479.68 633.99 500.59 645.87 521.5 657.76 539.07 670.59 556.18 700.52 573.28 730.45 596.57 777.49 605.12 807.89 613.67 838.3 623.66 866.33 598.94 882.02 575.27 897.04 545.95 887.19 543.51 886.34 543.5 886.33 543.48 886.33 543.46 886.33 543.44 886.34 543.43 886.34 543.4 886.36 543.39 886.37 543.38 886.38 543.37 886.4 543.37 886.41 543.37 886.44 543.37 886.46 543.96 891 544.78 895.52 545.83 899.99 546.09 901.07 546.39 902.28 546.69 903.41 556.58 940.85 551.33 939.04 513.28 946.3Z" fill="#006633" opacity="1" stroke-width="3" stroke="none"></path><path d="M409.98 650.1C411.21 650.1 412.53 650.05 413.9 649.98 435.75 648.8 446.96 639.47 450.64 636.4 451.05 635.99 451.51 635.65 452.01 635.37 452.03 635.37 452.06 635.37 452.08 635.36 452.1 635.34 452.11 635.33 452.12 635.31 452.12 635.29 452.12 635.27 452.12 635.25 452.12 635.23 452.11 635.2 452.09 635.19L438.19 622.36C438.18 622.36 438.1 622.36 437.98 622.36 430.16 622.47 422.36 623.01 414.61 623.97 408.21 627.68 400.68 631.55 393.21 636.25 392.07 639.98 392.37 642.98 394.04 645.21 396.47 648.46 401.83 650.11 409.98 650.11L409.98 650.1Z" fill="#000a05" opacity="1" stroke-width="3" stroke="none"></path><path d="M464.69 628.2C464.7 628.22 464.7 628.24 464.69 628.27 464.69 628.29 464.68 628.31 464.66 628.32 463.27 629.45 437.36 649.95 400.66 636.16 400.64 636.14 400.61 636.12 400.6 636.11 400.59 636.09 400.58 636.07 400.58 636.05L401 630.25 401.76 619.83C401.76 619.82 401.76 619.8 401.75 619.79 401.75 619.78 401.74 619.77 401.74 619.76 401.73 619.75 401.72 619.74 401.69 619.72 401.68 619.72 401.67 619.71 401.66 619.71 400.23 619.61 384.72 618.06 371.38 598.58 357.35 578.14 362.82 564.61 360.92 545.36 360.2 538.16 359.31 529.88 359.24 521.4 359.14 507.2 361.39 492.32 370.91 480.28 386.11 461.04 406.31 450.82 443.13 455.09 479.95 459.37 508.84 483.58 499.84 534.64 499.84 534.66 499.84 534.69 499.86 534.72 501.08 536.61 501.75 538.8 501.78 541.05 501.78 541.08 501.79 541.1 501.8 541.11 504.42 545.06 506.67 552.26 500.15 562.49 492.76 574.07 483.67 577.44 478.92 578.51 477.13 578.92 475.93 579.09 475.71 579.12 475.69 579.12 475.68 579.13 475.66 579.14 475.04 579.71 463.18 590.67 459.76 597.92 459.58 598.31 459.42 598.7 459.28 599.07 456.72 606.16 464.19 626.83 464.69 628.2Z" fill="#cd7242" opacity="1" stroke-width="3" stroke="none"></path><path d="M486.93 465.06C493.79 465.06 500.49 463.03 506.2 459.21 511.9 455.4 516.35 449.98 518.97 443.65 521.6 437.32 522.28 430.34 520.94 423.61 519.61 416.89 516.3 410.71 511.45 405.86 506.6 401 500.42 397.7 493.69 396.36 486.97 395.03 480 395.71 473.66 398.34 467.32 400.96 461.9 405.41 458.1 411.11 454.29 416.81 452.25 423.52 452.25 430.38 452.26 439.57 455.91 448.39 462.41 454.89 468.92 461.39 477.73 465.05 486.93 465.06V465.06Z" fill="#333333" opacity="1" stroke-width="3" stroke="none"></path><path d="M486.93 464.95C467.83 464.95 452.35 449.47 452.35 430.38 452.35 411.29 467.83 395.81 486.93 395.81 506.02 395.81 521.5 411.29 521.5 430.38 521.5 449.47 506.02 464.95 486.93 464.95Z" fill="#171717" opacity="1" stroke-width="3" stroke="none"></path><path d="M398.01 473.43C397.99 473.41 397.98 473.4 397.96 473.4 397.94 473.39 397.92 473.39 397.9 473.4 396.35 473.83 367.17 482.7 359.36 520.82 359.35 520.85 359.34 520.87 359.32 520.89 359.31 520.91 359.27 520.93 359.24 520.93 359.22 520.93 359.19 520.91 359.17 520.89 359.15 520.87 359.14 520.84 359.15 520.82 358.37 515.77 353.41 479.28 370.4 460.05 388.68 439.38 436.21 423.47 465.91 438.2 495.61 452.94 508.44 473.85 509.14 502.82 509.8 530 502.74 539.86 501.86 540.98 501.85 540.99 501.84 541 501.82 541.01 501.81 541.01 501.8 541.02 501.78 541.02 501.77 541.02 501.74 541.01 501.73 541.01 501.71 541 501.7 540.99 501.69 540.98 501.05 540.11 496.48 534.44 486.88 531.59 486.86 531.58 486.84 531.58 486.83 531.59 486.81 531.59 486.79 531.6 486.78 531.63 485.77 532.67 468.23 551.02 466.38 549.87 464.48 548.7 464.71 527.3 463.54 525.41 462.34 523.51 438.82 517.57 422.91 500.46 407.66 484.05 398.71 474.2 398.01 473.43Z" fill="#333333" opacity="1" stroke-width="3" stroke="none"></path><path d="M413.69 544.4C413.47 541.53 414.83 539.09 416.73 538.95 418.63 538.81 420.34 541.02 420.55 543.9 420.77 546.76 419.4 549.21 417.5 549.35 415.6 549.49 413.89 547.28 413.69 544.4Z" fill="#333333" opacity="1" stroke-width="3" stroke="none"></path><path d="M377.58 545.94C377.37 543.06 378.73 540.63 380.63 540.49 382.53 540.35 384.24 542.56 384.45 545.44 384.65 548.31 383.3 550.75 381.39 550.89 379.5 551.03 377.79 548.82 377.58 545.94Z" fill="#333333" opacity="1" stroke-width="3" stroke="none"></path><path d="M434.07 522.19C431.62 522.57 428.02 519.34 418.17 519.58 408.31 519.81 404.27 523.15 402.84 522.19 401.41 521.25 400.23 519.21 401.06 518.38 401.9 517.55 409.02 513.98 419.24 514.23 429.43 514.47 436.32 521.84 434.07 522.19Z" fill="#171717" opacity="1" stroke-width="3" stroke="none"></path><path d="M388.81 518.87C389.15 519.36 389.52 522.68 388.68 522.44 384.48 521.22 380.09 520.79 375.73 521.14 369.78 521.84 365.04 525.65 364.57 524.58 364.1 523.51 369.91 518.3 374.79 517.23 379.66 516.14 387.74 517.33 388.81 518.87Z" fill="#171717" opacity="1" stroke-width="3" stroke="none"></path><path d="M393.79 542.86C393.79 542.86 389.28 554.75 387.25 558.66 385.24 562.57 385.24 566.02 392.36 571.36" stroke="#6d3516" stroke-width="3" stroke-linecap="round" stroke-linejoin="round" opacity="1" fill="none"></path><path d="M391.31 582.18C391.31 582.18 404.61 585.02 416.5 579.1 428.39 573.18 424.11 589.56 405.34 591.69" stroke="#6d3516" stroke-width="3" stroke-linecap="round" stroke-linejoin="round" opacity="1" fill="none"></path><path d="M492.04 547.74C492.04 547.74 481.11 550.11 479.44 561.76" stroke="#6d3516" stroke-width="3" stroke-linecap="round" stroke-linejoin="round" opacity="1" fill="none"></path><path d="M401 630.25C401.03 626.74 401.29 623.22 401.76 619.72 401.76 619.72 415.28 621.07 423.83 616.07 432.06 611.28 431.27 629.61 401 630.25Z" fill="#6d3516" opacity="1" stroke-width="3" stroke="none"></path><path d="M401.76 619.72C401.76 619.72 415.28 621.07 423.83 616.07" stroke="#6d3516" stroke-width="3" stroke-linecap="round" stroke-linejoin="round" opacity="1" fill="none"></path><path d="M518.87 852.04C518.87 832.8 520.77 812.36 520.77 812.36L527.81 809.52C527.27 857.03 525.24 857.87 543.35 886.28 543.35 886.28 544.26 892.2 545.83 899.98 542.35 898.14 538.54 896.09 534.54 894.1 517.46 885.55 518.87 871.29 518.87 852.04Z" fill="#000a05" opacity="1" stroke-width="3" stroke="none"></path><path d="M527.48 833.58C527.29 858.54 528.97 863.72 543.35 886.28" stroke="#000a05" stroke-width="3" stroke-linecap="round" stroke-linejoin="round" opacity="1" fill="none"></path><path d="M336.19 811.66C334.77 802.17 331.37 786 332.34 767.24 328.47 779.76 324.54 801.48 321.72 835.66 327.28 828.12 332.13 820.09 336.19 811.66V811.66Z" fill="#000a05" opacity="1" stroke-width="3" stroke="none"></path><path d="M601.31 822.01C601.31 822.01 595.6 821.64 589.19 814.89 585.9 811.45 581.76 808.96 577.18 807.65 572.62 806.33 567.79 806.25 563.17 807.4" stroke="#000a05" stroke-width="3" stroke-linecap="round" stroke-linejoin="round" opacity="1" fill="none"></path><path d="M258.75 788.87C258.75 788.87 271.69 799.53 277.4 808.81 281.29 815.42 284.64 822.34 287.38 829.49" stroke="#000a05" stroke-width="3" stroke-linecap="round" stroke-linejoin="round" opacity="1" fill="none"></path><path d="M336.19 811.66C334.77 802.17 331.37 786 332.34 767.24 332.94 751.64 337.06 736.38 344.38 722.59" stroke="#000a05" stroke-width="3" stroke-linecap="round" stroke-linejoin="round" opacity="1" fill="none"></path><path d="M384.3 800.62C384.3 800.62 369.33 825.21 347.95 831.26" stroke="#000a05" stroke-width="3" stroke-linecap="round" stroke-linejoin="round" opacity="1" fill="none"></path><path d="M478.77 578.71C478.79 578.68 478.79 578.67 478.79 578.65 478.8 578.63 478.79 578.61 478.78 578.59 478.77 578.57 478.76 578.56 478.74 578.55 478.72 578.53 478.7 578.53 478.67 578.53 467.87 579.38 465.1 582.28 459.87 597.58 459.87 597.61 459.87 597.63 459.87 597.65 459.88 597.68 459.89 597.69 459.91 597.71 459.93 597.72 459.96 597.73 459.98 597.73 460 597.73 460.02 597.72 460.04 597.71 467.04 592.16 473.33 585.78 478.77 578.71Z" fill="#333333" opacity="1" stroke-width="3" stroke="none"></path><path d="M173.42 805.07L328.28 907.16C330.4 908.55 332.9 909.22 335.42 909.05L503.26 897.69C503.9 897.65 504.52 897.41 505.03 897.02 505.52 896.61 505.89 896.07 506.06 895.45L557.27 720.88C557.42 720.39 557.44 719.87 557.34 719.38 557.25 718.88 557.02 718.42 556.7 718.02 556.38 717.64 555.96 717.33 555.51 717.12 555.03 716.93 554.52 716.86 554.02 716.9L398.16 728.94C397.49 728.98 396.82 728.82 396.25 728.47L274.32 651.9C273.62 651.46 272.78 651.31 271.98 651.49 271.18 651.67 270.47 652.15 270.02 652.84L239.46 700.09 209.39 735.7 191.02 773.27 172.51 800.75C172.07 801.45 171.92 802.29 172.09 803.1 172.26 803.91 172.74 804.61 173.42 805.07V805.07Z" fill="#99c665" opacity="1" stroke-width="3" stroke="none"></path><path d="M180.13 796.99C180.13 797 180.13 797.02 180.13 797.03 180.14 797.05 180.15 797.06 180.16 797.08 182.96 798.91 332.83 901.43 332.83 901.43 332.85 901.44 332.87 901.46 332.89 901.46L499.68 892.2C499.7 892.2 499.72 892.19 499.74 892.18 499.76 892.17 499.78 892.14 499.78 892.12L551.41 717.66C551.42 717.64 551.42 717.63 551.42 717.6 551.41 717.58 551.41 717.57 551.39 717.56L547.42 712.9C547.42 712.89 547.41 712.88 547.39 712.87 547.38 712.86 547.37 712.86 547.35 712.86 545.25 712.86 474 712.92 443.1 710.12 413.19 707.41 397.23 722.83 395.8 724.28 395.78 724.3 395.74 724.31 395.71 724.31 395.7 724.31 395.68 724.3 395.66 724.29 395.65 724.28 395.64 724.25 395.63 724.24 394.77 722.55 385.6 705.2 370.04 699.43 353.97 693.48 279.25 656.67 276.41 655.28 276.39 655.27 276.37 655.27 276.34 655.27 276.32 655.28 276.3 655.29 276.28 655.31 275.3 656.73 260.69 678.02 243.13 703.67L217.7 740.6 192.38 778.23C186.87 786.41 182.8 792.53 181 795.38 180.66 795.88 180.36 796.42 180.13 796.99V796.99Z" fill="#99cb65" opacity="1" stroke-width="3" stroke="none"></path><path d="M499.77 892.3C499.79 892.3 499.81 892.29 499.82 892.28 499.84 892.27 499.85 892.25 499.86 892.23L551.5 717.69C551.51 717.67 551.51 717.66 551.5 717.64 551.5 717.61 551.49 717.6 551.47 717.59L547.46 712.87C547.44 712.86 547.42 712.85 547.4 712.85 547.39 712.84 547.37 712.84 547.35 712.84 547.33 712.85 547.32 712.85 547.31 712.87 547.28 712.88 547.27 712.89 547.27 712.91L495.06 886.33C495.05 886.35 495.04 886.37 495.02 886.38 495.01 886.39 494.99 886.4 494.97 886.4 494.04 886.42 489.07 886.53 481.44 886.53 465.5 886.53 441.2 886.09 416.02 884.03 401.91 882.88 388.26 881.83 376.52 881.83 354.23 881.83 341.45 885.84 335.2 894.82 335.19 894.83 335.18 894.84 335.16 894.85 335.14 894.86 335.11 894.86 335.09 894.86 335.07 894.85 335.06 894.84 335.04 894.83 335.03 894.82 335.02 894.8 335.02 894.77 333.92 890.63 332.05 886.71 329.51 883.24 325.01 876.68 315.93 866.79 298.24 856.95 270.09 841.31 201.45 805.85 181.09 795.35 181.08 795.34 181.06 795.34 181.05 795.34 181.03 795.34 181 795.34 180.99 795.35 180.98 795.37 180.96 795.38 180.95 795.4 179.98 796.95 180 797.01 180.02 797.09 180.36 798.16 317.21 890.97 332.81 901.54 332.83 901.55 332.85 901.56 332.87 901.56L499.77 892.3Z" fill="#ffffff" opacity="1" stroke-width="3" stroke="none"></path><path d="M546.86 714.28L495.06 886.33C495.05 886.35 495.04 886.37 495.02 886.38 495.01 886.39 494.99 886.4 494.97 886.4 494.04 886.42 489.07 886.53 481.44 886.53 465.5 886.53 441.2 886.09 416.02 884.03 401.91 882.88 388.26 881.83 376.52 881.83 354.23 881.83 341.45 885.84 335.2 894.82 335.19 894.83 335.18 894.84 335.16 894.85 335.14 894.86 335.11 894.86 335.09 894.86 335.07 894.85 335.06 894.84 335.04 894.83 335.03 894.82 335.02 894.8 335.02 894.77 333.92 890.63 332.05 886.71 329.51 883.24 325.01 876.68 315.93 866.79 298.24 856.95 270.46 841.53 203.29 806.8 181.93 795.79" stroke="#ffffff" stroke-width="3" stroke-linecap="round" stroke-linejoin="round" opacity="1" fill="none"></path><path d="M529.54 728.64C529.56 728.64 529.57 728.64 529.59 728.65 529.6 728.66 529.61 728.67 529.62 728.68 529.63 728.69 529.65 728.71 529.65 728.72 529.66 728.74 529.66 728.75 529.65 728.78L485.17 870.37C485.16 870.39 485.15 870.41 485.13 870.43 485.11 870.44 485.09 870.44 485.07 870.44 464.24 870.02 443.45 868.47 422.79 865.81 392.47 861.73 363.11 865.45 360.6 865.79 360.58 865.79 360.56 865.79 360.55 865.78 360.53 865.77 360.51 865.76 360.49 865.75 360.48 865.74 360.48 865.72 360.47 865.7 360.47 865.69 360.47 865.66 360.48 865.64L409.22 731.15C409.23 731.13 409.24 731.11 409.27 731.1 410.21 730.57 430.09 719.84 466.59 724.7 502.35 729.46 527.38 728.72 529.54 728.64Z" fill="#ffffff" opacity="1" stroke-width="3" stroke="none"></path><path d="M395.42 725.59L335.06 895.02" stroke="#ffffff" stroke-width="3" stroke-linecap="round" stroke-linejoin="round" opacity="1" fill="none"></path><path d="M318.38 695.86C306.24 691.62 294.74 685.74 284.18 678.39" stroke="#ffffff" stroke-width="3" stroke-linecap="round" stroke-linejoin="round" opacity="1" fill="none"></path><path d="M310.9 710.83C310.9 710.83 292.02 706.19 275.99 694.79" stroke="#ffffff" stroke-width="3" stroke-linecap="round" stroke-linejoin="round" opacity="1" fill="none"></path><path d="M303.76 725.43C291.28 721.54 279.31 716.15 268.12 709.39" stroke="#ffffff" stroke-width="3" stroke-linecap="round" stroke-linejoin="round" opacity="1" fill="none"></path><path d="M294.87 745.04C282.39 741.14 270.42 735.76 259.22 729" stroke="#ffffff" stroke-width="3" stroke-linecap="round" stroke-linejoin="round" opacity="1" fill="none"></path><path d="M346.18 802.76C346.18 802.76 328.37 782.09 294.87 769.99 261.36 757.89 243.92 749.31 243.92 749.31" stroke="#ffffff" stroke-width="3" stroke-linecap="round" stroke-linejoin="round" opacity="1" fill="none"></path><path d="M333.35 826.62C333.35 826.62 315.54 805.95 282.04 793.85 248.53 781.72 231.09 773.17 231.09 773.17" stroke="#ffffff" stroke-width="3" stroke-linecap="round" stroke-linejoin="round" opacity="1" fill="none"></path><path d="M378.55 727.15C378.56 727.17 378.57 727.18 378.57 727.2 378.58 727.23 378.57 727.25 378.57 727.26L354.77 783.02C354.76 783.03 354.75 783.04 354.74 783.05 354.73 783.07 354.71 783.07 354.7 783.08 354.68 783.08 354.67 783.08 354.65 783.08 354.62 783.07 354.61 783.06 354.6 783.05 340.99 771.72 325.51 762.85 308.86 756.83 308.85 756.83 308.84 756.82 308.83 756.81 308.81 756.79 308.81 756.78 308.8 756.77 308.8 756.75 308.78 756.74 308.78 756.72 308.8 756.71 308.8 756.7 308.81 756.68L336.14 705.18C336.15 705.16 336.16 705.14 336.18 705.14 336.21 705.13 336.23 705.12 336.25 705.12 352.66 706.75 367.81 714.64 378.55 727.15V727.15Z" fill="#ffffff" opacity="1" stroke-width="3" stroke="none"></path><path d="M565.67 804.54V804.54C565.78 804.77 573.1 820.31 565.67 832.33 558.19 844.45 546.07 846.23 540.38 844.8 520.74 839.87 525.88 820.28 525.78 819.59 525.41 817.09 519.25 817.45 518.63 817.09 518.01 816.72 510.08 813.97 508.03 812 505.98 810.03 506.6 804.78 510.17 804.6H510.18L513.73 804C513.75 804 513.77 803.99 513.78 803.97 513.8 803.95 513.81 803.93 513.81 803.91 513.81 803.89 513.8 803.85 513.79 803.84 513.78 803.82 513.76 803.81 513.74 803.8 512.38 803.36 511.08 802.74 509.89 801.96 506.97 800.18 505.28 792.2 513.86 791.55 513.88 791.55 513.91 791.54 513.93 791.52 513.95 791.5 513.96 791.47 513.96 791.44 513.96 791.42 513.95 791.39 513.94 791.37 513.92 791.35 513.89 791.33 513.87 791.33 511.8 790.94 507.75 789.69 508.01 786.03 508.31 782 513.29 780.06 515.06 779.49 515.09 779.48 515.11 779.46 515.12 779.44 515.13 779.43 515.14 779.39 515.14 779.37 515.13 779.35 515.12 779.32 515.11 779.31 515.09 779.29 515.06 779.28 515.03 779.28 513.64 779.16 510.47 778.54 510.33 775.34 510.16 771.24 515.93 769.91 521.47 768.56 526.98 767.24 534.47 765.53 539.02 764.91 543.57 764.29 548.73 767.41 552.21 775.32 555.71 783.24 560.24 791.26 565.67 804.54Z" fill="#cd7242" opacity="1" stroke-width="3" stroke="none"></path><path d="M191.02 773.27L213.6 740.08 217.7 740.6C221.81 740.96 225.94 740.9 230.02 740.41 232.76 740.02 234.72 739.26 235.02 737.32 235.39 734.94 231.36 732.26 229.5 731.16 229.47 731.15 229.46 731.13 229.45 731.1 229.44 731.07 229.44 731.04 229.45 731.02 229.46 731 229.48 730.98 229.51 730.97 229.54 730.96 229.56 730.96 229.58 730.97 232.25 731.78 239.47 733.74 241.2 731.61 241.79 730.87 242.13 729.96 242.2 729.02 242.26 728.08 242.03 727.14 241.55 726.33 241.54 726.32 241.54 726.3 241.54 726.27 241.54 726.25 241.54 726.24 241.55 726.22 241.56 726.2 241.59 726.19 241.61 726.18 241.62 726.17 241.64 726.17 241.66 726.17 242.56 726.33 243.48 726.23 244.32 725.89 245.17 725.55 245.89 724.97 246.42 724.23 247.93 721.87 247.09 718.71 246.92 718.14 246.92 718.12 246.92 718.09 246.93 718.06 246.93 718.04 246.95 718.02 246.97 718.01 249.08 718.65 250.77 716.01 249.03 712.11 247.7 708.9 245.68 706.03 243.13 703.67 242.13 702.66 240.93 701.48 239.46 700.09 239.03 699.69 238.58 699.26 238.1 698.81 230.25 691.46 227.58 690.58 221.94 691.46 215.82 692.41 205.78 711.49 205.56 711.91 205.56 711.92 205.56 711.92 205.55 711.93 205.31 712.16 197.71 719.84 196.07 725.69 191.47 742 189.1 756.07 191.02 773.27Z" fill="#cd7242" opacity="1" stroke-width="3" stroke="none"></path><path d="M546.19 781.96C546.19 781.96 542.15 777.08 538.58 775.67 535.01 774.24 515.68 779.3 515.68 779.3" stroke="#6d3516" stroke-width="3" stroke-linecap="round" stroke-linejoin="round" opacity="1" fill="none"></path><path d="M543.59 796.22C543.59 796.22 539.91 790.04 534.67 788.87 529.45 787.67 515.02 791.5 515.02 791.5" stroke="#6d3516" stroke-width="3" stroke-linecap="round" stroke-linejoin="round" opacity="1" fill="none"></path><path d="M540.98 810.01C540.98 810.01 536.94 805.97 533.62 804.54 530.31 803.1 517.84 803.91 514.27 803.91" stroke="#6d3516" stroke-width="3" stroke-linecap="round" stroke-linejoin="round" opacity="1" fill="none"></path><path d="M246.08 717.1C246.08 717.1 231.92 704.05 227.15 701.44 222.41 698.83 214.33 700.74 214.33 700.74" stroke="#6d3516" stroke-width="3" stroke-linecap="round" stroke-linejoin="round" opacity="1" fill="none"></path><path d="M240.55 725.33C240.55 725.33 226.45 715.94 219.54 711.9 217.61 710.73 215.39 710.11 213.13 710.11 210.87 710.11 208.65 710.73 206.71 711.9" stroke="#6d3516" stroke-width="3" stroke-linecap="round" stroke-linejoin="round" opacity="1" fill="none"></path><path d="M228.59 730.65C224.65 728.43 220.52 726.61 216.23 725.17 212.26 723.73 207.94 723.56 203.87 724.7" stroke="#6d3516" stroke-width="3" stroke-linecap="round" stroke-linejoin="round" opacity="1" fill="none"></path><path d="M207.2 747.13L205.52 741.17C205.44 740.87 205.43 740.56 205.51 740.26 205.58 739.96 205.73 739.68 205.94 739.46 206.16 739.24 206.43 739.07 206.72 738.98 207.02 738.9 207.33 738.89 207.63 738.95 209.6 739.43 211.59 739.81 213.6 740.08" stroke="#6d3516" stroke-width="3" stroke-linecap="round" stroke-linejoin="round" opacity="1" fill="none"></path></g><g><path d="M1212.25 761.86C1212.26 761.87 1212.28 761.89 1212.29 761.9 1212.31 761.91 1212.32 761.93 1212.35 761.93 1212.37 761.93 1212.4 761.93 1212.41 761.93 1212.42 761.91 1212.45 761.91 1212.47 761.9 1213.85 760.75 1226.71 750.11 1236.08 743.6 1244.44 737.83 1250.13 728.92 1252 718.64 1253.45 710.44 1255.68 699.23 1258.39 695.95 1261.09 692.66 1277.78 675.24 1280.82 672.28 1283.74 669.44 1282.42 664.77 1278.4 666.16 1278.37 666.17 1278.34 666.17 1278.31 666.16 1278.28 666.14 1278.25 666.13 1278.23 666.1 1278.22 666.07 1278.2 666.04 1278.2 666.01 1278.2 665.98 1278.21 665.95 1278.22 665.92 1280.31 663.05 1280.55 658.81 1274.62 659.16 1274.59 659.16 1274.56 659.16 1274.53 659.15 1274.5 659.13 1274.49 659.1 1274.47 659.07 1274.46 659.04 1274.45 659.01 1274.45 658.98 1274.46 658.95 1274.48 658.92 1274.49 658.91 1276.99 656.56 1276.12 651.28 1269.84 652.79 1269.81 652.79 1269.78 652.79 1269.75 652.79 1269.73 652.77 1269.71 652.76 1269.68 652.73 1269.66 652.71 1269.66 652.68 1269.65 652.65 1269.64 652.62 1269.66 652.59 1269.67 652.56 1270.51 650.82 1270.77 646.28 1263.65 648.94H1263.63C1256.65 650.92 1232.93 658.79 1227.31 661.75 1221.68 664.71 1218.39 668.97 1217.66 673.26 1216.96 677.52 1208.47 702.84 1207.59 709.41 1206.76 715.63 1190.36 724.86 1188.72 725.78 1188.69 725.78 1188.67 725.79 1188.66 725.81 1188.66 725.82 1188.65 725.85 1188.65 725.87 1188.63 725.88 1188.64 725.91 1188.64 725.93 1188.64 725.94 1188.65 725.97 1188.67 725.99L1212.25 761.86Z" fill="#eca179" opacity="1" stroke-width="3" stroke="none"></path><path d="M950.76 933.17C950.76 933.18 950.77 933.21 950.78 933.24 950.81 933.25 950.83 933.28 950.86 933.28 954.5 934.73 1070.84 980.02 1139.95 904.34 1139.97 904.32 1139.96 904.31 1139.98 904.31 1140.25 903.79 1147.31 890.27 1136.48 878.68 1131.68 873.62 1127.43 868.07 1123.8 862.11 1119.86 855.42 1117.81 849.18 1118.95 844.48 1120.71 837.2 1120.96 836.12 1121 835.97 1121.01 835.94 1121.01 835.93 1121.02 835.91L1150.01 796.08 1159.59 782.89C1159.61 782.87 1159.63 782.86 1159.66 782.84 1159.68 782.83 1159.71 782.83 1159.73 782.83 1159.75 782.84 1159.78 782.84 1159.79 782.86 1159.82 782.87 1159.84 782.9 1159.84 782.92L1184.84 835.87C1184.84 835.88 1184.87 835.91 1184.88 835.93 1184.9 835.94 1184.93 835.94 1184.94 835.96 1187.1 836.31 1231.8 843.29 1243.48 802.47 1243.48 802.44 1243.48 802.41 1243.47 802.38 1242.91 800.77 1227.71 756.38 1217.89 719.58 1207.89 682.1 1200.22 661.72 1178.16 648.59 1174 646.12 1169.14 643.41 1164.84 640.76 1153.09 633.34 1142.04 624.77 1131.86 615.17 1131.84 615.14 1131.81 615.13 1131.78 615.13L1049.1 603.89C1049.08 603.89 1049.05 603.89 1049.02 603.9 1047.68 604.52 1009.32 622.44 997.79 630.82 986.06 639.37 977.98 655.14 973.63 679.45 969.29 703.77 962.64 722.17 956.9 755.07 951.15 787.96 942.98 868.1 950.76 933.17Z" fill="#006633" opacity="1" stroke-width="3" stroke="none"></path><path d="M1157.18 607.11C1157.18 607.11 1158.94 604.15 1162.26 598.98 1165.17 594.45 1171.71 593.92 1177.98 595.68 1178.88 595.93 1179.87 596.18 1180.75 596.52 1187.67 599.24 1204.44 604.42 1212.42 592.32 1220.41 580.25 1219.44 564.22 1222.7 558.06 1225.96 551.91 1231.94 554.87 1233.53 548.95 1235.12 543.04 1222.42 536.88 1221.19 528.48 1220.17 521.65 1220 514.77 1220.68 508.01 1220.84 505.36 1221.73 499.65 1221.74 492.82 1223.83 476.03 1218.09 460.92 1196.74 451.57 1164.69 437.52 1133.85 435.3 1114.67 442.19 1095.49 449.08 1079.55 477.45 1089.17 512.95 1098.79 548.45 1100.97 548.45 1104.23 558.3 1107.49 568.15 1101.22 576.79 1097.59 584.42 1093.87 592.08 1157.18 607.11 1157.18 607.11Z" fill="#eca179" opacity="1" stroke-width="3" stroke="none"></path><path d="M1057.05 620.7C1057.07 620.69 1057.08 620.69 1057.11 620.69 1057.12 620.69 1057.15 620.69 1057.17 620.7 1058.07 621.18 1068.81 626.46 1094.11 624.11 1120.58 621.65 1133.08 620.65 1139.65 625.08 1145.91 629.33 1163.09 639.83 1164.66 640.79 1164.69 640.81 1164.73 640.82 1164.76 640.81 1164.8 640.81 1164.83 640.78 1164.86 640.75 1165.63 639.64 1172.32 629.73 1171.57 617.18 1170.77 603.87 1138.74 594.02 1118.88 585.62 1101.4 578.33 1083.58 572.07 1065.5 566.89V566.89C1053.19 563.43 1048.91 572.31 1046.39 578.73 1043.87 585.15 1042.54 587.1 1036.01 591.06 1029.95 594.72 1031.64 603.09 1031.91 604.26 1031.92 604.3 1031.92 604.33 1031.89 604.36 1031.88 604.39 1031.85 604.42 1031.81 604.43 1030.29 604.79 1016.16 608.22 1006.96 614.73 997.21 621.62 978.19 634.93 972.24 665.02 966.3 695.1 973.97 702 962.06 721.22 954.76 733.5 950.33 747.42 949.06 762 949.05 762.05 949.06 762.08 949.08 762.11 949.11 762.15 949.14 762.17 949.17 762.17 954.3 763.22 959.46 763.87 964.64 764.12 971 764.58 977.35 765.57 983.63 767.08 983.66 767.08 983.7 767.08 983.73 767.06 984.85 766.41 1005.49 754.34 1014.34 721.73 1023.43 688.24 1026.43 634.06 1057.05 620.7Z" fill="#99c665" opacity="1" stroke-width="3" stroke="none"></path><path d="M1172.31 498.53C1172.35 498.49 1172.37 498.46 1172.43 498.43 1172.47 498.41 1172.53 498.4 1172.57 498.4 1175.04 498.31 1204.59 496.77 1215.38 470.78 1215.4 470.75 1215.41 470.74 1215.44 470.72 1215.45 470.71 1215.48 470.69 1215.51 470.69 1215.54 470.69 1215.55 470.69 1215.58 470.71 1215.6 470.72 1215.63 470.74 1215.64 470.77 1218.77 475.75 1220.71 481.37 1221.29 487.13 1221.54 488.95 1221.69 490.77 1221.74 492.58 1221.75 492.61 1221.75 492.64 1221.76 492.66 1221.78 492.69 1221.79 492.7 1221.81 492.72 1221.84 492.73 1221.86 492.75 1221.88 492.75 1221.91 492.75 1221.94 492.75 1221.96 492.73 1225.8 490.84 1229.39 482.59 1230.6 479.76 1230.61 479.72 1230.65 479.67 1230.69 479.66 1230.75 479.63 1230.8 479.61 1230.85 479.63 1230.91 479.64 1230.95 479.67 1231 479.72 1231.03 479.76 1231.06 479.82 1231.07 479.88 1231.34 483.89 1232.82 497.18 1237.99 480.77 1240.35 472.54 1240.12 463.62 1237.31 455.24 1231.35 436.75 1208.93 420.15 1164.23 411.93 1119.56 403.71 1091.43 418.67 1079.21 440.86 1066.99 463.05 1064.78 486.8 1048.04 497.89 1031.31 508.97 1010.11 538.24 1038.96 562.13 1039.02 562.19 1039.09 562.27 1039.11 562.35 1039.54 564.05 1044.75 582.78 1067.16 595.01 1089.58 607.23 1106.7 601.58 1116.8 595.83 1116.83 595.81 1116.87 595.8 1116.9 595.81 1116.93 595.81 1116.98 595.84 1117 595.87 1117.01 595.9 1117.03 595.93 1117.03 595.97 1117.02 596 1117.01 596.05 1116.98 596.06 1115.2 597.7 1112.33 600.77 1114.47 601.67 1115.51 602.11 1119.53 602.11 1124.01 601.03 1132.61 598.58 1143.47 591.31 1140.87 574.07 1136.86 547.44 1117.24 539.31 1112.96 536.11 1108.67 532.92 1102.23 514.67 1119.01 504.08 1135.64 493.58 1153.69 506.77 1155.44 518.75 1155.44 518.78 1155.46 518.81 1155.47 518.84 1155.49 518.85 1155.52 518.87 1155.55 518.88 1155.56 518.9 1155.59 518.9 1155.62 518.88 1155.65 518.88 1155.68 518.87 1155.69 518.84L1172.31 498.53Z" fill="#333333" opacity="1" stroke-width="3" stroke="none"></path><path d="M1136.02 514.02C1136.02 514.02 1124.78 517.15 1122.88 528.63" stroke="#bc5219" stroke-width="3" stroke-linecap="round" stroke-linejoin="round" opacity="1" fill="none"></path><path d="M1209.99 534.41C1208.12 534.22 1206.68 531.29 1206.79 527.85 1206.91 524.39 1208.52 521.74 1210.39 521.92 1212.27 522.09 1213.71 525.04 1213.6 528.48 1213.48 531.93 1211.87 534.59 1209.99 534.41Z" fill="#333333" opacity="1" stroke-width="3" stroke="none"></path><path d="M1210.61 504.08C1206.14 504.08 1202.39 502.1 1202.24 499.64 1202.09 497.18 1205.6 495.2 1210.07 495.2 1214.54 495.2 1218.29 497.18 1218.44 499.64 1218.59 502.1 1215.08 504.08 1210.61 504.08Z" fill="#333333" opacity="1" stroke-width="3" stroke="none"></path><path d="M1210.95 564.45C1210.95 564.45 1201.51 564.22 1198.32 555.58" stroke="#bc5219" stroke-width="3" stroke-linecap="round" stroke-linejoin="round" opacity="1" fill="none"></path><path d="M1162.28 599.01C1164 596.3 1167.41 594.88 1171.78 594.88 1173.84 594.89 1175.92 595.19 1177.94 595.74 1177.97 595.75 1178.02 595.75 1178.04 595.74 1178.07 595.72 1178.1 595.69 1178.11 595.65 1178.12 595.62 1178.12 595.57 1178.11 595.55 1178.09 595.52 1178.06 595.49 1178.03 595.47 1174.02 593.58 1164.87 589.08 1162.11 587.26 1161.59 586.89 1161.01 586.67 1160.41 586.63 1160.14 586.63 1159.88 586.7 1159.66 586.85 1159.44 587 1159.26 587.2 1159.16 587.44 1158.12 589.5 1159.38 594.76 1162.03 598.99 1162.04 599.01 1162.06 599.04 1162.09 599.04 1162.1 599.05 1162.13 599.07 1162.15 599.07 1162.18 599.07 1162.21 599.07 1162.22 599.05 1162.25 599.04 1162.26 599.02 1162.28 599.01V599.01Z" fill="#bc5219" opacity="1" stroke-width="3" stroke="none"></path><path d="M1302.45 798.64L1302.42 798.66 1250.3 822.25C1250.29 822.26 1250.26 822.26 1250.24 822.26 1250.21 822.26 1250.2 822.26 1250.18 822.25 1250.15 822.25 1250.14 822.23 1250.12 822.22 1250.11 822.2 1250.11 822.17 1250.09 822.16L1243.56 802.68C1243.56 802.65 1243.55 802.63 1243.52 802.6 1243.5 802.59 1243.47 802.58 1243.44 802.58 1243.41 802.58 1243.38 802.58 1243.37 802.58 1243.34 802.59 1243.31 802.6 1243.3 802.63 1241.44 805.49 1223.25 831.89 1185.02 835.86 1184.99 835.86 1184.98 835.86 1184.95 835.87 1184.94 835.88 1184.92 835.9 1184.91 835.93 1184.9 835.94 1184.9 835.96 1184.9 835.99 1184.9 836.02 1184.9 836.03 1184.92 836.06 1186.49 839.27 1208.03 883.29 1213.68 891.84 1219.53 900.71 1234.02 908.11 1257.05 897.25 1280.12 886.4 1319.18 836.11 1337.24 814.93 1355.3 793.74 1370.89 781.73 1392.71 780.08 1400.51 779.49 1401.58 772.18 1395.44 771.85 1391.89 771.68 1383.26 772.03 1376.63 772.36 1375.62 772.42 1374.59 772.24 1373.62 771.82 1372.65 771.43 1371.78 770.8 1371.05 770.02 1370.32 769.24 1369.77 768.32 1369.45 767.31 1369.11 766.31 1369 765.24 1369.12 764.22V764.22C1370.1 755.91 1371.41 743.96 1371.56 739.64 1371.78 732.75 1374.55 708.76 1369.36 708.4 1364.18 708.08 1365.08 723.19 1363.88 729.76 1362.8 735.69 1361.93 739.09 1361.89 739.28L1361.89 739.3 1359.36 745.82C1359.35 745.87 1359.32 745.88 1359.29 745.9 1359.26 745.91 1359.22 745.93 1359.19 745.91 1359.16 745.91 1359.13 745.88 1359.1 745.85 1359.09 745.84 1359.07 745.79 1359.07 745.76 1358.94 741.24 1358.22 717.2 1357.25 710.68 1356.18 703.46 1350.47 705.09 1350.21 711.33 1349.94 717.57 1349.73 729.08 1349.19 735.97 1349.06 739.39 1348.1 742.66 1346.4 745.51 1346.38 745.53 1346.35 745.54 1346.33 745.56 1346.3 745.57 1346.27 745.57 1346.24 745.56 1346.21 745.54 1346.18 745.53 1346.16 745.5 1346.15 745.48 1346.13 745.45 1346.13 745.42 1345.86 741.87 1343.85 716.14 1343.14 711.57 1342.35 706.63 1336.08 706.63 1336.2 713.05 1336.36 719.46 1336.53 734.49 1336.49 738.19 1336.3 740.94 1335.64 743.62 1334.54 746.09 1334.53 746.12 1334.5 746.15 1334.48 746.16 1334.45 746.18 1334.42 746.18 1334.39 746.18 1334.36 746.16 1334.33 746.15 1334.3 746.12 1334.28 746.1 1334.27 746.07 1334.27 746.04 1333.8 742.69 1331.26 724.33 1330.49 718.98 1329.64 713.06 1323.66 714.04 1323.79 719.95 1323.91 725.87 1326.49 744.59 1322.87 753 1319.25 761.37 1314.49 774.44 1311.92 779.86 1309.39 785.34 1307.07 795.18 1302.45 798.64Z" fill="#eca179" opacity="1" stroke-width="3" stroke="none"></path><path d="M1230.39 696.6C1237.27 680.33 1226.81 673.35 1236.86 667.21 1239.69 665.48 1240.24 660.77 1237.13 659.29" stroke="#bc5219" stroke-width="3" stroke-linecap="round" stroke-linejoin="round" opacity="1" fill="none"></path><path d="M1123.8 862.11C1115.07 865.57 1099.88 870.45 1104.44 860.93 1109.01 851.95 1114.56 843.58 1121.01 835.94 1120.65 839.35 1118.11 850.73 1123.8 862.11Z" fill="#000000" opacity="1" stroke-width="3" stroke="none"></path><path d="M1148.56 758L1159.74 782.7C1156.89 786.93 1153.82 791.17 1150.01 796.08L1148.56 758Z" fill="#000000" opacity="1" stroke-width="3" stroke="none"></path><path d="M1148.56 758L1159.74 782.7" stroke="#000000" stroke-width="3" stroke-linecap="round" stroke-linejoin="round" opacity="1" fill="none"></path><path d="M1065.01 644.65C1057.19 655.45 1050.96 667.4 1046.5 680.15" stroke="#000000" stroke-width="3" stroke-linecap="round" stroke-linejoin="round" opacity="1" fill="none"></path><path d="M1255.4 837.11L1250.16 822.32" stroke="#bc5219" stroke-width="3" stroke-linecap="round" stroke-linejoin="round" opacity="1" fill="none"></path><path d="M1221.29 487.13C1220.44 481.33 1218.48 475.69 1215.49 470.55 1215.49 470.55 1220.99 457.49 1212.99 445.18 1212.99 445.15 1234.45 466.18 1221.29 487.13Z" fill="#171717" opacity="1" stroke-width="3" stroke="none"></path><path d="M1039.11 562.38C1039.14 562.38 1039.15 562.37 1039.18 562.35 1039.21 562.34 1039.22 562.32 1039.23 562.29 1039.25 562.27 1039.24 562.24 1039.24 562.21 1033.72 539.31 1044 525.91 1044.09 525.78 1044.12 525.75 1044.13 525.73 1044.13 525.7 1044.13 525.67 1044.13 525.64 1044.11 525.61 1044.1 525.58 1044.08 525.57 1044.05 525.55 1044.04 525.54 1044.01 525.52 1043.98 525.52 1043.95 525.52 1043.92 525.54 1043.89 525.55 1030.49 535.05 1029.98 546.93 1031.92 555.22 1034.03 557.84 1036.41 560.24 1039.02 562.35 1039.04 562.37 1039.08 562.38 1039.11 562.38Z" fill="#171717" opacity="1" stroke-width="3" stroke="none"></path><path d="M1116.75 602.11C1119.23 602.07 1121.67 601.7 1124.01 601.05 1127.52 592.48 1129.96 579.56 1122.33 566.04 1122.31 566.02 1122.3 565.99 1122.27 565.98 1122.25 565.96 1122.22 565.96 1122.19 565.96 1122.18 565.96 1122.15 565.96 1122.14 565.98 1122.11 565.99 1122.08 566.01 1122.07 566.05 1122.06 566.08 1122.06 566.13 1122.06 566.16 1122.13 566.33 1128.63 583.95 1118.11 594.94 1116.29 596.86 1113.15 599.21 1113.63 601 1113.7 601.2 1113.8 601.37 1113.94 601.52 1114.09 601.65 1114.26 601.77 1114.45 601.83 1115.2 602.05 1115.98 602.16 1116.75 602.11V602.11Z" fill="#171717" opacity="1" stroke-width="3" stroke="none"></path><path d="M1031.95 604.4C1041.2 613.46 1057.11 620.68 1057.11 620.68 1041.24 620.54 1033.35 612.42 1031.95 604.4Z" fill="#71a03b" opacity="1" stroke-width="3" stroke="none"></path><path d="M1031.95 604.4C1041.2 613.46 1057.11 620.68 1057.11 620.68" stroke="#71a03b" stroke-width="3" stroke-linecap="round" stroke-linejoin="round" opacity="1" fill="none"></path><path d="M1277.89 666.36L1257.1 680.33" stroke="#bc5219" stroke-width="3" stroke-linecap="round" stroke-linejoin="round" opacity="1" fill="none"></path><path d="M1274.15 659.21L1250.85 672.93" stroke="#bc5219" stroke-width="3" stroke-linecap="round" stroke-linejoin="round" opacity="1" fill="none"></path><path d="M1269.5 652.88L1245.53 664.56" stroke="#bc5219" stroke-width="3" stroke-linecap="round" stroke-linejoin="round" opacity="1" fill="none"></path><path d="M1369.92 772.25C1361.86 772.37 1356.8 774.04 1347.93 776.07" stroke="#bc5219" stroke-width="3" stroke-linecap="round" stroke-linejoin="round" opacity="1" fill="none"></path><path d="M1254.16 779.43C1254.11 779.43 1254.08 779.41 1254.05 779.38 1254.02 779.37 1254 779.32 1254 779.29L1234.43 641.16C1234.43 641.13 1234.44 641.09 1234.45 641.07 1234.46 641.04 1234.49 641.01 1234.52 641.01 1236.12 640.54 1254.42 635.21 1275.36 630.19 1296.68 625.07 1322.08 632.37 1323.52 632.8 1323.55 632.8 1323.56 632.8 1323.57 632.8 1323.6 632.8 1323.62 632.79 1323.63 632.79 1336.81 624.64 1352.18 620.56 1368.04 620.99 1392.73 621.92 1410.11 623.77 1411.64 623.93 1411.67 623.93 1411.7 623.94 1411.73 623.97 1411.75 623.99 1411.77 624.02 1411.78 624.05L1442.62 762.18C1442.62 762.23 1442.62 762.27 1442.6 762.3 1442.58 762.33 1442.56 762.34 1442.51 762.36L1349.73 782.71H1349.69L1254.16 779.43Z" fill="#99c665" opacity="1" stroke-width="3" stroke="none"></path><path d="M1442.56 762.45C1442.58 762.45 1442.6 762.43 1442.62 762.42 1442.63 762.42 1442.65 762.4 1442.66 762.39 1442.67 762.37 1442.67 762.36 1442.69 762.34 1442.68 762.31 1442.68 762.3 1442.68 762.28 1442.68 762.25 1442.67 762.24 1442.66 762.23 1442.65 762.21 1442.63 762.2 1442.62 762.18 1442.6 762.17 1442.59 762.15 1442.57 762.15 1442.56 762.15 1442.53 762.15 1442.52 762.15 1442.02 762.15 1384.41 764.59 1369.57 765.49 1355.5 766.35 1350.35 773.35 1349.3 775.05 1349.29 775.06 1349.28 775.08 1349.26 775.09 1349.23 775.11 1349.22 775.11 1349.19 775.11 1349.18 775.11 1349.15 775.11 1349.13 775.09 1349.1 775.09 1349.09 775.08 1349.07 775.05 1348.04 773.84 1343.81 770.03 1331.38 770.03 1329.21 770.03 1326.86 770.17 1324.41 770.4 1304.12 772.36 1254.64 779.21 1254.13 779.28 1254.09 779.28 1254.06 779.29 1254.03 779.32 1254.01 779.35 1254.01 779.4 1254.01 779.43 1254.01 779.47 1254.03 779.5 1254.06 779.53 1254.09 779.56 1254.14 779.58 1254.16 779.58L1349.67 782.89C1349.69 782.89 1442.56 762.45 1442.56 762.45Z" fill="#71a03b" opacity="1" stroke-width="3" stroke="none"></path><path d="M1442.56 762.45C1442.58 762.45 1442.6 762.43 1442.62 762.42 1442.63 762.42 1442.65 762.4 1442.66 762.39 1442.67 762.37 1442.67 762.36 1442.69 762.34 1442.68 762.31 1442.68 762.3 1442.68 762.28 1442.68 762.25 1442.67 762.24 1442.66 762.23 1442.65 762.21 1442.63 762.2 1442.62 762.18 1442.6 762.17 1442.59 762.15 1442.57 762.15 1442.56 762.15 1442.53 762.15 1442.52 762.15 1442.02 762.15 1384.41 764.59 1369.57 765.49 1355.5 766.35 1350.35 773.35 1349.3 775.05 1349.29 775.06 1349.28 775.08 1349.26 775.09 1349.23 775.11 1349.22 775.11 1349.19 775.11 1349.18 775.11 1349.15 775.11 1349.13 775.09 1349.1 775.09 1349.09 775.08 1349.07 775.05 1348.04 773.84 1343.81 770.03 1331.38 770.03 1329.21 770.03 1326.86 770.17 1324.41 770.4 1304.12 772.36 1254.64 779.21 1254.13 779.28 1254.09 779.28 1254.06 779.29 1254.03 779.32 1254.01 779.35 1254.01 779.4 1254.01 779.43 1254.01 779.47 1254.03 779.5 1254.06 779.53 1254.09 779.56 1254.14 779.58 1254.16 779.58L1349.67 782.89C1349.69 782.89 1442.56 762.45 1442.56 762.45Z" fill="#71a03b" opacity="1" stroke-width="3" stroke="none"></path><path d="M1442.52 762.15C1442.01 762.15 1384.41 764.59 1369.57 765.49 1355.5 766.35 1350.35 773.35 1349.3 775.05 1349.29 775.06 1349.28 775.08 1349.26 775.09 1349.23 775.11 1349.22 775.11 1349.19 775.11 1349.18 775.11 1349.15 775.11 1349.13 775.09 1349.1 775.09 1349.09 775.08 1349.07 775.06 1348.04 773.85 1343.81 770.05 1331.38 770.05 1329.21 770.05 1326.86 770.17 1324.39 770.4 1304.12 772.36 1254.64 779.21 1254.13 779.28" stroke="#71a03b" stroke-width="3" stroke-linecap="round" stroke-linejoin="round" opacity="1" fill="none"></path><path d="M1323.79 634.49L1349.23 775.49" stroke="#71a03b" stroke-width="3" stroke-linecap="round" stroke-linejoin="round" opacity="1" fill="none"></path></g><g><path d="M641.15 909.61L646.12 893.27 658.65 852.06C658.66 852.03 658.66 852 658.65 851.96 658.65 851.93 658.62 851.92 658.6 851.89 658.57 851.87 658.54 851.85 658.51 851.85 658.48 851.85 658.45 851.87 658.43 851.89 653.66 854.81 601.13 887.1 586.25 892.36 570.66 897.87 542.2 888.23 523.88 875.8 505.58 863.38 498.81 828.91 491.35 809.58 483.88 790.25 487.28 768.19 494.05 753.02 500.83 737.84 501.5 721.97 514.39 712.32 521.83 688.18 521.16 676.45 531.33 673 541.5 669.56 568.62 666.11 568.62 666.11 568.62 666.11 597.77 622.66 612.67 605.41 627.57 588.17 664.94 574.7 703.54 576.04 703.57 576.04 703.6 576.03 703.64 576.01 703.67 576 703.68 575.97 703.7 575.94 704.1 574.6 707.85 562.23 712.99 555.06 718.41 547.47 729.94 539.19 755.69 538.5 781.44 537.81 818.04 540.57 842.45 540.57 866.86 540.57 890.58 550.92 900.73 561.26 910.85 571.57 920.97 582.92 917.1 595.26 917.08 595.3 917.08 595.31 917.1 595.34 917.1 595.36 917.1 595.39 917.11 595.41 917.13 595.42 917.14 595.44 917.17 595.45 917.19 595.47 917.22 595.47 917.23 595.47 938.81 595.56 955.02 610.29 975.29 623.33 995.62 636.44 1025.45 646.78 1057.29 692.32 1089.14 737.85 1112.87 766.13 1125.08 787.51 1137.28 808.89 1137.96 850.96 1131.85 876.49 1125.74 902.03 1099.31 909.61 1063.39 916.5 1027.57 923.38 972.92 901.46 942.37 894.51 942.34 894.49 942.31 894.51 942.28 894.51 942.26 894.52 942.23 894.54 942.21 894.55 942.2 894.57 942.18 894.6 942.18 894.63 942.17 894.66 942.17 894.7 942.18 894.71 943.28 897.25 943.48 900.08 942.72 902.75 941.77 905.97 949.46 936.85 946.14 939.62 896.89 964.09 766.52 989.45 637.88 944.63 625.45 938.29 638.78 921.26 641.15 909.61Z" fill="#006633" opacity="1" stroke-width="3" stroke="none"></path><path d="M845.16 852.87C859.81 878.12 862.29 877.84 885.33 881.85 906.17 885.47 942.37 894.51 942.37 894.51 942.98 895.78 943.34 897.17 943.4 898.58 943.46 900.01 943.23 901.41 942.72 902.75 932.69 894.52 912.06 889.81 899.06 891.17 884.31 892.72 868.21 894.44 833.98 899.96 799.75 905.47 757.74 839.95 757.74 839.95L845.16 852.87Z" fill="#073c22" opacity="1" stroke-width="3" stroke="none"></path><path d="M847.71 840.44L849.53 860.22C854.3 867.94 857.79 872.36 861.87 875.18 866.12 873.58 872.05 870.71 873.63 866.83 877.79 856.71 879.19 843.65 876 832.89L875.72 831.99C866.24 834.25 856.88 837.07 847.71 840.44V840.44Z" fill="#006633" opacity="1" stroke-width="3" stroke="none"></path><path d="M847.71 840.44L849.53 860.22C854.3 867.94 857.79 872.36 861.87 875.18 866.12 873.58 872.05 870.71 873.63 866.83 877.79 856.71 879.19 843.65 876 832.89L875.72 831.99C866.24 834.25 856.88 837.07 847.71 840.44V840.44Z" fill="#073c22" opacity="1" stroke-width="3" stroke="none"></path><path d="M633.02 843.72C633.02 843.72 630.99 812.68 629.63 796.83 628.28 780.98 624.89 767.5 614.72 751.31 608.38 741.13 602.72 730.52 597.77 719.57 597.77 719.57 595.07 700.6 594.05 691.99 593.03 683.37 586.94 671.3 574.73 668.54" stroke="#073c22" stroke-width="3" stroke-linecap="round" stroke-linejoin="round" opacity="1" fill="none"></path><path d="M942.37 894.51C942.37 894.51 906.17 885.47 885.33 881.85 883.65 881.55 882.08 881.29 880.6 881.04 872.03 879.52 866.7 878.4 862.18 875.38 862.07 875.32 861.98 875.26 861.87 875.18 857.79 872.36 854.3 867.94 849.53 860.22 848.19 858.04 846.74 855.61 845.16 852.87" stroke="#073c22" stroke-width="3" stroke-linecap="round" stroke-linejoin="round" opacity="1" fill="none"></path><path d="M740.94 845.62C741.39 850.62 746.56 849.22 747.79 848.82 747.82 848.82 747.85 848.82 747.88 848.82 747.9 848.83 747.93 848.83 747.95 848.86 747.96 848.88 747.98 848.89 747.99 848.93 747.99 848.96 748.01 848.97 747.99 849 747.79 850.19 747.24 854.99 752.12 855.44 753.52 855.68 754.95 855.61 756.32 855.28 757.69 854.94 758.98 854.33 760.12 853.48 760.17 853.45 760.2 853.44 760.24 853.45 760.29 853.45 760.32 853.47 760.35 853.5 760.91 854.2 763.68 857.45 766.85 856.99 772.94 859.58 777.53 856.48 783.62 855.44 789.72 854.41 803.95 852.86 803.95 852.86 803.95 852.86 830.89 862.69 844.11 863.73 849.53 864.13 854.96 864.28 860.38 864.13 862.95 864.07 865.44 863.21 867.54 861.69 869.63 860.17 871.23 858.04 872.11 855.58 874.78 848.33 876.11 840.64 876 832.89 875.52 831.21 874.91 829.56 874.15 827.98 870.55 820.4 863.9 814.12 855.59 809.5 840.86 801.24 801.48 800.9 794.32 801.13 778.56 801.65 758.74 816.14 752.13 823.38 745.53 830.61 740.44 839.93 740.94 845.62Z" fill="#97623f" opacity="1" stroke-width="3" stroke="none"></path><path d="M588.68 699.18C588.86 698.99 588.97 698.74 588.99 698.47 589.14 695.9 590.03 681.76 590.65 676.12 591.33 669.92 593.02 659.56 581.15 649.92 569.29 640.27 561.5 637.15 558.11 634.39 554.73 631.64 550.32 615.77 537.1 609.22 523.88 602.67 514.06 597.83 508.29 593.01 502.53 588.18 496.42 579.55 487.62 576.8 479.02 574.1 477.92 582.42 482.63 590.53 482.65 590.57 482.65 590.6 482.65 590.63 482.65 590.68 482.63 590.71 482.6 590.72 482.59 590.75 482.54 590.77 482.51 590.77 482.48 590.77 482.45 590.77 482.42 590.75 476.89 587.32 471.64 588.89 470.37 595.05 470.35 595.08 470.34 595.11 470.31 595.12 470.29 595.14 470.26 595.15 470.23 595.15 470.18 595.17 470.15 595.15 470.14 595.14 470.11 595.12 470.07 595.09 470.07 595.06 469.63 593.89 468.44 590.82 466.61 586.81 464.24 581.64 457.47 583.7 458.48 587.15 459.5 590.6 467.03 614.97 470.43 621.88 473.81 628.77 470.01 628.19 479.85 638.2 485.74 644.2 499.24 656.53 510.17 666.11 517.49 672.53 523.48 677.58 525.93 679.24 532.02 683.37 533.38 685.44 533.38 688.54 533.16 692.02 532.72 695.48 532.02 698.9 531.96 699.27 532.33 699.95 533.12 700.96 536.69 705.52 547.62 715.27 553.71 717.52 561.16 720.28 568.96 717.18 573.7 713.73 578 710.58 587 700.98 588.68 699.18Z" fill="#97623f" opacity="1" stroke-width="3" stroke="none"></path><path d="M856.35 563.94L855.84 570.92C855.84 570.92 838.55 585.66 835.25 588.76 834.28 589.67 833.23 590.6 832.09 591.74 828.81 594.76 826.61 598.82 825.84 603.25 824.92 609.8 822.96 622.9 822.59 625.35 822.59 625.39 822.58 625.42 822.56 625.45 822.53 625.46 822.5 625.48 822.49 625.5 822.45 625.5 822.42 625.5 822.39 625.48 822.36 625.46 822.33 625.45 822.32 625.42 819.61 621.24 792.67 579.6 791.95 577.13 791.24 574.74 792.41 569.42 792.61 568.62 792.61 568.59 792.61 568.56 792.6 568.53 792.6 568.49 792.57 568.46 792.55 568.45 787.61 564.7 783.08 560.43 779.07 555.67 771.69 547.13 763.57 535.22 756.44 505.23 756.44 505.23 748.45 505.35 741.7 494.62 735.34 484.54 730.51 470.05 735.09 460.74 739.68 451.44 743.22 443.15 756.2 444.97 756.2 444.97 754.41 403.59 786.19 382.89 817.98 362.2 854.31 367.37 875.15 382.11 895.99 396.85 904.38 407.72 907.18 424.79 909.98 441.87 906.58 455.4 905.32 468.86 905.32 468.86 919.3 471.71 919.8 490.58 920.31 509.46 907.6 520.33 901 523.18 897.43 524.9 893.33 525.18 889.56 523.96 889.56 523.96 884.31 537.32 876.43 546.64 868.55 555.96 856.35 563.94 856.35 563.94Z" fill="#97623f" opacity="1" stroke-width="3" stroke="none"></path><path d="M912.26 483.31C912.26 483.31 903.97 489 902.43 490.9 900.89 492.79 903.27 499.34 902.43 502.63 901.58 505.92 897.52 508.31 897.52 508.31" stroke="#6d4327" stroke-width="3" stroke-linecap="round" stroke-linejoin="round" opacity="1" fill="none"></path><path d="M741.11 460.38C743.9 463.3 746.24 466.6 748.05 470.22 750.42 475.39 744.5 479.01 746.87 483.85 749.24 488.69 750.93 489.88 750.93 489.88" stroke="#6d4327" stroke-width="3" stroke-linecap="round" stroke-linejoin="round" opacity="1" fill="none"></path><path d="M834.52 425.01C834.49 425.03 834.46 425.03 834.43 425.03 834.32 425 833.98 424.94 833.58 424.84 828.37 423.79 823.24 422.38 818.21 420.63 815.24 419.34 812.11 418.48 808.91 418.04 808.88 418.04 808.85 418.06 808.82 418.07 808.8 418.09 808.77 418.11 808.76 418.14 807.93 419.7 795.55 442.48 787.19 452.71 778.97 462.81 762.01 463.3 760.38 463.31 760.35 463.31 760.32 463.33 760.29 463.34 760.26 463.37 760.24 463.41 760.23 463.44L754.98 490.65C754.98 490.68 754.96 490.71 754.95 490.72 754.92 490.76 754.9 490.77 754.87 490.77 754.84 490.79 754.81 490.79 754.78 490.77 754.75 490.76 754.73 490.74 754.7 490.71 752.29 487.07 750.7 482.92 750.09 478.57 749.24 471.57 748.81 464.5 748.81 457.44 748.81 457.42 748.81 457.39 748.79 457.38 748.79 457.34 748.78 457.33 748.76 457.31 748.16 456.86 743.41 452.88 742.45 443.9 741.45 434.37 747.25 428.68 749.81 421.72 749.82 421.68 749.82 421.65 749.81 421.61 744.25 406.37 746.81 390.6 763.55 379.24 780.33 367.86 785.92 365.54 795.07 356.74 799.31 352.71 804.42 349.76 809.99 348.15 815.56 346.54 821.42 346.29 827.1 347.43V347.43C833.81 348.82 840.17 351.53 845.86 355.4 845.88 355.42 845.9 355.44 845.93 355.44 845.94 355.44 845.97 355.44 845.99 355.44 847.02 355.14 859.32 351.74 869.04 355.45 879.22 359.34 884.8 371.22 897.01 381.58 909.21 391.93 922.17 407.96 923.94 426.06 925.68 443.64 912.8 454.88 912.05 455.53 912.02 455.56 912 455.57 912 455.61 911.59 456.95 901.78 488.58 899.04 496.69 896.26 504.98 893.96 511.95 893.45 507.3 892.98 502.86 896.42 475.4 896.75 472.84 896.75 472.8 896.75 472.79 896.73 472.76 896.73 472.74 896.72 472.73 896.7 472.71 896.69 472.69 896.67 472.68 896.66 472.66 896.64 472.66 896.61 472.65 896.59 472.65 895.55 472.71 890.04 472.41 880.26 461.76 869.34 449.86 855.84 430.9 854.31 423.4 854.3 423.31 854.35 423.51 854.31 423.4 852.94 418.58 844.02 421.07 838.65 423.21 836.51 424.06 834.81 424.87 834.52 425.01Z" fill="#1b2126" opacity="1" stroke-width="3" stroke="none"></path><path d="M881.05 476.14C881.05 476.17 881.02 476.2 880.99 476.22 880.96 476.23 880.93 476.23 880.88 476.23 878.36 475.78 874.77 469.72 866.26 465.38 857.62 460.98 846.43 458.91 844.14 457.88 841.85 456.84 845.93 447.52 848.2 447.01 850.5 446.49 865.49 454.76 869.31 456.06 873.12 457.36 880.49 468.21 881.25 471.07 881.7 472.74 881.63 474.51 881.05 476.14V476.14Z" fill="#1b2126" opacity="1" stroke-width="3" stroke="none"></path><path d="M818.73 451.42C819.45 452.88 818.47 459.96 816.44 459.96 814.41 459.96 802.2 457.38 795.34 457.38 788.47 457.38 777.3 463.84 776.53 462.81 775.76 461.78 773.48 457.89 776.53 455.82 779.58 453.76 790.26 446.77 798.64 447.04 807.03 447.3 818.22 450.39 818.73 451.42Z" fill="#1b2126" opacity="1" stroke-width="3" stroke="none"></path><path d="M852.38 494.14C849.97 493.76 848.54 490.03 849.19 485.81 849.82 481.58 852.28 478.44 854.68 478.82 857.09 479.2 858.52 482.92 857.89 487.15 857.25 491.4 854.78 494.51 852.38 494.14Z" fill="#1b2126" opacity="1" stroke-width="3" stroke="none"></path><path d="M801.05 488C798.63 487.73 797.04 484.07 797.51 479.81 797.97 475.55 800.29 472.32 802.71 472.59 805.12 472.85 806.71 476.53 806.25 480.78 805.79 485.04 803.46 488.26 801.05 488Z" fill="#1b2126" opacity="1" stroke-width="3" stroke="none"></path><path d="M823.64 515.74C827.03 514.88 835.68 514.53 835.34 508.85 835 503.16 832.12 481.44 832.12 481.44 832.12 481.44 830.6 472.65 831.44 469.88 832.29 467.1 840.08 457.63 840.08 457.63" stroke="#6d4327" stroke-width="3" stroke-linecap="round" stroke-linejoin="round" opacity="1" fill="none"></path><path d="M837.77 533.33C838.48 532.52 826.4 533.3 818.58 530.13 810.76 526.97 802.94 520.67 801.77 521.1 800.6 521.52 802.57 532.45 810.99 537.14 819.41 541.82 834.58 536.96 837.77 533.33Z" fill="#ddd8d4" opacity="1" stroke-width="3" stroke="none"></path><path d="M828.55 574.71C836.34 573.34 856.35 563.94 856.35 563.94L856.15 571.02C856.15 571.06 856.13 571.1 856.1 571.13 849.71 578.1 837.22 587.71 832.09 591.74 825.41 590.72 818.87 588.87 812.62 586.26 810.39 585.04 808.42 583.36 806.83 581.34 805.25 579.32 804.09 576.98 803.42 574.49 803.4 574.46 803.4 574.43 803.4 574.42 803.42 574.38 803.43 574.35 803.45 574.34 803.46 574.31 803.49 574.29 803.52 574.29 803.54 574.27 803.57 574.29 803.6 574.29 808.56 575.76 820.92 576.06 828.55 574.71Z" fill="#6d4327" opacity="1" stroke-width="3" stroke="none"></path><path d="M803.31 574.2C808.05 575.75 820.76 576.09 828.55 574.71 836.34 573.34 856.35 563.94 856.35 563.94" stroke="#6d4327" stroke-width="3" stroke-linecap="round" stroke-linejoin="round" opacity="1" fill="none"></path><path d="M917.03 595.47L907.51 602.66C896.46 612.46 884.54 621.24 871.92 628.86" stroke="#073c22" stroke-width="3" stroke-linecap="round" stroke-linejoin="round" opacity="1" fill="none"></path><path d="M763.49 621.28C763.49 621.28 751.62 614.39 735.02 596.45 711.16 570.69 712.33 579.49 703.67 576.04" stroke="#073c22" stroke-width="3" stroke-linecap="round" stroke-linejoin="round" opacity="1" fill="none"></path><path d="M716.04 588.17C716.04 588.17 732.31 632.31 741.79 644.73" stroke="#073c22" stroke-width="3" stroke-linecap="round" stroke-linejoin="round" opacity="1" fill="none"></path><path d="M667.57 664.39C667.57 664.39 682.83 713.37 684.86 723.71 686.89 734.05 685.87 765.44 685.2 780.27 684.52 795.1 667.57 832.7 658.77 851.67" stroke="#073c22" stroke-width="3" stroke-linecap="round" stroke-linejoin="round" opacity="1" fill="none"></path><path d="M588.96 728.88C588.96 728.88 579.46 741.64 571.33 746.12 563.21 750.6 547.95 746.12 547.95 746.12" stroke="#073c22" stroke-width="3" stroke-linecap="round" stroke-linejoin="round" opacity="1" fill="none"></path><path d="M533.72 738.89C533.72 738.89 520.5 725.78 517.79 717.16" stroke="#073c22" stroke-width="3" stroke-linecap="round" stroke-linejoin="round" opacity="1" fill="none"></path><path d="M657.08 806.82C657.08 806.82 647.93 786.82 637.08 774.05 626.23 761.29 620.48 759.91 620.48 759.91" stroke="#073c22" stroke-width="3" stroke-linecap="round" stroke-linejoin="round" opacity="1" fill="none"></path><path d="M642.5 727.15C642.5 727.15 655.72 734.39 656.06 739.58 656.4 744.76 654.03 753.38 647.6 747.85 641.16 742.32 630.31 730.94 621.51 724.74 612.7 718.54 598.13 716.47 598.13 716.47" stroke="#073c22" stroke-width="3" stroke-linecap="round" stroke-linejoin="round" opacity="1" fill="none"></path><path d="M1025.11 716.82C1025.11 716.82 1006.47 736.82 993.59 747.17 980.71 757.53 978.68 767.18 978.68 767.18" stroke="#073c22" stroke-width="3" stroke-linecap="round" stroke-linejoin="round" opacity="1" fill="none"></path><path d="M985.12 694.04C985.12 694.04 967.16 697.49 962.76 714.39 960.11 724.6 958.07 734.97 956.67 745.43" stroke="#073c22" stroke-width="3" stroke-linecap="round" stroke-linejoin="round" opacity="1" fill="none"></path><path d="M838.05 925.47C838.05 925.47 824.83 930.64 815.34 926.16 805.86 921.68 762.48 894.08 751.3 887.19" stroke="#073c22" stroke-width="3" stroke-linecap="round" stroke-linejoin="round" opacity="1" fill="none"></path><path d="M783.07 628.66C783.08 628.64 783.1 628.63 783.12 628.61 783.13 628.6 783.15 628.6 783.16 628.58 783.19 628.58 783.21 628.58 783.22 628.58 783.25 628.6 783.27 628.6 783.28 628.61 785.79 630.26 787.93 632.43 789.55 634.99 789.56 635.02 789.56 635.04 789.56 635.07 789.56 635.1 789.56 635.11 789.55 635.14 788.87 636.43 779.34 654.6 777.39 660.58 775.07 667.47 773.8 674.68 773.66 681.96 773.33 691.27 771.29 726.79 770.28 729.57 769.34 732.12 768.69 733.5 768.6 733.69 768.59 733.7 768.59 733.72 768.59 733.73L766.91 745.97C766.91 746 766.91 746.01 766.89 746.03 766.88 746.04 766.88 746.06 766.86 746.08 766.83 746.08 766.82 746.09 766.8 746.09 766.79 746.09 766.75 746.09 766.74 746.09L764.34 745.48C764.29 745.47 764.26 745.43 764.23 745.4 764.21 745.37 764.2 745.32 764.2 745.28L765.54 734.44C765.54 734.41 765.52 734.38 765.51 734.34 764.11 731.62 762.97 728.75 762.15 725.78 761.14 721.64 764.52 673.69 764.86 667.84 765.2 661.98 768.25 654.72 772.31 647.14 776.1 640.06 782.27 629.94 783.07 628.66Z" fill="#99c665" opacity="1" stroke-width="3" stroke="none"></path><path d="M847.3 631.51C847.28 631.48 847.27 631.46 847.25 631.45 847.23 631.43 847.2 631.42 847.17 631.42 847.16 631.42 847.13 631.42 847.1 631.42 847.08 631.43 847.05 631.45 847.03 631.46L841.82 637.78C841.8 637.79 841.8 637.81 841.79 637.82 841.79 637.85 841.79 637.87 841.79 637.9 842.29 641.18 842.53 644.51 842.45 647.83 842.11 650.93 839.74 733.72 839.74 739.23 839.92 742.91 841.08 746.48 843.11 749.55 843.13 749.57 843.13 749.6 843.13 749.63L842.8 763.92C842.8 763.96 842.82 764 842.83 764.03 842.86 764.06 842.91 764.07 842.96 764.07H847.05C847.07 764.07 847.08 764.07 847.1 764.06 847.11 764.06 847.14 764.04 847.14 764.03 847.16 764.01 847.17 764 847.17 763.98 847.19 763.96 847.19 763.93 847.19 763.92L846.19 749.63C846.19 749.6 846.19 749.57 846.2 749.55 848.2 746.04 849.9 742.36 851.27 738.54V738.54C852.28 734.75 850.25 659.56 849.91 647.83 849.6 637.56 847.76 632.59 847.3 631.51Z" fill="#99c665" opacity="1" stroke-width="3" stroke="none"></path><path d="M911.75 853.91C911.75 853.91 912.77 835.28 906.68 825.45 902.23 818.54 897.3 811.97 891.93 805.79" stroke="#073c22" stroke-width="3" stroke-linecap="round" stroke-linejoin="round" opacity="1" fill="none"></path><path d="M1004.78 895.29C1004.78 895.29 1026.13 877.18 1032.22 871.5 1038.32 865.81 1028.16 854.42 1021.03 863.23" stroke="#073c22" stroke-width="3" stroke-linecap="round" stroke-linejoin="round" opacity="1" fill="none"></path><path d="M820.76 837.35C820.76 837.35 795.86 837.87 788.73 838.9 780.19 840.14 760.23 853.33 760.24 853.37" stroke="#6d4327" stroke-width="3" stroke-linecap="round" stroke-linejoin="round" opacity="1" fill="none"></path><path d="M805.51 821.31C805.51 821.31 777.54 826.48 774.5 828.55 771.45 830.61 748.05 848.72 748.05 848.72" stroke="#6d4327" stroke-width="3" stroke-linecap="round" stroke-linejoin="round" opacity="1" fill="none"></path><path d="M786.19 811.49L766.95 816.3 750.22 825.51" stroke="#6d4327" stroke-width="3" stroke-linecap="round" stroke-linejoin="round" opacity="1" fill="none"></path><path d="M590.83 674.84C587.96 682.9 583.86 687.85 579.81 689.92" stroke="#6d4327" stroke-width="3" stroke-linecap="round" stroke-linejoin="round" opacity="1" fill="none"></path><path d="M542.71 687.32C552.37 693.52 552.37 697.16 549.31 698.71 547.95 699.4 540.77 700.28 533.12 700.96 532.75 700.73 532.44 700.43 532.18 700.07 531.93 699.73 531.76 699.32 531.67 698.88 532.32 695.47 532.73 692 532.92 688.53 532.92 685.41 531.56 683.36 525.47 679.22 520.06 675.23 514.96 670.86 510.17 666.11 520.99 673.16 536.7 683.47 542.71 687.32Z" fill="#6d4327" opacity="1" stroke-width="3" stroke="none"></path><path d="M545.75 659.91C545.75 659.91 535.58 651.12 532.53 648 529.48 644.89 522.87 626.28 520.83 619.03 518.8 611.77 515.76 605.57 511.17 602.47 509.92 601.61 508.41 601.23 506.92 601.42 505.41 601.62 504.04 602.36 503.04 603.5 503.04 603.5 498.98 596.27 495.42 594.72 491.87 593.17 487.3 596.78 487.3 596.78 486.14 594.68 484.7 592.76 482.97 591.11" stroke="#6d4327" stroke-width="3" stroke-linecap="round" stroke-linejoin="round" opacity="1" fill="none"></path><path d="M517.79 664.56C517.79 664.56 508.64 652.14 507.61 649.04 506.58 645.94 504.06 638.17 504.06 632.48 504.06 626.8 503.04 603.5 503.04 603.5" stroke="#6d4327" stroke-width="3" stroke-linecap="round" stroke-linejoin="round" opacity="1" fill="none"></path><path d="M487.3 596.78C487.3 596.78 487.81 624.71 488.31 631.96 488.82 639.22 492.88 643.35 495.93 650.59" stroke="#6d4327" stroke-width="3" stroke-linecap="round" stroke-linejoin="round" opacity="1" fill="none"></path><path d="M470.26 595.59L470.43 621.88" stroke="#6d4327" stroke-width="3" stroke-linecap="round" stroke-linejoin="round" opacity="1" fill="none"></path><path d="M896.76 472.63C896.78 472.37 897.12 466.55 900.58 449.87" stroke="#0a0d10" stroke-width="3" stroke-linecap="round" stroke-linejoin="round" opacity="1" fill="none"></path><path d="M818.22 421.1C815.16 419.83 812 418.83 808.76 418.12 812.31 402.87 822.29 405.11 826.86 413.64 829.13 417.89 831.67 421.9 833.58 424.84 828.37 424.01 823.24 422.76 818.22 421.1V421.1Z" fill="#0a0d10" stroke-linejoin="round" opacity="1" stroke-width="3" stroke="none"></path><path d="M809.33 416.01C813.28 403.12 822.52 405.53 826.86 413.64 828.46 416.62 830.18 419.48 831.74 421.94" stroke="#0a0d10" stroke-width="3" stroke-linecap="round" stroke-linejoin="round" opacity="1" fill="none"></path><path d="M853.04 418.31C853.84 421.43 854.31 423.4 854.31 423.4 852.07 419.11 843.54 421.46 838.65 423.21 847.88 410.37 851.02 410.35 853.04 418.31Z" fill="#0a0d10" stroke-linejoin="round" opacity="1" stroke-width="3" stroke="none"></path><path d="M840.51 420.69C848.9 409.63 851.56 411.06 853.45 420.08" stroke="#0a0d10" stroke-width="3" stroke-linecap="round" stroke-linejoin="round" opacity="1" fill="none"></path><path d="M839.57 405.12C839.57 405.12 837.78 392.18 828.13 383.91 818.48 375.64 807.54 385.73 807.54 385.73" stroke="#0a0d10" stroke-width="3" stroke-linecap="round" stroke-linejoin="round" opacity="1" fill="none"></path><path d="M782.64 413.66C782.64 413.66 775.94 449.72 748.81 457.44" stroke="#0a0d10" stroke-width="3" stroke-linecap="round" stroke-linejoin="round" opacity="1" fill="none"></path><path d="M768.65 397.35C768.65 397.35 757.69 412.39 749.81 421.72" stroke="#0a0d10" stroke-width="3" stroke-linecap="round" stroke-linejoin="round" opacity="1" fill="none"></path><path d="M845.99 357.36C846.7 364.91 846.59 372.51 845.68 380.03" stroke="#0a0d10" stroke-width="3" stroke-linecap="round" stroke-linejoin="round" opacity="1" fill="none"></path><path d="M861.87 875.18C866.12 873.58 872.05 870.71 873.63 866.83 877.79 856.71 879.19 843.65 876 832.89L875.72 831.99C875.29 830.63 874.77 829.28 874.15 827.98 870.55 820.4 863.9 814.12 855.59 809.5" stroke="#073c22" stroke-width="3" stroke-linecap="round" stroke-linejoin="round" opacity="1" fill="none"></path><path d="M1076.96 781.99C1076.96 781.99 1057.31 770.26 1047.81 768.19 1038.32 766.13 1013.58 765.78 990.2 774.05 966.82 782.32 938.35 784.06 919.71 788.89 901.07 793.71 892.95 800.62 891.24 802 889.53 803.37 868.87 805.79 863.46 805.79 860.53 805.79 857.85 807.92 856.05 809.77" stroke="#073c22" stroke-width="3" stroke-linecap="round" stroke-linejoin="round" opacity="1" fill="none"></path><path d="M532.02 698.9C532.02 698.9 525.37 696.63 521.19 687.16" stroke="#073c22" stroke-width="3" stroke-linecap="round" stroke-linejoin="round" opacity="1" fill="none"></path></g><g><path d="M228.2 541.22C203.74 541.22 183.92 521.39 183.92 496.94 183.92 472.49 203.74 452.67 228.2 452.67 252.65 452.67 272.47 472.49 272.47 496.94 272.47 521.39 252.65 541.22 228.2 541.22Z" fill="#ffffcc" opacity="1" stroke-width="3" stroke="none"></path><path d="M204.28 489.98C204.27 489.98 204.26 489.98 204.26 489.98 204.25 489.98 204.25 489.99 204.25 489.99 204.24 490 204.24 490 204.24 490.01 204.23 490.01 204.23 490.02 204.23 490.03L204.23 513.08C204.23 513.1 204.24 513.11 204.25 513.12 204.25 513.13 204.26 513.13 204.28 513.13H217.98C218.19 513.13 220.17 516.7 224.48 516.7H244.29C246.08 516.7 247.98 515.76 248.72 514.07 249.13 512.96 249.14 511.75 248.74 510.64 248.73 510.63 248.73 510.62 248.73 510.62 248.73 510.62 248.73 510.61 248.74 510.6 248.74 510.6 248.74 510.59 248.75 510.59 248.75 510.58 248.76 510.58 248.76 510.58 249.08 510.48 250.88 509.82 251.46 507.33 251.62 506.5 251.6 505.65 251.39 504.83 251.17 504.02 250.78 503.26 250.23 502.63 250.23 502.62 250.22 502.61 250.22 502.61 250.22 502.6 250.22 502.59 250.22 502.59 250.22 502.58 250.22 502.57 250.23 502.57 250.23 502.57 250.24 502.56 250.24 502.56 250.55 502.36 252.3 501.12 252.3 498.05 252.3 494.93 250.4 493.62 250.12 493.44 250.11 493.43 250.11 493.42 250.1 493.41 250.1 493.4 250.1 493.39 250.11 493.38 251.97 489.28 249.45 485.62 245.98 485.62H236.57C236.56 485.62 236.56 485.62 236.55 485.61 236.54 485.61 236.54 485.6 236.53 485.59 236.53 485.59 236.53 485.58 236.53 485.57 236.53 485.57 236.53 485.56 236.53 485.55L238.13 482.41C239.17 480.36 239.71 478.11 239.71 475.81V475.58C239.69 474.65 239.41 473.74 238.89 472.97 238.37 472.19 237.63 471.58 236.77 471.22 236.48 471.09 236.16 471.03 235.84 471.03 235.27 471.03 234.73 471.23 234.29 471.6 233.86 471.97 233.57 472.48 233.48 473.04 233.18 474.91 232.27 476.63 230.88 477.93V477.93L218.04 489.97C218.03 489.97 218.02 489.98 218.01 489.98L204.28 489.98Z" fill="#ffffcc" stroke="#5d5d00" stroke-width="3" stroke-linecap="round" stroke-linejoin="round" opacity="1"></path><path d="M207.9 512.82L207.79 489.98" stroke="#5d5d00" stroke-width="3" stroke-linecap="round" stroke-linejoin="round" opacity="1" fill="none"></path></g><g><path d="M1339.92 980H260.08C257.41 980 254.84 977.15 252.95 972.09 251.06 967.03 250 960.16 250 953 250 945.84 251.06 938.97 252.95 933.91 254.84 928.85 257.41 926 260.08 926H1339.92C1342.59 926 1345.16 928.85 1347.05 933.91 1348.94 938.97 1350 945.84 1350 953 1350 960.16 1348.94 967.03 1347.05 972.09 1345.16 977.15 1342.59 980 1339.92 980Z" fill="#99c665" opacity="1" stroke-width="3" stroke="none"></path></g></svg>