<svg xmlns="http://www.w3.org/2000/svg" height="1200" width="1600" version="1.1" xmlns:xlink="http://www.w3.org/1999/xlink" xmlns:svgjs="http://svgjs.com/svgjs"><rect fill="#ffffff" width="1600" height="1200"></rect><g><path d="M533.19 681.64C457.72 690.9 452.16 755.77 449.3 771.09 446.44 786.48 390.57 796.24 387.71 868.94 384.85 941.56 450.65 948.63 461.84 964.03 473.11 979.51 484.22 1028.31 552.8 1025.62 621.46 1022.93 614.39 976.65 635.43 968.23 656.38 959.82 719.32 969.58 736.06 922.12 752.89 874.58 737.41 845.22 729 821.4 720.67 797.59 737.41 748.79 713.6 727.75 689.7 706.8 660.42 719.34 645.1 715.21 629.87 711.01 590.41 674.57 533.19 681.64Z" fill="#e6ffcc" opacity="1" stroke-width="3" stroke="none"></path><path d="M748.52 646.55C680.02 578.06 712.08 526.23 709.39 489.96 706.53 453.53 681.37 394.79 717.8 327.73 754.24 260.58 779.4 274.47 829.72 235.43 880.03 196.3 910.75 157 1011.47 182.16 1112.19 207.41 1112.19 302.49 1151.31 336.06 1190.36 369.63 1229.65 428.37 1204.49 512.26 1179.33 596.23 1109.33 590.68 1081.47 621.39 1053.45 652.11 1042.35 716.56 964.01 724.89 885.59 733.22 866.15 671.71 843.68 666.16 821.22 660.6 770.82 669.02 748.52 646.55Z" fill="#e6ffcc" opacity="1" stroke-width="3" stroke="none"></path></g><g><path d="M965.2 304.89C965.66 304.62 966.21 304.48 966.76 304.48 967.27 304.48 967.82 304.62 968.27 304.89 968.78 305.17 969.14 305.53 969.42 305.99 969.69 306.5 969.83 307 969.83 307.55V350.91C969.83 351.46 969.69 352.01 969.42 352.51 969.1 352.97 968.73 353.38 968.23 353.61 967.72 353.89 967.17 354.03 966.62 353.98 966.07 353.98 965.52 353.8 965.07 353.48L936.92 334.87C936.74 334.73 936.56 334.82 936.56 335.05V345.59C936.56 347.29 936.24 348.98 935.59 350.59 934.91 352.15 933.94 353.61 932.75 354.8 931.56 356 930.09 356.96 928.54 357.6 926.93 358.29 925.24 358.61 923.54 358.61H873.9C872.21 358.61 870.51 358.29 868.91 357.6 867.35 356.96 865.88 356 864.69 354.8 863.5 353.61 862.54 352.15 861.89 350.59 861.21 348.98 860.89 347.29 860.89 345.59V314.15C860.89 312.45 861.21 310.76 861.89 309.15 862.54 307.6 863.5 306.17 864.69 304.94 865.88 303.75 867.35 302.78 868.91 302.14 870.51 301.45 872.21 301.13 873.9 301.13H923.54C925.24 301.13 926.93 301.45 928.54 302.14 930.09 302.78 931.52 303.75 932.75 304.94 933.94 306.17 934.91 307.6 935.55 309.15 936.24 310.76 936.56 312.45 936.56 314.15V321.35C936.56 321.62 936.74 321.71 936.97 321.57L965.2 304.89Z" fill="#99cb65" opacity="1" stroke-width="3" stroke="none"></path></g><g><path d="M1047.86 317.64L1080.35 332.53C1080.67 332.68 1081.01 332.73 1081.35 332.68 1083.43 332.38 1091.59 331.22 1102.47 329.41 1115.13 327.29 1123.4 337.32 1123.75 344.89 1124.06 351.55 1120.35 358.76 1110.78 363 1110.48 363.13 1110.23 363.37 1110.07 363.66 1109.92 363.95 1109.87 364.28 1109.92 364.61L1112.36 378.93C1112.61 380.21 1112.34 381.54 1111.62 382.63 1110.91 383.73 1109.8 384.5 1108.52 384.79 1107.87 384.92 1107.21 384.92 1106.56 384.79 1105.92 384.66 1105.3 384.4 1104.76 384.02 1104.22 383.65 1103.75 383.17 1103.39 382.62 1103.04 382.06 1102.8 381.44 1102.69 380.79L1100.46 367.72C1100.42 367.52 1100.35 367.32 1100.23 367.15 1100.12 366.97 1099.97 366.82 1099.79 366.71 1099.62 366.6 1099.42 366.52 1099.21 366.49 1099.01 366.46 1098.8 366.47 1098.6 366.52 1092.83 368.04 1089.39 368.79 1088.04 369.17 1087.63 369.28 1087.27 369.54 1087.03 369.9L1067.33 402.39C1066.07 404.12 1063.53 402.77 1063.05 400.7L1045.4 321.85C1045.01 320.17 1046.12 317.06 1047.86 317.64Z" fill="#ffffff" opacity="1" stroke-width="3" stroke="none"></path><path d="M1081.18 334.86L1087.78 366.61" stroke="#808080" stroke-width="3" stroke-linecap="round" stroke-linejoin="round" opacity="1" fill="none"></path><path d="M1047.47 317.46L1047.86 317.64 1067.33 402.39 1067.18 402.63C1066.9 403.05 1066.52 403.36 1066.07 403.56 1065.61 403.75 1065.12 403.81 1064.63 403.72 1064.14 403.63 1063.7 403.4 1063.34 403.06 1062.98 402.72 1062.74 402.29 1062.63 401.81L1043.97 320.32C1043.86 319.85 1043.89 319.37 1044.04 318.93 1044.19 318.49 1044.47 318.1 1044.83 317.8 1045.2 317.5 1045.64 317.31 1046.1 317.25 1046.57 317.19 1047.04 317.26 1047.47 317.46V317.46Z" fill="#006633" opacity="1" stroke-width="3" stroke="none"></path><path d="M1004.66 329.62L1031.83 338.96C1031.87 338.97 1031.88 339.01 1031.88 339.04L1030.29 343.65C1030.28 343.68 1030.25 343.7 1030.21 343.69L1003.04 334.36C1003.01 334.35 1002.99 334.31 1003 334.28L1004.59 329.66C1004.6 329.63 1004.63 329.61 1004.66 329.62Z" fill="#ffffff" opacity="1" stroke-width="3" stroke="none"></path><path d="M1037.4 377.6L1042.19 380.68C1042.21 380.7 1042.23 380.74 1042.21 380.77L1026.66 404.93C1026.64 404.95 1026.61 404.96 1026.58 404.95L1021.79 401.86C1021.76 401.84 1021.75 401.81 1021.77 401.77L1037.31 377.61C1037.33 377.59 1037.37 377.58 1037.4 377.6Z" fill="#ffffff" opacity="1" stroke-width="3" stroke="none"></path><path d="M1030.06 359.68L1031.14 364.58C1031.15 364.61 1031.13 364.65 1031.1 364.66L1003.04 370.84C1003.01 370.84 1002.98 370.82 1002.97 370.79L1001.89 365.88C1001.88 365.85 1001.9 365.81 1001.94 365.81L1029.99 359.63C1030.02 359.62 1030.06 359.64 1030.06 359.68Z" fill="#ffffff" opacity="1" stroke-width="3" stroke="none"></path></g><g><path d="M752.4 813.08C752.42 813.08 752.44 813.09 752.46 813.11 752.47 813.12 752.48 813.14 752.48 813.16L759.62 867.36 784.99 1060.26C785.21 1061.9 784.76 1063.57 783.77 1064.9 782.77 1066.23 781.3 1067.11 779.66 1067.37 778.01 1067.64 776.34 1067.24 774.98 1066.28 773.62 1065.32 772.69 1063.87 772.39 1062.24V1062.24L738.66 882.15 725.85 813.71C725.84 813.69 725.85 813.67 725.86 813.65 725.87 813.63 725.89 813.62 725.91 813.61 726.94 813.25 737.77 809.77 752.4 813.08Z" fill="#fdfdfd" opacity="1" stroke-width="3" stroke="none"></path><path d="M725.55 813.71C725.54 813.69 725.55 813.67 725.56 813.65 725.57 813.63 725.59 813.62 725.61 813.61 734.43 811.03 743.76 810.78 752.7 812.88 752.72 812.89 752.74 812.9 752.76 812.91 752.77 812.93 752.78 812.95 752.78 812.97L759.6 867.25C759.61 867.28 759.6 867.31 759.59 867.34 759.58 867.37 759.56 867.39 759.54 867.41L738.75 882.09C738.74 882.1 738.73 882.1 738.72 882.11 738.7 882.11 738.69 882.11 738.68 882.1 738.67 882.1 738.66 882.09 738.66 882.08 738.65 882.07 738.65 882.06 738.65 882.05L725.55 813.71Z" fill="#dbdbdb" opacity="1" stroke-width="3" stroke="none"></path><path d="M793.79 792.51C793.79 792.49 793.79 792.48 793.79 792.46 793.79 792.44 793.78 792.43 793.77 792.42 793.76 792.41 793.75 792.4 793.73 792.39 793.72 792.38 793.7 792.38 793.69 792.38H760.97C740.49 792.38 702.88 784.29 692.4 749.05 681.93 713.81 664.31 601.91 661.92 587.16 659.54 572.41 644.3 560.96 624.78 560.96H542.4C526.21 560.96 516.01 570.94 513.83 586.2 511.93 599.53 502.4 707.62 500.03 741.43 497.65 775.24 518.12 814.29 570.98 814.29H736.69C771.3 814.29 790.81 802.94 793.79 792.51Z" fill="#ffffff" opacity="1" stroke-width="3" stroke="none"></path><path d="M642.94 812.36C642.91 812.36 642.9 812.37 642.88 812.39 642.87 812.4 642.86 812.42 642.85 812.44L630.89 916.83 614.43 1060.39V1060.39C614.14 1061.99 614.46 1063.64 615.3 1065.01 616.14 1066.39 617.46 1067.42 619.01 1067.89V1067.89C619.88 1068.16 620.79 1068.25 621.69 1068.14 622.59 1068.04 623.46 1067.75 624.25 1067.31 625.04 1066.86 625.73 1066.25 626.27 1065.53 626.81 1064.8 627.21 1063.97 627.41 1063.08V1063.08L670.49 814.28C670.49 814.29 659.12 809.55 642.94 812.36Z" fill="#fdfdfd" opacity="1" stroke-width="3" stroke="none"></path><path d="M538.56 807.36C538.54 807.36 538.52 807.37 538.51 807.39 538.49 807.4 538.48 807.42 538.48 807.44L511.09 923.52 479.04 1059.38C478.66 1061.05 478.93 1062.83 479.83 1064.3 480.71 1065.77 482.15 1066.85 483.82 1067.28 485.48 1067.72 487.26 1067.5 488.76 1066.65 490.26 1065.8 491.38 1064.4 491.86 1062.75V1062.75L565.94 810.81C565.95 810.79 565.94 810.76 565.93 810.74 565.92 810.72 565.91 810.7 565.89 810.69 564.89 810.22 554.07 805.47 538.56 807.36Z" fill="#fdfdfd" opacity="1" stroke-width="3" stroke="none"></path><path d="M630.97 916.77C630.93 916.8 630.89 916.78 630.9 916.73L642.63 812.33C642.63 812.31 642.64 812.29 642.65 812.29 642.67 812.28 642.68 812.26 642.7 812.26 655.41 808.53 665.32 811.66 670.43 814.25 670.44 814.26 670.46 814.27 670.47 814.29 670.48 814.31 670.48 814.32 670.48 814.34L655.79 899.14C655.77 899.2 655.74 899.26 655.69 899.3L630.97 916.77Z" fill="#dbdbdb" opacity="1" stroke-width="3" stroke="none"></path><path d="M538.53 904.03C538.51 904.09 538.47 904.15 538.42 904.18L511.17 923.46C511.12 923.49 511.1 923.47 511.11 923.42L538.38 807.34C538.38 807.32 538.39 807.3 538.41 807.29 538.42 807.27 538.44 807.26 538.46 807.26 552.92 805.51 563.28 809.33 565.9 810.69 565.92 810.7 565.93 810.72 565.94 810.74 565.95 810.76 565.95 810.78 565.95 810.8 565.64 812.3 564.71 815.02 564.69 815.11L538.53 904.03Z" fill="#dbdbdb" opacity="1" stroke-width="3" stroke="none"></path><path d="M537.63 566.26H618.1C630.48 566.26 646.67 567.21 654.29 582.92" stroke="#dbdbdb" stroke-width="3" stroke-linecap="round" opacity="1" fill="none"></path><path d="M492.9 1059.19L564.97 814.11" stroke="#d6d6d6" stroke-width="3" stroke-linecap="round" stroke-linejoin="round" opacity="1" fill="none"></path><path d="M627.41 1063.08L670.49 814.28" stroke="#d6d6d6" stroke-width="3" stroke-linecap="round" stroke-linejoin="round" opacity="1" fill="none"></path></g><g><path d="M690.96 226.42C690.96 226.42 690.96 226.41 690.96 226.41 690.96 226.02 690.81 211.93 680.33 209 670.18 206.16 660.02 214.18 659.13 214.9 659.12 214.92 659.1 214.92 659.08 214.92 659.05 214.93 659.03 214.92 659.01 214.91 658.03 214.31 646.84 207.72 639.53 216.65 632.34 225.43 634.16 233.85 634.41 234.82 634.41 234.86 634.41 234.88 634.4 234.9 634.39 234.93 634.36 234.95 634.34 234.96 633.53 235.3 627.58 237.94 626.78 244.27 626.38 248.57 627.41 252.89 629.73 256.54 629.74 256.56 629.74 256.57 629.75 256.59 629.75 256.62 629.74 256.63 629.74 256.65 629.42 257.46 625.85 267.12 633.59 274.44 641.06 281.52 647.79 279.5 648.77 279.16 648.78 279.15 648.8 279.15 648.81 279.15 648.83 279.15 648.84 279.16 648.86 279.16 648.88 279.17 648.89 279.18 648.89 279.19 648.9 279.21 648.91 279.23 648.91 279.24 649.62 282.1 651.09 284.72 653.19 286.8 655.28 288.88 657.91 290.33 660.78 291 670.74 293.49 683.13 279.39 683.71 278.71 683.72 278.69 683.73 278.67 683.73 278.66L690.96 226.42Z" fill="#020203" opacity="1" stroke-width="3" stroke="none"></path><path d="M775.45 977.03C773.41 983.19 772.05 989.53 771.4 995.98 771.27 997.53 771.26 999.08 771.37 1000.63 771.92 1008.16 775.32 1015.15 781.37 1022.24 788.66 1030.78 813.38 1046.85 813.38 1046.85L783.18 1054.92 724.82 1016.02 734.54 976.32 775.45 977.03Z" fill="#dc9c74" opacity="1" stroke-width="3" stroke="none"></path><path d="M724.83 1016.03L734.55 976.33 745.76 976.52 750.59 981.11C750.59 981.11 743.8 992.72 743.8 1001.23 743.8 1006.94 747.13 1022.68 749.31 1032.35L724.83 1016.03Z" fill="#d6834f" opacity="1" stroke-width="3" stroke="none"></path><path d="M733.02 982.56L733.77 979.5 769.06 976.92 775.45 977.03C773.14 984.7 771.77 992.62 771.37 1000.63L733.02 982.56Z" fill="#d6834f" opacity="1" stroke-width="3" stroke="none"></path><path d="M804 1041.12C804.39 1040.79 804.87 1040.59 805.38 1040.56 805.88 1040.54 806.37 1040.69 806.79 1040.98 809.81 1043.17 816.99 1048.32 824.41 1053.49 834.19 1060.29 834.19 1061.57 833.35 1063.69 832.35 1065.66 831.12 1067.49 829.69 1069.17 829.68 1069.18 829.67 1069.2 829.66 1069.21 829.64 1069.22 829.63 1069.22 829.6 1069.22 828.31 1069.22 803.71 1069.21 789.24 1069.21 786.48 1069.21 784.14 1069.22 782.35 1069.22 770.88 1069.22 757.69 1063.69 751.75 1062.42 745.81 1061.15 743.25 1060.73 743.25 1060.73V1068.38H726.25C726.25 1068.38 722 1050.53 722 1036.07 722 1021.61 726.68 1017.37 726.68 1017.37 726.68 1017.37 755.58 1030.97 769.18 1037.77 782.17 1044.28 794.41 1049.62 804 1041.12Z" fill="#45452a" opacity="1" stroke-width="3" stroke="none"></path><path d="M726.23 1068.38C726.23 1068.38 721.98 1050.53 721.98 1036.07 721.98 1021.61 726.65 1017.37 726.65 1017.37 726.65 1017.37 736.58 1022.04 747.55 1027.27 750.83 1034.19 755.46 1040.38 769.1 1047.01 781.27 1052.92 786.87 1065.6 789.24 1069.21 786.5 1069.33 784.09 1069.25 782.34 1069.21 770.86 1069.21 757.68 1063.68 751.74 1062.41 745.8 1061.14 743.23 1060.71 743.23 1060.71V1068.36H726.23V1068.38Z" fill="#222218" opacity="1" stroke-width="3" stroke="none"></path><path d="M734.08 983.16C734.08 983.16 734.01 989.55 733.16 997.26 732.61 1002.26 742.26 1019.2 747.47 1030.97 750.29 1037.34 752.69 1045.16 752.69 1045.16 759.08 1056.3 744.22 1058.34 726.46 1060.62L684.12 1025.79C683.4 1025.21 682.84 1024.43 682.51 1023.57 682.17 1022.7 682.06 1021.76 682.19 1020.84 682.55 1018.39 683.27 1014.12 684.73 1006.75 686.25 999.1 687.62 992.26 688.58 987.45 689.51 982.8 690.06 980.06 690.06 980.06L734.08 983.16Z" fill="#dc9c74" opacity="1" stroke-width="3" stroke="none"></path><path d="M688.59 987.45C688.78 984.95 689.27 982.47 690.06 980.07L736.26 982.05 733.57 992.73C730.97 994.11 725.63 996.11 716.44 996.11 707.42 996.11 695.75 991.09 688.59 987.45Z" fill="#d6834f" opacity="1" stroke-width="3" stroke="none"></path><path d="M734.08 983.16C734.08 983.16 734.01 989.55 733.16 997.26 732.61 1002.26 742.26 1019.2 747.47 1030.97 747.55 1031.15 747.63 1031.33 747.71 1031.51" stroke="#d67336" stroke-width="3" stroke-linecap="round" stroke-linejoin="round" opacity="1" fill="none"></path><path d="M767.83 662.52C767.87 662.59 767.89 662.66 767.91 662.73L771.83 675.61C771.83 675.62 771.84 675.63 771.86 675.65 771.87 675.66 771.88 675.67 771.9 675.67 774.37 676.53 860.44 706.42 873.28 717.58 886.31 728.92 889.71 761.78 884.61 773.68 879.51 785.58 837.01 881.92 829.64 896.65 822.27 911.37 804.7 928.38 803.57 933.48 802.43 938.58 799.03 948.22 796.2 956.15 793.37 964.08 786 980.51 784.3 983.92 782.74 987.04 783.09 993.5 783.16 994.54 783.16 994.56 783.16 994.58 783.15 994.6 783.15 994.61 783.13 994.62 783.12 994.63 783.11 994.64 783.09 994.65 783.08 994.65 783.06 994.67 783.04 994.67 783.02 994.67L742.47 987.34C742.45 987.33 742.41 987.34 742.38 987.35 742.36 987.38 742.34 987.4 742.32 987.42L740.13 992.88C740.12 992.9 740.1 992.92 740.08 992.95 740.04 992.96 740.02 992.97 739.99 992.96L675.04 982.23C675.03 982.23 675.02 982.23 674.99 982.22 674.98 982.21 674.97 982.2 674.97 982.19 674.96 982.17 674.95 982.15 674.95 982.14 674.95 982.13 674.95 982.11 674.95 982.1 675.72 978.93 691.96 912.86 693.63 904 695.29 895.09 712.33 796.2 712.87 793.01 712.88 792.99 712.87 792.97 712.86 792.96 712.86 792.93 712.84 792.91 712.82 792.9L703.71 787.86C703.68 787.84 703.67 787.84 703.65 787.84H601.25C567.25 787.84 539.48 736.85 544.02 713.04 544.37 711.21 544.82 709.11 545.39 706.93 552.07 681.3 572.54 634.16 573.45 632.08 573.46 632.05 573.47 632.04 573.49 632.03 573.52 632.02 573.54 632.01 573.56 632.01L757.55 641.06C757.58 641.06 757.61 641.08 757.64 641.1 757.67 641.12 757.69 641.14 757.7 641.16L767.83 662.52Z" fill="#99cb65" opacity="1" stroke-width="3" stroke="none"></path><path d="M703.28 683.59C703.28 683.59 754.85 695.49 778.65 701.16 802.45 706.83 823.42 734.59 827.39 745.36 831.37 756.13 825.12 786.73 822.29 792.97 795.67 851.6 742.44 987.15 742.37 987.32" stroke="#5e7843" stroke-width="3" stroke-linecap="round" stroke-linejoin="round" opacity="1" fill="none"></path><path d="M737.84 673.95L727.08 688.69" stroke="#5e7843" stroke-width="3" stroke-linecap="round" stroke-linejoin="round" opacity="1" fill="none"></path><path d="M763.78 680.19L745.08 684.15" stroke="#5e7843" stroke-width="3" stroke-linecap="round" stroke-linejoin="round" opacity="1" fill="none"></path><path d="M749.14 392.29C749.17 392.31 749.18 392.33 749.19 392.36L753.55 407.06C753.57 407.14 753.6 407.21 753.64 407.27L755.68 410.84C755.71 410.91 755.76 410.97 755.8 411.02L786.5 444.94C786.55 444.99 786.57 445.06 786.57 445.13L778.66 523.68C778.65 523.75 778.63 523.81 778.61 523.89L744.69 603.02C744.67 603.09 744.67 603.16 744.69 603.23L771.81 663.66C771.81 663.68 771.82 663.69 771.82 663.7 771.82 663.72 771.81 663.73 771.81 663.74 771.8 663.75 771.8 663.77 771.79 663.78 771.78 663.79 771.77 663.8 771.74 663.8L735.69 676.9C735.66 676.91 735.62 676.91 735.6 676.91 735.56 676.9 735.53 676.89 735.5 676.86L719.95 663.83C719.89 663.8 719.86 663.81 719.86 663.88L720.29 678.94C720.29 678.95 720.27 678.96 720.27 678.99 720.26 679 720.25 679.01 720.24 679.02 720.23 679.03 720.22 679.04 720.21 679.04 720.18 679.05 720.17 679.05 720.16 679.05 715.79 678.64 599.96 667.72 589.95 667.17 580.1 666.62 561.79 666.61 560.55 666.61 560.53 666.61 560.51 666.61 560.5 666.62 560.47 666.63 560.46 666.64 560.45 666.66L555.44 675.57C555.41 675.63 555.39 675.62 555.4 675.56L567.84 570.39C567.85 570.31 567.88 570.24 567.9 570.17L646.05 417.29C646.06 417.27 646.07 417.26 646.08 417.25 646.87 416.67 669.37 400.22 673.83 397.43 678.17 394.7 683.57 380.53 683.99 379.37 684 379.35 684.01 379.34 684.04 379.31 684.06 379.3 684.08 379.3 684.1 379.3 685.49 379.34 704.32 379.84 716.33 379.3 728.49 378.73 748.21 391.68 749.14 392.29Z" fill="#45452a" opacity="1" stroke-width="3" stroke="none"></path><path d="M675.66 392.18C675.66 392.18 683.99 401.73 691.56 412.62 695.83 418.76 699.86 425.34 702.01 430.86 707.96 446.16 706.68 459.76 708.39 479.31 710.1 498.85 710.51 595.33 711.37 603.84L712.22 612.34C712.22 612.34 711.37 623.82 708.82 631.89 706.27 639.95 708.82 659.09 713.06 668.01 715.79 673.82 718.2 679.78 720.29 685.86 720.29 685.86 699.03 682.03 676.51 679.06 653.99 676.1 636.14 676.6 607.65 680.76 580.03 684.79 550.92 694.15 550.92 694.15 548.68 698.23 546.83 702.51 545.39 706.93 545.39 706.93 539.62 704.31 536.65 700.63 535.29 698.94 534.52 697 535.19 695 537.31 688.62 556.66 647.61 556.66 647.61 556.66 647.61 547.73 636.99 544.76 631.89 541.79 626.79 542.64 583.44 546.88 574.08 551.13 564.72 585.56 477.18 589.8 469.53 594.05 461.88 601.28 443.17 607.23 434.25 613.17 425.34 675.66 392.18 675.66 392.18Z" fill="#60977c" opacity="1" stroke-width="3" stroke="none"></path><path d="M550.92 694.14L545.39 706.93C541.87 705.83 538.81 703.61 536.65 700.61 536.54 700.32 536.48 699.99 536.47 699.67 536.67 696.27 550.92 694.14 550.92 694.14Z" fill="#60977c" opacity="1" stroke-width="3" stroke="none"></path><path d="M550.92 694.14L545.39 706.93C541.87 705.83 538.81 703.61 536.65 700.61 536.54 700.32 536.48 699.99 536.47 699.67 536.67 696.27 550.92 694.14 550.92 694.14Z" fill="#295e44" opacity="1" stroke-width="3" stroke="none"></path><path d="M753.58 407.17C753.58 407.17 755.13 415.97 756.83 422.35 758.52 428.73 759.38 480.15 755.55 498 751.72 515.85 735.57 601.7 733.87 614.45 732.16 627.2 743.21 679.05 743.21 679.05L772.65 677.58 781.71 679.63C783.91 679.9 790.39 679.04 789.96 676.92 789.54 674.8 754.27 606.51 753.41 602.25 752.59 598.2 771.55 559.12 773.26 555.61 773.27 555.59 773.28 555.58 773.31 555.57 773.33 555.56 773.35 555.55 773.37 555.55 773.39 555.56 773.42 555.56 773.43 555.57 773.45 555.59 773.46 555.6 773.47 555.63 774.92 560.19 794.67 621.72 806.53 633.99 818.85 646.74 829.91 661.61 839.25 660.34 848.6 659.07 871.98 647.59 877.07 643.76 882.11 639.99 949.81 527.07 951.58 524.11 951.59 524.1 951.59 524.07 951.59 524.05 951.59 524.03 951.59 524.01 951.58 523.99 950.89 522.89 940.56 506.75 933.17 502.24 925.52 497.56 912.01 497.08 912.01 497.08L845.2 576.61C845.2 576.61 809.07 479.28 805.67 472.91 802.26 466.54 800.14 441.88 796.32 437.21 792.5 432.54 759.34 412.98 759.34 412.98L753.58 407.17Z" fill="#60977c" opacity="1" stroke-width="3" stroke="none"></path><path d="M931.37 503.95L936.34 504.68C945.03 509.31 950.89 522.34 951.62 524.05 951.63 524.07 951.63 524.1 951.63 524.11 951.63 524.13 951.62 524.15 951.61 524.16 951.59 524.19 951.57 524.2 951.55 524.2 951.54 524.21 951.52 524.21 951.49 524.21 947.97 523.42 944.53 522.24 941.26 520.68 938.45 519.44 935.14 517.84 931.09 515.57 921.74 507.07 931.37 503.95 931.37 503.95Z" fill="#60977c" opacity="1" stroke-width="3" stroke="none"></path><path d="M931.37 503.95L936.34 504.68C945.03 509.31 950.89 522.34 951.62 524.05 951.63 524.07 951.63 524.1 951.63 524.11 951.63 524.13 951.62 524.15 951.61 524.16 951.59 524.19 951.57 524.2 951.55 524.2 951.54 524.21 951.52 524.21 951.49 524.21 947.97 523.42 944.53 522.24 941.26 520.68 938.45 519.44 935.14 517.84 931.09 515.57 921.74 507.07 931.37 503.95 931.37 503.95Z" fill="#295e44" opacity="1" stroke-width="3" stroke="none"></path><path d="M746.33 362.03C746.31 362.03 746.3 362.03 746.29 362.03 746.27 362.03 746.26 362.04 746.24 362.05 746.23 362.06 746.22 362.07 746.21 362.08 746.21 362.09 746.2 362.11 746.2 362.13L744.92 376.72 743.67 390.78C743.67 390.82 743.65 390.85 743.63 390.87 743.61 390.88 743.58 390.9 743.55 390.9H739.94C739.91 390.91 739.88 390.92 739.85 390.93 739.82 390.95 739.81 390.97 739.79 391.01L729.25 417.15C729.23 417.2 729.19 417.2 729.18 417.15L724.98 392.7C724.97 392.67 724.96 392.65 724.94 392.61 724.91 392.59 724.88 392.57 724.86 392.56L693.61 381.16C693.58 381.14 693.56 381.12 693.55 381.1 693.53 381.07 693.53 381.03 693.54 381.01L706.22 335.36C706.22 335.34 706.22 335.31 706.22 335.3 706.21 335.28 706.21 335.27 706.19 335.25 705.28 334.19 688.55 314.62 679.05 292.71 669.27 270.17 686.27 223.85 705.4 218.75 724.53 213.65 758.53 220.03 774.68 230.23 779.21 233.13 782.77 237.33 784.89 242.28 789.86 253.4 789.09 267.1 789.97 272.74 791.26 280.81 797.2 291.44 798.48 298.23 799.76 305.03 797.62 323.31 793.38 337.76 789.13 352.22 778.51 361.57 770.86 363.26 763.59 364.89 747.86 362.28 746.33 362.03Z" fill="#dc9c74" opacity="1" stroke-width="3" stroke="none"></path><path d="M772.93 282.12C773.04 285.14 773.44 288.14 774.13 291.08 778.07 296.92 784.73 305.48 795.28 300.13 797.05 299.3 798.66 298.13 800.01 296.71 800.01 296.71 803.91 293.85 804.44 281.31 804.85 271.78 801.41 266.15 799.74 264 799.49 263.68 799.16 263.41 798.8 263.23 798.43 263.05 798.03 262.95 797.62 262.94 788.95 262.86 781.59 267.24 779.08 270.16 776.44 273.23 772.93 282.12 772.93 282.12Z" stroke="#45452a" stroke-width="3" stroke-linecap="round" stroke-linejoin="round" opacity="1" fill="none"></path><path d="M912.01 497.08C912 497.1 912 497.12 912 497.15 912 497.17 912.01 497.2 912.02 497.21 919.23 505.35 930.69 518.76 941.26 520.68 941.28 520.68 941.32 520.68 941.34 520.67 941.36 520.66 941.37 520.64 941.38 520.61L956.13 487.88C956.14 487.86 956.15 487.85 956.18 487.84 956.2 487.82 956.22 487.81 956.26 487.82 957.97 488.07 985.62 492.01 989.31 490.78 993.14 489.5 1013.54 482.7 1019.07 480.58 1024.6 478.46 1039.9 469.1 1039.9 466.13 1039.9 463.52 1033.93 465.19 1032.54 465.62 1032.52 465.63 1032.49 465.63 1032.47 465.62 1032.45 465.62 1032.43 465.59 1032.42 465.58 1032.4 465.56 1032.39 465.54 1032.39 465.52 1032.39 465.49 1032.39 465.47 1032.42 465.45 1033.35 463.94 1038.02 456.26 1036.5 455.09L1036.49 455.08C1032.22 450.82 1022.05 464.7 1021.63 465.27 1021.62 465.28 1021.61 465.29 1021.6 465.29L1015.91 468.76C1015.86 468.8 1015.85 468.78 1015.88 468.73L1022.33 460.05 1022.33 460.03C1022.5 459.74 1027.84 449.96 1025.44 446.16L1025.44 446.15C1024.19 444.52 1018.96 449.67 1014.77 456.57 1014.75 456.6 1014.73 456.61 1014.7 456.62 1014.68 456.63 1014.66 456.63 1014.62 456.62 1014.6 456.61 1014.58 456.59 1014.57 456.56 1014.55 456.54 1014.55 456.52 1014.55 456.48 1016.81 446.97 1014.32 446.22 1011.84 448.7 1009.3 451.24 996.25 465.96 996.11 466.12 996.03 466.21 991.83 471.22 988.46 470.8 985.28 470.4 975.04 462.57 973.72 461.56 973.71 461.55 973.7 461.53 973.69 461.52 973.69 461.49 973.68 461.48 973.68 461.46 973.69 461.44 973.69 461.43 973.7 461.4 973.71 461.39 973.72 461.38 973.75 461.37 975.49 460.47 991.25 452.19 995.27 446.58 999.51 440.62 993.57 438.5 988.89 440.2 984.2 441.89 970.61 448.27 958.29 451.25 945.97 454.23 942.14 453.37 938.32 458.47 934.6 463.44 913.17 495.36 912.01 497.08Z" fill="#dc9c74" opacity="1" stroke-width="3" stroke="none"></path><path d="M675.23 644.21C675.23 644.21 668.98 658.94 667.01 658.65 666.1 658.53 665.4 654.75 664.66 648.9 663.78 642.02 663.28 634.26 663.9 632.87 665.03 630.33 676.36 638.26 676.36 638.26L675.23 644.21Z" fill="#60977c" opacity="1" stroke-width="3" stroke="none"></path><path d="M675.23 644.21C675.23 644.21 668.98 658.94 667.01 658.65 666.1 658.53 665.4 654.75 664.66 648.9 663.78 642.02 663.28 634.26 663.9 632.87 665.03 630.33 676.36 638.26 676.36 638.26L675.23 644.21Z" fill="#295e44" opacity="1" stroke-width="3" stroke="none"></path><path d="M672.65 617.04C672.66 617.03 672.67 617.03 672.68 617.01 672.7 617.01 672.71 617.01 672.73 617.01L688.37 617.43C688.4 617.43 688.42 617.43 688.44 617.42 689.56 616.69 722.49 595.29 727.08 592.37 731.75 589.39 750.46 587.27 762.35 589.82 774.25 592.37 778.93 596.62 781.48 597.9 782.2 598.24 782.81 598.77 783.26 599.43 783.71 600.1 783.98 600.87 784.03 601.67 784.03 601.68 784.03 601.7 784.04 601.71 784.04 601.74 784.05 601.75 784.08 601.76 786.68 603.65 787.84 606.78 783.03 607.66 780.47 608.02 777.89 608.15 775.32 608.05 775.28 608.05 775.26 608.05 775.24 608.07 775.21 608.1 775.19 608.12 775.19 608.15 775.19 608.17 775.2 608.21 775.21 608.23 775.24 608.25 775.26 608.27 775.29 608.27 785.9 610.06 782.95 614.19 779.17 614.99 774.72 615.92 767.67 615.88 764.55 615.8 764.52 615.79 764.5 615.8 764.48 615.82 764.45 615.83 764.43 615.87 764.43 615.89 764.43 615.92 764.44 615.96 764.45 615.98 764.48 616 764.5 616.01 764.53 616.03 767.27 616.56 772.73 617.92 773.05 620.15 773.47 623.12 765.32 625.1 753.42 625.1 741.53 625.1 739.39 626.38 730.05 631.06 720.7 635.73 711.34 643.8 701.14 645.5 691.27 647.14 666.36 648.8 664.74 648.9 664.72 648.92 664.69 648.9 664.67 648.89 664.65 648.88 664.64 648.86 664.63 648.84 662.8 643.32 662.58 637.4 664 631.77 665.42 626.14 668.42 621.02 672.65 617.04Z" fill="#dc9c74" opacity="1" stroke-width="3" stroke="none"></path><path d="M743.01 1046.64H743.03C755.41 1046.64 751.15 1043.14 747.75 1031.94 747.75 1031.91 747.75 1031.88 747.76 1031.86 747.77 1031.83 747.8 1031.81 747.82 1031.8 747.84 1031.79 747.87 1031.79 747.9 1031.79 747.93 1031.8 747.95 1031.82 747.96 1031.85 749.99 1035.47 752.39 1038.89 755.12 1042.02 761.07 1048.4 769.56 1052.22 772.97 1055.63 776.19 1058.85 773.69 1068.17 773.42 1069.15 773.41 1069.17 773.39 1069.2 773.37 1069.21 773.35 1069.22 773.33 1069.23 773.31 1069.23H727.5C715.34 1069.23 706.08 1061.62 704.72 1060.45 704.71 1060.43 704.68 1060.42 704.66 1060.42 704.65 1060.42 704.63 1060.42 704.6 1060.43 704.58 1060.45 704.57 1060.46 704.56 1060.47 704.55 1060.49 704.54 1060.51 704.54 1060.52L704.13 1067.84C704.12 1067.87 704.11 1067.89 704.09 1067.92 704.07 1067.94 704.04 1067.95 704.01 1067.95H683.82C683.8 1067.95 683.77 1067.94 683.74 1067.92 683.72 1067.9 683.71 1067.87 683.71 1067.85 683.55 1066.23 681.57 1045.74 680.75 1033.09 680.31 1024.94 681.44 1016.77 684.08 1009.04 684.09 1009.02 684.1 1009.01 684.12 1008.99 684.13 1008.98 684.15 1008.98 684.17 1008.96 684.18 1008.96 684.21 1008.96 684.23 1008.98 684.24 1008.98 684.26 1008.99 684.27 1009 685.51 1010.38 695.57 1021.71 701.14 1029.69 707.09 1038.19 735.42 1045.39 743.01 1046.64Z" fill="#45452a" opacity="1" stroke-width="3" stroke="none"></path><path d="M747.96 1031.85C749.99 1035.47 752.39 1038.89 755.12 1042.02 761.07 1048.4 769.56 1052.22 772.97 1055.63 775.77 1058.41 774.26 1065.78 773.63 1068.34" stroke="#222218" stroke-width="3" stroke-linecap="round" stroke-linejoin="round" opacity="1" fill="none"></path><path d="M666.4 274.74C666.4 275.93 666.51 277.11 666.73 278.26 668.43 287.19 672.53 284.5 673.82 298.53 674.44 305.54 676.71 310.03 679.51 313.25 682.31 316.48 685.64 318.43 688.41 320.34 693.6 323.94 704.76 333.98 706.11 335.18 706.12 335.19 706.14 335.2 706.15 335.2 706.18 335.21 706.2 335.21 706.21 335.2 706.23 335.2 706.24 335.19 706.26 335.17 706.27 335.16 706.28 335.15 706.29 335.12 706.99 332.97 707.26 330.69 707.11 328.42 706.68 325.44 700.73 320.34 696.48 314.81 692.24 309.29 689.26 300.78 688.41 293.56 687.67 287.27 695.57 278.61 706.53 287.61 708.23 289.05 709.78 290.66 711.15 292.43 711.16 292.44 711.19 292.45 711.21 292.46 711.23 292.46 711.25 292.46 711.28 292.46 711.3 292.45 711.32 292.44 711.33 292.42 711.34 292.4 711.36 292.38 711.36 292.36 711.23 291.06 711.28 289.74 711.47 288.45 713.14 278.98 724.54 281.09 727.94 273.17 731.77 264.26 723.26 258.73 727.94 250.23 732.6 241.76 753.76 248.92 758.93 235.45 758.94 235.42 758.96 235.39 758.99 235.38 759.02 235.36 759.04 235.36 759.06 235.38 762.3 236.29 782.9 241.76 784.74 242.25 784.76 242.25 784.77 242.25 784.8 242.25 784.81 242.25 784.82 242.24 784.84 242.24 784.85 242.23 784.86 242.22 784.87 242.2 784.87 242.18 784.89 242.17 784.89 242.16V242.14C785.2 237.34 780.12 223.41 771.7 220.46 767.44 218.98 764.15 218.01 761.17 216.84 758.07 215.66 755.18 214.02 752.57 211.95 746.63 207.28 738.55 203.88 730.05 204.3 724.97 204.6 720.16 206.69 716.49 210.2L716.49 210.21C716.48 210.22 716.46 210.24 716.44 210.24 716.42 210.25 716.41 210.25 716.39 210.24H716.37C715.34 209.9 703.68 206.26 694.35 211.55 691.56 213.09 689.26 215.36 687.69 218.12 686.12 220.88 685.33 224.02 685.42 227.2 685.42 227.25 685.42 227.29 685.36 227.31 679.98 230.74 675.49 235.39 672.24 240.88 667.32 249.48 670.31 260.07 670.53 260.82L670.53 260.84C670.55 260.84 670.55 260.85 670.55 260.85 670.55 260.86 670.55 260.86 670.53 260.87L670.53 260.89C667.99 265.06 666.57 269.84 666.4 274.74V274.74Z" fill="#020203" opacity="1" stroke-width="3" stroke="none"></path><path d="M688.77 216.44C686.5 219.56 685.33 223.34 685.43 227.2 685.43 227.25 685.43 227.29 685.37 227.31 679.99 230.74 675.5 235.39 672.25 240.88 667.33 249.47 670.32 260.07 670.55 260.81L670.55 260.83C670.56 260.84 670.56 260.84 670.56 260.85 670.56 260.86 670.56 260.86 670.55 260.87L670.55 260.87C668 265.06 666.57 269.85 666.4 274.75 666.4 275.93 666.51 277.11 666.73 278.27 667.84 284.08 669.96 284.97 671.66 288.73" stroke="#000000" stroke-width="3" stroke-linecap="round" stroke-linejoin="round" opacity="1" fill="none"></path><path d="M732.61 356.05C736.91 358.54 741.47 360.53 746.21 362 746.07 366.94 745.63 371.84 744.92 376.72 739 371.28 730.52 363.13 728.36 359.89 724.96 354.77 726.23 352.22 732.61 356.05Z" fill="#d6834f" opacity="1" stroke-width="3" stroke="none"></path><path d="M732.61 356.05C736.91 358.54 741.47 360.53 746.21 362" stroke="#d67336" stroke-width="3" stroke-linecap="round" stroke-linejoin="round" opacity="1" fill="none"></path><path d="M1014.39 457.2C1014.39 457.2 1005.32 473.36 1000.79 476.47 996.27 479.58 994.28 481.01 994.28 481.01" stroke="#d67336" stroke-width="3" stroke-linecap="round" stroke-linejoin="round" opacity="1" fill="none"></path><path d="M1015.81 468.82C1015.81 468.82 1007.11 481.95 1004.84 485.07" stroke="#d67336" stroke-width="3" stroke-linecap="round" stroke-linejoin="round" opacity="1" fill="none"></path><path d="M1032.25 465.71L1021.6 478.82" stroke="#d67336" stroke-width="3" stroke-linecap="round" stroke-linejoin="round" opacity="1" fill="none"></path><path d="M989.46 471.37L981.81 473.92 958.29 462.86" stroke="#d67336" stroke-width="3" stroke-linecap="round" stroke-linejoin="round" opacity="1" fill="none"></path><path d="M764.53 616.01C756.22 615.18 747.83 615.33 739.55 616.44" stroke="#d67336" stroke-width="3" stroke-linecap="round" stroke-linejoin="round" opacity="1" fill="none"></path><path d="M775.29 608.26C775.29 608.26 764.77 605.11 758.81 604.83 754.09 604.74 749.36 604.92 744.65 605.39" stroke="#d67336" stroke-width="3" stroke-linecap="round" stroke-linejoin="round" opacity="1" fill="none"></path><path d="M784.03 601.71C784.03 601.71 770.44 595.76 762.22 594.91 756.46 594.44 750.67 594.54 744.93 595.19" stroke="#d67336" stroke-width="3" stroke-linecap="round" stroke-linejoin="round" opacity="1" fill="none"></path><path d="M788.57 259.17C788.57 259.16 788.57 259.14 788.56 259.13 787.39 257.45 778.08 256.89 774.41 257.73 772.51 258.11 770.69 258.86 769.09 259.95 769.07 259.96 769.06 259.99 769.05 260.01 769.05 260.03 769.04 260.05 769.05 260.08L770.4 264.94C770.4 264.95 770.41 264.97 770.42 264.99 770.44 265 770.45 265.01 770.47 265.02 770.49 265.02 770.51 265.02 770.52 265.02 770.54 265.02 770.56 265.01 770.58 265 771.38 264.36 775.73 261.05 780.08 260.28L784.87 259.42C784.89 259.42 784.91 259.42 784.93 259.42L789.04 260.8C789.1 260.82 789.13 260.78 789.11 260.73L788.57 259.17Z" fill="#020203" opacity="1" stroke-width="3" stroke="none"></path><path d="M755.7 271.89C755.7 272.75 750.88 272.46 745.78 274.16 740.91 275.79 734.2 282.87 733.64 283.47 733.62 283.49 733.61 283.5 733.6 283.5 733.57 283.51 733.55 283.51 733.54 283.51L731.5 283.25C731.47 283.25 731.46 283.25 731.45 283.24 731.43 283.23 731.42 283.21 731.41 283.19 731.41 283.17 731.4 283.16 731.4 283.14 731.4 283.12 731.41 283.1 731.42 283.08 732.19 281.79 737.98 272.32 743.52 270.48 748.93 268.67 754.58 266.87 755.56 266.57 755.58 266.56 755.59 266.56 755.61 266.56 755.62 266.57 755.65 266.57 755.66 266.58 755.67 266.59 755.68 266.6 755.69 266.63 755.7 266.64 755.7 266.66 755.7 266.68V271.89Z" fill="#020203" opacity="1" stroke-width="3" stroke="none"></path><path d="M769.59 272.46C769.59 272.46 767.89 284.07 768.17 286.06 768.39 287.6 771.67 291.69 775.24 294.75V294.76C776.23 295.63 777.27 296.41 778.37 297.11 781.16 298.84 783.29 300.68 784.13 302.64 784.41 303.24 784.55 303.91 784.54 304.57 784.52 305.23 784.35 305.87 784.03 306.46 782.34 309.86 778.08 312.12 778.08 312.12" stroke="#d67336" stroke-width="3" stroke-linecap="round" stroke-linejoin="round" opacity="1" fill="none"></path><path d="M656.53 407.61C656.53 407.61 660.49 429.14 661.07 433.11 661.64 437.07 661.35 459.18 662.2 463.43 663.05 467.67 697.34 512.17 697.34 512.17 697.34 512.17 681.18 535.69 680.62 537.1 680.06 538.52 678.07 541.07 680.34 544.75 682.61 548.44 709.14 586.04 709.14 586.04" stroke="#3f7058" stroke-width="3" stroke-linecap="round" stroke-linejoin="round" opacity="1" fill="none"></path><path d="M765.54 418.02C765.54 418.02 783.18 481.57 783.46 484.4 783.74 487.23 782.33 488.36 779.49 491.49 776.66 494.61 762.78 508.77 762.78 508.77 762.78 508.77 772.98 535.69 773.83 537.96 774.69 540.23 772.98 545.04 770.72 547.02 768.35 549.1 742.29 582.56 740.72 584.62" stroke="#3f7058" stroke-width="3" stroke-linecap="round" stroke-linejoin="round" opacity="1" fill="none"></path><path d="M648.02 501.97C648.02 501.97 633.86 526.33 631.31 532.56 628.76 538.8 626.77 546.17 626.49 549.85 626.21 553.54 625.08 559.2 621.39 563.46 617.71 567.71 611.75 576.49 609.78 579.04 607.8 581.59 607.51 595.75 607.51 595.75" stroke="#3f7058" stroke-width="3" stroke-linecap="round" stroke-linejoin="round" opacity="1" fill="none"></path><path d="M595.61 590.37C595.61 590.37 604.11 596.6 612.61 599.15 621.1 601.7 673.04 617.01 673.04 617.01" stroke="#3f7058" stroke-width="3" stroke-linecap="round" stroke-linejoin="round" opacity="1" fill="none"></path><path d="M844.67 577.9L831.92 592.07" stroke="#3f7058" stroke-width="3" stroke-linecap="round" stroke-linejoin="round" opacity="1" fill="none"></path><path d="M667.01 658.65L556.66 647.6" stroke="#3f7058" stroke-width="3" stroke-linecap="round" stroke-linejoin="round" opacity="1" fill="none"></path><path d="M773.38 555.36C773.38 555.36 788.56 539.65 789.69 531.15 790.83 522.65 789.55 493.33 789.55 493.33L794.86 481.22" stroke="#3f7058" stroke-width="3" stroke-linecap="round" stroke-linejoin="round" opacity="1" fill="none"></path><path d="M740.8 392.22L752.58 419.24" stroke="#3b3b24" stroke-width="3" stroke-linecap="round" stroke-linejoin="round" opacity="1" fill="none"></path><path d="M731.9 446.6C729.62 446.6 727.77 444.76 727.77 442.47 727.77 440.19 729.62 438.33 731.9 438.33 734.18 438.33 736.03 440.19 736.03 442.47 736.03 444.76 734.18 446.6 731.9 446.6Z" fill="#000000" opacity="1" stroke-width="3" stroke="none"></path><path d="M718.72 591.53C716.44 591.53 714.59 589.68 714.59 587.39 714.59 585.11 716.44 583.26 718.72 583.26 721 583.26 722.86 585.11 722.86 587.39 722.86 589.68 721 591.53 718.72 591.53Z" fill="#000000" opacity="1" stroke-width="3" stroke="none"></path><path d="M733.6 515.45C731.32 515.45 729.46 513.6 729.46 511.31 729.46 509.03 731.32 507.18 733.6 507.18 735.88 507.18 737.73 509.03 737.73 511.31 737.73 513.6 735.88 515.45 733.6 515.45Z" fill="#000000" opacity="1" stroke-width="3" stroke="none"></path><path d="M746.48 296.83C745.72 294.36 746.5 291.93 748.24 291.39 749.97 290.85 752.01 292.43 752.76 294.89 753.52 297.35 752.74 299.78 751 300.32 749.27 300.85 747.24 299.29 746.48 296.83Z" fill="#1e2430" opacity="1" stroke-width="3" stroke="none"></path><path d="M779.63 286.86C778.87 284.38 779.66 281.96 781.39 281.42 783.13 280.88 785.16 282.44 785.92 284.91 786.67 287.37 785.89 289.81 784.16 290.34 782.41 290.88 780.39 289.32 779.63 286.86Z" fill="#1e2430" opacity="1" stroke-width="3" stroke="none"></path><path d="M778.93 324.6C773.9 324.83 768.86 324.7 763.85 324.17 754.29 323.32 754.92 323.1 754.29 325.24 753.66 327.37 758.12 332.89 765.77 334.58" stroke="#d67336" stroke-width="3" stroke-linecap="round" stroke-linejoin="round" opacity="1" fill="none"></path><path d="M697.11 294.2C697.11 294.2 703.69 298.23 705.4 300.78 707.11 303.33 704.87 303.76 704.55 307.69 704.22 311.62 708.91 313.32 708.91 313.32" stroke="#d67336" stroke-width="3" stroke-linecap="round" stroke-linejoin="round" opacity="1" fill="none"></path><path d="M691.38 1048.82L704.72 1060.45 704.18 1068.13 696.56 1067.95 691.38 1048.82Z" fill="#222218" opacity="1" stroke-width="3" stroke="none"></path><path d="M691.38 1048.82L704.72 1060.46" stroke="#222218" stroke-width="3" stroke-linecap="round" stroke-linejoin="round" opacity="1" fill="none"></path><path d="M704.41 782.76L702.72 765.76" stroke="#5e7843" stroke-width="3" stroke-linecap="round" stroke-linejoin="round" opacity="1" fill="none"></path><path d="M714.05 773.13L712.92 786.73" stroke="#5e7843" stroke-width="3" stroke-linecap="round" stroke-linejoin="round" opacity="1" fill="none"></path><path d="M575.21 689.83L580.87 709.66" stroke="#5e7843" stroke-width="3" stroke-linecap="round" stroke-linejoin="round" opacity="1" fill="none"></path><path d="M765.7 283.87C766.72 283.1 767.9 282.55 769.14 282.26 770.38 281.96 771.68 281.91 772.93 282.12" stroke="#45452a" stroke-width="3" stroke-linecap="round" stroke-linejoin="round" opacity="1" fill="none"></path><path d="M754.33 279.9C758.96 279.9 766.7 278.94 767.34 291.29 767.97 303.64 766.78 304.05 766.78 304.05 766.78 304.05 763.32 313.92 748.81 313.92 734.3 313.92 730.32 294.47 730.32 294.47 730.32 294.47 737.81 279.9 754.33 279.9Z" stroke="#45452a" stroke-width="3" stroke-linecap="round" stroke-linejoin="round" opacity="1" fill="none"></path><path d="M730.32 294.47C723.27 293.82 711.15 292.43 711.15 292.43" stroke="#45452a" stroke-width="3" stroke-linecap="round" stroke-linejoin="round" opacity="1" fill="none"></path><path d="M724.15 393.33L706.96 421.79 692.54 412.74" stroke="#3b3b24" stroke-width="3" stroke-linecap="round" stroke-linejoin="round" opacity="1" fill="none"></path></g><g><path d="M975.6 152.19L975.6 284.64C975.6 285.31 975.73 285.96 975.98 286.58 976.24 287.2 976.62 287.76 977.08 288.22 977.56 288.7 978.12 289.07 978.74 289.32 979.36 289.58 980.02 289.71 980.69 289.71H1008.25C1055.97 284.4 1083.74 285.73 1126.75 289.71H1159.29C1160.64 289.71 1161.93 289.17 1162.89 288.21 1163.85 287.26 1164.38 285.97 1164.38 284.63V152.19C1090.66 144.63 1040.91 145.15 975.6 152.19Z" fill="#ffffff" opacity="1" stroke-width="3" stroke="none"></path><path d="M1080.67 251.09C1080.68 251.07 1080.69 251.05 1080.68 251.03 1080.64 250.78 1080.48 250.12 1080.29 249.07 1079.36 243.9 1077.07 230.95 1076.86 229.79 1076.85 229.76 1076.86 229.74 1076.87 229.72 1076.88 229.71 1076.9 229.69 1076.92 229.68 1077.89 229.37 1087.47 226.04 1090.94 217.19 1090.95 217.17 1090.96 217.15 1090.98 217.14 1091 217.12 1091.03 217.12 1091.05 217.13 1098.5 218.55 1103.59 211.1 1102.31 205.36 1101.14 200.09 1098.36 198.74 1097.89 198.56 1097.87 198.55 1097.85 198.53 1097.84 198.52 1097.83 198.5 1097.82 198.48 1097.83 198.46 1097.95 197 1099.4 174.21 1075.77 168.41 1055.82 163.52 1046.85 171.79 1042.73 182.49 1041.92 184.94 1041.31 187.44 1040.88 189.98 1037.89 203.63 1037.57 225.8 1055.05 230.74 1055.07 230.75 1055.09 230.76 1055.1 230.78 1055.11 230.8 1055.12 230.82 1055.12 230.84L1055.25 238.26 1055.54 249.3 1055.65 261.42C1055.65 261.45 1055.66 261.47 1055.68 261.5 1055.7 261.52 1055.72 261.53 1055.75 261.53L1073.1 265.75C1073.13 265.76 1073.16 265.76 1073.19 265.74 1073.21 265.73 1073.23 265.71 1073.25 265.7L1080.67 251.09Z" fill="#efad71" opacity="1" stroke-width="3" stroke="none"></path><path d="M1008.25 289.71L1126.75 289.71C1125.51 285.56 1123.01 277.44 1120.29 270.06 1116.44 259.6 1106.38 254.69 1098.67 252.98 1090.96 251.27 1080.29 249.07 1080.29 249.07 1076.69 251.64 1072.38 253.05 1067.96 253.09 1063.53 253.13 1059.19 251.8 1055.54 249.3L1039.16 254.05 1017.33 256.39C1017.33 256.39 1012.2 269 1008.77 280.95 1007.92 283.79 1007.74 286.79 1008.25 289.71V289.71Z" fill="#006633" opacity="1" stroke-width="3" stroke="none"></path><path d="M1039.04 289.71C1040.38 275.47 1039.55 261.11 1039.56 256.96" stroke="#074828" stroke-width="3" stroke-linecap="round" stroke-linejoin="round" opacity="1" fill="none"></path><path d="M980.69 140.23L1159.29 140.23C1160.64 140.23 1161.93 140.76 1162.89 141.72 1163.85 142.67 1164.38 143.96 1164.38 145.31V152.19L975.6 152.19V145.31C975.6 144.64 975.72 143.98 975.98 143.36 976.24 142.75 976.62 142.19 977.08 141.71 977.56 141.25 978.12 140.87 978.74 140.62 979.36 140.36 980.02 140.23 980.69 140.23V140.23Z" fill="#e6ffcc" opacity="1" stroke-width="3" stroke="none"></path><path d="M1039.51 257C1039.53 256.99 1039.55 256.98 1039.56 256.96 1041.55 253.13 1043 249.04 1043.88 244.82 1044.97 238.79 1041.88 236.94 1041.64 236.81 1041.63 236.8 1041.62 236.8 1041.61 236.79L1034.8 229.36C1034.79 229.35 1034.78 229.33 1034.77 229.32 1034.77 229.31 1034.77 229.3 1034.77 229.28 1034.77 229.27 1034.77 229.26 1034.78 229.24 1034.79 229.23 1034.79 229.22 1034.8 229.21 1035.53 228.6 1041.17 223.86 1043.72 221.91 1046.45 219.82 1044.69 217.9 1043.08 218.22 1041.48 218.54 1034.41 222.55 1029.28 225.27 1024.14 228 1018.36 231.52 1018.04 236.16 1017.73 240.63 1018.17 257.96 1018.19 259.29 1018.19 259.32 1018.2 259.34 1018.22 259.36 1018.23 259.38 1018.26 259.39 1018.28 259.39 1019.35 259.54 1030.65 260.94 1039.51 257Z" fill="#efad71" opacity="1" stroke-width="3" stroke="none"></path><path d="M1103.6 195.75C1094.61 195.75 1087.33 188.49 1087.33 179.53 1087.33 170.57 1094.61 163.3 1103.6 163.3 1112.58 163.3 1119.86 170.57 1119.86 179.53 1119.86 188.49 1112.58 195.75 1103.6 195.75Z" fill="#3c1010" opacity="1" stroke-width="3" stroke="none"></path><path d="M1103.6 195.75C1094.61 195.75 1087.33 188.49 1087.33 179.53 1087.33 170.57 1094.61 163.3 1103.6 163.3 1112.58 163.3 1119.86 170.57 1119.86 179.53 1119.86 188.49 1112.58 195.75 1103.6 195.75Z" fill="#1f0a0a" opacity="1" stroke-width="3" stroke="none"></path><path d="M1094.16 206.01C1094.15 206.02 1094.13 206.04 1094.11 206.04 1094.09 206.05 1094.07 206.05 1094.05 206.04 1092.77 205.62 1092.68 201.42 1092.67 200.84 1092.67 200.82 1092.66 200.81 1092.65 200.79 1092.64 200.78 1092.62 200.76 1092.61 200.76 1091.31 200.26 1070.16 191.93 1065.89 174.63 1065.89 174.62 1065.88 174.61 1065.87 174.59 1065.86 174.58 1065.85 174.57 1065.83 174.57 1065.82 174.56 1065.8 174.56 1065.79 174.56 1065.77 174.56 1065.76 174.56 1065.75 174.57 1058.52 178.23 1050.82 180.89 1042.87 182.47 1042.85 182.47 1042.83 182.47 1042.82 182.47 1042.8 182.46 1042.79 182.45 1042.78 182.44 1042.77 182.43 1042.76 182.42 1042.75 182.4 1042.75 182.39 1042.75 182.37 1042.75 182.36 1043.45 178.47 1045.17 174.83 1047.74 171.83 1050.29 168.81 1053.62 166.54 1057.35 165.22 1070.51 160.42 1090.9 164.58 1097.8 178.84 1104.46 192.57 1094.86 205.12 1094.16 206.01Z" fill="#3c1010" opacity="1" stroke-width="3" stroke="none"></path><path d="M1048.42 205.58C1042.84 205.58 1038.31 201.06 1038.31 195.49 1038.31 189.92 1042.84 185.4 1048.42 185.4 1054 185.4 1058.53 189.92 1058.53 195.49 1058.53 201.06 1054 205.58 1048.42 205.58Z" stroke="#ffffff" stroke-width="3" stroke-linecap="round" stroke-linejoin="round" opacity="1" fill="none"></path><path d="M1073.58 210.38C1068 210.38 1063.47 205.86 1063.47 200.29 1063.47 194.72 1068 190.2 1073.58 190.2 1079.16 190.2 1083.69 194.72 1083.69 200.29 1083.69 205.86 1079.16 210.38 1073.58 210.38Z" stroke="#ffffff" stroke-width="3" stroke-linecap="round" stroke-linejoin="round" opacity="1" fill="none"></path><path d="M1063.03 197.14L1059.39 196.39" stroke="#ffffff" stroke-width="3" stroke-linecap="round" stroke-linejoin="round" opacity="1" fill="none"></path><path d="M1093.43 203.02L1083.69 201.1" stroke="#ffffff" stroke-width="3" stroke-linecap="round" stroke-linejoin="round" opacity="1" fill="none"></path><path d="M1055.05 230.74C1060.88 231.59 1064.04 231.52 1070.97 230.63 1071.49 231.97 1063.17 238.12 1055.25 238.26 1055.03 235.76 1054.97 233.26 1055.05 230.74V230.74Z" fill="#d68b46" opacity="1" stroke-width="3" stroke="none"></path><path d="M1055.05 230.74C1060.88 231.59 1064.04 231.52 1070.97 230.63" stroke="#d68b46" stroke-width="3" stroke-linecap="round" stroke-linejoin="round" opacity="1" fill="none"></path><path d="M1002.96 265.26C1002.96 266.06 1003.28 266.85 1003.86 267.42 1004.43 267.99 1005.21 268.31 1006.02 268.31L1134.75 268.31C1135.56 268.31 1136.35 267.99 1136.92 267.42 1137.49 266.85 1137.82 266.06 1137.82 265.26V241.47C1137.82 240.65 1137.49 239.88 1136.92 239.31 1136.35 238.73 1135.56 238.41 1134.75 238.41L1006.02 238.41C1005.21 238.41 1004.43 238.73 1003.86 239.31 1003.28 239.88 1002.96 240.65 1002.96 241.47V265.26Z" fill="#e4ffc7" opacity="1" stroke-width="3" stroke="none"></path><path d="M1098.35 248.83C1098.25 248.77 1098.13 248.74 1098.02 248.74 1097.91 248.74 1097.79 248.77 1097.7 248.83 1097.59 248.89 1097.51 248.97 1097.45 249.06 1097.39 249.17 1097.37 249.28 1097.37 249.39V258.57C1097.37 258.68 1097.39 258.8 1097.45 258.9 1097.51 259 1097.6 259.08 1097.71 259.14 1097.81 259.2 1097.93 259.23 1098.05 259.22 1098.16 259.22 1098.28 259.18 1098.38 259.11L1104.34 255.16C1104.38 255.13 1104.42 255.15 1104.42 255.21V257.44C1104.42 257.8 1104.49 258.16 1104.63 258.5 1104.77 258.83 1104.98 259.13 1105.23 259.39 1105.48 259.64 1105.79 259.85 1106.12 259.98 1106.46 260.13 1106.81 260.2 1107.18 260.2H1117.71C1118.07 260.2 1118.43 260.13 1118.77 259.98 1119.1 259.85 1119.4 259.64 1119.67 259.39 1119.92 259.13 1120.12 258.83 1120.26 258.5 1120.4 258.16 1120.47 257.8 1120.47 257.44V250.79C1120.47 250.43 1120.4 250.07 1120.26 249.73 1120.12 249.4 1119.92 249.09 1119.67 248.84 1119.4 248.59 1119.1 248.38 1118.77 248.25 1118.43 248.1 1118.07 248.04 1117.71 248.04H1107.18C1106.82 248.04 1106.46 248.1 1106.12 248.25 1105.79 248.38 1105.48 248.59 1105.23 248.84 1104.98 249.09 1104.77 249.4 1104.64 249.73 1104.49 250.07 1104.42 250.43 1104.42 250.79V252.31C1104.42 252.36 1104.38 252.39 1104.34 252.36L1098.35 248.83Z" fill="#aff566" opacity="1" stroke-width="3" stroke="none"></path><path d="M1072.1 250.48V255.17C1072.1 258.37 1069.21 261.69 1063.96 261.69 1058.71 261.69 1055.51 258.92 1055.51 254.75V250.59" stroke="#aff566" stroke-width="3" stroke-linecap="round" stroke-linejoin="round" opacity="1" fill="none"></path><path d="M1063.76 259.24C1064.5 259.24 1065.23 259.09 1065.92 258.81 1066.6 258.53 1067.22 258.11 1067.73 257.59 1068.26 257.07 1068.68 256.45 1068.96 255.77 1069.24 255.09 1069.39 254.36 1069.39 253.62V249.91C1069.39 248.41 1068.79 246.99 1067.73 245.94 1066.68 244.88 1065.26 244.29 1063.76 244.29 1062.26 244.29 1060.83 244.88 1059.78 245.94 1058.72 246.99 1058.13 248.41 1058.13 249.91V253.62C1058.13 254.36 1058.28 255.09 1058.56 255.77 1058.84 256.45 1059.26 257.07 1059.77 257.59 1060.3 258.11 1060.92 258.53 1061.6 258.81 1062.29 259.09 1063.02 259.24 1063.76 259.24V259.24Z" fill="#aff566" opacity="1" stroke-width="3" stroke="none"></path><path d="M1029.19 248.34L1019.23 259.44" stroke="#aff566" stroke-width="3" stroke-linecap="round" stroke-linejoin="round" opacity="1" fill="none"></path><path d="M1019.23 248.34L1029.19 259.44" stroke="#aff566" stroke-width="3" stroke-linecap="round" stroke-linejoin="round" opacity="1" fill="none"></path></g><g><path d="M980.88 479.53C980.9 480.35 980.76 481.17 980.46 481.95 978.84 486.41 948.75 597.53 947.13 602.8 945.5 608.08 942.66 610.92 938.18 610.92H730.85C730.27 610.92 729.69 610.86 729.13 610.76 725.59 610.11 723.34 607.33 724.75 602.4 726.37 596.72 756.86 487.63 758.49 481.95 760.11 476.26 762.96 474.24 767.84 474.24H974.36C977.98 474.24 980.8 476.37 980.88 479.53Z" fill="#00af58" opacity="1" stroke-width="3" stroke="none"></path><path d="M730.85 611.01C730.27 611.01 729.68 610.95 729.11 610.85 729.09 610.84 729.08 610.84 729.07 610.84 729.07 610.83 729.06 610.82 729.05 610.81 729.04 610.8 729.04 610.79 729.04 610.77 729.04 610.76 729.04 610.75 729.04 610.73L736.11 585.13C740.6 568.89 746.07 549.04 750.92 531.48 757.19 508.75 762.39 489.85 762.97 487.65 764.44 482.08 768.56 479.36 775.57 479.36H978.32C979.17 479.36 979.95 479.39 980.78 479.43 980.81 479.44 980.83 479.45 980.85 479.46 980.87 479.48 980.88 479.51 980.89 479.52 980.94 480.36 980.82 481.19 980.55 481.97 979.58 484.65 968.33 525.79 959.31 558.86 953.17 581.31 947.87 600.7 947.21 602.83 945.51 608.33 942.56 611.01 938.17 611.01L730.85 611.01Z" fill="#006633" opacity="1" stroke-width="3" stroke="none"></path><path d="M730.84 611.38C730.29 611.38 729.75 611.33 729.2 611.24 729.15 611.23 729.08 611.21 729.03 611.18 728.97 611.14 728.93 611.09 728.9 611.04 728.86 610.98 728.83 610.92 728.83 610.85 728.82 610.79 728.83 610.72 728.83 610.67 731.79 599.97 741.09 567.05 749.1 537.96 749.13 537.87 749.18 537.78 749.26 537.71 749.35 537.66 749.45 537.62 749.55 537.62L964.9 537.55C964.96 537.55 965.04 537.57 965.1 537.6 965.17 537.64 965.22 537.68 965.26 537.74 965.31 537.79 965.33 537.86 965.35 537.92 965.36 538 965.36 538.07 965.34 538.13L960.27 556.68C953.81 580.32 948.24 600.73 947.55 602.94 945.81 608.62 942.73 611.38 938.17 611.38H730.84Z" fill="#000101" opacity="1" stroke-width="3" stroke="none"></path><path d="M960.93 496.07C962.75 494.45 963.17 491.98 961.89 490.53 960.6 489.08 958.08 489.23 956.26 490.84 954.44 492.46 954.01 494.94 955.3 496.39 956.59 497.83 959.11 497.69 960.93 496.07Z" fill="#60977c" opacity="1" stroke-width="3" stroke="none"></path><path d="M750.92 531.48L749.1 537.96C749.1 537.96 771.16 593.24 772.19 598.39 773.41 604.48 769.45 610.56 765.48 610.56H692.61C689.86 610.56 689.26 610.86 688.65 612.99 688.04 615.12 687.43 617.24 688.95 617.24H988.98C997.52 617.24 1000.26 606.29 995.08 596.26 989.9 586.22 964.28 531.16 964.28 531.16L750.92 531.48Z" fill="#99cb65" opacity="1" stroke-width="3" stroke="none"></path><path d="M688.95 617.34C688.8 617.35 688.64 617.32 688.5 617.26 688.36 617.2 688.23 617.11 688.14 616.99 687.61 616.29 688.07 614.68 688.56 612.96 689.17 610.84 689.78 610.47 692.61 610.47H765.48C766.33 610.4 767.16 610.15 767.9 609.74 768.64 609.32 769.29 608.74 769.78 608.04 770.84 606.7 771.6 605.14 771.99 603.48 772.4 601.82 772.44 600.09 772.1 598.41 771.09 593.33 749.32 538.51 749.1 537.96L750.91 531.47C750.91 531.45 750.93 531.43 750.94 531.41 750.95 531.4 750.97 531.39 750.99 531.39 751.01 531.39 751.03 531.39 751.05 531.41 751.06 531.42 751.07 531.43 751.08 531.45 751.27 531.92 769.89 578.09 774.11 588.61 778.1 598.56 778.58 605.94 775.62 611.2 774.07 613.77 771.8 615.85 769.1 617.17 768.88 617.29 768.63 617.35 768.38 617.34L688.95 617.34Z" fill="#62695a" opacity="1" stroke-width="3" stroke="none"></path><path d="M751.56 532.63C754.51 539.94 770.28 579.03 774.11 588.61 778.1 598.56 778.59 605.94 775.63 611.2 774.33 613.4 772.49 615.22 770.29 616.51 770.15 616.59 770 616.68 769.86 616.76" stroke="#62695a" stroke-width="3" stroke-linecap="round" stroke-linejoin="round" opacity="1" fill="none"></path><path d="M772.2 559.76H969.16" stroke="#62695a" stroke-width="3" stroke-linecap="round" stroke-linejoin="round" opacity="1" fill="none"></path><path d="M785.62 587.14H982.58" stroke="#62695a" stroke-width="3" stroke-linecap="round" stroke-linejoin="round" opacity="1" fill="none"></path></g><g><path d="M528.49 633.64H479.45V1056.33H528.49V633.64Z" fill="#47a978" opacity="1" stroke-width="3" stroke="none"></path><path d="M528.49 633.55H515.07C515.02 633.55 514.98 633.59 514.98 633.64V1056.33C514.98 1056.38 515.02 1056.42 515.07 1056.42H528.49C528.55 1056.42 528.58 1056.38 528.58 1056.33V633.64C528.58 633.59 528.55 633.55 528.49 633.55Z" fill="#406a55" opacity="1" stroke-width="3" stroke="none"></path><path d="M536.67 1054.43H472.16C464.86 1054.43 460.62 1056.62 458.44 1059.24 456.26 1061.87 452.75 1065.52 455.37 1067.13 458 1068.74 458.87 1068.15 465.01 1068.15H545.58C547.77 1068.15 547.19 1065.67 544.99 1061.44 542.8 1057.2 539 1054.43 536.67 1054.43Z" fill="#47a978" opacity="1" stroke-width="3" stroke="none"></path><path d="M501.9 1068.15C501.45 1067.52 501.24 1066.74 501.29 1065.96 501.33 1065.18 501.65 1064.44 502.18 1063.87 502.53 1063.45 502.89 1062.97 503.28 1062.47 505.33 1059.79 508.13 1056.11 514.14 1054.36H536.67C538.94 1054.36 542.78 1057.06 545.03 1061.41 546.78 1064.78 547.35 1066.76 546.8 1067.64 546.66 1067.83 546.48 1067.98 546.27 1068.08 546.05 1068.18 545.81 1068.21 545.58 1068.19L501.9 1068.15Z" fill="#406a55" opacity="1" stroke-width="3" stroke="none"></path><path d="M501.47 1067.22C501.27 1066.64 501.24 1066.03 501.36 1065.44 501.48 1064.85 501.77 1064.31 502.18 1063.87 502.53 1063.45 502.89 1062.97 503.28 1062.47 505.33 1059.79 508.13 1056.11 514.14 1054.36" stroke="#406a55" stroke-width="3" stroke-linecap="round" stroke-linejoin="round" opacity="1" fill="none"></path><path d="M514.98 1054.08V633.64" stroke="#406a55" stroke-width="3" stroke-linecap="round" stroke-linejoin="round" opacity="1" fill="none"></path><path d="M450.26 627.8C450.26 627.8 454.93 637.14 461.94 637.14H541.34C549.5 637.14 554.76 627.8 554.76 627.8H450.26Z" fill="#47a978" opacity="1" stroke-width="3" stroke="none"></path><path d="M989.74 633.64H940.7V1056.33H989.74V633.64Z" fill="#47a978" opacity="1" stroke-width="3" stroke="none"></path><path d="M954.13 633.55H940.7C940.66 633.55 940.61 633.59 940.61 633.64V1056.33C940.61 1056.38 940.66 1056.42 940.7 1056.42H954.13C954.18 1056.42 954.21 1056.38 954.21 1056.33V633.64C954.21 633.59 954.18 633.55 954.13 633.55Z" fill="#406a55" opacity="1" stroke-width="3" stroke="none"></path><path d="M932.53 1054.43H997.05C1004.35 1054.43 1008.58 1056.62 1010.76 1059.24 1012.95 1061.87 1016.45 1065.52 1013.83 1067.13 1011.2 1068.74 1010.33 1068.15 1004.2 1068.15H923.62C921.43 1068.15 922.02 1065.67 924.21 1061.44 926.4 1057.2 930.2 1054.43 932.53 1054.43Z" fill="#47a978" opacity="1" stroke-width="3" stroke="none"></path><path d="M967.29 1068.15C967.75 1067.52 967.97 1066.74 967.91 1065.96 967.86 1065.18 967.54 1064.44 967.01 1063.87 966.66 1063.45 966.31 1062.97 965.92 1062.47 963.87 1059.79 961.07 1056.11 955.05 1054.36H932.53C930.26 1054.36 926.42 1057.06 924.16 1061.41 922.42 1064.78 921.86 1066.76 922.4 1067.64 922.53 1067.83 922.71 1067.98 922.93 1068.08 923.15 1068.18 923.39 1068.21 923.62 1068.19L967.29 1068.15Z" fill="#406a55" opacity="1" stroke-width="3" stroke="none"></path><path d="M967.74 1067.22C967.93 1066.64 967.97 1066.03 967.84 1065.44 967.71 1064.85 967.43 1064.31 967.01 1063.87 966.66 1063.45 966.31 1062.97 965.92 1062.47 963.87 1059.79 961.07 1056.11 955.05 1054.36" stroke="#406a55" stroke-width="3" stroke-linecap="round" stroke-linejoin="round" opacity="1" fill="none"></path><path d="M954.22 1054.08V633.64" stroke="#406a55" stroke-width="3" stroke-linecap="round" stroke-linejoin="round" opacity="1" fill="none"></path><path d="M1018.93 627.8C1018.93 627.8 1014.27 637.14 1007.26 637.14H927.87C919.7 637.14 914.43 627.8 914.43 627.8H1018.93Z" fill="#47a978" opacity="1" stroke-width="3" stroke="none"></path><path d="M989.51 637.14H940.68" stroke="#406a55" stroke-width="3" stroke-linecap="round" stroke-linejoin="round" opacity="1" fill="none"></path><path d="M528.28 637.14H479.44" stroke="#406a55" stroke-width="3" stroke-linecap="round" stroke-linejoin="round" opacity="1" fill="none"></path><path d="M1050.77 629.55H417.23C416.9 629.55 416.55 629.48 416.24 629.35 415.93 629.22 415.64 629.03 415.41 628.79 415.17 628.55 414.97 628.26 414.84 627.95 414.72 627.64 414.65 627.3 414.65 626.96V618.7C414.65 618.36 414.72 618.02 414.84 617.71 414.97 617.39 415.17 617.11 415.41 616.87 415.64 616.63 415.93 616.44 416.24 616.31 416.55 616.18 416.9 616.11 417.23 616.11H1050.77C1051.1 616.11 1051.45 616.18 1051.76 616.31 1052.07 616.44 1052.36 616.63 1052.59 616.87 1052.83 617.11 1053.03 617.39 1053.16 617.71 1053.28 618.02 1053.35 618.36 1053.35 618.7V626.96C1053.35 627.65 1053.08 628.3 1052.59 628.79 1052.11 629.27 1051.45 629.55 1050.77 629.55Z" fill="#ffffff" opacity="1" stroke-width="3" stroke="none"></path></g></svg>