<svg xmlns="http://www.w3.org/2000/svg" height="1200" width="1600" version="1.1" xmlns:xlink="http://www.w3.org/1999/xlink" xmlns:svgjs="http://svgjs.com/svgjs"><rect fill="#ffffff" width="1600" height="1200"></rect><g><path d="M759.41 150.89C759.41 161.74 755.22 172.18 747.72 180.03 740.22 187.88 729.97 192.52 719.13 193V207.51C719.12 207.87 719.01 208.22 718.82 208.52 718.61 208.82 718.32 209.06 717.99 209.19 717.66 209.33 717.29 209.37 716.94 209.3 716.58 209.23 716.25 209.06 716 208.8L689.85 182.97C684.47 178.38 680.34 172.51 677.83 165.9 675.33 159.29 674.52 152.15 675.49 145.15 676.46 138.14 679.18 131.5 683.39 125.82 687.6 120.14 693.17 115.61 699.59 112.65 706.01 109.69 713.07 108.39 720.13 108.87 727.18 109.36 734 111.61 739.95 115.41 745.91 119.22 750.81 124.47 754.22 130.66 757.61 136.87 759.4 143.82 759.41 150.89V150.89Z" fill="#99cb65" opacity="1" stroke-width="3" stroke="none"></path><path d="M730.88 147.33C730.88 148.75 730.47 150.13 729.7 151.32L729.43 151.75 729.37 151.86 717.62 168.31 705.49 152.24 705.43 152.18C705.17 151.9 704.93 151.6 704.73 151.27V151.27C703.94 150.09 703.53 148.7 703.54 147.28 703.54 145.67 704.07 144.1 705.04 142.82 706.02 141.55 707.39 140.62 708.94 140.2 710.5 139.78 712.14 139.87 713.63 140.48 715.12 141.09 716.37 142.17 717.19 143.56 717.83 142.45 718.75 141.54 719.86 140.9 720.96 140.27 722.22 139.94 723.5 139.94 725.45 139.95 727.32 140.74 728.7 142.12 730.09 143.5 730.87 145.37 730.88 147.33Z" fill="#006633" opacity="1" stroke-width="3" stroke="none"></path></g><g><path d="M750.02 294.61C718.23 299.22 681.26 282.94 671.85 243.01 669.88 236.52 664.87 228.24 661.71 227.77 659.77 227.48 657.91 226.81 656.25 225.8 654.56 224.79 653.11 223.46 651.96 221.88 650.78 220.33 649.96 218.53 649.49 216.64 649.01 214.73 648.91 212.77 649.22 210.83 649.51 208.9 650.16 207.06 651.18 205.37 652.18 203.69 653.53 202.23 655.09 201.08 656.66 199.93 658.46 199.08 660.35 198.62 662.26 198.15 664.22 198.05 666.16 198.34 690.55 202.04 699.62 231.81 700.57 235.18L700.76 235.89C703.41 247.48 709.63 255.86 719.26 260.79 727.47 264.84 736.69 266.37 745.75 265.14 749.67 264.57 753.62 265.58 756.8 267.93 759.97 270.32 762.05 273.82 762.62 277.74 763.19 281.65 762.19 285.63 759.83 288.79 757.44 291.95 753.94 294.04 750.02 294.61V294.61Z" fill="#c37a60" opacity="1" stroke-width="3" stroke="none"></path><path d="M770.84 351.6L882.51 335.41 862.67 283.71C856.22 264.28 831.04 253.28 808.28 256.1L808.24 256.1C807.85 256.16 807.47 256.19 807.08 256.25 806.92 256.28 806.75 256.32 806.61 256.34L745.75 265.14 750.02 294.61 770.51 291.66 770.84 351.6Z" fill="#006633" opacity="1" stroke-width="3" stroke="none"></path><path d="M873.55 336.71L882.51 335.41 862.67 283.71C868.12 300.95 871.77 318.73 873.55 336.71V336.71Z" fill="#004623" opacity="1" stroke-width="3" stroke="none"></path><path d="M786.55 238.59C790.48 240.73 794.78 242.09 799.23 242.56 803.69 243.04 808.18 242.63 812.48 241.37 816.76 240.12 820.77 238.02 824.25 235.21 827.74 232.41 830.62 228.94 832.77 225.01L833.07 224.46C833.61 223.39 834.1 222.33 834.53 221.24 836.08 217.37 824.73 195.12 824.73 195.12 824.73 195.12 809.68 175.18 806.89 174.83 806.51 174.78 806.08 174.74 805.68 174.71 797.89 174.08 790.12 176.13 783.67 180.51 777.22 184.92 772.46 191.42 770.22 198.89 767.98 206.37 768.38 214.41 771.35 221.64 774.33 228.87 779.7 234.85 786.55 238.59V238.59Z" fill="#c37a60" opacity="1" stroke-width="3" stroke="none"></path><path d="M798.3 212.39C797.35 213.65 795.98 214.52 794.43 214.85 792.9 215.19 791.29 214.96 789.9 214.22" stroke="#663320" stroke-width="3" stroke-linecap="round" opacity="1" fill="none"></path><path d="M806.9 174.85C806.31 183.88 808.33 192.89 812.72 200.81 817.09 208.74 823.63 215.26 831.58 219.6L834.53 221.24C836.05 217.48 836.84 213.48 836.9 209.43 837.05 203.2 835.47 197.03 832.35 191.64 829.23 186.24 824.67 181.81 819.19 178.81 818.76 178.56 818.3 178.33 817.85 178.12 816.96 177.66 816.04 177.25 815.1 176.88 812.45 175.88 809.7 175.18 806.9 174.85Z" fill="#2e2b28" opacity="1" stroke-width="3" stroke="none"></path><path d="M790.64 196.69C791.71 196.54 792.45 195.54 792.3 194.47 792.14 193.4 791.15 192.66 790.08 192.82 789.01 192.97 788.27 193.96 788.42 195.03 788.58 196.11 789.57 196.85 790.64 196.69Z" fill="#2e2b28" opacity="1" stroke-width="3" stroke="none"></path><path d="M860.33 194.99C870.2 193.56 877.06 184.38 875.63 174.51 874.2 164.64 865.02 157.78 855.15 159.21 845.28 160.64 838.42 169.82 839.85 179.69 841.28 189.56 850.46 196.42 860.33 194.99Z" fill="#2e2b28" opacity="1" stroke-width="3" stroke="none"></path></g><g><path d="M1204.94 593.09L1122.4 593.88C1121.19 593.89 1119.99 593.61 1118.92 593.06 1117.84 592.51 1116.91 591.71 1116.21 590.72 1115.5 589.74 1115.04 588.6 1114.87 587.4 1114.71 586.2 1114.85 584.98 1115.27 583.84V583.84L1125.06 556.61C1125.72 554.76 1126.02 552.81 1125.93 550.86 1125.84 548.9 1125.35 546.99 1124.53 545.22 1123.69 543.45 1122.51 541.86 1121.08 540.54 1119.62 539.23 1117.93 538.21 1116.08 537.54 1114.25 536.88 1112.29 536.59 1110.34 536.68 1108.38 536.78 1106.47 537.25 1104.7 538.09 1102.93 538.92 1101.34 540.09 1100.03 541.54 1098.7 542.99 1097.68 544.68 1097.02 546.52L1093.07 557.71 1087.23 573.76C1085.22 579.39 1084.57 585.42 1085.37 591.36 1086.17 597.28 1088.39 602.93 1091.83 607.82 1095.28 612.72 1099.84 616.71 1105.15 619.47 1110.46 622.23 1116.35 623.67 1122.34 623.67H1122.69L1205.23 622.88C1207.19 622.86 1209.12 622.46 1210.92 621.69 1212.73 620.92 1214.36 619.81 1215.72 618.41 1217.1 617.01 1218.18 615.36 1218.9 613.55 1219.64 611.73 1220 609.79 1219.99 607.83 1219.96 605.88 1219.57 603.95 1218.79 602.14 1218.02 600.34 1216.92 598.71 1215.52 597.34 1214.12 595.98 1212.46 594.89 1210.65 594.16 1208.83 593.43 1206.9 593.06 1204.94 593.09V593.09Z" fill="#8e4139" opacity="1" stroke-width="3" stroke="none"></path><path d="M1299.44 610.15C1288.86 610.24 1278.38 608.04 1268.73 603.68 1248.79 594.53 1234.72 576.57 1228.01 551.76 1227.5 549.87 1227.37 547.9 1227.61 545.96 1227.87 544.01 1228.5 542.14 1229.47 540.45 1231.45 537.02 1234.69 534.51 1238.5 533.48 1242.32 532.45 1246.38 532.97 1249.81 534.95 1253.24 536.91 1255.74 540.16 1256.77 543.98 1258.02 548.7 1259.78 553.27 1262.02 557.61 1266.69 566.47 1273.18 572.93 1281.16 576.6 1294.77 582.85 1312.78 581.26 1331.9 572.13 1345.75 565.51 1360.76 567.82 1370.16 578.01 1372.85 580.91 1374.26 584.77 1374.11 588.72 1373.94 592.67 1372.22 596.38 1369.32 599.07 1366.42 601.75 1362.56 603.16 1358.61 603.01 1354.66 602.84 1350.95 601.12 1348.26 598.22 1347.05 598.18 1345.84 598.45 1344.74 599.01 1329.27 606.42 1313.85 610.15 1299.44 610.15Z" fill="#8e4139" opacity="1" stroke-width="3" stroke="none"></path><path d="M1173.96 1005.91L1155.62 997.85 1157.31 971.17 1168.21 962.02 1180.18 971.18 1179.23 989.35C1179.42 996.4 1183.03 999.6 1189.22 1000.66 1196.86 1001.96 1173.96 1005.91 1173.96 1005.91Z" fill="#8e4139" opacity="1" stroke-width="3" stroke="none"></path><path d="M1118.54 1004.48C1118.54 1004.48 1098.52 1002 1107.02 1000.66 1110.48 1000.11 1113.66 998.39 1116.02 995.8 1118.38 993.2 1119.78 989.88 1119.98 986.37L1121.14 971.17 1134.29 959.19 1146.18 971.17 1145.09 997.12 1118.54 1004.48Z" fill="#8e4139" opacity="1" stroke-width="3" stroke="none"></path><path d="M1227.7 1011.83H1154.74L1155.62 997.85 1159.72 998.7C1165.96 1000 1172.31 1000.65 1178.68 1000.65H1189.21C1196.86 1001.96 1207.06 1003.63 1213.25 1004.23 1217.43 1004.63 1220.84 1004.88 1222.62 1005.3 1229.03 1006.72 1227.7 1011.83 1227.7 1011.83Z" fill="#006633" opacity="1" stroke-width="3" stroke="none"></path><path d="M1091.98 1011.83C1091.98 1011.83 1091.98 1002.13 1107.02 1000.66L1116.22 1000.65C1122.6 1000.65 1128.96 1000 1135.18 998.69L1145.09 997.12 1144.47 1011.83H1091.98Z" fill="#006633" opacity="1" stroke-width="3" stroke="none"></path><path d="M1247.21 451.55C1245.31 461.01 1239.79 469.35 1231.83 474.78 1223.87 480.23 1214.09 482.35 1204.59 480.69 1195.09 479.04 1186.61 473.73 1180.96 465.91 1175.32 458.09 1172.94 448.37 1174.35 438.84 1174.43 438.21 1180.92 421.19 1200.72 425.16 1205.95 426.21 1232.78 414.39 1233 414.57 1238.64 418.75 1242.96 424.45 1245.48 430.99 1248 437.54 1248.6 444.67 1247.21 451.55Z" fill="#8e4139" opacity="1" stroke-width="3" stroke="none"></path><path d="M1229.51 503.88C1224.29 500.03 1218.65 496.8 1212.69 494.24 1200.76 489.08 1187.82 486.69 1174.82 487.2 1161.83 487.72 1149.13 491.16 1137.64 497.26 1126.16 503.34 1116.19 511.94 1108.48 522.41 1100.77 532.87 1095.49 544.94 1093.07 557.71L1114.98 557.74V557.75C1114.99 562.5 1115.98 567.2 1117.88 571.56 1119.78 575.91 1122.55 579.82 1126.03 583.07L1126.12 583.09 1174.35 598.22 1230.68 582.9C1234.13 579.69 1236.9 575.8 1238.78 571.47 1240.66 567.14 1241.63 562.48 1241.63 557.75V557.74L1262.03 557.61C1257.89 535.58 1246.89 516.62 1229.51 503.88Z" fill="#032614" opacity="1" stroke-width="3" stroke="none"></path><path d="M1233 414.57C1229.59 423.91 1222.94 431.73 1214.26 436.61 1205.58 441.47 1195.45 443.08 1185.68 441.12 1185.56 441.09 1185.43 441.05 1185.3 441.03V441.04L1174.35 438.84C1174.43 438.21 1174.55 437.59 1174.67 436.97L1174.8 436.3C1176.12 430.34 1178.88 424.81 1182.86 420.17 1186.84 415.55 1191.9 411.97 1197.59 409.77 1203.28 407.57 1209.43 406.8 1215.48 407.55 1221.54 408.3 1227.32 410.53 1232.3 414.06 1232.54 414.22 1232.78 414.39 1233 414.57Z" fill="#2e2b28" opacity="1" stroke-width="3" stroke="none"></path><path d="M1237.96 447.92C1239.16 447.92 1240.12 446.95 1240.12 445.76 1240.12 444.58 1239.16 443.61 1237.96 443.61 1236.78 443.61 1235.81 444.58 1235.81 445.76 1235.81 446.95 1236.78 447.92 1237.96 447.92Z" fill="#2e2b28" opacity="1" stroke-width="3" stroke="none"></path><path d="M1223.05 444.91C1224.25 444.91 1225.21 443.94 1225.21 442.76 1225.21 441.58 1224.25 440.61 1223.05 440.61 1221.87 440.61 1220.9 441.58 1220.9 442.76 1220.9 443.94 1221.87 444.91 1223.05 444.91Z" fill="#2e2b28" opacity="1" stroke-width="3" stroke="none"></path><path d="M1232.53 458.84C1232.24 459.78 1231.76 460.66 1231.13 461.43 1230.49 462.18 1229.71 462.8 1228.84 463.26 1227.96 463.72 1227 464 1226.02 464.09 1225.03 464.18 1224.03 464.06 1223.09 463.76 1222.15 463.46 1221.28 462.98 1220.52 462.34 1219.77 461.71 1219.15 460.92 1218.7 460.04 1218.24 459.16 1217.97 458.2 1217.88 457.21 1217.81 456.23 1217.92 455.24 1218.23 454.3L1232.53 458.84Z" fill="#fbfbfb" opacity="1" stroke-width="3" stroke="none"></path><path d="M1189.6 415.57C1202.82 415.57 1213.53 404.87 1213.53 391.65 1213.53 378.43 1202.82 367.72 1189.6 367.72 1176.4 367.72 1165.68 378.43 1165.68 391.65 1165.68 404.87 1176.4 415.57 1189.6 415.57Z" fill="#2e2b28" opacity="1" stroke-width="3" stroke="none"></path><path d="M1125.99 583.08L1148.92 648.76V648.76L1157.3 971.15C1157.3 971.15 1157.3 971.16 1157.31 971.16 1157.31 971.17 1157.33 971.17 1157.33 971.17H1180.12C1180.13 971.17 1180.14 971.17 1180.14 971.17 1180.14 971.16 1180.16 971.16 1180.16 971.15L1230.67 582.94C1230.67 582.93 1230.67 582.93 1230.67 582.93 1230.67 582.91 1230.67 582.91 1230.67 582.91 1230.67 582.91 1230.66 582.9 1230.66 582.9 1230.66 582.9 1230.64 582.9 1230.64 582.9L1126.03 583.04C1126.02 583.04 1126.02 583.04 1126.02 583.04 1126 583.04 1126 583.04 1126 583.05 1126 583.05 1125.99 583.05 1125.99 583.07 1125.99 583.07 1125.99 583.07 1125.99 583.08V583.08Z" fill="#fffccc" opacity="1" stroke-width="3" stroke="none"></path><path d="M1128.56 578.24L1115.43 602.65C1105.3 621.49 1100.64 642.8 1101.96 664.15L1121.14 971.17H1146.18L1173.96 648.76" fill="#fffccc" opacity="1" stroke-width="3" stroke="none"></path><path d="M1162.99 582.99C1140.05 582.99 1119.17 569.84 1122.02 541.19 1122.03 541.01 1121.99 540.83 1121.9 540.68 1121.8 540.52 1121.66 540.41 1121.48 540.35 1121.32 540.28 1121.13 540.3 1120.96 540.36 1120.78 540.42 1120.64 540.54 1120.55 540.69 1116.44 547.74 1108.44 566.36 1125.94 582.96 1125.95 582.99 1125.98 583 1126 583.01 1126.04 583.03 1126.07 583.03 1126.09 583.03L1162.99 582.98V582.99Z" fill="#000000" opacity="1" stroke-width="3" stroke="none"></path><path d="M1402.37 470.14C1402.37 470.14 1360.98 526.34 1329.82 658.45" stroke="#006633" stroke-width="3" stroke-linecap="round" stroke-linejoin="round" opacity="1" fill="none"></path><path d="M1426.98 483.84C1429.53 483.2 1431.93 482.03 1434 480.4 1436.08 478.78 1437.8 476.73 1439.03 474.41 1440.28 472.08 1441.02 469.52 1441.21 466.89 1441.4 464.27 1441.05 461.63 1440.17 459.15 1439.28 456.66 1437.87 454.39 1436.05 452.48 1434.25 450.57 1432.04 449.06 1429.61 448.04 1427.18 447.04 1424.56 446.54 1421.92 446.61 1419.28 446.67 1416.69 447.28 1414.31 448.4 1414.09 445.78 1413.33 443.22 1412.08 440.9 1410.82 438.6 1409.09 436.56 1407 434.95 1404.91 433.35 1402.5 432.19 1399.94 431.57 1397.38 430.94 1394.72 430.87 1392.12 431.33 1389.53 431.8 1387.07 432.8 1384.88 434.28 1382.7 435.76 1380.84 437.67 1379.46 439.89 1378.05 442.14 1377.14 444.63 1376.76 447.24 1376.39 449.85 1376.55 452.51 1377.27 455.05 1374.72 455.7 1372.32 456.87 1370.24 458.49 1368.16 460.11 1366.45 462.15 1365.21 464.48 1363.97 466.8 1363.22 469.36 1363.03 471.99 1362.84 474.62 1363.2 477.27 1364.09 479.75 1364.98 482.23 1366.37 484.5 1368.19 486.41 1370.01 488.32 1372.2 489.83 1374.63 490.84 1377.07 491.85 1379.68 492.34 1382.32 492.28 1384.96 492.22 1387.55 491.6 1389.93 490.48 1390.15 493.11 1390.92 495.67 1392.16 497.98 1393.42 500.3 1395.16 502.33 1397.24 503.93 1399.33 505.53 1401.74 506.69 1404.3 507.32 1406.86 507.94 1409.52 508.02 1412.12 507.56 1414.71 507.09 1417.17 506.08 1419.36 504.62 1421.54 503.14 1423.4 501.22 1424.8 498.99 1426.2 496.75 1427.12 494.25 1427.48 491.64 1427.87 489.03 1427.69 486.37 1426.98 483.84V483.84Z" fill="#006633" opacity="1" stroke-width="3" stroke="none"></path><path d="M1402.37 478.93C1407.24 478.93 1411.17 475 1411.17 470.14 1411.17 465.27 1407.24 461.34 1402.37 461.34 1397.51 461.34 1393.58 465.27 1393.58 470.14 1393.58 475 1397.51 478.93 1402.37 478.93Z" fill="#000000" opacity="1" stroke-width="3" stroke="none"></path><path d="M1362.41 504.85C1367.28 513 1369.55 522.46 1368.87 531.93 1368.86 532.15 1368.8 532.34 1368.68 532.52 1368.58 532.69 1368.43 532.85 1368.25 532.95 1368.07 533.06 1367.87 533.13 1367.65 533.14 1367.45 533.15 1367.23 533.11 1367.04 533.02 1358.09 529 1350.64 522.24 1345.78 513.72 1340.9 505.2 1338.86 495.35 1339.93 485.59 1349.32 489.41 1357.2 496.16 1362.41 504.85V504.85Z" fill="#006633" opacity="1" stroke-width="3" stroke="none"></path></g><g><path d="M448.47 663.01C448.47 663.01 446.15 638.61 423.62 624.64 416.12 619.98 407.43 627.38 411.03 636.76 420.55 661.5 448.47 663.01 448.47 663.01Z" fill="#004a25" opacity="1" stroke-width="3" stroke="none"></path><path d="M510.28 248.29L534.17 289.03 553.88 288.87 544.1 305.96 663.3 509.24C663.3 509.24 703.25 419.67 653.03 331.27 602.81 242.88 510.28 248.29 510.28 248.29Z" fill="#003018" opacity="1" stroke-width="3" stroke="none"></path><path d="M430.15 350.47L685.73 512.27C685.73 512.27 680.19 414.36 595.05 358.8 509.91 303.25 430.15 350.47 430.15 350.47Z" fill="#003018" opacity="1" stroke-width="3" stroke="none"></path><path d="M1141.47 308.18C1140.22 306.61 1138.42 305.58 1136.43 305.3 1134.45 305.03 1132.42 305.53 1130.79 306.69L1125.86 310.7C1116.07 317.71 1104.98 322.71 1093.23 325.4L1075.15 329.54C1064.64 331.95 1055.4 338.21 1049.25 347.09L1048.32 348.42C1043.82 354.94 1037.67 360.14 1030.49 363.52 1023.32 366.89 1015.39 368.31 1007.49 367.63 1006.05 367.52 1004.61 367.47 1003.17 367.51 1005.67 365.41 1008.28 363.49 1011.01 361.72L1031.98 348.22C1042.58 341.41 1050.48 331.15 1054.36 319.18L1067.08 280.13C1069.87 271.57 1073.86 263.46 1078.96 256.04L1086.85 244.12C1087.37 243.35 1087.74 242.49 1087.92 241.59 1088.11 240.69 1088.13 239.75 1087.95 238.85 1087.77 237.94 1087.42 237.08 1086.91 236.3 1086.4 235.54 1085.73 234.88 1084.97 234.36V234.36C1083.47 233.36 1081.63 232.97 1079.85 233.3 1078.06 233.63 1076.48 234.61 1075.42 236.09L1070.55 242.83C1062.93 253.41 1053.21 262.28 1041.97 268.91L1013.67 285.62C1001.96 292.55 993.26 303.59 989.28 316.6L984.48 332.29C982.58 338.51 979.91 344.47 976.54 350.03L975.87 348.49C971.11 337.61 970.86 325.27 975.17 314.21L980.51 300.43C984.13 291.12 984.41 280.85 981.31 271.36L974.3 249.86C971.13 240.15 969.62 229.98 969.83 219.77L969.72 210.7C969.74 209.67 969.57 208.65 969.19 207.68 968.82 206.72 968.25 205.84 967.54 205.1 966.83 204.35 965.98 203.76 965.02 203.35 964.09 202.94 963.06 202.71 962.03 202.7 961.01 202.69 959.98 202.88 959.01 203.25 958.06 203.63 957.19 204.19 956.45 204.92 955.71 205.63 955.12 206.49 954.72 207.43 954.31 208.38 954.09 209.41 954.08 210.44L954.38 216.79C954.24 228.83 951.7 240.74 946.92 251.79L939.56 268.81C935.28 278.71 934.85 289.87 938.36 300.07L938.88 301.61C941.42 309.17 941.92 317.27 940.36 325.1 938.78 332.94 935.19 340.21 929.92 346.21 925.61 351.24 922.58 357.24 921.12 363.71 919.65 370.17 919.78 376.9 921.49 383.29L928.64 409.94C930.52 416.92 934.74 423.05 940.61 427.28V427.28C947.02 431.9 954.93 433.94 962.78 432.98L1000.75 428.34C1007.01 427.58 1012.99 425.38 1018.25 421.89 1023.51 418.43 1027.9 413.78 1031.06 408.33L1032.41 405.99C1038.37 395.71 1048.16 388.21 1059.63 385.13L1073.89 381.29C1083.53 378.69 1091.98 372.84 1097.8 364.73L1110.97 346.35C1116.92 338.05 1124.23 330.81 1132.6 324.94L1139.85 319.48C1140.72 318.86 1141.46 318.08 1142.01 317.16 1142.58 316.25 1142.94 315.23 1143.1 314.18 1143.25 313.12 1143.19 312.04 1142.9 311.01 1142.63 309.99 1142.14 309.02 1141.47 308.18V308.18Z" fill="#003018" opacity="1" stroke-width="3" stroke="none"></path><path d="M604.02 949.79C604.02 949.79 306.53 808.29 381.22 724.25 455.92 640.21 604.02 949.79 604.02 949.79Z" fill="#003018" opacity="1" stroke-width="3" stroke="none"></path><path d="M571.96 689.05C571.96 689.05 329.85 549.24 381.26 491.4 432.67 433.55 571.96 689.05 571.96 689.05Z" fill="#003018" opacity="1" stroke-width="3" stroke="none"></path><path d="M504.12 462.27C504.12 462.27 484.4 446.15 490.01 421.81 491.7 414.49 503.82 412.9 507.33 419.54 519.02 441.61 504.12 462.27 504.12 462.27Z" fill="#004a25" opacity="1" stroke-width="3" stroke="none"></path><path d="M473.07 468.01C505.34 452.62 528.79 465.32 556.95 498.87" stroke="#004a25" stroke-width="3" stroke-linecap="round" stroke-linejoin="round" opacity="1" fill="none"></path><path d="M485.96 462.66C485.96 462.66 461.52 447.84 434.12 459.69 432.33 460.47 430.84 461.81 429.87 463.5 428.89 465.19 428.48 467.16 428.7 469.1 428.91 471.04 429.75 472.85 431.08 474.29 432.41 475.72 434.16 476.7 436.08 477.06 465.42 482.53 485.96 462.66 485.96 462.66Z" fill="#004a25" opacity="1" stroke-width="3" stroke="none"></path><path d="M1163.36 684.05C1163.36 684.05 1163.74 662.71 1183.02 656.14 1191.77 653.16 1198.07 662.22 1194.25 669.52 1184.8 687.56 1163.36 684.05 1163.36 684.05Z" fill="#003018" opacity="1" stroke-width="3" stroke="none"></path><path d="M958.9 967.26C958.9 967.26 1288.58 779.65 1221.91 704.64 1155.23 629.63 958.9 967.26 958.9 967.26Z" fill="#003018" opacity="1" stroke-width="3" stroke="none"></path><path d="M1111.19 547.69C1180.07 720.71 1096.15 917.03 923.26 986.69 772.16 1047.58 602.97 991.62 515.77 861.45 502.92 842.3 504.25 765.38 504.25 765.38 504.25 765.38 463.77 740.34 460.43 710.56 443.81 563.26 526.13 417.06 670.32 358.97 717.95 339.7 769.34 331.58 820.59 335.22 879.42 339.41 946.73 418.34 946.73 418.34L1111.19 547.69Z" fill="#99cb65" opacity="1" stroke-width="3" stroke="none"></path><path d="M1110.65 546.36L1111.19 547.69 1101.48 559.42C1099.91 561.3 1099.13 563.71 1099.29 566.15L1101.83 605.24C1101.96 607.12 1101.52 609 1100.57 610.64 1099.63 612.28 1098.23 613.61 1096.54 614.45 1094.85 615.28 1092.95 615.61 1091.07 615.38 1089.2 615.15 1087.44 614.37 1086 613.14L1036.65 570.7C1035.64 569.82 1034.83 568.75 1034.25 567.53 1033.69 566.33 1033.36 565.02 1033.32 563.68L1031.78 506.27C1031.75 504.94 1031.43 503.64 1030.87 502.45 1030.31 501.25 1029.5 500.18 1028.5 499.31L998.32 472.81C997.38 471.98 996.28 471.35 995.07 470.94 993.88 470.54 992.62 470.36 991.37 470.45L927.13 474.66C924.38 474.84 921.82 476.11 919.99 478.17 918.17 480.24 917.22 482.93 917.37 485.69L917.38 485.76C917.6 488.45 918.86 490.97 920.9 492.73 922.96 494.51 925.61 495.4 928.31 495.23L975.04 492.51C976.46 492.41 977.87 492.75 979.08 493.46 980.31 494.17 981.3 495.24 981.9 496.52 982.52 497.79 982.73 499.23 982.52 500.64 982.3 502.04 981.68 503.34 980.71 504.38L937.65 550.09C935.99 551.91 933.69 553.01 931.23 553.17 928.77 553.33 926.34 552.54 924.45 550.97L890.53 524.4C889.55 523.57 888.42 522.96 887.21 522.58 885.98 522.21 884.71 522.08 883.44 522.21 882.18 522.33 880.94 522.71 879.82 523.32 878.7 523.92 877.72 524.75 876.92 525.75L875.99 526.89C874.43 528.84 873.68 531.32 873.91 533.81 874.15 536.31 875.35 538.61 877.27 540.22L939.35 592.72C941.04 594.15 943.16 594.95 945.38 594.99 947.6 595.03 949.75 594.29 951.49 592.92L965.98 581.47C967.35 580.38 968.99 579.69 970.73 579.48 972.46 579.25 974.23 579.51 975.83 580.23 977.43 580.94 978.8 582.08 979.8 583.51 980.8 584.95 981.39 586.63 981.5 588.38L983.32 616.11C983.4 617.48 983.2 618.85 982.72 620.14 982.23 621.42 981.48 622.6 980.5 623.56L942.63 661.07C941.65 662.04 940.9 663.2 940.41 664.49 939.92 665.78 939.72 667.14 939.81 668.52L942.15 704.3C942.22 705.58 942.05 706.87 941.62 708.09 941.2 709.3 940.55 710.41 939.68 711.38L905.31 749.39C903.29 751.62 902.12 754.5 902.01 757.52L900.74 791.93C900.59 795.88 899.07 799.65 896.43 802.59L830.53 875.36C828.87 877.21 826.54 878.34 824.04 878.49L809.22 879.46C807.61 879.57 805.98 879.26 804.51 878.58 803.05 877.89 801.77 876.84 800.82 875.52L781.85 849.37C780.79 847.9 780.16 846.17 780.05 844.37L771.81 718.44C771.65 715.9 770.48 713.53 768.58 711.85L750.32 695.85C749.39 695.01 748.61 694.01 748.06 692.89 747.5 691.75 747.17 690.52 747.09 689.27L745.58 666.17C745.5 664.9 745.17 663.68 744.62 662.55 744.05 661.41 743.29 660.41 742.34 659.57 741.39 658.74 740.28 658.1 739.09 657.7 737.89 657.29 736.64 657.13 735.38 657.22L694.31 659.89C691.95 660.04 689.61 659.33 687.76 657.87L640.5 620.63C639.44 619.79 638.57 618.74 637.94 617.55 637.32 616.36 636.94 615.05 636.85 613.71L632.62 548.74C632.53 547.46 632.71 546.17 633.12 544.96 633.55 543.76 634.2 542.64 635.06 541.69L677.04 495.01C678.72 493.15 681.06 492.02 683.57 491.87L760.64 486.83C763 486.68 765.32 487.39 767.19 488.84L786.82 504.23C788.69 505.68 791.02 506.39 793.37 506.24L863.9 501.64C865.21 501.55 866.48 501.2 867.65 500.6 868.82 500 869.84 499.17 870.67 498.16L884.43 481.5C885.97 479.6 886.75 477.2 886.6 474.76L882.11 407.28C882.04 406.02 881.7 404.79 881.15 403.66 880.59 402.53 879.82 401.52 878.87 400.68 877.92 399.86 876.82 399.22 875.63 398.82 874.43 398.41 873.17 398.24 871.91 398.33L867.68 398.61C865.19 398.78 862.86 399.91 861.18 401.76L823.82 443.17C822.14 445.02 819.81 446.15 817.32 446.31L727.91 452.17C726.66 452.24 725.43 452.57 724.29 453.12 723.17 453.68 722.15 454.45 721.33 455.4L711.21 466.93C710.38 467.87 709.37 468.65 708.24 469.2 707.12 469.76 705.88 470.09 704.63 470.16L680.27 471.78C677.73 471.94 675.23 471.07 673.32 469.4 671.41 467.71 670.24 465.34 670.08 462.8L668.6 440.29C668.52 439.02 668.69 437.77 669.09 436.57 669.49 435.38 670.13 434.28 670.97 433.33 671.8 432.37 672.81 431.61 673.94 431.05 675.06 430.5 676.3 430.16 677.56 430.08L697.6 428.77C699 428.67 700.37 428.27 701.61 427.59 702.83 426.92 703.91 425.98 704.74 424.84L743.95 373.72C744.78 372.58 745.84 371.64 747.08 370.96 748.31 370.29 749.67 369.9 751.08 369.81L788.11 367.37C789.36 367.29 790.6 366.96 791.73 366.4 792.86 365.85 793.87 365.08 794.7 364.14L820.59 335.22C945.54 344.09 1060.68 422.35 1110.65 546.36Z" fill="#006633" opacity="1" stroke-width="3" stroke="none"></path><path d="M528.61 756.08L533.76 834.64C533.98 837.87 533.03 841.08 531.08 843.67 530.89 843.91 530.69 844.16 530.48 844.41L515.77 861.45C485.54 816.29 466.57 764.55 460.43 710.56L465.37 715.71C466.74 717.14 468.4 718.25 470.26 718.98 472.1 719.69 474.09 720.01 476.07 719.88L488.49 719.07 489.7 718.98C491.62 718.85 493.56 719.14 495.36 719.82 497.16 720.49 498.8 721.56 500.18 722.92L524.66 747.36C526.99 749.69 528.4 752.78 528.61 756.08Z" fill="#006633" opacity="1" stroke-width="3" stroke="none"></path><path d="M1111.18 547.69C1180.06 720.71 1096.14 917.03 923.24 986.69 881.74 1003.48 837.3 1011.83 792.53 1011.27 747.76 1010.7 703.55 1001.24 662.47 983.41 708.01 983.57 753.14 974.87 795.35 957.81 975.25 885.31 1062.57 681.02 990.9 500.99L990.35 499.61C986.45 489.91 982.16 480.48 977.49 471.34L991.35 470.42C992.61 470.34 993.87 470.51 995.06 470.91 996.26 471.31 997.36 471.95 998.3 472.79L1028.49 499.28C1029.49 500.16 1030.29 501.22 1030.86 502.43 1031.42 503.62 1031.73 504.92 1031.77 506.24L1033.31 563.65C1033.35 564.99 1033.66 566.3 1034.24 567.51 1034.81 568.72 1035.63 569.8 1036.64 570.67L1085.98 613.12C1087.42 614.35 1089.19 615.13 1091.05 615.36 1092.93 615.6 1094.84 615.27 1096.53 614.42 1098.22 613.58 1099.62 612.25 1100.57 610.61 1101.51 608.99 1101.95 607.1 1101.82 605.22L1099.28 566.13C1099.11 563.69 1099.89 561.27 1101.47 559.39L1111.18 547.69Z" fill="#7ba252" opacity="1" stroke-width="3" stroke="none"></path><path d="M1110.65 546.36L1111.19 547.69 1101.48 559.42C1099.91 561.3 1099.13 563.71 1099.29 566.15L1101.83 605.24C1101.96 607.12 1101.52 609 1100.57 610.64 1099.63 612.28 1098.23 613.61 1096.54 614.45 1094.85 615.28 1092.95 615.61 1091.07 615.38 1089.2 615.15 1087.44 614.37 1086 613.14L1036.65 570.7C1035.64 569.82 1034.83 568.75 1034.25 567.53 1033.67 566.33 1033.36 565.02 1033.32 563.68L1031.78 506.27C1031.75 504.94 1031.43 503.64 1030.87 502.45 1030.31 501.25 1029.5 500.18 1028.5 499.31L998.32 472.81C997.38 471.98 996.28 471.35 995.07 470.94 993.88 470.54 992.62 470.36 991.37 470.45L977.51 471.36C950.95 419 911.65 374.18 863.22 341.01 918.27 351.99 969.72 376.52 1012.92 412.38 1056.11 448.22 1089.7 494.27 1110.65 546.36V546.36Z" fill="#003018" opacity="1" stroke-width="3" stroke="none"></path><path d="M808.34 1011.09C885.62 1010.64 1172.59 960.36 1151.28 881.03 1144.64 856.33 1104.75 850.88 1062.81 875.98 1007.83 908.9 940.01 987.15 808.34 1011.09Z" fill="#006633" opacity="1" stroke-width="3" stroke="none"></path><path d="M800.41 1011.28C723.13 1010.83 612.29 935.63 629.92 869.81 636.53 845.11 680.89 831.79 704.26 874.73 717.05 898.21 747.98 1003 800.41 1011.28Z" fill="#006633" opacity="1" stroke-width="3" stroke="none"></path><path d="M829.73 978.04C829.73 978.04 840.23 954.84 824.41 935.51 819.65 929.7 808.08 933.65 807.88 941.17 807.2 966.14 829.73 978.04 829.73 978.04Z" fill="#006633" opacity="1" stroke-width="3" stroke="none"></path><path d="M860.09 969.39C824.35 969.94 815.96 986.15 808.34 1011.09" stroke="#006633" stroke-width="3" stroke-linecap="round" stroke-linejoin="round" opacity="1" fill="none"></path><path d="M846.17 970.33C846.17 970.33 861.48 946.2 891.3 944.65 893.26 944.55 895.19 945.08 896.81 946.17 898.44 947.25 899.67 948.83 900.34 950.66 901.01 952.5 901.07 954.5 900.51 956.37 899.96 958.24 898.82 959.9 897.26 961.07 873.4 979 846.17 970.33 846.17 970.33Z" fill="#006633" opacity="1" stroke-width="3" stroke="none"></path></g><g><path d="M713.85 1011C714.08 1011 714.3 1010.95 714.5 1010.85 714.7 1010.75 714.88 1010.6 715.01 1010.42 715.16 1010.24 715.25 1010.04 715.3 1009.81 715.34 1009.59 715.34 1009.36 715.28 1009.13 714.98 1007.96 714.05 1006.56 711.38 1005.95 710.01 1005.64 707.38 1005.47 704.17 1005.14 699.54 1004.69 691.19 1003.43 684.65 1002.39 681.99 1001.96 679.54 1000.65 677.73 998.64 675.91 996.65 674.84 994.08 674.67 991.39L674.4 984.22 662.29 976.31 650.33 984.22 651.46 1010.99 713.85 1011Z" fill="#006633" opacity="1" stroke-width="3" stroke="none"></path><path d="M550.81 545.72C539.3 545.69 528.07 542.24 518.52 535.81 508.98 529.39 501.57 520.28 497.21 509.62L496.82 508.67 490 481.56C489.5 480.66 488.76 479.91 487.87 479.38 486.97 478.86 485.95 478.58 484.91 478.58 481.01 478.58 477.26 477.03 474.5 474.26 471.73 471.51 470.18 467.75 470.18 463.85 470.18 459.94 471.73 456.18 474.5 453.43 477.26 450.66 481.01 449.11 484.91 449.11 491.94 449.1 498.81 451.18 504.63 455.09 510.47 459.03 514.99 464.6 517.62 471.11L518.01 472.06 524.88 499.37C526.39 502.77 528.57 505.84 531.28 508.41 533.98 510.97 537.17 512.98 540.66 514.32 544.14 515.64 547.84 516.28 551.57 516.17 555.29 516.07 558.96 515.24 562.37 513.71L583.4 503.94 611.47 491.78C615.04 490.2 619.08 490.1 622.73 491.49 626.37 492.89 629.31 495.69 630.9 499.24 632.49 502.81 632.61 506.85 631.22 510.51 629.83 514.15 627.05 517.1 623.49 518.7L600.52 529.34 574.39 540.63C566.97 543.98 558.93 545.7 550.81 545.72V545.72Z" fill="#b15d3e" opacity="1" stroke-width="3" stroke="none"></path><path d="M703.97 526.61L709.94 522.18 698.25 506.4C695.52 500.93 691.4 496.29 686.29 492.93 681.17 489.58 675.27 487.62 669.16 487.3L639 485.34C630.28 484.78 621.55 486.36 613.57 489.95L583.4 503.94 600.52 529.34 603.66 528.43 605.9 585.14 641.71 609.65 682.67 598.2 686.07 593.23 699.91 573.04C703.43 567.92 705.82 562.12 706.96 556.01 708.12 549.91 707.97 543.64 706.54 537.59L703.97 526.61Z" fill="#fffccc" opacity="1" stroke-width="3" stroke="none"></path><path d="M485.15 932.71C485.23 932.82 485.33 932.92 485.44 933 485.55 933.09 485.68 933.14 485.8 933.16 485.94 933.19 486.08 933.19 486.22 933.16 486.34 933.14 486.47 933.07 486.58 933 487.59 932.27 488.93 930.64 487.74 927.45 487.26 926.14 485.97 923.83 484.48 920.97 482.32 916.83 478.8 909.16 476.1 903.12 475 900.66 474.77 897.89 475.45 895.27 476.13 892.67 477.68 890.37 479.84 888.75L485.42 884.79C485.6 884.67 485.74 884.47 485.8 884.26L490.49 868.48C490.52 868.34 490.54 868.19 490.51 868.05 490.5 867.9 490.45 867.77 490.37 867.64 490.29 867.52 490.19 867.42 490.06 867.34 489.95 867.25 489.81 867.2 489.66 867.18L472.97 864.51C472.71 864.47 472.44 864.54 472.22 864.7L451.56 879.47C451.35 879.64 451.2 879.86 451.15 880.12 451.11 880.37 451.16 880.65 451.3 880.88L485.15 932.71Z" fill="#006633" opacity="1" stroke-width="3" stroke="none"></path><path d="M674.4 984.22L682.67 598.22 627.38 604.94 650.33 984.22H674.4Z" fill="#032614" opacity="1" stroke-width="3" stroke="none"></path><path d="M485.7 884.59L621.65 800.23C629 795.97 635.18 789.98 639.64 782.75 644.11 775.53 646.72 767.32 647.24 758.84L682.67 598.2 605.9 585.14 597.87 603.51C591.48 618.14 589.23 634.22 591.39 650.04L605.87 756.44 472.56 864.45 485.7 884.59Z" fill="#032614" opacity="1" stroke-width="3" stroke="none"></path><path d="M679.81 410.87C677.23 408.47 674.3 406.47 671.13 404.93 671.06 404.9 651.55 428.45 646.74 431.59 638.63 436.9 618.77 440.83 618.81 441.08 618.97 443.01 619.31 444.92 619.81 446.79 621.24 452.26 623.92 457.32 627.65 461.58 631.37 465.84 636.04 469.17 641.27 471.31 646.5 473.44 652.16 474.34 657.81 473.9 663.44 473.47 668.9 471.75 673.76 468.84 678.6 465.94 682.71 461.94 685.75 457.17 688.8 452.4 690.69 446.99 691.28 441.37 691.86 435.74 691.13 430.07 689.15 424.77 687.16 419.47 683.95 414.72 679.81 410.87V410.87Z" fill="#b15d3e" opacity="1" stroke-width="3" stroke="none"></path><path d="M671.13 404.93C670.6 415.04 666.12 424.54 658.66 431.38 651.19 438.23 641.33 441.86 631.2 441.51L618.81 441.08C618.77 440.83 618.74 440.58 618.73 440.33 618.63 439.01 618.61 437.68 618.66 436.35L618.68 435.68C619.01 429.67 620.8 423.84 623.93 418.71 627.05 413.58 631.38 409.29 636.56 406.24 641.73 403.2 647.58 401.47 653.58 401.22 659.59 400.98 665.55 402.22 670.95 404.84 671.02 404.86 671.07 404.9 671.13 404.93Z" fill="#2e2b28" opacity="1" stroke-width="3" stroke="none"></path><path d="M607.61 413.14C616.48 413.14 623.67 405.95 623.67 397.09 623.67 388.22 616.48 381.04 607.61 381.04 598.75 381.04 591.56 388.22 591.56 397.09 591.56 405.95 598.75 413.14 607.61 413.14Z" fill="#2e2b28" opacity="1" stroke-width="3" stroke="none"></path><path d="M677.58 433.71C677.58 434.82 677.14 435.9 676.35 436.69 675.56 437.48 674.49 437.92 673.37 437.92 672.26 437.92 671.19 437.48 670.4 436.69 669.62 435.9 669.16 434.82 669.16 433.71" stroke="#2e2b28" stroke-width="3" stroke-linecap="round" stroke-linejoin="round" opacity="1" fill="none"></path><path d="M664.98 452.42C663.87 452.42 662.8 451.98 662.02 451.19 661.23 450.4 660.78 449.32 660.78 448.21" stroke="#3d1e13" stroke-width="3" stroke-linecap="round" stroke-linejoin="round" opacity="1" fill="none"></path><path d="M823.6 565.65C822.95 563.83 821.95 562.16 820.65 560.72 819.35 559.28 817.78 558.11 816.03 557.29 814.28 556.46 812.39 555.98 810.46 555.9 808.52 555.8 806.59 556.08 804.76 556.73L775.7 567.11C775.19 567.3 774.67 567.53 774.17 567.77L771.61 568.68C756.06 574.24 741.56 564.45 733.17 553.44 732.39 552.42 727.73 546.17 709.94 522.18L686.25 539.74C700.82 559.38 708.49 569.71 709.72 571.32 723.8 589.8 742.81 599.84 762.22 599.84 768.8 599.83 775.33 598.69 781.52 596.46L785.62 595 785.58 594.9C785.59 594.9 785.6 594.88 785.62 594.88L814.68 584.51C818.36 583.19 821.38 580.46 823.05 576.93 824.72 573.39 824.92 569.33 823.6 565.65V565.65Z" fill="#b15d3e" opacity="1" stroke-width="3" stroke="none"></path></g></svg>