<svg xmlns="http://www.w3.org/2000/svg" height="1200" width="1600" version="1.1" xmlns:xlink="http://www.w3.org/1999/xlink" xmlns:svgjs="http://svgjs.com/svgjs"><rect fill="#ffffff" width="1600" height="1200"></rect><g><path d="M1384.77 446.35C1373.16 413.56 1354.72 383.51 1328.95 359.37 1237.38 273.4 1094.27 267.19 978.87 298.76 941.08 309.15 904.82 324.94 870.08 342.76 840.85 357.74 812.43 374.14 782.48 387.38 748.46 400.82 713.32 410.4 677.26 416 640.29 420.18 603.01 420.38 566.03 416.2 532.83 410.81 500.64 400.01 467.44 395.02 428.42 389.21 389.21 390.43 352.03 405.41 316.58 419.57 283.99 440.04 258.22 468.66 231.02 498.91 211.36 534.46 200.16 573.47 178.36 649.87 188.95 735.33 224.6 805.92 242.84 841.87 271.77 874.36 306.8 894.53 347.85 918.37 395.63 924.78 441.46 912.97 485.26 901.56 526.51 876.81 566.85 856.74 611.46 834.74 664.23 795.73 715.26 794.51 755.08 793.49 794.71 815.49 831.48 828.32 875.28 843.7 921.32 850.12 967.66 849.51 1008.71 848.9 1049.66 844.32 1090.3 839.53 1192.57 827.71 1296.97 806.12 1361.35 717.91 1418.18 639.99 1426.94 532.73 1384.77 446.35Z" fill="#99cb65" opacity="1" stroke-width="3" stroke="none"></path></g><g><path d="M636.34 699.92L649.82 679.85 685.08 627.5 713.77 644.75 690.65 522.18C690.49 521.55 690.26 520.85 689.86 520.3 689.47 519.75 688.92 519.2 688.38 518.89 687.75 518.5 687.12 518.26 686.42 518.18 685.71 518.03 685.08 518.1 684.38 518.26L558.68 551.49 588.46 569.44 575.45 595.69C570.2 606.27 567.53 617.79 567.53 629.54 567.46 641.3 570.2 652.9 575.37 663.4L614.32 742.63C616.75 747.48 619.41 752.26 622.47 756.73 633.36 772.88 648.02 786.12 665.26 795.29 682.42 804.46 701.62 809.24 721.13 809.24H764.71V701.17L636.34 699.92V699.92Z" fill="#006633" opacity="1" stroke-width="3" stroke="none"></path><path d="M661.73 472.03L690.96 485.58 751.46 513.64 806.63 397.58 819.09 418.27 851.69 472.26 823.95 490.99 944.87 521.63C945.5 521.79 946.2 521.87 946.91 521.71 947.61 521.63 948.24 521.4 948.87 521 949.42 520.61 949.89 520.14 950.28 519.59 950.67 518.97 950.9 518.34 951.06 517.63L973.79 389.66 945.03 409.1 926.69 386.29C919.32 377.2 910 369.83 899.34 364.9 888.68 359.88 877.08 357.45 865.33 357.69L777.09 359.65C771.68 359.8 766.19 360.27 760.87 361.14 741.59 364.27 723.41 372.03 707.89 383.78 692.37 395.54 679.91 410.98 671.76 428.61L653.42 468.19 661.73 472.03V472.03Z" fill="#006633" opacity="1" stroke-width="3" stroke="none"></path><path d="M1020.96 566.22L997.22 529.7 943.3 564.73 914.15 583.7 906.63 588.63 911.49 596.24 975.67 697.09 951.53 696.7 888.45 695.61 887.27 662.14 797.07 748.27C796.6 748.74 796.13 749.37 795.9 749.99 795.58 750.62 795.5 751.32 795.5 752.03 795.5 752.66 795.66 753.36 795.9 753.99 796.21 754.62 796.6 755.16 797.15 755.63L893.46 842.94 892.29 808.22 921.36 804.85C933.04 803.52 944.24 799.52 954.04 793.09 963.91 786.75 972.14 778.13 978.18 768.02L1023.39 692.24C1026.22 687.61 1028.64 682.75 1030.76 677.66 1038.36 659.71 1041.42 640.2 1039.69 620.77 1037.97 601.33 1031.54 582.6 1020.96 566.22V566.22Z" fill="#006633" opacity="1" stroke-width="3" stroke="none"></path></g><g><path d="M600.73 616.18C597.98 616.2 595.26 615.56 592.79 614.36 590.33 613.13 588.18 611.36 586.5 609.18 578.89 599.25 570.42 594.61 558.7 588.23 546.53 581.6 531.38 573.33 515 556.96 511.64 553.61 509.74 549.05 509.74 544.3 509.74 539.55 511.62 535.01 514.98 531.64 518.33 528.29 522.89 526.4 527.64 526.39 532.38 526.39 536.94 528.27 540.29 531.62 553.05 544.36 564.63 550.69 575.84 556.79 589.03 563.98 602.68 571.43 614.91 587.38 616.94 590.04 618.21 593.2 618.53 596.52 618.87 599.85 618.24 603.2 616.77 606.2 615.31 609.19 613.01 611.72 610.18 613.49 607.34 615.24 604.06 616.18 600.73 616.18V616.18Z" fill="#a14a40" opacity="1" stroke-width="3" stroke="none"></path><path d="M515.01 556.96C509.87 551.8 505.01 546.33 500.49 540.61 464.98 495.87 448.44 475.67 448.27 475.47L476.08 452.67C476.25 452.88 492.82 473.34 528.54 518.36 532.19 523.01 536.13 527.44 540.31 531.62L515.01 556.96Z" fill="#006633" opacity="1" stroke-width="3" stroke="none"></path><path d="M474.91 374.12C474.98 379.62 473.99 385.08 471.95 390.19 469.9 395.29 466.88 399.97 463.06 403.9 459.22 407.84 454.64 410.99 449.59 413.17 444.54 415.34 439.1 416.51 433.62 416.58 428.12 416.66 422.65 415.64 417.55 413.6 412.43 411.57 407.77 408.56 403.84 404.71 399.88 400.89 396.73 396.31 394.57 391.26 392.4 386.2 391.23 380.77 391.16 375.27L391.14 374.5C411.88 363.21 422.09 356.26 422.09 356.26 422.09 356.26 444.24 333.94 449.46 336.16 456.92 339.35 463.31 344.64 467.83 351.37 472.33 358.11 474.8 366.02 474.91 374.12Z" fill="#a14a40" opacity="1" stroke-width="3" stroke="none"></path><path d="M449.46 336.16C448.2 347.15 442.96 357.3 434.77 364.7 426.57 372.12 415.95 376.31 404.89 376.46 400.24 376.55 395.58 375.89 391.14 374.5 391.18 367.58 392.91 360.8 396.21 354.72 399.5 348.65 404.25 343.49 410.01 339.69 415.8 335.9 422.41 333.6 429.3 332.98 436.18 332.36 443.11 333.45 449.46 336.16V336.16Z" fill="#2e2b28" opacity="1" stroke-width="3" stroke="none"></path><path d="M463.29 372.35C464.62 372.35 465.72 371.26 465.72 369.92 465.72 368.58 464.62 367.49 463.29 367.49 461.95 367.49 460.86 368.58 460.86 369.92 460.86 371.26 461.95 372.35 463.29 372.35Z" fill="#2e2b28" opacity="1" stroke-width="3" stroke="none"></path><path d="M446.07 372.6C447.41 372.6 448.5 371.5 448.5 370.17 448.5 368.83 447.41 367.74 446.07 367.74 444.73 367.74 443.64 368.83 443.64 370.17 443.64 371.5 444.73 372.6 446.07 372.6Z" fill="#2e2b28" opacity="1" stroke-width="3" stroke="none"></path><path d="M452.23 388.78C450.53 389.53 448.63 389.68 446.82 389.21 445.03 388.74 443.45 387.67 442.34 386.16" stroke="#8c2517" stroke-width="3" stroke-linecap="round" opacity="1" fill="none"></path><path d="M405.62 977.45C403.91 977.07 400.63 976.83 396.62 976.43L390.35 975.68C383.49 974.59 382.29 966.2 381.85 959.27L381.53 952.43 367.01 944.3 351.56 952.43 352.88 983.74H410.54C410.54 983.74 411.82 978.84 405.62 977.45Z" fill="#ffffcc" opacity="1" stroke-width="3" stroke="none"></path><path d="M521.55 983.74H440.81L440.53 952.43 457.26 944.94 470.41 952.43 470.82 959.25C471.03 962.63 472.37 965.81 474.63 968.31 476.89 970.82 479.94 972.46 483.27 972.99 491.45 974.27 501.87 975.85 507.63 976.41 511.66 976.79 514.94 977.04 516.65 977.43 522.83 978.84 521.55 983.74 521.55 983.74Z" fill="#ffffcc" opacity="1" stroke-width="3" stroke="none"></path><path d="M497.18 794.05L470.41 952.43H440.53L451.85 769.09 411.67 641.41C411.65 641.03 411.48 640.65 411.2 640.39 410.92 640.13 410.54 639.98 410.16 639.98 409.77 639.98 409.39 640.13 409.11 640.39 408.83 640.65 408.66 641.03 408.64 641.41L381.53 952.43H351.56L345.02 627.99 344.4 597.16 345.38 568.52 349.56 498.94C350.54 482.53 357.76 467.12 369.72 455.86 381.68 444.59 397.51 438.3 413.93 438.3 450.55 438.3 482.56 437.55 481.09 474.13L475.85 568.26 498.59 741.53C500.58 759.03 500.1 776.7 497.18 794.05V794.05Z" fill="#006633" opacity="1" stroke-width="3" stroke="none"></path><path d="M430.28 567C407.28 563.82 357.36 567.64 345.63 624.87 345.61 624.94 345.57 625.02 345.5 625.07 345.44 625.13 345.36 625.15 345.27 625.13 345.19 625.13 345.12 625.09 345.06 625.04 345.01 624.98 344.97 624.91 344.97 624.81L344.4 597.18V597.16L345.38 568.52 349.41 501.5C349.41 501.43 349.45 501.33 349.51 501.27 349.56 501.22 349.64 501.18 349.71 501.18 349.79 501.18 349.88 501.2 349.94 501.26 350 501.29 350.05 501.37 350.07 501.44 352.65 512.69 366.99 558.22 430.28 567Z" fill="#013c1f" opacity="1" stroke-width="3" stroke="none"></path><path d="M609.71 642.5L611.84 595.16C611.86 594.84 611.78 594.54 611.65 594.28 611.52 593.99 611.31 593.77 611.07 593.6 610.82 593.41 610.52 593.31 610.22 593.28 609.92 593.24 609.62 593.3 609.33 593.41L494.86 642.42C494.58 642.54 494.33 642.73 494.14 642.97 493.95 643.22 493.82 643.52 493.78 643.82 493.73 644.12 493.77 644.44 493.88 644.72 493.99 645.01 494.18 645.27 494.41 645.46L508.27 657C508.57 657.27 508.78 657.61 508.87 658 508.95 658.38 508.91 658.78 508.74 659.13 506.95 663.01 505.22 666.97 503.52 671.04 480.24 726.85 465.26 800.15 465.26 831.91 465.26 886.54 509.55 918.81 564.2 918.81 618.85 918.81 663.13 886.56 663.13 831.91 663.12 804.99 625.06 686.52 609.81 643.16 609.73 642.95 609.69 642.73 609.71 642.5Z" fill="#ffffcc" opacity="1" stroke-width="3" stroke="none"></path><path d="M638.29 892.19C620.15 909.43 593.68 918.83 564.2 918.83 509.55 918.83 465.28 886.58 465.28 831.93 465.28 816.63 468.71 791.75 474.91 763.83 474.89 764.4 474.93 764.91 474.93 765.45 474.93 845.68 539.96 893.02 620.17 893.02 626.31 893.02 632.35 892.74 638.29 892.19Z" fill="#ffffa2" opacity="1" stroke-width="3" stroke="none"></path><path d="M534.17 651.2C531.4 651.2 528.67 650.56 526.19 649.34 523.7 648.09 521.55 646.3 519.87 644.08 515.11 637.77 509.42 636.32 495.88 633.36 480.26 629.95 458.88 625.28 432.68 606.95 431.73 606.29 430.85 605.54 430.06 604.71 426.97 601.51 425.18 597.27 425.05 592.84 424.91 588.4 426.44 584.05 429.32 580.67 432.2 577.28 436.25 575.1 440.66 574.53 445.07 573.97 449.54 575.06 453.19 577.59 454.23 578.32 455.04 579.09 456.03 579.77 474.93 592.24 490.19 595.42 503.52 598.36 519.25 601.81 535.51 605.35 548.45 622.49 550.45 625.15 551.69 628.31 551.99 631.63 552.29 634.95 551.67 638.28 550.18 641.28 548.71 644.25 546.42 646.76 543.59 648.51 540.77 650.26 537.51 651.2 534.17 651.2Z" fill="#a14a40" opacity="1" stroke-width="3" stroke="none"></path><path d="M411.71 476.64L429.66 535.77C434.94 552.27 443.96 567.32 456.03 579.75L430.04 604.71C414.18 588.23 402.37 568.3 395.49 546.48L377.44 487.03" fill="#006633" opacity="1" stroke-width="3" stroke="none"></path></g><g><path d="M1014.98 983.5C1014.98 983.5 1013.8 979.02 1019.46 977.75 1021.03 977.4 1024.04 977.18 1027.7 976.82 1033.14 976.29 1042.1 974.83 1048.83 973.68 1051.49 973.22 1053.96 971.98 1055.91 970.12 1057.87 968.27 1059.24 965.86 1059.85 963.24L1061.79 954.87 1075.7 946.41 1089.13 954.87 1084.13 983.5H1014.98Z" fill="#ffffcc" opacity="1" stroke-width="3" stroke="none"></path><path d="M1260.12 977.75C1258.54 977.4 1255.54 977.18 1251.88 976.82 1246.58 976.3 1237.05 974.87 1229.58 973.68 1226.53 973.19 1223.73 971.68 1221.67 969.4 1219.6 967.12 1218.37 964.2 1218.18 961.11L1217.84 954.87 1204.22 949.5 1190.45 954.87 1191.67 983.5H1264.6C1264.6 983.5 1265.78 979.02 1260.12 977.75Z" fill="#ffffcc" opacity="1" stroke-width="3" stroke="none"></path><path d="M991.72 453.18L1001.99 501.12C1002.26 502.41 1012.97 502.55 1013.86 502.55 1021.85 502.44 1029.07 496.63 1028.8 495.37L1018.53 447.43C1017.42 442.24 1015.03 437.41 1011.57 433.39 1008.11 429.36 1003.71 426.27 998.74 424.4L994.04 422.63C992.34 422.01 990.55 421.71 988.75 421.77 986.95 421.83 985.18 422.24 983.55 422.98 981.9 423.74 980.42 424.79 979.19 426.11 977.97 427.43 977.01 428.97 976.38 430.65 975.73 432.34 975.45 434.13 975.51 435.94 975.56 437.73 975.99 439.51 976.73 441.14 977.46 442.78 978.53 444.25 979.85 445.5 981.16 446.72 982.7 447.68 984.4 448.31L989.04 450.06C989.71 450.31 990.31 450.73 990.78 451.28 991.24 451.83 991.57 452.48 991.72 453.18V453.18Z" fill="#a14a40" opacity="1" stroke-width="3" stroke="none"></path><path d="M1037.97 530.12C1034.1 530.1 1030.28 529.5 1026.61 528.32 1020.45 526.39 1014.93 522.85 1010.61 518.07 1006.27 513.29 1003.3 507.44 1001.99 501.12L1028.8 495.37C1029.15 496.96 1029.9 498.42 1030.99 499.61 1032.07 500.83 1033.45 501.71 1034.99 502.21 1036.54 502.7 1038.19 502.77 1039.77 502.43 1041.35 502.08 1042.81 501.33 1044.02 500.24L1113.42 437.08 1131.88 457.37 1062.48 520.53C1055.8 526.69 1047.04 530.1 1037.97 530.12V530.12Z" fill="#ffffcc" opacity="1" stroke-width="3" stroke="none"></path><path d="M1291.29 517.43C1289.83 515.7 1279.33 511.22 1278.21 511.94L1237.07 538.61C1232.6 541.48 1228.95 545.42 1226.42 550.07 1223.89 554.72 1222.57 559.94 1222.59 565.24V574.64C1222.59 578.28 1224.02 581.77 1226.59 584.35 1229.17 586.92 1232.66 588.37 1236.3 588.37 1239.93 588.37 1243.42 586.92 1246 584.35 1248.58 581.77 1250.02 578.28 1250.02 574.64V565.24C1250.02 564.52 1250.19 563.81 1250.54 563.18 1250.89 562.55 1251.37 562.02 1251.99 561.63L1293.12 534.96C1295.7 533.29 1294.11 520.78 1291.29 517.43Z" fill="#a14a40" opacity="1" stroke-width="3" stroke="none"></path><path d="M1293.12 534.96L1278.21 511.96C1279.57 511.08 1280.67 509.85 1281.4 508.4 1282.14 506.96 1282.49 505.34 1282.41 503.72 1282.32 502.11 1281.81 500.54 1280.93 499.17 1280.04 497.82 1278.81 496.72 1277.38 495.98L1186.86 450.15 1199.17 425.83 1289.77 471.52C1295.51 474.43 1300.4 478.8 1303.9 484.21 1307.43 489.6 1309.45 495.83 1309.8 502.27 1310.15 508.7 1308.78 515.12 1305.85 520.86 1302.91 526.6 1298.53 531.45 1293.12 534.96V534.96Z" fill="#ffffcc" opacity="1" stroke-width="3" stroke="none"></path><path d="M1132.41 366.98C1132.41 375.61 1135.84 383.88 1141.93 389.98 1148.03 396.06 1156.3 399.49 1164.93 399.49 1173.56 399.49 1181.83 396.06 1187.93 389.98 1194.03 383.88 1197.46 375.61 1197.46 366.98V366.38C1197.4 364.04 1197.1 361.71 1196.55 359.43 1196.42 358.89 1196.31 358.36 1196.15 357.82 1192.21 344.38 1164.76 337.73 1164.76 337.73 1160.15 337.76 1136.42 348.61 1133.73 357.82 1132.84 360.8 1132.38 363.88 1132.41 366.98V366.98Z" fill="#a14a40" opacity="1" stroke-width="3" stroke="none"></path><path d="M1165.13 334.46H1164.74C1157.74 334.51 1150.95 336.82 1145.37 341.02 1139.79 345.23 1135.72 351.13 1133.73 357.82 1136.42 358.91 1139.3 359.46 1142.21 359.44 1147.34 359.44 1152.32 357.73 1156.38 354.57 1160.42 351.41 1163.29 346.98 1164.54 341.99 1164.55 341.91 1164.6 341.83 1164.66 341.77 1164.74 341.72 1164.82 341.69 1164.91 341.69 1165.01 341.69 1165.09 341.72 1165.16 341.77 1165.23 341.83 1165.27 341.91 1165.31 341.99 1166.55 346.98 1169.43 351.41 1173.47 354.57 1177.52 357.73 1182.51 359.44 1187.65 359.44 1190.56 359.46 1193.45 358.91 1196.15 357.82 1194.17 351.13 1190.09 345.23 1184.5 341.02 1178.91 336.82 1172.11 334.51 1165.13 334.46V334.46Z" fill="#2e2b28" opacity="1" stroke-width="3" stroke="none"></path><path d="M1243.07 482.81C1242.74 481.06 1242.36 479.35 1241.94 477.65 1237.41 460.15 1227.05 444.71 1212.57 433.89 1198.1 423.06 1180.37 417.49 1162.3 418.09 1144.24 418.69 1126.91 425.42 1113.18 437.19 1099.46 448.96 1090.15 465.04 1086.8 482.81 1085.87 487.66 1085.42 492.6 1085.43 497.54 1085.4 514.65 1090.94 531.31 1101.17 545.02L1164.65 572.05 1228.69 545.02C1235.24 536.2 1239.91 526.12 1242.38 515.42 1244.86 504.71 1245.1 493.61 1243.07 482.81Z" fill="#ffffcc" opacity="1" stroke-width="3" stroke="none"></path><path d="M1101.17 545.02L1061.79 954.87H1089.13L1160.72 606.67C1160.79 606.25 1161.05 605.85 1161.39 605.59 1161.75 605.32 1162.18 605.19 1162.63 605.23 1163.07 605.26 1163.48 605.45 1163.8 605.76 1164.1 606.09 1164.28 606.5 1164.32 606.94L1190.45 954.87H1217.84L1228.69 545.02H1101.17Z" fill="#006633" opacity="1" stroke-width="3" stroke="none"></path><path d="M1162.6 443.17C1164.03 443.17 1165.21 442.01 1165.21 440.56 1165.21 439.11 1164.03 437.95 1162.6 437.95 1161.16 437.95 1159.99 439.11 1159.99 440.56 1159.99 442.01 1161.16 443.17 1162.6 443.17Z" fill="#ffffff" opacity="1" stroke-width="3" stroke="none"></path><path d="M1162.6 464.06C1164.03 464.06 1165.21 462.9 1165.21 461.45 1165.21 460.01 1164.03 458.84 1162.6 458.84 1161.16 458.84 1159.99 460.01 1159.99 461.45 1159.99 462.9 1161.16 464.06 1162.6 464.06Z" fill="#ffffff" opacity="1" stroke-width="3" stroke="none"></path><path d="M1162.6 484.98C1164.03 484.98 1165.21 483.81 1165.21 482.37 1165.21 480.92 1164.03 479.76 1162.6 479.76 1161.16 479.76 1159.99 480.92 1159.99 482.37 1159.99 483.81 1161.16 484.98 1162.6 484.98Z" fill="#ffffff" opacity="1" stroke-width="3" stroke="none"></path><path d="M1162.6 505.87C1164.03 505.87 1165.21 504.71 1165.21 503.26 1165.21 501.82 1164.03 500.65 1162.6 500.65 1161.16 500.65 1159.99 501.82 1159.99 503.26 1159.99 504.71 1161.16 505.87 1162.6 505.87Z" fill="#ffffff" opacity="1" stroke-width="3" stroke="none"></path><path d="M1162.6 526.78C1164.03 526.78 1165.21 525.62 1165.21 524.17 1165.21 522.73 1164.03 521.56 1162.6 521.56 1161.16 521.56 1159.99 522.73 1159.99 524.17 1159.99 525.62 1161.16 526.78 1162.6 526.78Z" fill="#ffffff" opacity="1" stroke-width="3" stroke="none"></path><path d="M1158.22 364.98C1159.22 364.98 1160.04 364.16 1160.04 363.15 1160.04 362.15 1159.22 361.33 1158.22 361.33 1157.19 361.33 1156.39 362.15 1156.39 363.15 1156.39 364.16 1157.19 364.98 1158.22 364.98Z" fill="#2e2b28" opacity="1" stroke-width="3" stroke="none"></path><path d="M1171.08 364.98C1172.08 364.98 1172.9 364.16 1172.9 363.15 1172.9 362.15 1172.08 361.33 1171.08 361.33 1170.05 361.33 1169.25 362.15 1169.25 363.15 1169.25 364.16 1170.05 364.98 1171.08 364.98Z" fill="#2e2b28" opacity="1" stroke-width="3" stroke="none"></path><path d="M1171.27 375.69C1171.34 375.69 1171.41 375.7 1171.47 375.73 1171.53 375.75 1171.58 375.8 1171.63 375.84 1171.67 375.89 1171.72 375.95 1171.74 376.02 1171.77 376.08 1171.78 376.14 1171.77 376.2 1171.64 378.01 1170.84 379.7 1169.5 380.94 1168.18 382.16 1166.45 382.84 1164.65 382.84 1162.84 382.84 1161.09 382.16 1159.77 380.94 1158.45 379.7 1157.63 378.01 1157.51 376.2 1157.51 376.14 1157.51 376.08 1157.54 376.02 1157.55 375.95 1157.6 375.89 1157.65 375.84 1157.7 375.8 1157.74 375.75 1157.81 375.73 1157.87 375.7 1157.95 375.69 1158.01 375.69H1171.27Z" fill="#ffffff" opacity="1" stroke-width="3" stroke="none"></path><path d="M1244.44 497.54C1244.46 514.66 1238.94 531.31 1228.69 545.02H1183.59C1183.43 545.02 1183.26 544.96 1183.14 544.85 1183.01 544.76 1182.93 544.6 1182.9 544.42 1182.88 544.27 1182.92 544.09 1183.01 543.95 1183.1 543.81 1183.23 543.72 1183.4 543.67 1222.51 531.03 1236.97 488.23 1240.9 479.27 1240.97 479.13 1241.08 479 1241.22 478.92 1241.36 478.84 1241.52 478.81 1241.67 478.83 1241.83 478.84 1241.99 478.91 1242.11 479 1242.24 479.11 1242.32 479.25 1242.35 479.41 1242.62 480.54 1242.85 481.67 1243.07 482.81 1243.98 487.66 1244.44 492.6 1244.44 497.54V497.54Z" fill="#f7f79b" opacity="1" stroke-width="3" stroke="none"></path></g></svg>