<svg xmlns="http://www.w3.org/2000/svg" height="1200" width="1600" version="1.1" xmlns:xlink="http://www.w3.org/1999/xlink" xmlns:svgjs="http://svgjs.com/svgjs"><rect fill="#ffffff" width="1600" height="1200"></rect><g><path d="M504.46 918.05H324.64C317.78 918.05 312.19 912.46 312.19 905.6V725.78C312.19 718.92 317.78 713.33 324.64 713.33H504.46C511.32 713.33 516.91 718.92 516.91 725.78V905.6C516.91 912.46 511.32 918.05 504.46 918.05Z" fill="#c3e89c" opacity="1" stroke-width="2.5" stroke="none"></path><path d="M369.62 728.07H459.4V763.81H369.62Z" fill="#006633" opacity="1" stroke-width="2.5" stroke="none"></path><path d="M414.35 734.95L410.56 758.62C410.54 758.72 410.62 758.81 410.72 758.81H414.51 418.38C418.48 758.81 418.56 758.72 418.54 758.62L414.68 734.95C414.64 734.76 414.37 734.76 414.35 734.95Z" fill="#ffffcc" opacity="1" stroke-width="2.5" stroke="none"></path><path d="M377.92 773.38C379.95 773.13 382.07 773.13 384.35 773.47 393.16 774.91 398.58 781.85 400.79 790.07 404.51 803.79 402.9 819.29 400.53 833.1 399.94 836.32 399.18 839.53 398.84 842.75 398.84 843.01 398.67 843.68 398.58 844.53 396.72 855.46 397.99 866.64 401.72 877.06 405.87 888.41 402.65 894.76 398.75 898.23 393.92 902.55 386.72 903.14 381.05 900.1 372.33 895.35 369.87 883.92 369.19 876.63 368.77 871.21 367.5 865.88 365.63 860.79 362.5 852.15 358.35 840.38 358.01 838.94 355.81 830.13 354.37 821.07 354.62 812.01 355.05 797.69 361.74 775.67 377.92 773.38Z" fill="#99cb65" opacity="1" stroke-width="2.5" stroke="none"></path><path d="M451.44 773.38C449.4 773.13 447.29 773.13 445 773.47 436.19 774.91 430.77 781.85 428.57 790.07 424.84 803.79 426.45 819.29 428.82 833.1 429.41 836.32 430.18 839.53 430.52 842.75 430.52 843.01 430.68 843.68 430.77 844.53 432.63 855.46 431.36 866.64 427.64 877.06 423.49 888.41 426.7 894.76 430.6 898.23 435.43 902.55 442.63 903.14 448.3 900.1 457.03 895.35 459.48 883.92 460.16 876.63 460.58 871.21 461.86 865.88 463.72 860.79 466.85 852.15 471 840.38 471.34 838.94 473.54 830.13 474.98 821.07 474.73 812.01 474.31 797.69 467.61 775.67 451.44 773.38Z" fill="#99cb65" opacity="1" stroke-width="2.5" stroke="none"></path></g><g><path d="M1075.24 413.71L738.54 413.71V386.21L1075.24 386.21Z" fill="#c3e89c" opacity="1" stroke-width="2.5" stroke="none"></path><path d="M1008.67 462.91H875.16V436.84L1008.67 436.84Z" fill="#c3e89c" opacity="1" stroke-width="2.5" stroke="none"></path></g><g><path d="M486.7 567.17C519.71 559.15 559.46 544.73 591.51 519.09 616.83 487.04 631.25 447.29 639.59 414.28 640.87 409.15 645.36 406.27 649.52 406.27H649.84C654.33 406.27 658.5 408.83 659.78 414.28 667.79 447.29 682.22 487.04 707.86 519.09 739.91 544.41 779.65 558.83 812.67 567.17 817.8 568.45 820.68 572.94 820.68 577.1V577.42C820.68 581.91 817.8 586.08 812.67 587.36 779.65 595.37 739.91 609.8 707.86 635.44 682.54 667.49 668.11 707.24 659.78 740.25 658.5 745.38 654.01 748.26 649.84 748.26H649.52C645.03 748.26 640.87 745.7 639.59 740.25 631.57 707.24 617.15 667.49 591.51 635.44 559.46 610.12 519.71 595.69 486.7 587.36 481.57 586.08 478.68 581.59 478.68 577.42V577.1C479 572.94 481.57 568.45 486.7 567.17Z" fill="#ffffcc" opacity="1" stroke-width="2.5" stroke="none"></path></g><g><path d="M1292.64 757.77H1306.99C1307.27 757.77 1307.49 758 1307.49 758.27V782.65H1292.14V758.27C1292.14 758 1292.36 757.77 1292.64 757.77Z" fill="#ffffcc" opacity="1" stroke-width="2.5" stroke="none"></path><path d="M1321.65 808.7C1321.65 808.71 1309.95 918.12 1309.95 918.12 1309.94 918.24 1309.84 918.33 1309.72 918.33H1264.56C1264.45 918.33 1264.34 918.24 1264.33 918.12L1252.64 808.7C1252.64 808.7 1254.24 793.48 1254.24 793.35V762.81C1254.24 762.67 1254.37 762.55 1254.51 762.58L1319.85 771.7C1319.96 771.71 1320.04 771.81 1320.04 771.92V793.35C1320.04 793.48 1321.7 808 1321.65 808.7Z" fill="#c3e89c" opacity="1" stroke-width="2.5" stroke="none"></path><path d="M1245.87 793.35H1328.41C1328.54 793.35 1328.65 793.45 1328.65 793.58V808.46C1328.65 808.59 1328.54 808.7 1328.41 808.7H1245.87C1245.74 808.7 1245.64 808.59 1245.64 808.46V793.58C1245.64 793.45 1245.74 793.35 1245.87 793.35Z" fill="#ffffcc" opacity="1" stroke-width="2.5" stroke="none"></path></g><g><path d="M1193.92 894.51C1183.24 894.51 1174.62 885.89 1174.62 875.21V797.88H1148.11V875.21C1148.11 885.89 1139.49 894.51 1128.81 894.51H1105.52V917.8H1217.08V894.51H1193.92Z" fill="#006633" opacity="1" stroke-width="2.5" stroke="none"></path><path d="M1161.37 833.52L1161.37 833.52C1137.82 833.52 1118.78 814.48 1118.78 790.93V602.43H1203.83V790.93C1203.96 814.48 1184.91 833.52 1161.37 833.52Z" fill="#99cb65" opacity="1" stroke-width="2.5" stroke="none"></path><path d="M1196.49 670.49C1198.55 668.44 1197.39 664.83 1194.56 664.45L1175.78 661.74C1174.62 661.62 1173.59 660.84 1173.08 659.81L1164.71 642.83C1163.42 640.26 1159.69 640.26 1158.28 642.83L1149.91 659.81C1149.4 660.84 1148.37 661.62 1147.21 661.74L1128.43 664.45C1125.47 664.83 1124.31 668.44 1126.5 670.49L1140.14 683.75C1141.04 684.52 1141.29 685.68 1141.16 686.96L1137.95 705.75C1137.43 708.71 1140.52 710.9 1143.09 709.48L1159.95 700.6C1160.98 700.09 1162.27 700.09 1163.3 700.6L1180.15 709.48C1182.73 710.9 1185.81 708.58 1185.3 705.75L1182.08 686.96C1181.82 685.81 1182.34 684.65 1183.11 683.75L1196.49 670.49Z" fill="#006633" opacity="1" stroke-width="2.5" stroke="none"></path><path d="M1188.39 747.44C1190.06 745.9 1189.16 743.06 1186.84 742.81L1172.3 740.75C1171.4 740.62 1170.63 740.1 1170.24 739.2L1163.81 726.08C1162.78 724.02 1159.95 724.02 1158.92 726.08L1152.49 739.2C1152.1 739.98 1151.33 740.62 1150.43 740.75L1135.89 742.81C1133.57 743.19 1132.8 745.9 1134.35 747.44L1144.77 757.6C1145.41 758.25 1145.67 759.15 1145.54 760.05L1143.09 774.46C1142.71 776.65 1145.03 778.45 1147.08 777.29L1160.08 770.47C1160.85 770.09 1161.88 770.09 1162.65 770.47L1175.65 777.29C1177.71 778.32 1180.02 776.65 1179.64 774.46L1177.19 760.05C1177.06 759.15 1177.32 758.25 1177.96 757.6L1188.39 747.44Z" fill="#006633" opacity="1" stroke-width="2.5" stroke="none"></path></g><g><path d="M615.35 898.58C615.35 898.58 615.34 898.57 615.33 898.57 615.32 898.57 615.32 898.57 615.31 898.56 615.3 898.56 615.3 898.55 615.3 898.55 615.3 898.54 615.29 898.53 615.29 898.52V801.11C615.29 801.11 615.3 801.09 615.3 801.09 615.3 801.08 615.3 801.08 615.31 801.07 615.32 801.07 615.32 801.06 615.33 801.06 615.34 801.06 615.35 801.06 615.35 801.06H623.79C623.81 801.06 623.82 801.05 623.83 801.04 623.85 801.03 623.85 801.02 623.85 801V784C623.85 783.99 623.85 783.97 623.83 783.96 623.82 783.95 623.81 783.94 623.79 783.94H592.91C592.89 783.94 592.88 783.95 592.86 783.96 592.85 783.97 592.84 783.99 592.84 784V801C592.84 801.02 592.85 801.03 592.86 801.04 592.88 801.05 592.89 801.06 592.91 801.06H601.34C601.35 801.06 601.36 801.06 601.36 801.06 601.37 801.06 601.38 801.07 601.39 801.07 601.39 801.08 601.39 801.08 601.4 801.09 601.4 801.09 601.41 801.11 601.41 801.11V898.52C601.41 898.53 601.4 898.54 601.4 898.55 601.39 898.55 601.39 898.56 601.39 898.56 601.38 898.57 601.37 898.57 601.36 898.57 601.36 898.57 601.35 898.58 601.34 898.58H562.81C562.8 898.58 562.79 898.58 562.78 898.58 562.77 898.59 562.77 898.59 562.76 898.6 562.75 898.6 562.75 898.61 562.75 898.61 562.75 898.62 562.74 898.63 562.74 898.64V917.71C562.74 917.72 562.75 917.72 562.75 917.73 562.75 917.74 562.75 917.75 562.76 917.75 562.77 917.76 562.77 917.76 562.78 917.76 562.79 917.76 562.8 917.77 562.81 917.77H653.89C653.9 917.77 653.9 917.76 653.91 917.76 653.92 917.76 653.93 917.76 653.94 917.75 653.94 917.75 653.94 917.74 653.95 917.73 653.95 917.72 653.95 917.72 653.95 917.71V898.64C653.95 898.63 653.95 898.62 653.95 898.61 653.94 898.61 653.94 898.6 653.94 898.6 653.93 898.59 653.92 898.59 653.91 898.58 653.9 898.58 653.9 898.58 653.89 898.58H615.35Z" fill="#99cb65" opacity="1" stroke-width="2.5" stroke="none"></path><path d="M601.41 801.06H615.42L615.29 818.43 601.41 801.06Z" fill="#7fbd3e" opacity="1" stroke-width="2.5" stroke="none"></path><path d="M998.65 898.58C998.63 898.58 998.62 898.57 998.61 898.56 998.59 898.55 998.59 898.54 998.59 898.52V801.11C998.59 801.09 998.59 801.08 998.61 801.07 998.62 801.06 998.63 801.06 998.65 801.06H1007.09C1007.1 801.06 1007.12 801.05 1007.13 801.04 1007.14 801.03 1007.15 801.02 1007.15 801V784C1007.15 783.99 1007.14 783.97 1007.13 783.96 1007.12 783.95 1007.1 783.94 1007.09 783.94H976.21C976.19 783.94 976.18 783.95 976.17 783.96 976.15 783.97 976.15 783.99 976.15 784V801C976.15 801.02 976.15 801.03 976.17 801.04 976.18 801.05 976.19 801.06 976.21 801.06H984.65C984.66 801.06 984.68 801.06 984.69 801.07 984.7 801.08 984.71 801.09 984.71 801.11V898.52C984.71 898.54 984.7 898.55 984.69 898.56 984.68 898.57 984.66 898.58 984.65 898.58H946.1C946.08 898.58 946.07 898.59 946.06 898.6 946.05 898.61 946.04 898.62 946.04 898.64V917.71C946.04 917.72 946.05 917.74 946.06 917.75 946.07 917.76 946.08 917.77 946.1 917.77H1037.18C1037.2 917.77 1037.21 917.76 1037.23 917.75 1037.24 917.74 1037.25 917.72 1037.25 917.71V898.64C1037.25 898.62 1037.24 898.61 1037.23 898.6 1037.21 898.59 1037.2 898.58 1037.18 898.58H998.65Z" fill="#99cb65" opacity="1" stroke-width="2.5" stroke="none"></path><path d="M984.71 801.06H998.72L998.59 818.39 984.71 801.06Z" fill="#7fbd3e" opacity="1" stroke-width="2.5" stroke="none"></path><path d="M1039.5 749.99H560.49C552.36 749.99 545.78 754.69 545.78 760.48V774.58C545.78 780.38 552.36 785.07 560.49 785.07H1039.51C1047.64 785.07 1054.22 780.38 1054.22 774.58V760.48C1054.22 754.69 1047.64 749.99 1039.5 749.99Z" fill="#99cb65" opacity="1" stroke-width="2.5" stroke="none"></path></g><g><path d="M627.28 830.22L625.36 871.49 649.82 896.08 671.48 869.23 673.14 830.22 650.26 806.67Z" fill="#904f47" opacity="1" stroke-width="2.5" stroke="none"></path><path d="M531.89 906.03C531.83 906.05 531.79 906.1 531.79 906.17L531.79 918.31C531.79 918.74 532.13 919.07 532.54 919.07H672.06C673.43 919.07 674.55 917.97 674.56 916.6L674.67 906.28C674.67 906.23 674.63 906.18 674.56 906.17L612 893.14C611.97 893.13 611.96 893.13 611.94 893.14L531.89 906.03Z" fill="#ffffcc" opacity="1" stroke-width="2.5" stroke="none"></path><path d="M673.34 858.73C673.34 857.67 672.41 856.74 671.34 856.74 670.55 856.74 669.75 857.27 669.48 857.93 666.29 865.11 659.65 870.56 651.8 871.62 644.49 872.69 636.79 870.56 631.47 864.98 629.34 862.72 628.01 859.93 626.55 857 625.62 855.14 623.36 854.34 621.5 855.14 621.5 855.14 615.15 857.95 608.69 861.71 596.55 868.76 583.54 874.2 569.98 877.83 557.2 881.26 543.5 885.64 541.22 886.37 536.57 887.97 533.25 892.09 532.19 896.74V896.87C531.93 897.86 531.8 904.96 531.79 906.03 531.79 906.06 531.8 906.1 531.83 906.13 531.85 906.15 531.88 906.17 531.92 906.17L674.52 906.28C674.56 906.28 674.6 906.27 674.63 906.24S674.67 906.19 674.65 906.15L673.34 858.73Z" fill="#000000" opacity="1" stroke-width="2.5" stroke="none"></path><path d="M585.83 894.51C584.68 894.51 583.66 893.83 583.34 892.86L576.71 876.03C576.31 874.81 576.83 873.14 578.21 872.67 578.44 872.55 578.8 872.47 579.16 872.47 580.17 872.47 581.06 873.11 581.49 874.12L588.15 891.03C588.55 892.25 588.03 893.91 586.65 894.38 586.39 894.47 586.11 894.51 585.83 894.51Z" fill="#ffffcc" opacity="1" stroke-width="2.5" stroke="none"></path><path d="M596.46 889.86C595.32 889.86 594.29 889.18 593.98 888.21L587.34 871.38C586.94 870.16 587.46 868.49 588.84 868.02 589.16 867.94 589.44 867.9 589.72 867.9 590.87 867.9 591.82 868.54 592.15 869.55L598.79 886.37C599.19 887.6 598.67 889.26 597.28 889.72 597.02 889.82 596.74 889.86 596.46 889.86Z" fill="#ffffcc" opacity="1" stroke-width="2.5" stroke="none"></path><path d="M608.42 885.21C607.28 885.21 606.26 884.53 605.94 883.56L599.3 866.73C598.91 865.51 599.42 863.83 600.81 863.37 601.07 863.29 601.35 863.25 601.63 863.25 602.77 863.25 603.8 863.93 604.12 864.9L610.75 881.72C611.15 882.95 610.63 884.61 609.25 885.07 608.98 885.17 608.7 885.21 608.42 885.21Z" fill="#ffffcc" opacity="1" stroke-width="2.5" stroke="none"></path><path d="M958.47 814.28L977.38 844.65 976.77 860.19 967.39 904.17 928.39 873.75 931.29 840.69Z" fill="#904f47" opacity="1" stroke-width="2.5" stroke="none"></path><path d="M1068.11 910.42C1068.16 910.43 1068.21 910.48 1068.21 910.55V922.31C1068.21 922.95 1067.7 923.46 1067.07 923.46H926.48C925.85 923.46 925.33 922.95 925.33 922.31V910.68C925.33 910.62 925.39 910.56 925.44 910.55L1001.23 898.66C1001.24 898.64 1001.25 898.64 1001.28 898.66L1068.11 910.42Z" fill="#ffffcc" opacity="1" stroke-width="2.5" stroke="none"></path><path d="M926.53 863.25C926.53 862.19 927.46 861.25 928.52 861.25 929.32 861.25 930.12 861.79 930.39 862.45 933.58 869.63 940.22 875.08 948.06 876.14 955.37 877.2 963.08 875.08 968.4 869.5 970.52 867.24 971.85 864.44 973.32 861.52 974.25 859.66 976.51 858.86 978.37 859.66 978.37 859.66 1018.64 877.47 1018.77 877.47 1018.77 877.47 1054.66 889.43 1058.78 890.76 1063.43 892.36 1066.75 896.48 1067.81 901.13V901.26C1068.05 902.24 1068.19 909.34 1068.21 910.41 1068.21 910.44 1068.2 910.48 1068.17 910.51S1068.11 910.55 1068.08 910.55L925.47 910.68C925.43 910.68 925.4 910.67 925.37 910.64 925.35 910.62 925.33 910.58 925.33 910.55L926.53 863.25Z" fill="#000000" opacity="1" stroke-width="2.5" stroke="none"></path><path d="M1015.04 896.95C1014.76 896.95 1014.48 896.91 1014.23 896.83 1013.59 896.62 1013.08 896.13 1012.8 895.45 1012.54 894.81 1012.51 894.12 1012.71 893.53L1019.37 876.61C1019.69 875.65 1020.66 875 1021.79 875 1022.07 875 1022.35 875.04 1022.61 875.12 1023.9 875.54 1024.62 877.1 1024.17 878.44L1017.51 895.36C1017.2 896.29 1016.18 896.95 1015.04 896.95Z" fill="#ffffcc" opacity="1" stroke-width="2.5" stroke="none"></path><path d="M1004.27 892.44C1003.99 892.44 1003.71 892.4 1003.46 892.32 1002.22 891.9 1001.51 890.32 1001.94 889.01L1008.6 872.09C1009.09 871.09 1010.04 870.48 1011.09 870.48 1011.35 870.48 1011.63 870.52 1011.89 870.61 1012.46 870.8 1012.94 871.24 1013.24 871.82 1013.56 872.47 1013.63 873.26 1013.4 873.91L1006.74 890.84C1006.44 891.77 1005.41 892.44 1004.27 892.44Z" fill="#ffffcc" opacity="1" stroke-width="2.5" stroke="none"></path><path d="M992.31 887.78C992.03 887.78 991.75 887.74 991.5 887.66 990.26 887.25 989.54 885.67 989.98 884.35L996.64 867.44C997.15 866.41 998.09 865.77 999.06 865.77 999.41 865.77 999.74 865.85 1000.04 866.01 1000.51 866.15 1000.99 866.6 1001.28 867.17 1001.6 867.82 1001.67 868.6 1001.44 869.26L994.78 886.19C994.47 887.12 993.45 887.78 992.31 887.78Z" fill="#ffffcc" opacity="1" stroke-width="2.5" stroke="none"></path><path d="M992.85 774.46L977.38 844.64 931.29 840.69 934.76 785.5C934.76 785.35 934.65 785.23 934.51 785.22 918.46 784.58 878.78 776.22 855.92 771.14 844.17 768.54 832.26 766.74 820.26 765.77L799.27 764.08C792.48 763.54 785.63 763.78 778.89 764.83 739.11 771.07 682.51 766.84 678.24 766.52 678.09 766.5 677.97 766.61 677.96 766.76L673.14 830.22H627.28L620.04 732.6C619.99 731.85 619.95 731.11 619.95 730.38 619.95 724.54 621.82 718.97 625.36 714.26 629.48 708.67 635.59 704.95 642.5 703.76L646.22 703.09C655.13 701.5 664.03 700.57 672.94 700.17L769.18 696.07 816.92 677.55 866.32 696.05 921.6 716.73 960.5 731.27 971.85 735.52C976.97 737.45 981.45 740.55 985.01 744.45 988.57 748.39 991.19 753.13 992.59 758.38 993.92 763.7 994.05 769.15 992.85 774.46Z" fill="#006633" opacity="1" stroke-width="2.5" stroke="none"></path><path d="M953.56 744.43H933.18L923.61 732.73 921.6 716.73 915.11 665.15C915.1 665.11 915.09 665.07 915.05 665.04L873.49 639.32C873.45 639.31 873.43 639.27 873.42 639.24L862.69 587.95C862.68 587.86 862.76 587.78 862.85 587.79L909.27 595.29C909.31 595.3 909.33 595.31 909.35 595.34L948.99 645.81C952.18 649.79 954.04 654.71 954.44 659.9L960.5 731.27 960.76 733.77 953.56 744.43Z" fill="#904f47" opacity="1" stroke-width="2.5" stroke="none"></path><path d="M894.37 576.16C889.32 569.65 882.4 564.73 874.7 562.07L834.44 548C834.44 547.98 834.42 547.98 834.41 547.98L777.98 545.59C777.95 545.59 777.92 545.61 777.9 545.62L727.83 576.56C721.58 580.41 716.93 586.26 714.41 593.17L709.1 608.1C709.09 608.11 709.09 608.14 709.1 608.17L718.07 647.43C718.1 647.49 718.18 647.55 718.25 647.52L751.79 636.52C751.86 636.49 751.94 636.53 751.95 636.6L757.43 655.91C757.46 655.99 757.4 656.05 757.34 656.08L753.88 656.84 764.11 683.95 765.31 683.42 769.03 695.91C769.05 695.98 769.12 696.07 769.18 696.07H866.48C866.56 696.07 866.57 695.79 866.56 695.71L864.86 684.38C864.86 684.36 864.86 684.35 864.86 684.34L873.43 639.33C873.43 639.31 873.45 639.29 873.46 639.27L909.25 595.38C909.29 595.34 909.29 595.27 909.25 595.22L894.37 576.16Z" fill="#99cb65" opacity="1" stroke-width="2.5" stroke="none"></path><path d="M746.08 650.67L751.87 636.57C751.9 636.52 751.89 636.45 751.83 636.41L746.22 632.74 709.09 608.13C709.09 608.13 709.09 608.13 709.09 608.14L682.37 684.35C681.35 687.29 681.05 690.46 681.58 693.52 682.91 701.23 689.03 707.09 696.73 708.41L701.38 709.2C707.22 710.22 713.34 709.2 718.66 706.55L758.16 686.89C758.19 686.86 758.21 686.85 758.23 686.81L760.05 682.13C763.53 673.13 759.9 662.94 751.5 658.18L750.17 657.42C750.15 657.41 750.11 657.41 750.08 657.41L743.02 658.91C743.02 658.91 742.81 658.94 742.88 658.65 742.94 658.37 746.08 650.67 746.08 650.67Z" fill="#904f47" opacity="1" stroke-width="2.5" stroke="none"></path><path d="M839.74 543.86C837.35 549.98 833.63 556.36 828.97 557.82 825.01 548.77 825.32 544.53 827.33 542.77 830.8 539.76 839.31 544.12 839.74 543.86Z" fill="#000000" opacity="1" stroke-width="2.5" stroke="none"></path><path d="M846.15 523.82C848.54 527.28 848.65 532.83 846.65 536.82 845.06 540.01 842.66 542.54 839.61 544 838.94 544.26 838.28 544.53 837.61 544.79 836.2 545.17 834.8 545.35 833.39 545.38 832.32 545.39 831.41 546.14 831.18 547.19 830.34 550.95 830 554.63 828.97 557.82 826.98 564.2 822.2 568.98 805.05 569.91 795.35 570.45 789.5 569.52 785.78 567.52 776.21 563.93 772.89 542.8 771.69 528.71 763.18 488.44 783.76 482.39 805.9 482.43 851.89 482.54 845.48 522.89 846.15 523.82Z" fill="#904f47" opacity="1" stroke-width="2.5" stroke="none"></path><path d="M771.69 528.71C768.1 519.94 755.34 481.66 796.81 475.81 796.81 475.81 821.76 471.97 831.74 482.57 831.75 482.59 831.78 482.61 831.79 482.61 832.72 483.1 854.56 494.78 846.28 523.65 846.21 523.87 845.93 523.91 845.8 523.74 845.18 522.89 844.37 522.24 843.46 521.67 840.27 519.67 836.82 519.94 834.03 521.54 817.33 530.17 799.4 518.2 795.29 515.17 795.07 515 794.78 515.25 794.9 515.5L798.8 523.65C798.87 523.79 798.79 523.98 798.63 524.02 782.91 528.69 773.7 518.85 771.61 516.29 771.45 516.09 771.15 516.19 771.15 516.44 771.09 520.06 771.68 528.58 771.69 528.71Z" fill="#000000" opacity="1" stroke-width="2.5" stroke="none"></path><path d="M770.21 577.68L796.53 567.6C796.66 567.56 796.82 567.63 796.88 567.76L856.51 723.68C856.57 723.81 856.5 723.97 856.37 724.02L830.05 734.09C829.92 734.14 829.76 734.07 829.71 733.94L770.06 578.02C770 577.88 770.08 577.73 770.21 577.68Z" fill="#006633" opacity="1" stroke-width="2.5" stroke="none"></path><path d="M748.44 611.26C748.4 611.13 748.47 610.97 748.6 610.92L834.88 577.92C835.02 577.86 835.17 577.93 835.22 578.08L848.8 613.58C848.86 613.71 848.79 613.87 848.65 613.92L762.37 646.92C762.24 646.98 762.08 646.91 762.03 646.76L748.44 611.26Z" fill="#000000" opacity="1" stroke-width="2.5" stroke="none"></path><path d="M779.16 690.8L865.45 657.8C865.58 657.74 865.74 657.81 865.78 657.95L879.36 693.46C879.41 693.59 879.35 693.75 879.21 693.8L792.94 726.8C792.8 726.86 792.65 726.79 792.6 726.64L779.01 691.14C778.96 691.01 779.03 690.85 779.16 690.8Z" fill="#000000" opacity="1" stroke-width="2.5" stroke="none"></path><path d="M769.91 650.62C769.95 650.6 769.98 650.58 770 650.55L776.47 644.34 809.44 624.81C810.5 624.14 820.87 622.68 820.87 622.68 822.99 622.41 824.99 623.48 826.05 625.34L827.91 628.66 831.63 627.86C833.36 627.46 835.09 628.4 835.62 629.99L836.68 633.05C837.65 636.33 834.41 637.5 833.48 637.77 833.33 637.81 833.25 637.95 833.29 638.1L835.35 645.54C835.93 647.3 834.77 647.85 834.25 648.01 834.12 648.05 834.05 648.19 834.08 648.32L835.35 654.05C835.66 655.58 834.56 656.19 834.09 656.37 833.97 656.43 833.91 656.55 833.93 656.67L835.22 663.35C835.69 665.36 832.83 666.14 832.83 666.14L774.57 682.28C774.51 682.29 774.44 682.28 774.37 682.25L756.42 672.04C756.3 671.98 756.25 671.82 756.31 671.68L766.12 652.15C766.16 652.08 766.2 652.04 766.27 652.01L769.91 650.62Z" fill="#904f47" opacity="1" stroke-width="2.5" stroke="none"></path><path d="M766.17 652.05L750.13 657.4 758.21 686.86 774.47 682.3Z" fill="#000000" opacity="1" stroke-width="2.5" stroke="none"></path><path d="M935.34 803.53L932.22 803.85C930.09 804.05 928.07 803.03 927.08 801.13 927.08 801.13 922.32 791.81 922.25 790.55L925.83 751.4C925.83 751.39 935.28 743.27 944.55 743.08 953.05 742.91 962.38 753.42 962.38 753.42L969.53 785.99C969.53 785.99 970.52 788.78 968.61 789.55L962.4 792.33C962.28 792.38 962.22 792.5 962.24 792.62 962.36 793.11 962.48 794.37 961.07 795L955.65 797.23C955.52 797.28 955.45 797.43 955.49 797.56 955.66 798.07 955.88 799.34 954.11 799.88L946.83 802.47C946.69 802.52 946.61 802.65 946.67 802.8 946.99 803.72 947.88 807.05 944.63 808.13L941.52 809.02C939.91 809.5 938.16 808.62 937.5 806.97L936.31 804.18C936.01 803.45 935.34 803.53 935.34 803.53Z" fill="#904f47" opacity="1" stroke-width="2.5" stroke="none"></path><path d="M962.38 753.42L960.76 733.77 923.61 732.73 925.83 751.4Z" fill="#000000" opacity="1" stroke-width="2.5" stroke="none"></path></g><g><path d="M690.02 981.09H1159.85C1159.97 981.09 1160.06 981.18 1160.06 981.3V997.59C1160.06 997.71 1159.97 997.8 1159.85 997.8H690.02C689.91 997.8 689.82 997.71 689.82 997.59V981.3C689.82 981.18 689.91 981.09 690.02 981.09Z" fill="#006633" opacity="1" stroke-width="2.5" stroke="none"></path><path d="M729.4 939.31H757.5C757.62 939.31 757.71 939.4 757.71 939.52V1039.37C757.71 1039.49 757.62 1039.58 757.5 1039.58H729.4C729.29 1039.58 729.19 1039.49 729.19 1039.37L729.09 1026.73 722.82 988.17 729.09 952.16 729.19 939.52C729.19 939.4 729.29 939.31 729.4 939.31Z" fill="#99cb65" opacity="1" stroke-width="2.5" stroke="none"></path><path d="M716.35 951.95H728.88C729 951.95 729.09 952.04 729.09 952.16V1026.73C729.09 1026.85 729 1026.94 728.88 1026.94H716.35C716.23 1026.94 716.14 1026.85 716.14 1026.73V952.16C716.14 952.04 716.23 951.95 716.35 951.95Z" fill="#c3e89c" opacity="1" stroke-width="2.5" stroke="none"></path><path d="M1092.79 939.31H1120.89C1121.01 939.31 1121.1 939.4 1121.1 939.52V952.16L1127.58 989.55 1121.1 1026.73V1039.37C1121.1 1039.49 1121.01 1039.58 1120.89 1039.58H1092.79C1092.68 1039.58 1092.58 1039.49 1092.58 1039.37V939.52C1092.58 939.4 1092.68 939.31 1092.79 939.31Z" fill="#99cb65" opacity="1" stroke-width="2.5" stroke="none"></path><path d="M1121.31 951.95H1133.84C1133.96 951.95 1134.05 952.04 1134.05 952.16V1026.73C1134.05 1026.85 1133.96 1026.94 1133.84 1026.94H1121.31C1121.19 1026.94 1121.1 1026.85 1121.1 1026.73V952.16C1121.1 952.04 1121.19 951.95 1121.31 951.95Z" fill="#c3e89c" opacity="1" stroke-width="2.5" stroke="none"></path></g><g><path d="M617.57 988.45H547.99V931.62C547.99 912.36 563.66 896.83 582.78 896.83 602.04 896.83 617.57 912.49 617.57 931.62L617.57 980.15V988.45ZM563.66 972.65H601.77V931.62C601.77 921.13 593.27 912.63 582.78 912.63S563.79 921.13 563.79 931.62L563.66 972.65 563.66 972.65Z" fill="#006633" opacity="1" stroke-width="2.5" stroke="none"></path><path d="M582.78 941.97L582.78 941.97C553.04 941.97 529 957.84 529 987.45V991.85C529 1006.72 541.09 1018.8 555.96 1018.8H609.87C624.74 1018.8 636.83 1006.72 636.83 991.85V987.45C636.56 957.84 612.53 941.97 582.78 941.97Z" fill="#99cb65" opacity="1" stroke-width="2.5" stroke="none"></path></g></svg>