<svg xmlns="http://www.w3.org/2000/svg" height="1200" width="1600" version="1.1" xmlns:xlink="http://www.w3.org/1999/xlink" xmlns:svgjs="http://svgjs.com/svgjs"><rect fill="#ffffff" width="1600" height="1200"></rect><g><path d="M446.09 973.07H308.69C307.43 973.07 306.4 972.15 306.4 970.99 306.4 969.85 307.41 968.91 308.69 968.91H446.09C447.35 968.91 448.39 969.83 448.39 970.99 448.39 972.13 447.37 973.07 446.09 973.07Z" fill="#23231f" opacity="1" stroke-width="4" stroke="none"></path></g><g><path d="M1376.95 973.01H1357.89V715.64C1357.89 687.28 1337.07 664.17 1311.52 664.17H988.65C963.11 664.17 942.29 687.28 942.29 715.64V973.01H923.22V715.64C923.22 676.75 952.58 645.11 988.65 645.11H1311.52C1347.59 645.11 1376.95 676.75 1376.95 715.64V973.01Z" fill="#99cb65" opacity="1" stroke-width="4" stroke="none"></path></g><g><path d="M1270.41 540.05L1268.25 545.19 1266.42 550.74C1266.42 550.8 1266.42 550.87 1266.56 550.87L1272.64 551.07 1278.39 549.32C1278.46 549.32 1278.46 549.25 1278.46 549.25L1275.28 544.25 1271.97 539.85C1271.49 539.31 1270.62 539.45 1270.41 540.05Z" fill="#99cb65" opacity="1" stroke-width="4" stroke="none"></path><path d="M1299.41 528.56L1296.17 532.81 1293.06 537.61V537.68L1298.87 539.51 1304.89 539.3C1304.96 539.3 1305.03 539.24 1304.96 539.17L1303.2 533.69 1301.17 528.69C1300.97 528.01 1299.89 527.88 1299.41 528.56Z" fill="#99cb65" opacity="1" stroke-width="4" stroke="none"></path><path d="M1284.88 596.57L1293.06 537.69C1293.06 537.62 1293.13 537.62 1293.13 537.62L1305.03 539.31C1305.09 539.31 1305.09 539.38 1305.09 539.38L1296.91 598.26 1284.88 596.57Z" fill="#006633" opacity="1" stroke-width="4" stroke="none"></path><path d="M1300.63 526.06L1296.24 532.82 1303.34 533.77 1300.77 526.06C1300.7 525.99 1300.63 525.99 1300.63 526.06Z" fill="#006633" opacity="1" stroke-width="4" stroke="none"></path><path d="M1266.42 550.8L1278.39 549.25C1278.46 549.25 1278.46 549.25 1278.46 549.32L1286.1 608.27 1274 609.82 1266.36 550.87C1266.36 550.8 1266.42 550.8 1266.42 550.8Z" fill="#99cb65" opacity="1" stroke-width="4" stroke="none"></path><path d="M1270.75 537.49L1268.18 545.19 1275.21 544.25 1270.89 537.49C1270.89 537.42 1270.82 537.42 1270.75 537.49Z" fill="#99cb65" opacity="1" stroke-width="4" stroke="none"></path><path d="M1301.78 643.08H1266.42C1266.42 643.08 1266.36 643.08 1266.36 643.01L1258.31 604.62 1255.13 580.35C1255.13 580.28 1255.13 580.28 1255.2 580.28H1313.21C1313.27 580.28 1313.27 580.35 1313.27 580.35L1310.1 604.62 1301.78 643.08C1301.85 643.08 1301.85 643.01 1301.78 643.08Z" fill="#ffffcc" opacity="1" stroke-width="4" stroke="none"></path><path d="M1258.31 604.62L1263.65 645.18H1304.82L1310.1 604.62H1258.31Z" fill="#ffffcc" opacity="1" stroke-width="4" stroke="none"></path></g><g><path d="M1371.21 833.51C1360.12 833.51 1352.71 842.55 1354.61 853.64L1355.18 856.82C1355.32 857.6 1356.03 858.23 1356.87 858.23H1394.31C1394.95 858.23 1395.51 857.74 1395.51 857.1 1395.51 857.03 1395.51 856.89 1395.51 856.82L1394.95 853.64C1392.97 842.48 1382.37 833.51 1371.21 833.51Z" stroke="#000000" stroke-width="4" stroke-linecap="round" stroke-linejoin="round" opacity="1" fill="none"></path><path d="M1278.96 972.66H1407.59C1410.35 972.66 1412.68 970.69 1413.1 968L1431.32 864.73C1432.31 859.01 1427.93 853.71 1422.07 853.71H1313.15C1305.45 853.71 1298.88 859.22 1297.54 866.78L1278.96 972.66Z" fill="#1f8f57" opacity="1" stroke-width="4" stroke="none"></path><path d="M1465.58 972.66H1332.22L1326.71 941.23 1311.45 854.84C1311.31 854.21 1311.81 853.71 1312.44 853.71H1431.32C1439.02 853.71 1445.59 859.22 1446.94 866.78L1465.58 972.66Z" fill="#006633" opacity="1" stroke-width="4" stroke="none"></path><path d="M1462.55 955.43L1459.23 936.57H1325.86L1326.71 941.23 1462.55 955.43Z" fill="#000000" opacity="0.2" stroke-width="4" stroke="none"></path><path d="M1306.65 897.79V971.25" stroke="#006633" stroke-width="4" stroke-linecap="round" stroke-linejoin="round" opacity="1" fill="none"></path><path d="M1457.81 936.64H1327.13" stroke="#000000" stroke-width="4" stroke-linecap="round" stroke-linejoin="round" opacity="1" fill="none"></path><path d="M1384.56 883.31L1389.15 909.44" stroke="#78a08c" stroke-width="4" stroke-linecap="round" stroke-linejoin="round" opacity="1" fill="none"></path><path d="M1399.89 896.38H1373.76" stroke="#78a08c" stroke-width="4" stroke-linecap="round" stroke-linejoin="round" opacity="1" fill="none"></path></g><g><path d="M647.87 207.02C649.41 208.56 644.98 547.16 649.41 546.8H927.15C927.96 546.8 928.68 546.07 928.68 545.26 928.68 545.26 928.05 211.18 928.68 207.02 928.68 206.21 927.96 205.49 927.15 205.49H649.41C648.6 205.49 647.87 206.21 647.87 207.02Z" fill="#99cb65" opacity="1" stroke-width="4" stroke="none"></path><path d="M788.73 316.46C808.68 316.46 824.85 300.29 824.85 280.34 824.85 260.4 808.68 244.22 788.73 244.22 768.79 244.22 752.61 260.4 752.61 280.34 752.61 300.29 768.79 316.46 788.73 316.46Z" fill="#ffffcc" opacity="1" stroke-width="4" stroke="none"></path><path d="M783.13 277.27C787.67 277.27 791.35 273.6 791.35 269.06 791.35 264.51 787.67 260.84 783.13 260.84 778.59 260.84 774.92 264.51 774.92 269.06 774.92 273.6 778.59 277.27 783.13 277.27Z" fill="#ffffff" opacity="1" stroke-width="4" stroke="none"></path><path d="M810.49 327.84H766.16V457.23C766.16 464.27 768.87 470.95 773.65 476.1L776.09 478.72C780.33 483.23 782.68 489.1 782.68 495.33V506.89C782.68 510.05 785.21 512.58 788.37 512.58 791.53 512.58 794.06 510.05 794.06 506.89V495.33C794.06 489.19 796.41 483.23 800.65 478.72L803.09 476.1C807.87 471.04 810.58 464.27 810.58 457.23L810.49 327.84Z" fill="#ffffcc" opacity="1" stroke-width="4" stroke="none"></path><path d="M774.92 459.3V417.5H801.73V459.3C801.73 466.71 795.77 472.67 788.37 472.67 780.88 472.76 774.92 466.71 774.92 459.3Z" fill="#fefe87" opacity="1" stroke-width="4" stroke="none"></path><path d="M748.64 315.47H828.01C835.41 315.47 841.37 321.43 841.37 328.92 841.37 336.32 835.41 342.37 828.01 342.37H748.64C741.24 342.37 735.28 336.41 735.28 328.92 735.19 321.43 741.24 315.47 748.64 315.47Z" fill="#fefe87" opacity="1" stroke-width="4" stroke="none"></path><path d="M785.75 362.87H790.81" stroke="#96c961" stroke-width="4" stroke-linecap="round" stroke-linejoin="round" opacity="1" fill="none"></path><path d="M785.75 384.54H790.81" stroke="#99cb65" stroke-width="4" stroke-linecap="round" stroke-linejoin="round" opacity="1" fill="none"></path><path d="M785.75 406.21H790.81" stroke="#99cb65" stroke-width="4" stroke-linecap="round" stroke-linejoin="round" opacity="1" fill="none"></path><path d="M785.75 427.88H790.81" stroke="#99cb65" stroke-width="4" stroke-linecap="round" stroke-linejoin="round" opacity="1" fill="none"></path><path d="M785.75 449.55H790.81" stroke="#99cb65" stroke-width="4" stroke-linecap="round" stroke-linejoin="round" opacity="1" fill="none"></path><path d="M685.71 510.68H729.05" stroke="#ffffcc" stroke-width="4" stroke-linecap="round" stroke-linejoin="round" opacity="1" fill="none"></path></g><g><path d="M647.21 973.68C652.74 973.68 657.42 969.68 658.35 964.24L664.48 925.7H630.03L636.15 964.24C637 969.68 641.68 973.68 647.21 973.68Z" fill="#99cb65" opacity="1" stroke-width="4" stroke="none"></path><path d="M517.32 973.68C522.84 973.68 527.52 969.68 528.37 964.24L534.5 925.7H500.05L506.17 964.24C507.02 969.68 511.7 973.68 517.32 973.68Z" fill="#99cb65" opacity="1" stroke-width="4" stroke="none"></path><path d="M380.28 973.68C385.81 973.68 390.49 969.68 391.34 964.24L397.46 925.7H363.01L369.13 964.24C369.98 969.68 374.66 973.68 380.28 973.68Z" fill="#99cb65" opacity="1" stroke-width="4" stroke="none"></path><path d="M394.65 943.48L397.46 925.7H363.01L366.41 947.05 394.65 943.48Z" fill="#191b17" opacity="0.2" stroke-width="4" stroke="none"></path><path d="M531.69 943.48L534.5 925.7H500.05L503.45 947.05 531.69 943.48Z" fill="#191b17" opacity="0.2" stroke-width="4" stroke="none"></path><path d="M661.67 943.48L664.48 925.7H630.03L633.43 947.05 661.67 943.48Z" fill="#191b17" opacity="0.2" stroke-width="4" stroke="none"></path><path d="M693.82 930.3V838.09C693.82 805.68 667.45 779.39 635.13 779.39H588.34L588.34 641.33C588.34 622.7 573.2 607.56 554.57 607.56H365.99L380.45 930.3H693.82Z" fill="#006633" opacity="1" stroke-width="4" stroke="none"></path><path d="M517.74 930.3V838.09C517.74 805.68 491.37 779.39 459.05 779.39H401.2V641.33C401.2 622.7 386.06 607.56 367.43 607.56 348.8 607.56 333.66 622.7 333.66 641.33L333.66 930.3H517.74Z" fill="#092517" opacity="1" stroke-width="4" stroke="none"></path><path d="M588.94 779.39L401.8 779.22" stroke="#000000" stroke-width="4" stroke-linecap="round" stroke-linejoin="round" opacity="1" fill="none"></path><path d="M663.63 930.38H630.2" stroke="#191b17" stroke-width="4" stroke-linecap="round" stroke-linejoin="round" opacity="1" fill="none"></path><path d="M534.33 930.38H500.9" stroke="#191b17" stroke-width="4" stroke-linecap="round" stroke-linejoin="round" opacity="1" fill="none"></path><path d="M397.21 930.38H363.78" stroke="#191b17" stroke-width="4" stroke-linecap="round" stroke-linejoin="round" opacity="1" fill="none"></path></g><g><path d="M198.36 973.52H241.47 241.53C282.72 925.08 241.73 833.48 240.83 831.49 240.83 831.49 240.83 831.42 240.77 831.42H219.27 199.2C199.2 831.42 199.13 831.42 199.13 831.49 198.17 833.48 157.11 925.02 198.36 973.52Z" fill="#99cb65" opacity="1" stroke-width="4" stroke="none"></path><path d="M253.53 951.51C232.1 922.84 204.39 914.69 180.91 914.31" stroke="#b7b7b7" stroke-width="4" stroke-linecap="round" stroke-linejoin="round" opacity="1" fill="none"></path><path d="M182.84 890.89C211.77 884.28 241.53 887.75 257.32 891.47" stroke="#b7b7b7" stroke-width="4" stroke-linecap="round" stroke-linejoin="round" opacity="1" fill="none"></path><path d="M217.86 840.15L195.35 775.1" stroke="#23231f" stroke-width="4" stroke-linecap="round" stroke-linejoin="round" opacity="1" fill="none"></path><path d="M294.9 845.43C297.33 841.98 288.01 831.26 274.1 821.48 260.19 811.7 246.94 806.57 244.52 810.02 242.1 813.47 251.41 824.19 265.32 833.97 279.24 843.75 292.48 848.88 294.9 845.43Z" fill="#23231f" opacity="1" stroke-width="4" stroke="none"></path><path d="M208 812.75C208.67 808.94 193.36 803.05 173.79 799.58 154.21 796.11 137.8 796.38 137.13 800.18 136.46 803.98 151.78 809.88 171.34 813.35 190.91 816.82 207.32 816.55 208 812.75Z" fill="#23231f" opacity="1" stroke-width="4" stroke="none"></path><path d="M257.45 799.64C272.21 796.65 283.48 790.81 282.62 786.61 281.77 782.41 269.12 781.43 254.36 784.43 239.6 787.42 228.33 793.26 229.19 797.46 230.04 801.66 242.7 802.64 257.45 799.64Z" fill="#23231f" opacity="1" stroke-width="4" stroke="none"></path><path d="M221.01 838.29L237.24 750.66" stroke="#23231f" stroke-width="4" stroke-linecap="round" stroke-linejoin="round" opacity="1" fill="none"></path><path d="M217.35 708.51C221.53 708.51 224.92 705.12 224.92 700.94 224.92 696.76 221.53 693.37 217.35 693.37 213.17 693.37 209.78 696.76 209.78 700.94 209.78 705.12 213.17 708.51 217.35 708.51Z" fill="#23231f" opacity="1" stroke-width="4" stroke="none"></path><path d="M240.7 831.49C236.92 836.88 233 839.89 227.81 841.82 237.43 867.86 257.38 934.77 224.34 973.52H241.47 241.53C282.4 925.4 242.37 834.95 240.83 831.55 240.77 831.49 240.7 831.49 240.7 831.49Z" fill="#5c5c5c" opacity="0.15" stroke-width="4" stroke="none"></path><path d="M264.56 749.09C267.33 736.85 258.32 724.38 244.43 721.23 230.55 718.08 217.04 725.44 214.26 737.67 211.48 749.9 220.49 762.37 234.38 765.53 248.27 768.68 261.78 761.32 264.56 749.09Z" fill="#006633" opacity="1" stroke-width="4" stroke="none"></path><path d="M242.91 744.17C243.29 742.48 242.04 740.75 240.1 740.32 238.17 739.87 236.29 740.89 235.9 742.58 235.52 744.27 236.77 746.01 238.71 746.44 240.64 746.89 242.52 745.87 242.91 744.17Z" fill="#23231f" opacity="1" stroke-width="4" stroke="none"></path><path d="M198.68 787.74C209.94 784.01 216.41 772.94 213.12 763.02 209.84 753.1 198.04 748.08 186.78 751.81 175.5 755.55 169.04 766.61 172.32 776.54 175.61 786.45 187.4 791.48 198.68 787.74Z" fill="#006633" opacity="1" stroke-width="4" stroke="none"></path><path d="M193.71 772.76C195.6 772.14 196.68 770.29 196.14 768.65 195.59 767 193.62 766.17 191.73 766.79 189.86 767.42 188.77 769.26 189.32 770.91 189.86 772.56 191.83 773.39 193.71 772.76Z" fill="#23231f" opacity="1" stroke-width="4" stroke="none"></path><path d="M240.64 831.42H199.13C199.07 831.42 199.07 831.49 199.07 831.49 203.11 839.19 211.19 843.87 219.85 843.87 228.51 844 236.6 839.25 240.64 831.42 240.77 831.49 240.7 831.42 240.64 831.42Z" fill="#23231f" opacity="1" stroke-width="4" stroke="none"></path></g><g><path d="M1019.95 947.17L997.11 901.1 996.95 897.82C996.79 892.95 996.39 887.68 996.07 882.65L997.51 880.58 1070.65 882.01V882.65C1070.09 896.07 1069.06 908.37 1067.46 920.18V920.26L1042.55 947.17H1019.95Z" fill="#ecaa74" opacity="1" stroke-width="4" stroke="none"></path><path d="M1148.99 953.09L1129.34 901.51C1128.87 896.79 1127.91 890.49 1126.47 882.17L1202.49 881.69C1202.41 894 1201.61 907.73 1199.93 920.67V920.75L1172.46 953.17 1148.99 953.09Z" fill="#ecaa74" opacity="1" stroke-width="4" stroke="none"></path><path d="M927.16 449.06C927.16 443.79 927.32 438.2 927.64 432.45 927.24 432.37 916.54 429.42 916.46 406.98H916.38C914.94 406.98 910.95 406.5 910.07 402.03 908.87 396.2 909.03 388.37 912.15 384.14 913.59 382.3 915.26 381.35 917.26 381.11 917.34 375.6 920.37 371.68 924.6 371.68 925.64 371.68 926.68 371.84 927.64 372.24 928.52 367.37 931.95 366.33 934.75 366.33 937.14 366.33 939.38 367.05 940.26 367.37 931.71 346.05 930.19 338.62 934.03 335.59 934.43 335.27 934.91 335.11 935.38 335.11 941.53 335.11 953.67 359.55 957.42 368.41 959.66 373.76 968.68 404.1 977.39 433.41L978.03 435.48 977.07 435.88 928.84 449.14 927.16 449.06Z" fill="#ecaa74" opacity="1" stroke-width="4" stroke="none"></path><path d="M1197.22 822.84C1194.9 811.03 1192.03 800.89 1189.15 791.14L1188.99 790.74C1180.85 762.72 1173.18 736.29 1179.65 675.92 1183.16 642.94 1179.89 608.6 1170.15 576.66 1162.88 552.71 1154.26 537.77 1153.3 536.1L1153.22 536.02H1110.26C1110.18 535.94 1110.18 535.94 1110.1 535.94H1047.1V536.1C1044.78 541.85 991.76 678.71 991.76 772.46 991.76 802.64 993.76 838.73 995.35 867.8V868.36C995.51 871.23 995.67 874.03 995.83 876.82 995.91 878.82 995.91 880.82 996.07 882.73H1070.49C1070.65 882.73 1070.73 882.65 1070.73 882.49 1071.85 852.39 1069.93 825.88 1068.74 810.07 1065.7 770.54 1077.68 744.51 1090.38 716.88 1091.81 713.69 1093.33 710.49 1094.77 707.22 1096.92 729.9 1099.16 749.22 1101.08 760.48 1104.27 778.93 1109.46 802.32 1114.01 822.76 1118.88 844.56 1123.52 865.56 1126.55 882.65L1202.57 882.89V882.73C1202.81 863.09 1200.97 842.89 1197.22 822.84Z" fill="#006633" opacity="1" stroke-width="4" stroke="none"></path><path d="M1073.61 758.08L1082.39 666.18C1083.75 651.72 1089.9 652.68 1089.9 652.68 1099.24 633.76 1089.9 652.68 1089.9 652.68 1090.62 652.68 1092.05 681.91 1092.05 681.91 1092.05 681.91 1093.65 685.34 1094.77 703.71 1094.77 703.71 1098.36 695.88 1094.13 708.66L1090.46 716.72C1084.39 729.74 1078.16 743.23 1073.93 758.08H1073.61Z" fill="#000000" opacity="0.2" stroke-width="4" stroke="none"></path><path d="M954.23 972.89C953.99 968.73 955.03 964.34 956.87 960.75 956.87 960.67 956.94 960.59 957.02 960.51L957.1 960.43 1059.55 960.03C1059.71 960.03 1059.79 960.19 1059.79 960.35 1058.68 964.5 1057.24 969.05 1056.04 972.97L954.23 972.89Z" fill="#3e4933" opacity="1" stroke-width="4" stroke="none"></path><path d="M956.94 960.84C956.87 960.84 956.79 960.84 956.94 960.84 959.02 956.84 962.14 953.57 965.57 951.17 966.05 950.77 968.44 949.26 969.08 948.78 982.02 940.15 998.07 929.45 997.43 908.93V908.53 908.21C997.35 905.9 997.27 903.58 997.11 900.95V900.79H1017.15C1018.27 900.79 1019.39 900.95 1020.59 901.27 1023.54 902.14 1025.94 904.14 1027.37 906.86 1028.81 909.65 1029.13 912.77 1028.17 915.64L1021.62 936.56H1043.66C1047.5 926.58 1056.84 920.03 1067.54 919.79H1067.7V919.95C1066.02 932.73 1060.19 958.28 1059.63 960.6 1059.63 960.68 1059.55 960.76 1059.39 960.76L959.02 960.84H956.94Z" fill="#99cb65" opacity="1" stroke-width="4" stroke="none"></path><path d="M1086.7 973.05V972.89C1086.46 968.66 1087.34 964.51 1089.26 960.84L1090.38 959.72 1192.11 956.36C1192.19 956.36 1192.19 960.44 1192.19 960.52 1191.07 964.75 1189.71 969.06 1188.43 972.97L1086.7 973.05Z" fill="#3e4933" opacity="1" stroke-width="4" stroke="none"></path><path d="M1089.26 960.84C1091.81 954.61 1100.92 949.26 1101.56 948.78 1114.49 940.15 1130.54 929.45 1129.9 908.93 1129.82 906.06 1129.66 903.66 1129.34 901.35V901.19H1150.51C1151.62 901.19 1152.74 901.35 1153.94 901.67 1156.89 902.54 1159.29 904.54 1160.73 907.26 1162.16 910.05 1162.48 913.16 1161.52 916.04L1154.98 936.96H1177.02C1180.77 927.38 1189.79 920.83 1200.01 920.27H1200.17V920.43C1198.5 932.89 1192.83 957.56 1192.19 960.44 1192.19 960.6 1192.03 960.76 1191.87 960.76L1089.42 960.84H1089.26Z" fill="#99cb65" opacity="1" stroke-width="4" stroke="none"></path><path d="M1189.63 456.8L1188.99 455.53C1185.88 449.38 1178.61 437.32 1164.72 426.94 1164.64 426.86 1164.56 426.86 1164.48 426.86 1164.4 426.78 1164.24 426.62 1164.16 426.54 1160.73 423.91 1151.46 418.64 1138.37 415.68H1138.29L1093.01 495.85 1053.33 416.96C1053.25 416.8 1053.09 416.8 1053.01 416.8L1050.13 417.92C1044.14 420.31 1040.55 422.95 1033.84 428.14 1018.51 439.88 1006.85 450.1 995.35 460.4 992.48 462.95 989.68 465.43 986.97 467.82 986.49 465.91 983.14 452.49 978.11 435.4L978.03 435.24 927.16 448.9V449.06C927 479.16 931.31 502.4 939.94 518.05 947.76 532.26 959.26 539.93 973.31 540.25H974.67C1003.34 540.25 1027.05 521.88 1038.63 510.86L1041.83 536.58C1041.75 537.06 1031.77 574.67 1017.79 623.3L1017.71 623.53H1017.95C1018.35 623.53 1055.32 622.82 1087.5 596.15 1125.03 628.09 1177.65 628.49 1179.89 628.49H1180.13V628.01C1178.45 608.52 1174.78 591.59 1170.63 577.62 1184.52 576.42 1195.14 572.35 1202.33 565.48 1220.53 547.92 1215.98 509.35 1189.63 456.8Z" fill="#006633" opacity="1" stroke-width="4" stroke="none"></path><path d="M1175.66 598.94C1129.74 585.21 1128.95 574.91 1128.79 574.67L1163.92 578.42 1170.63 577.62 1175.9 598.78 1175.98 599.02 1175.66 598.94Z" fill="#000000" opacity="0.2" stroke-width="4" stroke="none"></path><path d="M1052.61 417.04L1052.93 416.88C1057.88 414.8 1062.91 413.76 1068.34 413.69 1068.34 413.69 1068.5 413.69 1068.74 413.69 1073.53 413.45 1086.22 412.81 1100.04 412.81 1109.62 412.81 1118.32 413.13 1125.83 413.69 1130.22 414 1134.37 414.72 1138.37 415.68L1138.69 415.76 1093.09 496.57 1052.61 417.04Z" fill="#99cb65" opacity="1" stroke-width="4" stroke="none"></path><path d="M1035.84 485.23L1036.16 485.31 1038.63 510.94 1038.47 511.1C1032.96 516.29 1027.13 520.93 1021.15 524.92L1020.51 525.32 1035.84 485.23Z" fill="#000000" opacity="0.2" stroke-width="4" stroke="none"></path><path d="M1111.62 412.97H1077.68L1088.62 428.86 1081.03 472.78 1093.09 496.57 1107.86 470.3 1100.68 428.86 1111.62 412.97Z" fill="#99cb65" opacity="1" stroke-width="4" stroke="none"></path><path d="M1068.74 408.49L1069.14 401.55C1067.62 401.71 1066.18 401.87 1064.66 401.87 1058.84 401.87 1050.93 400.43 1046.06 393.48 1040.23 385.1 1041.11 374.48 1042.94 364.34 1043.5 360.98 1043.74 356.27 1043.9 352.2 1044.3 342.78 1044.78 329.92 1049.65 322.57 1057.88 310.2 1068.1 310.6 1087.5 310.6 1097.48 310.6 1106.75 314.27 1113.69 320.98 1120.48 327.53 1124.31 336.23 1124.47 345.41 1124.63 355.95 1128.15 375.84 1127.11 395.64L1126.87 400.27C1126.71 403.22 1126.55 405.94 1126.47 408.33V408.49H1068.74Z" fill="#ecaa74" opacity="1" stroke-width="4" stroke="none"></path><path d="M1069.14 401.55L1069.93 401.47C1077.2 400.75 1083.83 398.67 1090.7 396.2L1090.86 396.52C1083.91 400.99 1076.56 404.98 1069.06 408.49L1068.74 408.73 1069.14 401.55Z" fill="#2c2016" opacity="0.2" stroke-width="4" stroke="none"></path><path d="M1093.73 415.04L1081.51 429.02C1081.27 429.26 1080.79 429.26 1080.63 429.02L1068.58 414.32C1068.5 414.24 1068.42 414.08 1068.42 413.92L1068.74 408.73C1068.74 408.41 1069.06 408.18 1069.3 408.18H1126.55V408.33C1126.47 410.17 1126.39 411.85 1126.31 413.29L1126.23 414.48C1126.23 414.64 1126.15 414.8 1125.99 414.88L1109.22 429.5C1108.98 429.74 1108.58 429.66 1108.42 429.5L1094.61 415.04C1094.37 414.8 1093.97 414.8 1093.73 415.04Z" fill="#99cb65" opacity="1" stroke-width="4" stroke="none"></path><path d="M1100.12 387.81L1099.96 387.65 1100.12 387.57C1100.12 387.57 1100.12 387.57 1100.6 387.25 1102.11 386.3 1106.75 383.42 1110.82 379.51 1115.37 375.12 1120.24 368.49 1117.61 362.18 1115.37 356.99 1111.14 354.36 1104.99 354.36 1099.24 354.36 1093.17 356.75 1090.14 358.19 1089.98 358.27 1089.9 358.27 1089.9 358.27L1089.74 358.35 1089.66 358.19C1085.91 351.56 1085.27 342.62 1083.75 334.96 1083.91 334.79 1080.32 334.95 1077.12 334.95 1053.33 334.95 1049.17 323.45 1049.17 323.29 1049.33 323.05 1049.57 322.65 1049.65 322.57 1057.88 310.2 1073.05 303.41 1092.45 303.41 1102.43 303.41 1111.7 307.08 1118.64 313.79 1125.43 320.42 1129.26 329.12 1129.42 338.23 1129.58 348.29 1128.31 373.12 1127.27 393.16L1127.11 396.28H1125.35C1125.35 396.28 1108.5 396.2 1100.12 387.81Z" fill="#191919" opacity="1" stroke-width="4" stroke="none"></path><path d="M1050.29 357.23C1048.85 357.23 1047.66 356.03 1047.66 354.59 1047.66 353.16 1048.85 351.96 1050.29 351.96 1051.73 351.96 1052.93 353.16 1052.93 354.59 1052.93 356.03 1051.73 357.23 1050.29 357.23Z" fill="#171314" opacity="1" stroke-width="4" stroke="none"></path><path d="M1068.74 358.59C1070.19 358.59 1071.37 357.41 1071.37 355.95 1071.37 354.5 1070.19 353.32 1068.74 353.32 1067.28 353.32 1066.1 354.5 1066.1 355.95 1066.1 357.41 1067.28 358.59 1068.74 358.59Z" fill="#171314" opacity="1" stroke-width="4" stroke="none"></path><path d="M1040.87 423.03L1037.99 453.85 1055.56 450.66 1048.37 473.81 1085.91 509.75 1087.5 595.99" stroke="#000000" stroke-width="4" stroke-linecap="round" stroke-linejoin="round" opacity="1" fill="none"></path><path d="M1150.11 419.67L1150.58 456.25 1132.22 455.45 1141 477.81 1087.5 528.59" stroke="#000000" stroke-width="4" stroke-linecap="round" stroke-linejoin="round" opacity="1" fill="none"></path><path d="M1093.09 496.17L1085.59 510.07" stroke="#000000" stroke-width="4" stroke-linecap="round" stroke-linejoin="round" opacity="1" fill="none"></path><path d="M1069.14 401.55C1072.97 400.35 1077.52 400.19 1081.91 399.07" stroke="#2c2016" stroke-width="4" stroke-linecap="round" stroke-linejoin="round" opacity="1" fill="none"></path><path d="M1104.27 366.81L1095.49 370.8" stroke="#2c2016" stroke-width="4" stroke-linecap="round" stroke-linejoin="round" opacity="1" fill="none"></path><path d="M1058.04 376.71C1061.23 377.43 1064.58 375.84 1066.1 372.96" stroke="#2c2016" stroke-width="4" stroke-linecap="round" stroke-linejoin="round" opacity="1" fill="none"></path><path d="M1057.08 360.02C1056.04 362.74 1055.24 364.74 1057.96 365.85" stroke="#2c2016" stroke-width="4" stroke-linecap="round" stroke-linejoin="round" opacity="1" fill="none"></path><path d="M1038.63 510.94L1037.04 494.57" stroke="#000000" stroke-width="4" stroke-linecap="round" stroke-linejoin="round" opacity="1" fill="none"></path><path d="M986.97 467.9L984.65 477.57" stroke="#000000" stroke-width="4" stroke-linecap="round" stroke-linejoin="round" opacity="1" fill="none"></path><path d="M1089.9 650.21C1091.49 670.09 1093.01 689.33 1094.77 707.22" stroke="#000000" stroke-width="4" stroke-linecap="round" stroke-linejoin="round" opacity="1" fill="none"></path><path d="M1017.95 623.46C1017.95 623.46 1054.76 623.14 1087.5 595.99 1125.83 628.73 1179.97 628.41 1179.97 628.41" stroke="#000000" stroke-width="4" stroke-linecap="round" stroke-linejoin="round" opacity="1" fill="none"></path><path d="M1181.09 882.25C1177.73 846.72 1163.36 797.21 1156.97 758.08 1150.58 718.96 1154.66 644.94 1152.98 627.69" stroke="#000000" stroke-width="4" stroke-linecap="round" stroke-linejoin="round" opacity="1" fill="none"></path><path d="M1120.83 933.47L1130.62 940.15" stroke="#3e4933" stroke-width="4" stroke-linecap="round" stroke-linejoin="round" opacity="1" fill="none"></path><path d="M988.57 933.73L997.27 940.15" stroke="#3e4933" stroke-width="4" stroke-linecap="round" stroke-linejoin="round" opacity="1" fill="none"></path><path d="M1068.5 414.08L1081.03 429.34 1094.05 414.32 1108.82 429.66 1126.07 414.64" stroke="#000000" stroke-width="4" stroke-linecap="round" stroke-linejoin="round" opacity="1" fill="none"></path><path d="M916.62 406.74C919.49 405.3 921.49 402.67 922.21 399.55" stroke="#2c2016" stroke-width="4" stroke-linecap="round" stroke-linejoin="round" opacity="1" fill="none"></path><path d="M917.42 381.98C917.42 389.17 919.25 401.47 927 399.55 931.23 398.51 932.35 393.88 932.59 390.93" stroke="#2c2016" stroke-width="4" stroke-linecap="round" stroke-linejoin="round" opacity="1" fill="none"></path><path d="M927.8 372.4C928.2 375.6 928.84 378.79 929.56 381.98" stroke="#2c2016" stroke-width="4" stroke-linecap="round" stroke-linejoin="round" opacity="1" fill="none"></path><path d="M964.53 393.16C956.07 387.01 933.39 377.99 929.4 382.78 925.4 387.57 944.57 400.35 944.57 400.35 944.57 400.35 935.78 414.72 938.18 425.9" stroke="#2c2016" stroke-width="4" stroke-linecap="round" stroke-linejoin="round" opacity="1" fill="none"></path><path d="M1041.19 592.87C1040.15 592.87 1039.35 592.47 1038.95 591.75 1037.52 589.2 1040.23 583.05 1041.51 580.57 1040.07 581.77 1032.56 587.6 1026.74 587.6 1023.78 587.6 1021.7 586.08 1020.51 583.21 1020.51 583.21 1020.51 583.21 1020.43 583.21 1019.95 583.21 1017.07 583.05 1015.32 580.81 1014.04 579.22 1013.64 576.98 1014.2 574.27 1013.88 574.11 1013.4 573.55 1012.92 572.75 1011.88 571.07 1010.76 567.4 1014.28 560.85 1019.79 550.79 1038.79 533.22 1068.42 526.2 1084.39 522.44 1103.95 520.93 1117.53 520.21H1117.69L1113.85 570.91C1103.55 568.12 1096.69 565.72 1095.97 565.48 1088.38 570.19 1079.68 572.67 1070.81 572.67 1070.01 572.67 1069.3 572.67 1068.5 572.59 1068.42 572.67 1068.1 572.99 1067.7 573.39 1050.37 589.52 1043.66 592.87 1041.19 592.87Z" fill="#ecaa74" opacity="1" stroke-width="4" stroke="none"></path><path d="M1020.43 583.21C1033.2 571.23 1055.56 554.46 1055.56 554.46" stroke="#2c2016" stroke-width="4" stroke-linecap="round" stroke-linejoin="round" opacity="1" fill="none"></path><path d="M1014.04 574.43C1020.43 566.44 1037.99 552.07 1048.37 545.68" stroke="#2c2016" stroke-width="4" stroke-linecap="round" stroke-linejoin="round" opacity="1" fill="none"></path><path d="M1041.51 580.57L1061.47 563.17" stroke="#2c2016" stroke-width="4" stroke-linecap="round" stroke-linejoin="round" opacity="1" fill="none"></path><path d="M1137.41 561.81C1141.25 561.81 1144.36 558.7 1144.36 554.86 1144.36 551.03 1141.25 547.92 1137.41 547.92 1133.58 547.92 1130.46 551.03 1130.46 554.86 1130.46 558.7 1133.58 561.81 1137.41 561.81Z" fill="#0eff87" opacity="1" stroke-width="4" stroke="none"></path><path d="M1142.36 500.24L1149.79 519.33" stroke="#000000" stroke-width="4" stroke-linecap="round" stroke-linejoin="round" opacity="1" fill="none"></path><path d="M1170.95 577.54C1151.3 579.3 1129.02 574.83 1113.85 570.83" stroke="#000000" stroke-width="4" stroke-linecap="round" stroke-linejoin="round" opacity="1" fill="none"></path><path d="M1117.85 520.13C1136.21 519.33 1147.39 519.33 1164.96 519.33" stroke="#000000" stroke-width="4" stroke-linecap="round" stroke-linejoin="round" opacity="1" fill="none"></path><path d="M940.26 367.37C942.17 370.8 944.73 380.71 945.45 383.9" stroke="#2c2016" stroke-width="4" stroke-linecap="round" stroke-linejoin="round" opacity="1" fill="none"></path></g><g><path d="M447.17 660.28C447.98 657.09 448.59 653.9 449.07 650.7 435.69 624.82 430.39 591.95 433.24 555.61 435.21 538.08 444.65 528.44 456.47 523.21 465.91 519.07 476.92 517.78 486.9 517.57 486.83 516.08 486.7 512.55 486.7 510.17L539.68 509.9 537.98 521.78C550.75 525.79 560.94 525.99 566.31 529.25 569.43 531.09 571.4 532.72 572.62 534.01 588.59 548.61 595.45 624.15 595.51 624.89 595.65 625.1 603.53 633.25 613.24 643.37 622.21 652.74 634.03 677.33 634.03 677.33L617.05 690.24C636 696.62 654.81 703.48 665.75 708.98 694.21 723.18 698.62 750.28 702.16 772.09 702.56 774.26 702.9 776.43 703.31 778.54 705.08 788.52 707.39 807.47 709.63 827.1 713.36 860.32 703.45 886.95 703.51 887.49L547.56 890.14C547.56 890.14 542.94 858.15 545.93 842.32 546.34 840.15 546.88 837.7 547.29 835.6 553.47 806.05 561.62 784.86 562.71 782.07 562.77 781.93 562.64 781.8 562.5 781.8H533.02 490.64C459.94 781.8 442.48 758.16 438.13 745.93 432.9 730.24 431.82 710.34 446.01 664.42 446.42 663 446.83 661.64 447.17 660.28Z" fill="#99cb65" opacity="1" stroke-width="4" stroke="none"></path><path d="M695.63 972.33H751.54C751.88 972.33 752.15 972.06 752.15 971.72 751.33 948.08 725.18 947.94 719.68 918.74 718.46 912.76 717.03 897.81 716.96 896.39 716.96 896.32 716.9 896.32 716.9 896.32 714.65 896.12 677.84 890.14 677.84 890.14 677.84 890.14 638.37 895.84 636.95 895.84 637.56 909.02 639.26 924.37 641.57 936.74 642.18 936.94 672.34 947.54 673.76 948.08 673.76 948.08 673.83 948.08 673.83 948.15 674.65 949.17 689.59 966.83 693.39 971.38 693.94 971.92 694.75 972.33 695.63 972.33Z" fill="#99cb65" opacity="1" stroke-width="4" stroke="none"></path><path d="M673.76 948.08C673.76 948.01 673.76 948.01 673.76 948.08 660.52 937.07 642.93 936.67 641.57 936.67 641.5 936.67 641.5 936.67 641.5 936.67 644.69 954.46 647.61 964.38 649.65 972.4 650.33 972.4 663.85 972.4 668.06 972.4 668.8 972.4 669.42 971.85 669.55 971.17L673.76 948.08Z" fill="#23231f" opacity="1" stroke-width="4" stroke="none"></path><path d="M654.27 971.72C652.23 940.47 614.19 950.93 617.59 896.32 616.77 896.46 580.16 885.04 580.16 885.04 580.16 885.04 541.92 896.18 540.36 896.66 540.09 910.04 540.77 925.05 542.26 937.75 542.94 937.96 574.86 947.67 575.82 947.94 577.51 949.84 593.14 968.52 596.06 971.99 596.26 972.26 596.6 972.4 596.94 972.4 602.51 972.4 647.41 972.4 653.52 972.4 654 972.4 654.34 972.06 654.27 971.72Z" fill="#99cb65" opacity="1" stroke-width="4" stroke="none"></path><path d="M575.82 947.94C562.98 938.03 542.33 937.82 542.33 937.82 543.69 948.96 545.59 960.58 548.17 971.72 548.31 972.12 548.65 972.46 549.12 972.46H570.59C571.06 972.46 571.47 972.12 571.6 971.65L575.88 948.08C575.88 947.94 575.88 947.94 575.82 947.94Z" fill="#23231f" opacity="1" stroke-width="4" stroke="none"></path><path d="M614.53 692.14L637.02 668.3C629.27 660.21 622.14 652.67 613.24 643.37 609.98 646.42 608.15 650.57 607.81 654.98 607.81 655.19 607.54 655.39 607.33 655.25 593.95 649.48 574.59 650.43 571.67 679.1 571.74 679.1 614.53 692.14 614.53 692.14Z" fill="#ffffcc" opacity="1" stroke-width="4" stroke="none"></path><path d="M539.82 510.17L539.41 512.21C539.41 510.64 541.04 509.35 542.6 509.69 546.27 510.51 549.26 512.27 558.49 508.4 558.49 508.4 558.49 508.4 558.56 508.4 561.62 508.4 564.4 506.98 566.92 505.48 576.29 499.71 575.07 486.39 572.76 474.44 572.69 474.1 572.83 473.76 573.03 473.56 574.25 472.47 577.92 468.87 577.79 466.22 577.65 463.91 573.1 462.01 571.4 461.4 570.99 461.26 570.79 460.92 570.72 460.51 570.31 452.36 570.31 443.94 568.62 436.61 564.06 428.39 559.99 424.99 552.86 420.71 539.61 411.74 516.92 407.87 502.73 416.09 486.97 424.85 486.77 448.42 486.77 458.48 486.7 463.5 487.04 492.03 487.24 510.24 487.24 510.17 539.95 510.37 539.82 510.17Z" fill="#cd8042" opacity="1" stroke-width="4" stroke="none"></path><path d="M562.71 781.73H533.5C533.36 781.73 533.36 781.59 533.43 781.53 535.6 780.1 547.97 772.15 560.87 764.68 565.49 762.03 568.48 761.63 569.84 761.63 570.25 761.63 570.45 762.03 570.31 762.37L562.98 781.53C562.91 781.66 562.77 781.73 562.71 781.73Z" fill="#000000" opacity="0.2" stroke-width="4" stroke="none"></path><path d="M559.51 457.87C556.59 457.93 556.59 462.28 559.51 462.35 562.43 462.28 562.43 457.93 559.51 457.87Z" fill="#171314" opacity="1" stroke-width="4" stroke="none"></path><path d="M568.62 436.61C566.85 428.11 562.43 422.27 556.53 418.27 544.5 414.94 537.57 413.99 526.57 413.65 517.33 413.65 509.52 414.87 504.9 419.56 505.11 419.35 519.1 450.73 538.32 449.38 558.9 447.88 568.62 436.67 568.62 436.61Z" fill="#99cb65" opacity="1" stroke-width="4" stroke="none"></path><path d="M679.47 718.22C684.9 707.96 645.57 676.18 637.02 668.3 636.54 668.7 611.68 688.13 611.82 688.06 611.95 688.13 619.08 691.05 618.81 690.92 618.74 690.98 623.36 697.71 628.53 703.55 633.69 709.46 643.88 720.33 648.9 714.08 650.26 711.29 648.16 706.13 646.59 702.94 645.98 701.38 644.49 699.81 645.51 700.42 657.12 705.59 668.6 711.5 679.47 718.22Z" fill="#cd8042" opacity="1" stroke-width="4" stroke="none"></path><path d="M615.76 731.6C621.6 728.14 616.98 711.56 616.91 711.43 616.71 711.09 630.16 730.18 635.86 723.32 638.1 719.1 628.19 701.17 628.12 700.97 616.1 678.35 601.63 661.16 575.14 650.77 573.85 650.3 571.2 651.32 571.2 651.32L557.75 688.06C562.98 693.16 568.89 697.5 575.2 700.97 575.27 701.24 580.43 726.98 590.35 728.55 591.85 728.75 593.34 728.48 594.7 727.73 594.7 727.73 597.08 731.6 600.4 732.15 602.92 732.49 604.89 731.13 606.86 728.27 607.33 729.16 611.95 734.25 615.76 731.6Z" fill="#cd8042" opacity="1" stroke-width="4" stroke="none"></path><path d="M449.07 650.77C451.79 655.93 454.98 661.16 458.31 665.72 461.16 668.77 468.36 673.87 468.36 673.87 479.16 680.93 521.61 700.76 543.42 709.8L538.66 723.45C538.53 723.79 538.12 723.99 537.78 723.86 467.2 696.35 452.12 675.29 447.1 660.35 447.98 657.09 448.59 653.9 449.07 650.77Z" fill="#000000" opacity="0.2" stroke-width="4" stroke="none"></path><path d="M550.41 641.67C554.56 624.49 559.58 603.9 560.19 601.39 560.19 601.25 560.4 601.19 560.46 601.25 566.85 605.74 563.59 629.78 568.68 648.12 566.99 652.88 560.46 653.76 557.82 653.15 555.3 652.61 549.05 648.6 550.41 641.67Z" fill="#000000" opacity="0.2" stroke-width="4" stroke="none"></path><path d="M468.36 673.8C476.71 661.1 492.81 658.24 504.29 658.24 511.02 658.24 516.79 659.13 519.64 659.74 520.39 659.87 521 659.13 520.73 658.45 518.08 651.72 517.54 641.47 521.82 633.79 521.88 633.65 522.02 633.65 522.09 633.65 532.48 636.24 541.65 638.89 550.41 641.67 554.62 643.03 558.7 644.45 562.77 645.88 564.68 646.56 566.65 647.31 568.62 648.12 570.93 649.01 573.17 649.96 575.14 650.77L572.69 658.04 567.12 674.75 554.35 713.06C554.22 713.53 553.74 713.74 553.26 713.6 550.96 712.86 547.56 711.5 543.42 709.8 521.61 700.76 479.16 680.93 468.36 673.8 468.36 673.87 468.36 673.87 468.36 673.8Z" fill="#ffffcc" opacity="1" stroke-width="4" stroke="none"></path><path d="M540.43 896.66C541.38 896.66 713.91 896.32 716.9 896.32 716.9 896.32 716.9 896.32 716.9 896.25 716.76 894.83 713.5 857.47 709.7 826.97 705.28 824.59 700.59 823.44 695.84 823.44 677.5 822.42 657.46 845.85 651.08 856.52 650.74 857.06 649.92 857.13 649.51 856.58 644.62 849.52 638.92 845.92 632.46 845.92 621.8 845.24 608.35 858.69 602.31 866.64 601.7 867.38 600.54 866.91 600.68 865.96 602.37 853.46 604.48 818.07 581.32 818.14 570.65 818.14 557.68 826.9 546 842.18 542.67 860.12 540.63 878.46 540.43 896.66Z" fill="#ffffcc" opacity="1" stroke-width="4" stroke="none"></path><path d="M525.48 562.4C543.89 562.4 559.51 549.77 566.31 529.39 566.31 529.32 566.31 529.32 566.31 529.25 565.9 528.98 563.39 527.35 561.96 526.61 557.95 524.5 553.94 522.8 552.99 522.39 552.93 522.33 552.86 522.26 552.99 522.19 557 517.71 558.7 509.15 558.63 508.4 558.63 508.4 558.63 508.33 558.56 508.33 550.68 508.2 543.55 508.06 541.11 507.04 540.77 506.91 540.49 506.64 540.36 506.23 533.97 489.93 538.93 470.77 544.23 455.08 548.99 441.29 556.32 418.81 556.66 418.2 549.05 413.31 538.12 410.39 526.91 410.39 494.24 410.52 486.22 429.61 483.64 457.87 480.72 488.7 454.57 494.34 455.25 515.47 455.39 519.27 456.54 523.14 456.61 523.28 461.84 521.38 466.86 519.95 472.16 518.93 484.05 546.17 504.09 562.4 525.48 562.4Z" fill="#23231f" opacity="1" stroke-width="4" stroke="none"></path><path d="M525.01 542.16C534.38 542.16 551.57 540.33 561.82 526.81 561.89 526.74 561.82 526.67 561.76 526.67 557.82 524.64 553.88 522.94 552.93 522.53 552.79 522.46 552.65 522.53 552.59 522.6 549.05 526.47 540.49 532.31 525.82 533.19 521.34 533.81 513.39 533.87 507.01 534.28 492.74 535.16 511.97 542.64 525.01 542.16Z" fill="#000000" opacity="0.2" stroke-width="4" stroke="none"></path><path d="M456.47 523.28C461.43 521.38 468.83 519.47 472.03 518.93 470.33 514.65 469.11 509.9 468.43 505.41 468.43 505.35 468.36 505.28 468.29 505.28 466.73 505.01 466.05 506.7 465.1 508.81 463.67 511.93 461.97 515.74 457.02 515.74 456.34 515.74 455.93 515.6 455.25 515.47 455.25 515.47 455.18 515.47 455.18 515.53 455.32 519 455.72 520.63 456.47 523.28Z" fill="#000000" opacity="0.2" stroke-width="4" stroke="none"></path><path d="M610.39 928.45L620.65 924.3" stroke="#f8faf6" stroke-width="4" stroke-linecap="round" stroke-linejoin="round" opacity="1" fill="none"></path><path d="M615.89 939.38L625.4 933.54" stroke="#f8faf6" stroke-width="4" stroke-linecap="round" stroke-linejoin="round" opacity="1" fill="none"></path><path d="M710.92 928.45L720.63 924.51" stroke="#f8faf6" stroke-width="4" stroke-linecap="round" stroke-linejoin="round" opacity="1" fill="none"></path><path d="M716.28 939.38L725.59 934.09" stroke="#f8faf6" stroke-width="4" stroke-linecap="round" stroke-linejoin="round" opacity="1" fill="none"></path><path d="M557.34 476.75C558.7 479.47 560.94 480.14 564.61 480.14" stroke="#1e1712" stroke-width="4" stroke-linecap="round" stroke-linejoin="round" opacity="1" fill="none"></path><path d="M550.55 641.26L560.13 601.25" stroke="#000000" stroke-width="4" stroke-linecap="round" stroke-linejoin="round" opacity="1" fill="none"></path><path d="M570.52 761.69L562.91 781.8" stroke="#000000" stroke-width="4" stroke-linecap="round" stroke-linejoin="round" opacity="1" fill="none"></path><path d="M616.98 711.7C615.76 705.79 614.13 698.39 611.82 691.46" stroke="#1e1712" stroke-width="4" stroke-linecap="round" stroke-linejoin="round" opacity="1" fill="none"></path><path d="M600 693.22C603.66 705.99 605.7 719.65 606.65 728.14" stroke="#1e1712" stroke-width="4" stroke-linecap="round" stroke-linejoin="round" opacity="1" fill="none"></path><path d="M586.89 695.26C589.6 705.45 593.41 718.7 594.7 727.73" stroke="#1e1712" stroke-width="4" stroke-linecap="round" stroke-linejoin="round" opacity="1" fill="none"></path><path d="M617.52 683.58C621.39 689.22 624.99 694.99 628.25 700.97 628.25 700.97 629.14 702.26 631.04 706.33" stroke="#1e1712" stroke-width="4" stroke-linecap="round" stroke-linejoin="round" opacity="1" fill="none"></path><path d="M640.96 694.24L645.03 700.29" stroke="#1e1712" stroke-width="4" stroke-linecap="round" stroke-linejoin="round" opacity="1" fill="none"></path><path d="M521.88 633.59C512.65 631.21 506.06 630.05 505.38 629.78L496 596.77" stroke="#000000" stroke-width="4" stroke-linecap="round" stroke-linejoin="round" opacity="1" fill="none"></path><path d="M449.07 650.77C451.51 655.8 454.91 661.03 458.51 665.31 460.82 667.96 464.01 671.22 468.36 673.87" stroke="#000000" stroke-width="4" stroke-linecap="round" stroke-linejoin="round" opacity="1" fill="none"></path><path d="M525.82 533.13C545.66 531.63 552.99 522.12 552.99 522.12" stroke="#000000" stroke-width="4" stroke-linecap="round" stroke-linejoin="round" opacity="1" fill="none"></path><path d="M472.03 518.93C470.6 515.81 468.83 507.99 468.36 505.41" stroke="#000000" stroke-width="4" stroke-linecap="round" stroke-linejoin="round" opacity="1" fill="none"></path><path d="M540.22 506.3C539.54 504.39 538.8 501.81 538.05 498.21" stroke="#000000" stroke-width="4" stroke-linecap="round" stroke-linejoin="round" opacity="1" fill="none"></path></g></svg>