<?xml version="1.0" encoding="utf-8"?>
<!-- Generator: Adobe Illustrator 27.5.0, SVG Export Plug-In . SVG Version: 6.00 Build 0)  -->
<svg version="1.1" xmlns="http://www.w3.org/2000/svg" xmlns:xlink="http://www.w3.org/1999/xlink" x="0px" y="0px"
	 viewBox="0 0 3710 3710" style="enable-background:new 0 0 3710 3710;" xml:space="preserve">
<g id="Background">
	<g>
		<g>
			<rect style="fill:#FFFFFF;" width="3710" height="3710"/>
		</g>
	</g>
</g>
<g id="Illustration">
	<g>
		<path style="fill:#F4F7FA;" d="M3221.442,1650.966c-76.318-499.541-389.224-1113.263-1007.405-1177.489
			c0,0-469.351-57.09-932.029,29.435c-274.599,51.352-515.383,204.217-667.741,423.922
			C461.909,1146.54,411.016,1414.44,472.781,1669.85c40.116,165.891,67.224,337.582,59.784,508.045
			c-12.948,296.675-5.498,573.599,282.418,750.527c257.076,157.978,580.61,297.308,889.266,321.712
			c209.76,16.585,444.993-10.253,647.163-64.864C3381.711,2906.954,3297.76,2150.507,3221.442,1650.966z"/>
		<g>
			<g>
				<path style="fill:#D8DEE8;" d="M1030.443,2841.898c43.783-3.473,99.798-15.64,153.562-50.789
					c58.169-38.029,133.932-116.184,114.157-165.43c-7.383-18.386-28.639-34.129-47.324-32.629
					c-27.604,2.216-30.818,40.559-78.752,82.265c-8.859,7.708-54.66,47.558-77.429,34.13c-11.32-6.676-14.667-25.174-12.821-39.238
					c5.398-41.122,55.606-47.437,103.873-91.953c48.936-45.134,89.728-123.866,66.411-177.095
					c-13.399-30.589-48.843-54.747-72.142-47.957c-9.957,2.902-16.269,11.04-46.501,76.351
					c-24.813,53.605-30.332,69.231-46.329,74.314c-16.466,5.232-42.067-1.333-51.797-17.556
					c-25.341-42.25,84.185-104.633,94.131-222.874c4.457-52.988-9.878-131.522-57.862-148.356c-32.439-11.38-78.653,6-95.359,35.76
					c-15.061,26.827,3.235,47.012-8.254,107.279c-3.486,18.288-10.661,55.922-25.802,57.897
					c-17.776,2.318-37.664-45.668-42.261-57.354c-34.606-87.982,5.075-133.224-27.555-175.935
					c-25.445-33.304-80.811-46.681-124.671-29.859c-38.38,14.72-69.084,53-71.135,92.671
					c-2.087,40.363,31.861,80.544,99.757,160.906c32.198,38.109,57.815,63.857,56.358,101.736
					c-0.71,18.465-8.032,44.438-21.258,46.811c-29.19,5.236-43.559-112.308-112.741-130.46c-35.411-9.292-79.415,8.97-98.752,40.89
					c-23.692,39.109-7.819,94.542,21.945,123.689c38.834,38.031,78.66,9.129,151.731,49.979
					c32.416,18.122,83.359,56.671,75.9,88.549c-3.247,13.88-17.795,27.471-33.761,29.284c-35.788,4.062-47.607-54.588-105.143-80.37
					c-41.452-18.575-98.772-16.566-112.388,6.811c-19.222,33.003,49.048,107.931,85.344,141.04
					C727.449,2764.425,830.931,2840.323,1030.443,2841.898z"/>
				<path style="opacity:0.5;fill:#FFFFFF;" d="M1010.782,2823.098c5.786-98.095-59.188-297.904-106.461-392.364
					c-46.258-92.429-90.507-238.652-90.947-240.119l-2.881,0.868c0.443,1.469,44.767,147.939,91.138,240.597
					c47.126,94.166,111.906,293.236,106.15,390.839L1010.782,2823.098z"/>
			</g>
			<path style="fill:#97A6B7;" d="M1133.642,2854.689c32.968-45.772,81.33-128.359,90.002-238.851
				c3.574-45.529,10.553-134.453-43.847-211.158c-27.114-38.231-84.613-94.774-123.464-78.463
				c-24.999,10.495-40.517,50.415-33.462,80.771c7.114,30.608,32.983,33.444,61.155,85.387
				c10.425,19.221,22.334,41.783,13.185,54.529c-7.641,10.645-28.633,12.582-44.372,6.198
				c-32.512-13.187-22.353-53.665-57.501-82.698c-24.993-20.645-66.655-30.349-84.634-13.44
				c-15.611,14.682-12.891,48.98,0.903,71.844c22.088,36.61,61.695,25.87,87.516,65.894c11.455,17.756,19.599,44.576,9.573,55.18
				c-11.424,12.083-45.044,1.634-66.592-11.723c-28.448-17.635-29.499-36.399-48.234-38.751
				c-20.898-2.624-47.024,17.278-51.11,39.295c-5.723,30.837,32.11,64.095,62.069,78.545c38.353,18.498,66.851,7.641,85.582,32.915
				c6.875,9.275,13.173,24.414,7.535,33.602c-8.043,13.107-37.113,8.78-56.414,5.907c-46.975-6.992-59.909-24.028-76.74-15.751
				c-17.042,8.38-25.832,36.684-18.462,56.54c4.096,11.035,16.4,28.127,77.37,38.829
				C966.375,2876.778,1038.074,2882.048,1133.642,2854.689z"/>
		</g>
		<g>
			<defs>
				<circle id="SVGID_1_" cx="2416.938" cy="1314.014" r="606.396"/>
			</defs>
			<clipPath id="SVGID_00000133492250761103083810000003409539455621798823_">
				<use xlink:href="#SVGID_1_"  style="overflow:visible;"/>
			</clipPath>
			<g style="clip-path:url(#SVGID_00000133492250761103083810000003409539455621798823_);">
				
					<linearGradient id="SVGID_00000034064262603822916910000006164675802180763543_" gradientUnits="userSpaceOnUse" x1="2579.3359" y1="1702.9933" x2="2146.7212" y2="664.7194">
					<stop  offset="0.0036" style="stop-color:#E38DDD"/>
					<stop  offset="1" style="stop-color:#9571F6"/>
				</linearGradient>
				<path style="fill:url(#SVGID_00000034064262603822916910000006164675802180763543_);" d="M3030.759,1314.531
					c0,129.944-40.811,250.486-110.007,349.708c-0.273,0.408-1.248,0.799-1.248,1.207v0.017
					c-108.574,159.085-294.617,262.153-503.313,262.153c-17.069,0-33.418-0.798-50.131-3.107c-0.017,0-0.017,0-0.017,0
					c-0.068,0-0.102,1.016-0.17,1.016c-8.228-0.68-16.389-0.996-24.516-2c-2.89-0.34-5.78-0.456-8.653-0.864
					c-2.551-0.34-5.084-0.568-7.616-0.959c-2.211-0.323-4.404-0.599-6.58-0.956c-0.494-0.085-0.987-0.138-1.479-0.206
					c-5.356-0.884-10.695-1.803-16.016-2.823c-0.034,0-0.051-0.009-0.085-0.009c-283.74-54.201-498.132-303.646-498.132-603.182
					c0-63.331,9.201-124.433,27.019-181.916c2.788-9.011,6.261-17.917,8.572-26.741v-0.017c6.93-14.706,11.575-29.141,17.951-43.303
					c2.567-5.662,5.405-11.289,8.109-16.866c14.944-30.637,32.456-59.846,52.092-87.372c1.785-2.499,3.638-4.981,5.458-7.464
					c7.276-9.895,14.868-19.552,22.74-28.988c11.782-14.145,24.189-27.764,37.178-40.787
					c33.816-33.935,71.583-63.944,112.541-89.259c12.667-7.838,25.659-15.233,38.92-22.136
					c32.116-16.763,65.883-30.756,101.026-41.671c57.67-17.937,118.979-27.594,182.548-27.594
					c146.198,0,280.46,51.073,385.905,136.354c77.562,62.736,140.642,143.953,180.324,236.97
					c8.875,20.776,14.872,42.13,24.113,63.994v0.017c0,0.102-1.058,0.17-1.024,0.272
					C3023.027,1193.921,3030.759,1253.172,3030.759,1314.531z"/>
				<g>
					<path style="fill:#FFFFFF;" d="M2366.043,1926.574v-0.016h0.051l-0.034,0.016
						C2366.043,1926.574,2366.043,1926.574,2366.043,1926.574z"/>
					<path style="fill:#FFFFFF;" d="M2550.732,1521.577c-13.176,18.566-53.946,42.402-26.284,89.225
						c27.424,46.704-1.904,55.46-20.776,51.09c-18.957-4.319-77.885-6.732-68.058,20.045c9.793,26.811,26.675,36.859,5.084,47.213
						c-21.575,10.303-30.705,37.217-52.791,74.264c-21.932,37.115-74.059,5.016-58.622,42.215
						c15.404,37.217,27.424,33.612,25.979,59.54c-0.341,7.124,4.386,14.435,10.779,21.389c-8.229-0.68-16.492-1.513-24.687-2.516
						c-2.89-0.34-5.78-0.714-8.653-1.122c-2.551-0.34-5.084-0.697-7.616-1.088c-2.211-0.323-4.404-0.663-6.58-1.02
						c-0.494-0.085-0.366-0.17-0.859-0.238c-5.27-0.884-8.006-1.837-14.936-2.839v-0.017c-4.621-4.386-1.726-9.147-1.029-14.281
						c6.885-47.877-59.169-80.775-70.238-114.32c-10.881-33.459-0.138-53.419-2.654-81.149c-2.584-27.679,6.468-64.385-9.462-87.712
						c-15.931-23.241-80.151-31.028-92.375-77.936c-12.309-46.806,16.319-116.904,27.438-128.839
						c10.984-11.935-53.174-66.238-83.708-67.973c-30.671-1.87-18.401-63.621-70.256-54.218
						c-51.957,9.113-145.299-19.875-126.018-51.056c15.913-25.689,42.624-82.356-44.577-107.621
						c2.788-9.011,6.243-17.919,8.553-26.743v-0.017c6.93-14.706,11.575-29.141,17.951-43.303
						c2.567-5.662,5.405-11.289,8.109-16.866c14.962-30.637,32.472-59.846,52.092-87.372c1.785-2.499,3.638-4.981,5.458-7.464
						c7.294-9.895,14.885-19.569,22.74-28.988c11.782-14.145,24.189-27.764,37.178-40.787
						c33.816-33.935,71.583-63.944,112.541-89.259c17.274,12.105,36.999,19.569,54.034,10.371
						c41.774-23.377,14.232-26.965-2.871-27.832c-4.455-0.221-8.773-1.989-12.241-4.675c32.116-16.763,65.882-30.756,101.024-41.671
						c-2.601,23.581-34.649,61.461-11.068,56.836c27.44-5.219,38.645-79.364,58.792-54.729
						c20.436,24.738-22.358,57.16,17.834,38.373c40.243-18.6,45.615-60.118,90.466-39.92c45.072,20.453,40.958,44.663,53.539,42.266
						c12.531-2.364,53.062,24.873,28.546,47.282c-24.738,22.476-47.418-6.155-84.499-14.792
						c-37.097-8.535-36.196,21.813-53.266,28.75c-17.359,6.698-101.093-33.766-121.647,2.805
						c-20.776,36.281-29.617,61.597,1.224,60.662c30.806-0.867,32.796-8.841,30.382,13.942c-2.465,22.799,3.145,39.869,31.062,18.43
						c27.832-21.405,21.593-42.283,43.355-32.082c21.779,10.235,24.346,0.969,47.503-15.846
						c23.139-16.814,53.59-18.566,61.564,19.161c7.99,37.744-5.662,46.211-46.364,48.115c-40.719,1.972-45.326-10.864-58.299,23.173
						c-12.904,34.055-66.765,77.783-114.047,95.805c-47.198,18.056-65.695,44.731-64.606,80.724
						c1.122,36.06-16.628,74.093-28.478,44.375c-11.901-29.805-45.259-79.993-79.296-46.449
						c-34.105,33.612-93.458,93.033-27.866,103.897c65.457,11.068,31.3-50.257,64.386-37.999
						c33.034,12.343-20.93,39.376,1.156,49.135c22.119,9.844,31.385,5.237,31.215,35.381c-0.171,30.127,7.328,59.387,34.174,46.601
						c26.828-12.734,61.29-71.798,100.105-36.859c38.865,35.024,36.112,30.467,56.496,20.266
						c20.368-10.184,33.341,20.351,41.688,34.259c8.347,13.891,41.093-0.289,67.634,41.093
						c26.521,41.382,36.927,48.761,67.173,33.867c30.262-14.877,42.573-3.825,50.46,17.07c7.855,20.895,26.489,0.476,35.466,28.087
						C2568.108,1507.279,2563.824,1502.994,2550.732,1521.577z"/>
					<g>
						<path style="fill:#FFFFFF;" d="M2654.307,1020.214c-21.439-46.006,84.787-40.839,103.557-37.302
							c18.889,3.145,63.195-31.487,68.823-47.588c5.78-16.22,15.267-8.518,48.88-8.977c33.596-0.357,3.909-7.957-33.069-20.147
							c-36.911-12.156-5.355-13.38-39.375-40.243c-14.638-11.765-10.031-21.762-0.273-29.192
							c77.562,62.736,139.533,143.953,179.215,236.97c-1.122-0.34-2.176-0.527-3.162-0.544
							c-23.531-0.136-28.716-52.161-40.838-62.294c-11.953-10.116,0.339,28.58,3.264,44.476c2.941,15.913-6.444,2.533-18.175,17.138
							c-11.782,14.621-33.052,14.893-34.973-7.039c-1.955-21.882-17.375-43.371-48.676-53.368
							c-31.301-9.997-58.384-1.785-83.818,8.025C2730.39,1029.769,2675.899,1065.864,2654.307,1020.214z"/>
						<path style="fill:#FFFFFF;" d="M2920.996,1665.445c2.125-15.794,5.594-32.116-1.004-38.084
							c-16.032-14.876-19.534-55.408-13.975-75.947c5.542-20.589,48.744-19.416,19.432-53.606
							c-29.396-34.293-55.884-74.995-43.542-98.27c12.344-23.241,8.603-24.941-14.536-24.806
							c-23.174,0.136-33.323,1.156-56.394-19.449c-23.089-20.878-54.848,49.271-141.744-6.988
							c-86.879-56.82-37.403-152.59-4.846-152.828c32.762-0.544,71.034-17.087,44.188-57.041
							c-26.761-40.107,15.063-45.768,35.499-36.655c20.47,9.011,56.768-15.2,93.764-26.115
							c37.081-10.864,35.449,49.543,56.038,61.631c20.708,12.106,59.506,2.499,79.67-16.849
							c14.401-13.805,17.546,2.296,31.777,17.58c16.763,55.902,25.757,115.153,25.757,176.512
							C3031.082,1445.001,2990.396,1565.985,2920.996,1665.445z"/>
						<path style="fill:#FFFFFF;" d="M2765.575,943.639c0.021-0.037,27.093-12.259,17.281-31.95
							c-9.724-19.695-25.146-80.057-36.414-61.036c-11.339,19.107,5.377,56.207,1.727,72.215
							C2744.485,938.925,2744.387,947.329,2765.575,943.639z"/>
						<path style="fill:#FFFFFF;" d="M2738.542,925.213c-0.382-6.346,3.614-32.117-16.666-31.309
							c0.038-0.041-29.333,12.215-12.151,33.037C2726.985,947.7,2738.981,931.542,2738.542,925.213z"/>
					</g>
				</g>
			</g>
			
				<linearGradient id="SVGID_00000137816063191999332400000008748977422457973129_" gradientUnits="userSpaceOnUse" x1="1804.7489" y1="1314.0138" x2="3029.1262" y2="1314.0138">
				<stop  offset="0.0036" style="stop-color:#E38DDD"/>
				<stop  offset="1" style="stop-color:#9571F6"/>
			</linearGradient>
			
				<path style="opacity:0.3;clip-path:url(#SVGID_00000133492250761103083810000003409539455621798823_);fill:url(#SVGID_00000137816063191999332400000008748977422457973129_);" d="
				M3029.126,1313.456c0,129.944-39.994,250.486-109.19,349.708c-0.273,0.408-0.432,0.799-0.432,1.207v0.017
				c-110.885,159.085-295.433,261.668-504.129,261.668c-17.069,0-34.235-1.3-50.947-3.61c-0.017,0-0.017,0-0.017,0
				c-0.068,0-0.102,1.519-0.171,1.519c-8.228-0.68-16.389-0.762-24.516-1.765c-2.891-0.34-5.78-0.33-8.654-0.738
				c-2.55-0.34-5.084-0.505-7.617-0.896c-2.21-0.323-4.404-0.558-6.58-0.915c-0.493-0.085-0.987-0.126-1.479-0.194
				c-5.356-0.884-10.694-1.797-16.016-2.818c-0.034,0-0.05-0.006-0.085-0.006c-262.387-50.121-465.455-267.354-494.546-536.61
				c61.53,176.495,213.678,309.106,400.73,346.067h0.068c4.591,2.31,9.198,1.844,13.822,2.609c0.425,0.051,0.867,0.2,1.292,0.268
				c1.87,0.306,3.774,0.618,5.678,0.89c2.176,0.34,4.369,0.615,6.58,0.904c2.482,0.357,4.964,0.571,7.464,0.86
				c7.021,0.867,14.06,2.467,21.166,3.044c0.069,0,0.102,0.664,0.153,0.664c0,0,0,0,0.018,0c14.434,0,28.818,1.16,43.558,1.16
				c90.109,0,175.032-22.908,249.33-62.437c74.297-39.529,137.968-96.521,185.573-165.208c0-0.357,0.578-0.835,0.798-1.192
				c59.761-85.672,94.734-189.842,94.734-302.053c0-52.978-7.778-104.187-22.263-152.455c-0.017-0.085-0.212-0.187-0.212-0.272
				v-0.017c-4.62-18.871-12.063-37.319-19.714-55.255c-34.276-80.333-87.648-150.465-154.635-204.632
				c-49.033-39.665-105.269-70.744-166.458-90.993c123.942,11.409,237.227,59.676,328.782,133.719
				c77.562,62.736,140.304,143.954,179.987,236.97c8.875,20.777,14.534,42.13,23.775,63.995v0.017c0,0.102-0.719,0.17-0.686,0.272
				C3021.056,1192.845,3029.126,1252.097,3029.126,1313.456z"/>
		</g>
		<g>
			
				<linearGradient id="SVGID_00000138544054223415334550000000432600218377684411_" gradientUnits="userSpaceOnUse" x1="929.8832" y1="2079.7678" x2="2824.0996" y2="2079.7678" gradientTransform="matrix(-1 0 0 1 3853.3042 0)">
				<stop  offset="0" style="stop-color:#D8DEE8"/>
				<stop  offset="1" style="stop-color:#FFFFFF"/>
			</linearGradient>
			<polygon style="fill:url(#SVGID_00000138544054223415334550000000432600218377684411_);" points="1031.575,1885.383 
				1029.205,2515.618 2613.159,2542.443 2923.421,1617.093 1396.533,1682.831 1402.47,1709.548 			"/>
			
				<linearGradient id="SVGID_00000053531454566290464710000009762320627457913482_" gradientUnits="userSpaceOnUse" x1="929.8832" y1="1751.2379" x2="2821.7292" y2="1751.2379" gradientTransform="matrix(-1 0 0 1 3853.3042 0)">
				<stop  offset="0" style="stop-color:#FFC444"/>
				<stop  offset="0.9964" style="stop-color:#F36F56"/>
			</linearGradient>
			<polygon style="fill:url(#SVGID_00000053531454566290464710000009762320627457913482_);" points="1031.575,1885.383 
				1399.501,1669.967 2923.421,1617.093 2584.817,1835.047 			"/>
			
				<linearGradient id="SVGID_00000067227721266623033530000002725239016499764657_" gradientUnits="userSpaceOnUse" x1="2041.1877" y1="1972.094" x2="2036.5182" y2="2129.2954" gradientTransform="matrix(-1 0 0 1 3853.3042 0)">
				<stop  offset="0" style="stop-color:#D8DEE8"/>
				<stop  offset="1" style="stop-color:#FFFFFF"/>
			</linearGradient>
			<polygon style="fill:url(#SVGID_00000067227721266623033530000002725239016499764657_);" points="1005.924,1938.067 
				2612.744,1871.83 2612.744,1818.772 1005.636,1885.92 			"/>
			<g>
				
					<linearGradient id="SVGID_00000023242974102965177880000009401667152738727607_" gradientUnits="userSpaceOnUse" x1="650.3033" y1="2079.7678" x2="1240.1454" y2="2079.7678" gradientTransform="matrix(-1 0 0 1 3853.3042 0)">
					<stop  offset="0" style="stop-color:#D8DEE8"/>
					<stop  offset="1" style="stop-color:#FFFFFF"/>
				</linearGradient>
				<polygon style="fill:url(#SVGID_00000023242974102965177880000009401667152738727607_);" points="2923.421,1617.093 
					3198.218,1883.7 3203.001,2470.983 2613.159,2542.443 2613.198,1818.772 				"/>
				
					<linearGradient id="SVGID_00000044136869893381545340000011384179741192669586_" gradientUnits="userSpaceOnUse" x1="917.5377" y1="2459.655" x2="945.5818" y2="1877.7377" gradientTransform="matrix(-1 0 0 1 3853.3042 0)">
					<stop  offset="0" style="stop-color:#D8DEE8"/>
					<stop  offset="1" style="stop-color:#FFFFFF"/>
				</linearGradient>
				<polygon style="fill:url(#SVGID_00000044136869893381545340000011384179741192669586_);" points="2612.744,1878.55 
					2924.98,1659.577 3203.32,1922.698 3203.061,1884.416 2923.688,1617.195 2612.744,1818.772 				"/>
				<g>
					<g>
						<polygon style="fill:#FFFFFF;" points="3150.552,2371.186 3147.184,1917.569 3006.327,1904.256 3008.938,2382.974 						"/>
						
							<linearGradient id="SVGID_00000085223947545937830960000008811109885469558967_" gradientUnits="userSpaceOnUse" x1="790.6157" y1="1873.4387" x2="744.4314" y2="2700.5686" gradientTransform="matrix(-1 0 0 1 3853.3042 0)">
							<stop  offset="0.0036" style="stop-color:#E38DDD"/>
							<stop  offset="1" style="stop-color:#9571F6"/>
						</linearGradient>
						<polygon style="fill:url(#SVGID_00000085223947545937830960000008811109885469558967_);" points="3018.56,2363.994 
							3140.625,2355.77 3137.545,1933.212 3016.09,1922.062 						"/>
						<polygon style="fill:#FFFFFF;" points="3084.462,2376.274 3081.436,1911.206 3069.294,1909.999 3072.253,2377.125 						"/>
						<g>
							<polygon style="fill:#FFFFFF;" points="3008.136,2235.95 3149.518,2231.905 3149.396,2215.416 3008.041,2218.546 							"/>
							<polygon style="fill:#FFFFFF;" points="3007.202,2064.769 3148.314,2069.701 3148.192,2053.286 3007.108,2047.448 							"/>
						</g>
					</g>
					<g>
						<polygon style="fill:#FFFFFF;" points="2899.963,2391.133 2898.005,1893.69 2724.051,1876.83 2724.843,2404.543 						"/>
						
							<linearGradient id="SVGID_00000021104426467612334160000006250615351710689713_" gradientUnits="userSpaceOnUse" x1="1056.4742" y1="1843.6687" x2="1005.5888" y2="2754.9917" gradientTransform="matrix(-1 0 0 1 3853.3042 0)">
							<stop  offset="0.0036" style="stop-color:#E38DDD"/>
							<stop  offset="1" style="stop-color:#9571F6"/>
						</linearGradient>
						<polygon style="fill:url(#SVGID_00000021104426467612334160000006250615351710689713_);" points="2741.514,2384.532 
							2887.836,2374.287 2886.089,1910.709 2740.67,1897.51 						"/>
						<polygon style="fill:#FFFFFF;" points="2822.948,2397.261 2821.484,1886.356 2807.183,1884.972 2808.551,2398.367 						"/>
						<g>
							<polygon style="fill:#FFFFFF;" points="2724.599,2242.395 2899.361,2238.331 2899.29,2220.245 2724.571,2223.206 							"/>
							<polygon style="fill:#FFFFFF;" points="2724.316,2053.69 2898.661,2060.452 2898.59,2042.456 2724.288,2034.601 							"/>
						</g>
					</g>
				</g>
			</g>
			<g>
				<polygon style="fill:#FFFFFF;" points="1801.25,2058.862 1798.974,2525.258 2325.324,2531.849 2330.328,2048.532 				"/>
				<polygon style="fill:#97A6B7;" points="1813.053,2074.35 1810.797,2525.406 2310.119,2531.658 2314.876,2065.093 				"/>
				<polygon style="fill:#D8DEE8;" points="1779.752,2093.253 2350.385,2083.446 2351.045,2020.952 1780.032,2033.128 				"/>
				<polygon style="fill:#FFFFFF;" points="1786.621,2142.768 2342.18,2135.115 2342.72,2083.577 1786.856,2093.131 				"/>
				<g style="opacity:0.5;">
					<polygon style="fill:#D8DEE8;" points="1786.782,2108.811 2342.55,2099.858 2342.635,2091.719 1786.819,2100.972 					"/>
					<polygon style="fill:#D8DEE8;" points="1786.695,2127.098 2342.351,2118.846 2342.436,2110.71 1786.732,2119.262 					"/>
				</g>
			</g>
			<g>
				<polygon style="fill:#FFFFFF;" points="1128.613,2071.995 1129.538,2516.875 1607.78,2522.864 1609.11,2062.614 				"/>
				<polygon style="fill:#97A6B7;" points="1139.451,2086.775 1140.298,2517.01 1596.284,2522.719 1597.516,2078.325 				"/>
				<polygon style="fill:#D8DEE8;" points="1109.273,2104.777 1629.846,2095.83 1630.031,2036.327 1109.142,2047.434 				"/>
				<polygon style="fill:#FFFFFF;" points="1117.995,2151.977 1620.432,2145.057 1620.58,2095.989 1117.891,2104.629 				"/>
				<g style="opacity:0.5;">
					<polygon style="fill:#D8DEE8;" points="1119.538,2119.452 1621.285,2111.425 1621.683,2103.645 1119.519,2111.975 					"/>
					<polygon style="fill:#D8DEE8;" points="1119.583,2136.894 1621.234,2129.502 1621.633,2121.723 1119.564,2129.42 					"/>
				</g>
			</g>
		</g>
		<g>
			
				<linearGradient id="SVGID_00000126293901360218896080000000382163905471216036_" gradientUnits="userSpaceOnUse" x1="81.2192" y1="2056.2319" x2="2635.2769" y2="2056.2319" gradientTransform="matrix(1 0 -0.2009 1.0457 646.8453 -147.4554)">
				<stop  offset="0" style="stop-color:#AA80F9"/>
				<stop  offset="0.9964" style="stop-color:#6165D7"/>
			</linearGradient>
			<path style="fill:url(#SVGID_00000126293901360218896080000000382163905471216036_);" d="M1956.012,1035.536L474.773,1170.947
				c89.491,55.284,227.985,166.093,311.35,390.588c164.13,441.988-18.224,853.669,179.035,1150.956
				c52.484,79.1,165.653,222.352,340.488,257.466l1414.613-192.867c-463.218-134.298-588.857-388.215-613.02-604.698
				c-24.247-217.254,44.743-477.109-37.9-826.779C2035.543,1202.618,1989.419,1099.736,1956.012,1035.536z"/>
			<path style="fill:#FFFFFF;" d="M657.882,794.473c434.966-27.311,869.933-54.622,1304.899-81.933
				c58.558,49.619,140.81,137.831,194.402,290.415c123.342,351.169-20.33,698.484,21.185,1039.82
				c26.475,217.673,135.682,490.376,526.858,672.654c-467.075,61.122-934.149,122.242-1401.225,183.364
				c-96.506-36.968-225.136-113.81-299.566-292.602c-78.91-189.556-23.661-317.786-50.846-913.63
				c-19.133-419.341-56.764-584.732-135.149-717.322C764.168,883.436,702.998,827.828,657.882,794.473z"/>
			<g>
				<path style="fill:#D8DEE8;" d="M2083.745,2010.679c0.277,3.437,0.569,6.875,0.878,10.314c0.292,3.237-2.044,6.113-5.275,6.468
					l-1020.277,112.06c-3.554,0.39-6.649-2.385-6.616-5.96c0.032-3.46,0.062-6.951,0.09-10.473c0.024-3.024,2.307-5.578,5.313-5.908
					l1019.301-111.953C2080.502,2004.859,2083.475,2007.326,2083.745,2010.679z"/>
				<path style="fill:#D8DEE8;" d="M2079.664,1900.86c-0.011,3.473-0.011,6.946,0.001,10.421c0.011,3.059-2.282,5.631-5.323,5.955
					L1059.387,2025.33c-3.516,0.375-6.582-2.351-6.596-5.887c-0.014-3.46-0.031-6.947-0.049-10.455
					c-0.017-3.063,2.287-5.659,5.333-5.983l1015.002-108.1C2076.61,1894.529,2079.676,1897.306,2079.664,1900.86z"/>
				<path style="fill:#D8DEE8;" d="M2098.321,2119.376c0.645,3.401,1.307,6.793,1.985,10.176c0.688,3.43-1.688,6.707-5.164,7.1
					l-1037.448,117.31c-3.567,0.403-6.681-2.407-6.636-5.997c0.042-3.454,0.086-6.943,0.132-10.477
					c0.039-3.006,2.309-5.529,5.296-5.867l1035.318-117.07C2094.906,2114.2,2097.74,2116.309,2098.321,2119.376z"/>
				<path style="fill:#D8DEE8;" d="M1928.638,2693.215l470.464-60.256c2.021-0.259,4.055,0.535,5.376,2.165
					c2.526,3.116,5.652,5.57,9.176,7.486c5.414,2.943,3.688,10.534-1.925,11.253l-461.702,59.134
					C1942.894,2706.406,1935.763,2699.815,1928.638,2693.215z"/>
				<path style="fill:#D8DEE8;" d="M1280.821,2776.188l531.383-68.06c6.884,6.664,13.816,13.277,20.782,19.859l-534.383,68.444
					c-1.173,0.15-2.375-0.048-3.437-0.571c-5.593-2.748-11.087-5.593-16.487-8.529
					C1273.615,2784.578,1275.104,2776.919,1280.821,2776.188z"/>
				<path style="fill:#D8DEE8;" d="M2083.488,1790.263c-0.218,3.507-0.428,7.016-0.63,10.526c-0.168,2.917-2.418,5.281-5.325,5.581
					l-1019.455,105.082c-3.474,0.358-6.509-2.314-6.575-5.806c-0.065-3.457-0.133-6.934-0.204-10.431
					c-0.063-3.104,2.263-5.754,5.351-6.073l1020.292-105.168C2080.604,1783.598,2083.716,1786.589,2083.488,1790.263z"/>
				<path style="fill:#D8DEE8;" d="M2224.419,2435.735c2.116,3.218,4.259,6.422,6.424,9.613c2.511,3.702,0.252,8.74-4.188,9.283
					l-1124.441,137.529c-2.575,0.315-5.071-1.058-6.154-3.416c-1.52-3.31-3.013-6.65-4.479-10.024
					c-1.596-3.674,0.756-7.853,4.732-8.339l1122.426-137.283C2220.983,2432.822,2223.177,2433.846,2224.419,2435.735z"/>
				<path style="fill:#D8DEE8;" d="M2166.545,2332.256c1.545,3.292,3.109,6.573,4.694,9.842c1.792,3.696-0.559,8.049-4.638,8.536
					l-1099.37,131.165c-3.132,0.374-6.037-1.746-6.587-4.853c-0.612-3.458-1.188-6.942-1.732-10.456
					c-0.515-3.326,1.858-6.418,5.201-6.817l1096.345-130.806C2163.008,2328.563,2165.454,2329.931,2166.545,2332.256z"/>
				<path style="fill:#D8DEE8;" d="M2125.296,2226.673c1.062,3.351,2.144,6.691,3.244,10.021c1.187,3.593-1.199,7.364-4.958,7.8
					l-1065.956,123.902c-3.488,0.406-6.579-2.268-6.655-5.779c-0.075-3.455-0.138-6.956-0.192-10.501
					c-0.047-3.061,2.239-5.673,5.28-6.027l1062.879-123.544C2121.774,2222.216,2124.433,2223.951,2125.296,2226.673z"/>
				<path style="fill:#D8DEE8;" d="M2092.38,1679.296c-0.33,3.515-0.658,7.033-0.982,10.553c-0.262,2.844-2.5,5.106-5.342,5.389
					l-1030.963,102.642c-3.433,0.342-6.438-2.278-6.552-5.726c-0.115-3.453-0.232-6.92-0.352-10.408
					c-0.109-3.144,2.239-5.848,5.369-6.159l1032.3-102.775C2089.591,1672.441,2092.73,1675.56,2092.38,1679.296z"/>
				<path style="fill:#D8DEE8;" d="M2061.613,1018.984c2.653-0.202,5.126,1.37,6.052,3.864c1.26,3.394,2.501,6.804,3.71,10.246
					c0.009,0.024,0.017,0.049,0.026,0.073c1.29,3.679-1.309,7.574-5.196,7.87l-1083.799,82.556c-2.839,0.216-5.428-1.626-6.19-4.369
					c-0.949-3.411-1.908-6.794-2.88-10.149c-1.054-3.64,1.486-7.309,5.266-7.596L2061.613,1018.984z"/>
				<path style="fill:#D8DEE8;" d="M2098.266,1129.911c0.719,3.449,1.413,6.9,2.085,10.351c0.68,3.491-1.851,6.797-5.397,7.082
					l-1087.379,87.385c-3.054,0.245-5.792-1.886-6.341-4.901c-0.627-3.439-1.26-6.852-1.901-10.239
					c-0.659-3.486,1.841-6.754,5.378-7.038l1087.214-87.372C2094.923,1124.94,2097.653,1126.967,2098.266,1129.911z"/>
				<path style="fill:#D8DEE8;" d="M2015.378,930.4l-1072.182,81.508c-2.526,0.192-4.889-1.251-5.901-3.573
					c-12.186-27.962-25.653-54.159-40.563-79.38c-7.514-12.709-15.333-25.08-23.431-37.135c-2.572-3.828-0.073-9,4.528-9.31
					l1055.089-71.103c1.742-0.117,3.455,0.525,4.681,1.767c31.441,31.861,58.991,68.031,82.508,108.294
					C2022.32,925.258,2019.755,930.067,2015.378,930.4z"/>
				<path style="fill:#D8DEE8;" d="M2103.235,1568.287c-0.34,3.516-0.683,7.034-1.028,10.556c-0.278,2.841-2.531,5.097-5.374,5.37
					l-1046.305,100.379c-3.394,0.325-6.369-2.27-6.528-5.675c-0.163-3.482-0.328-6.948-0.493-10.398
					c-0.153-3.181,2.219-5.908,5.389-6.213l1047.823-100.525C2100.456,1561.422,2103.596,1564.551,2103.235,1568.287z"/>
				<path style="fill:#D8DEE8;" d="M2112.738,1457.585c-0.245,3.504-0.497,7.011-0.756,10.521c-0.215,2.913-2.512,5.255-5.42,5.523
					l-1062.176,97.946c-3.35,0.309-6.291-2.227-6.501-5.584c-0.217-3.478-0.437-6.937-0.659-10.379
					c-0.208-3.224,2.188-6.012,5.405-6.309l1063.587-98.076C2109.884,1450.889,2112.994,1453.911,2112.738,1457.585z"/>
				<path style="fill:#D8DEE8;" d="M2117.441,1347.444c-0.037,3.499-0.087,7.001-0.148,10.505c-0.054,3.052-2.41,5.572-5.45,5.841
					l-1075.787,95.077c-3.287,0.291-6.182-2.161-6.467-5.448c-0.3-3.469-0.603-6.917-0.91-10.345
					c-0.293-3.285,2.13-6.167,5.415-6.458l1076.845-95.172C2114.45,1341.134,2117.478,1343.918,2117.441,1347.444z"/>
				<path style="fill:#D8DEE8;" d="M2113.781,1238.154c0.286,3.477,0.552,6.957,0.803,10.437c0.234,3.257-2.209,6.098-5.463,6.373
					l-1084.711,91.585c-3.194,0.27-6.026-2.055-6.419-5.236c-0.427-3.458-0.86-6.889-1.296-10.299
					c-0.432-3.369,2.028-6.401,5.412-6.686l1085.211-91.626C2110.603,1232.424,2113.51,1234.866,2113.781,1238.154z"/>
			</g>
			<path style="fill:#FC79AB;" d="M1806.985,2767.05l-188.392-116.683c-62.615-39.134-125.419-78.088-186.801-118.866
				c-15.233-10.248-30.66-20.569-44.809-31.6c-1.731-1.381-3.44-2.781-4.971-4.164c-0.759-0.686-1.482-1.379-2.038-1.977
				c-0.25-0.276-0.495-0.566-0.55-0.655c-0.096-0.112,0.078,0.078,0.081,0.154c0.126,0.214,0.224,0.449,0.29,0.689
				c0.095,0.252,0.34,1.264,0.263,1.879c0.072,1.097-0.564,2.802-1.251,3.666c-0.877,1.142-1.806,1.644-2.08,1.793
				c-0.622,0.296-0.926,0.366-1.013,0.404c-0.164,0.053-0.446,0.079-0.402,0.086c-0.078,0.02-0.135,0.006,0.008,0.015
				c0.059-0.005,0.203,0.001,0.38,0.017c0.668,0.049,1.594,0.167,2.558,0.357c1.923,0.354,4.011,0.893,6.077,1.479
				c8.333,2.411,16.707,5.752,24.8,9.488c16.186,7.542,31.623,16.93,44.915,28.408c13.212,11.43,24.354,25.33,29.291,41.08
				c5.218,15.761,2.865,32.484-4.728,47.735c-7.518,15.383-19.022,29.369-30.481,43.98c-5.74,7.325-11.534,14.881-16.702,23.304
				c-5.145,8.345-9.771,17.871-11.507,28.812c-0.915,5.449-0.706,11.193,0.199,16.734c0.598,2.744,1.183,5.503,2.224,8.068
				c0.844,2.669,2.069,5.103,3.314,7.531c5.064,9.689,12.423,17.285,20.214,23.67c15.789,12.67,33.822,20.764,52.187,26.578
				c18.41,5.823,37.4,9.181,56.496,10.611c38.143,2.789,77.211-2.346,113.048-17.422c17.914-7.623,34.498-17.83,49.655-29.621
				c15.158-11.825,29.009-25.261,41.094-40.417c6.016-7.604,11.641-15.601,16.412-24.357c4.74-8.751,8.933-18.122,10.731-29.113
				c0.848-5.476,1.072-11.491-0.53-17.799c-0.438-1.574-0.838-3.14-1.58-4.684l-1.033-2.306c-0.41-0.796-0.991-1.671-1.51-2.482
				c-2.178-3.26-5.337-6.072-8.525-7.733c-6.502-3.545-12.458-4.063-17.841-4.383c-5.417-0.234-10.471,0.174-15.356,0.759
				c-19.474,2.423-37.326,7.275-55.294,11.892c-17.863,4.866-35.601,9.748-53.436,14.25c-17.819,4.55-35.728,8.654-53.765,12.288
				c-18.065,3.426-36.229,6.406-54.493,8.637c-36.522,4.441-73.297,6.9-110.071,7.14c-36.767,0.333-73.548-1.523-110.003-5.904
				l-0.02-0.003c-5.259-0.631-10.035,3.12-10.667,8.378c-0.631,5.259,3.119,10.033,8.378,10.666
				c0.371,0.045,0.748,0.067,1.112,0.069c37.278,0.121,74.431-0.232,111.51-2.032c18.53-1,37.055-1.941,55.526-3.64
				c9.244-0.703,18.47-1.628,27.703-2.467c9.21-1.047,18.443-1.914,27.631-3.143c36.792-4.48,73.613-9.362,110.196-15.933
				c18.276-3.272,36.476-6.937,54.568-10.529c9.034-1.835,18.012-3.779,26.952-5.458c8.919-1.666,17.793-3.402,26.375-4.27
				c4.285-0.472,8.477-0.643,12.289-0.514c3.769,0.126,7.277,0.812,8.886,1.823c2.348,0.471,4.463,7.088,3.113,14.296
				c-1.128,7.291-4.396,15.144-8.453,22.566c-4.043,7.482-9.058,14.67-14.483,21.55c-10.912,13.754-23.722,26.258-37.663,37.167
				c-13.963,10.906-29.093,20.227-45.173,27.105c-32.339,13.729-68.509,18.544-103.939,16.352
				c-17.728-1.167-35.388-4.145-52.246-9.323c-16.814-5.112-33.096-12.455-46.253-22.868c-13.181-10.28-22.268-24.503-19.809-39.114
				c1.085-7.364,4.425-14.946,8.9-22.285c4.428-7.369,9.801-14.571,15.353-21.849c11.063-14.553,23.204-29.398,31.786-47.408
				c4.307-8.935,7.358-18.886,8.372-29.203c1.064-10.326-0.237-20.898-3.481-30.604c-3.194-9.762-8.235-18.679-14.223-26.592
				c-5.99-7.939-12.924-14.93-20.326-21.182c-14.853-12.489-31.437-22.234-48.793-30.073c-8.721-3.888-17.587-7.325-27.033-9.936
				c-2.384-0.641-4.779-1.239-7.401-1.692c-1.306-0.231-2.672-0.423-4.308-0.514c-0.399-0.023-0.832-0.039-1.349-0.023
				c-0.435-0.005-1.066,0.04-1.719,0.126c-0.246,0.019-0.805,0.135-1.25,0.252c-0.374,0.089-0.95,0.246-1.823,0.69
				c-0.556,0.246-1.698,0.937-2.761,2.308c-0.91,1.056-1.536,3.101-1.535,4.459c-0.022,0.896,0.218,2.206,0.419,2.727
				c0.176,0.507,0.388,1.007,0.625,1.487c0.316,0.561,0.75,1.271,1.021,1.605c0.625,0.846,1.153,1.417,1.683,1.99
				c1.032,1.08,1.998,1.964,2.959,2.814c1.918,1.689,3.805,3.189,5.702,4.663c15.138,11.495,30.589,21.515,46.117,31.695
				c31.076,20.167,62.478,39.663,93.951,59.053c31.489,19.356,63.046,38.582,94.739,57.578
				c63.395,37.971,126.781,75.933,190.717,112.974c1.413,0.824,3.225,0.346,4.05-1.066
				C1808.793,2769.674,1808.338,2767.895,1806.985,2767.05z"/>
		</g>
		<g>
			<g>
				
					<linearGradient id="SVGID_00000091697440013898001420000004635084573666147746_" gradientUnits="userSpaceOnUse" x1="1822.2156" y1="2829.2261" x2="1929.1859" y2="3215.2495">
					<stop  offset="0" style="stop-color:#311944"/>
					<stop  offset="1" style="stop-color:#893976"/>
				</linearGradient>
				<path style="fill:url(#SVGID_00000091697440013898001420000004635084573666147746_);" d="M1927.624,3048.055
					c0,0,5.101,20.676,5.263,28.166c0.163,7.491-82.271,17.933-83.554,12.414c-1.284-5.519,12.517-15.563,22.48-19.516
					c9.963-3.954,39.188-14.715,39.188-14.715L1927.624,3048.055z"/>
				
					<linearGradient id="SVGID_00000030456931520576271410000001316086005487768718_" gradientUnits="userSpaceOnUse" x1="1917.4197" y1="3102.1477" x2="1918.9701" y2="2971.9229">
					<stop  offset="0" style="stop-color:#FFC444"/>
					<stop  offset="0.9964" style="stop-color:#F36F56"/>
				</linearGradient>
				<path style="fill:url(#SVGID_00000030456931520576271410000001316086005487768718_);" d="M1905.867,3028.778l4.726,25.838
					c0,0,10.12,5.581,18.195,0l1.965-28.694L1905.867,3028.778z"/>
				
					<linearGradient id="SVGID_00000031928453565093963210000015813871964553430181_" gradientUnits="userSpaceOnUse" x1="1956.1406" y1="2792.1123" x2="2063.1121" y2="3178.1392">
					<stop  offset="0" style="stop-color:#311944"/>
					<stop  offset="1" style="stop-color:#893976"/>
				</linearGradient>
				<path style="fill:url(#SVGID_00000031928453565093963210000015813871964553430181_);" d="M2077.966,3070.188
					c0,0,5.102,20.675,5.264,28.166c0.163,7.491-82.272,17.933-83.555,12.414c-1.283-5.518,12.517-15.563,22.479-19.517
					c9.963-3.953,39.187-14.715,39.187-14.715L2077.966,3070.188z"/>
				
					<linearGradient id="SVGID_00000051367164842009449150000000059404025778123154_" gradientUnits="userSpaceOnUse" x1="2068.0042" y1="3103.9417" x2="2069.5547" y2="2973.7144">
					<stop  offset="0" style="stop-color:#FFC444"/>
					<stop  offset="0.9964" style="stop-color:#F36F56"/>
				</linearGradient>
				<path style="fill:url(#SVGID_00000051367164842009449150000000059404025778123154_);" d="M2056.209,3050.911l4.727,25.839
					c0,0,10.119,5.582,18.195,0l1.964-28.694L2056.209,3050.911z"/>
				
					<linearGradient id="SVGID_00000112625675411474866210000000388818650664142477_" gradientUnits="userSpaceOnUse" x1="1842.355" y1="2683.3271" x2="1981.0081" y2="2683.3271">
					<stop  offset="0" style="stop-color:#444B8C"/>
					<stop  offset="0.9964" style="stop-color:#26264F"/>
				</linearGradient>
				<path style="fill:url(#SVGID_00000112625675411474866210000000388818650664142477_);" d="M1866.386,2347.512
					c-8.01,20.156-16.02,40.312-24.031,60.467c1.175,111.267,6.994,231.892,19.76,360.37
					c9.498,95.587,21.882,185.865,36.052,270.404c12.919-1.633,25.838-3.27,38.758-4.903c15.769-38.716,33.385-96.87,29.845-166.629
					c-3.692-72.766-26.474-80.641-30.648-150.261c-5.409-90.235,30.442-117.298,41.885-227.276
					c4.376-42.059,5.221-96.604-6.201-161.78C1936.666,2334.438,1901.527,2340.978,1866.386,2347.512z"/>
				
					<linearGradient id="SVGID_00000173155107772554960890000002624798002391534484_" gradientUnits="userSpaceOnUse" x1="1842.3558" y1="2683.3271" x2="1981.0084" y2="2683.3271">
					<stop  offset="0" style="stop-color:#444B8C"/>
					<stop  offset="0.9964" style="stop-color:#26264F"/>
				</linearGradient>
				<path style="opacity:0.3;fill:url(#SVGID_00000173155107772554960890000002624798002391534484_);" d="M1971.807,2327.902
					c-18.978,3.529-37.956,7.059-56.934,10.592c-29.646,62.711-34.264,125.88-26.007,152.996
					c11.682,38.365,35.309,49.062,37.207,88.368c1.878,38.893-20.172,50.784-31.007,97.67c-7.5,32.462-2.519,61.357,7.753,117.823
					c20.688,113.74,51.185,146.587,31.006,186.038c-5.735,11.209-16.589,24.882-39.075,36.459
					c1.133,6.985,2.259,13.994,3.417,20.902c12.919-1.631,25.838-3.27,38.758-4.901c15.769-38.721,33.385-96.871,29.845-166.631
					c-3.692-72.767-26.474-80.643-30.648-150.261c-5.409-90.235,30.442-117.296,41.885-227.275
					C1982.385,2447.624,1983.229,2393.08,1971.807,2327.902z"/>
				
					<linearGradient id="SVGID_00000163069382644305261830000004057341708391383217_" gradientUnits="userSpaceOnUse" x1="1920.6349" y1="2703.1353" x2="2131.1086" y2="2703.1353">
					<stop  offset="0" style="stop-color:#444B8C"/>
					<stop  offset="0.9964" style="stop-color:#26264F"/>
				</linearGradient>
				<path style="fill:url(#SVGID_00000163069382644305261830000004057341708391383217_);" d="M1920.635,2378.296
					c25.797,96.458,50.05,199.96,71.327,310.084c25.689,132.966,43.798,258.81,56.343,375.993
					c14.265-0.735,28.529-1.476,42.794-2.212c47.193-115.443,44.592-190.939,32.581-239.266
					c-4.628-18.622-16.057-54.949-22.42-110.098c-4.435-38.443-4.327-67.979-4.081-103.493c0.538-77.867,7.36-95.403,3.795-154.645
					c-3.344-55.598-5.368-83.703-22.527-98.829C2033.237,2315.985,1928.568,2373.813,1920.635,2378.296z"/>
				
					<linearGradient id="SVGID_00000034071111888209425890000013558024526235970206_" gradientUnits="userSpaceOnUse" x1="1477.8828" y1="2176.0264" x2="1608.1118" y2="2308.5808">
					<stop  offset="0" style="stop-color:#FFC444"/>
					<stop  offset="0.9964" style="stop-color:#F36F56"/>
				</linearGradient>
				<path style="fill:url(#SVGID_00000034071111888209425890000013558024526235970206_);" d="M1506.476,2154.208
					c0,0-31.339-2.687-35.873-7.767c-4.534-5.081-7.466-5.346-8.146-10.004c-0.679-4.658-13.876-2.415-8.388,7.687
					c5.489,10.102-6.897,4.805-9.327,4.561c-5.588-0.561-26.905-1.186-26.29,0.134c0.616,1.321-9.558,14.6,5.581,21.459
					c13.253,6.005,9.372,3.356,17.988,3.769c8.615,0.412,35.299-8.295,35.299-8.295l22.849,1.742L1506.476,2154.208z"/>
				
					<linearGradient id="SVGID_00000044170390372893384200000016518552052382307997_" gradientUnits="userSpaceOnUse" x1="2053.1638" y1="1730.2567" x2="1429.9332" y2="2367.4392">
					<stop  offset="0.0036" style="stop-color:#6165D7"/>
					<stop  offset="1" style="stop-color:#AA80F9"/>
				</linearGradient>
				<path style="fill:url(#SVGID_00000044170390372893384200000016518552052382307997_);" d="M1488.106,2139.566
					c-1.38,10.447-2.76,20.893-4.141,31.339c20.756,17.314,66.647,50.503,130.493,55.48c112.553,8.78,224.171-74.52,244.951-168.21
					c10.29-46.401,1.884-111.502-26.953-121.97c-8.005-2.907-20.03-2.494-44.822,14.161
					c-66.162,44.443-71.789,102.812-108.34,142.295C1652.99,2121.075,1601.268,2149.862,1488.106,2139.566z"/>
				
					<linearGradient id="SVGID_00000091721266843497535640000004569467422278178206_" gradientUnits="userSpaceOnUse" x1="2343.7041" y1="2728.0784" x2="1873.9569" y2="2053.6887">
					<stop  offset="0.0036" style="stop-color:#6165D7"/>
					<stop  offset="1" style="stop-color:#AA80F9"/>
				</linearGradient>
				<path style="fill:url(#SVGID_00000091721266843497535640000004569467422278178206_);" d="M1833.053,2428.703
					c-15.45-21.534-0.071-44.729,0.393-87.91c0.525-48.94-18.84-55.53-43.802-134.565c-16.6-52.564-32.537-103.025-23.255-164.332
					c4.448-29.382,11.993-79.216,50.583-106.087c19.914-13.867,48.536-14.933,104.967-16.496
					c69.783-1.935,104.674-2.903,131.68,8.666c3.953,1.694,86.222,38.257,97.249,107.717
					c11.224,70.695-65.483,86.465-68.213,182.159c-1.226,42.958,12.291,107.795,21.057,149.849
					c8.418,40.379,12.797,50.539,5.737,63.534c-17.016,31.321-77.095,27.596-197.253,20.153
					C1865.064,2448.469,1844.582,2444.772,1833.053,2428.703z"/>
				
					<linearGradient id="SVGID_00000178185191508935695610000000810236000321274525_" gradientUnits="userSpaceOnUse" x1="2343.658" y1="2728.1101" x2="1873.9093" y2="2053.7183">
					<stop  offset="0" style="stop-color:#AA80F9"/>
					<stop  offset="0.9964" style="stop-color:#6165D7"/>
				</linearGradient>
				<path style="opacity:0.3;fill:url(#SVGID_00000178185191508935695610000000810236000321274525_);" d="M1997.388,2209.33
					c6.505,18.087,25.678,30.45,41.858,74.416c3.493,9.494,28.373,77.092,4.652,96.123c-13.702,10.99-28.202-6.591-63.563-6.206
					c-61.275,0.668-86.2,54.209-127.127,43.413c-7.1-1.876-16.633-6.319-26.689-17.478c-0.954,10.858,0.102,20.138,6.535,29.105
					c11.529,16.069,32.01,19.766,79.143,22.687c120.158,7.444,180.237,11.169,197.253-20.153c7.06-12.995,2.68-23.155-5.737-63.534
					c-8.766-42.053-22.283-106.89-21.057-149.849c2.731-95.694,79.438-111.464,68.213-182.159
					c-3-18.899-11.353-35.273-21.888-49.262C2033.888,2034.078,1976.942,2152.493,1997.388,2209.33z"/>
				<g>
					
						<linearGradient id="SVGID_00000130638233688527779920000015738735197234011067_" gradientUnits="userSpaceOnUse" x1="2189.0872" y1="2446.97" x2="2211.7695" y2="2446.97">
						<stop  offset="0" style="stop-color:#FFC444"/>
						<stop  offset="0.9964" style="stop-color:#F36F56"/>
					</linearGradient>
					<path style="fill:url(#SVGID_00000130638233688527779920000015738735197234011067_);" d="M2190.607,2427.911
						c0,0,19.134,6.424,21.163,38.119c-3.121-0.281-10.408-0.113-10.408-0.113s1.35-23.039-12.275-27.711
						C2190.185,2435.53,2190.607,2427.911,2190.607,2427.911z"/>
					
						<linearGradient id="SVGID_00000175302064394707389740000011034935448265635509_" gradientUnits="userSpaceOnUse" x1="2152.8455" y1="2493.0366" x2="2158.2903" y2="2411.9714">
						<stop  offset="0.1" style="stop-color:#311944"/>
						<stop  offset="0.267" style="stop-color:#371B47"/>
						<stop  offset="0.4803" style="stop-color:#462150"/>
						<stop  offset="0.7186" style="stop-color:#612A5F"/>
						<stop  offset="0.9736" style="stop-color:#853774"/>
						<stop  offset="1" style="stop-color:#893976"/>
					</linearGradient>
					<path style="fill:url(#SVGID_00000175302064394707389740000011034935448265635509_);" d="M2119.625,2424.889
						c0.487,5.838,0.973,11.674,1.459,17.511c9.629-2.484,20.133-5.367,31.396-5.763c14.597-0.512,27.931,1.285,39.77,4.238
						c0.526-0.722,1.639-2.461,2.153-5.31c0.827-4.59-0.558-8.431-0.815-9.116c-6.024-2.217-12.568-4.103-19.59-5.43
						C2153.793,2417.199,2135.451,2420.362,2119.625,2424.889z"/>
					
						<linearGradient id="SVGID_00000121240902396105959850000000281511617738436507_" gradientUnits="userSpaceOnUse" x1="2122.3206" y1="2434.637" x2="2184.5979" y2="2468.0259">
						<stop  offset="0.1" style="stop-color:#311944"/>
						<stop  offset="0.267" style="stop-color:#371B47"/>
						<stop  offset="0.4803" style="stop-color:#462150"/>
						<stop  offset="0.7186" style="stop-color:#612A5F"/>
						<stop  offset="0.9736" style="stop-color:#853774"/>
						<stop  offset="1" style="stop-color:#893976"/>
					</linearGradient>
					<path style="fill:url(#SVGID_00000121240902396105959850000000281511617738436507_);" d="M2118.716,2429.927
						c0.029-2.109,0.19-4.74,0.909-5.038c0.677-0.281,1.587,1.64,1.978,2.705c0.163,0.443,0.522,1.517,0.747,4.922
						c0.289,4.389-0.048,6.534-0.357,7.858c-0.186,0.795-0.476,2.001-0.908,2.026c-0.347,0.02-0.649-0.748-1.098-2.233
						C2119.38,2438.166,2118.649,2434.832,2118.716,2429.927z"/>
					
						<linearGradient id="SVGID_00000057107199053428208200000014412643669220003007_" gradientUnits="userSpaceOnUse" x1="2100.9001" y1="2448.6326" x2="2120.9153" y2="2448.6326">
						<stop  offset="0" style="stop-color:#FFC444"/>
						<stop  offset="0.9964" style="stop-color:#F36F56"/>
					</linearGradient>
					<path style="fill:url(#SVGID_00000057107199053428208200000014412643669220003007_);" d="M2100.9,2466.583
						c4.06,0.799,13.913,3.16,13.913,3.16s-6.422-20.576,5.678-29.874c0.313-1.543,0.631-3.994,0.249-6.952
						c-0.295-2.288-0.912-4.122-1.444-5.394C2114.163,2430.332,2102.964,2439.894,2100.9,2466.583z"/>
					
						<linearGradient id="SVGID_00000182499914887400709080000005705544816248527778_" gradientUnits="userSpaceOnUse" x1="2033.8036" y1="2538.8723" x2="1998.2069" y2="2213.4849">
						<stop  offset="0.1" style="stop-color:#311944"/>
						<stop  offset="0.6853" style="stop-color:#6D2F66"/>
						<stop  offset="1" style="stop-color:#893976"/>
					</linearGradient>
					<path style="fill:url(#SVGID_00000182499914887400709080000005705544816248527778_);" d="M2016.037,2471.144
						c0,0,0.507-10.885,17.757-10.69c2.71,2.011,2.845,10.896,2.845,10.896L2016.037,2471.144z"/>
					
						<linearGradient id="SVGID_00000009575213664706154170000004163127927272321423_" gradientUnits="userSpaceOnUse" x1="2188.6792" y1="2673.8901" x2="1952.9525" y2="2542.6331">
						<stop  offset="0" style="stop-color:#311944"/>
						<stop  offset="1" style="stop-color:#893976"/>
					</linearGradient>
					<path style="fill:url(#SVGID_00000009575213664706154170000004163127927272321423_);" d="M2000.659,2685.489l47.216,27.856
						l28.349-105.199l-46.816-140.798l-13.371,3.796l-20.371,203.263C1995.204,2679.019,1997.2,2683.448,2000.659,2685.489z"/>
					
						<linearGradient id="SVGID_00000083070502144994292140000005646337277479911847_" gradientUnits="userSpaceOnUse" x1="1975.9634" y1="2491.2629" x2="2047.0481" y2="2610.4666">
						<stop  offset="0" style="stop-color:#311944"/>
						<stop  offset="1" style="stop-color:#893976"/>
					</linearGradient>
					<path style="opacity:0.3;fill:url(#SVGID_00000083070502144994292140000005646337277479911847_);" d="M2076.224,2608.146
						l-46.816-140.798l-13.371,3.796c3.296,12.501,4.876,32.815,5.619,44.119c3.161,48.082,13.641,61.43,8.567,94.954
						c-4.223,27.906-13.462,31.786-12.653,50.553c0.88,20.435,12.759,37.351,26.839,50.531l3.466,2.045L2076.224,2608.146z"/>
					
						<linearGradient id="SVGID_00000177455787702082712450000012439739698453187497_" gradientUnits="userSpaceOnUse" x1="2157.0889" y1="2349.0652" x2="2183.0151" y2="2697.022">
						<stop  offset="0.1" style="stop-color:#311944"/>
						<stop  offset="0.6853" style="stop-color:#6D2F66"/>
						<stop  offset="1" style="stop-color:#893976"/>
					</linearGradient>
					<polygon style="fill:url(#SVGID_00000177455787702082712450000012439739698453187497_);" points="2029.408,2467.348 
						2280.543,2469.974 2318.708,2686.269 2047.875,2713.344 					"/>
					<g style="opacity:0.2;">
						
							<linearGradient id="SVGID_00000129206035423252195030000003088268473739483579_" gradientUnits="userSpaceOnUse" x1="2111.0337" y1="2546.0405" x2="2301.9385" y2="2693.1311">
							<stop  offset="0" style="stop-color:#311944"/>
							<stop  offset="1" style="stop-color:#893976"/>
						</linearGradient>
						<path style="fill:url(#SVGID_00000129206035423252195030000003088268473739483579_);" d="M2280.543,2469.974l-82.894-0.867
							c-1.542,4.475-3.902,10.667-7.348,17.671c-37.692,76.604-125.3,86.494-123.701,99.264
							c2.39,19.077,194.802-8.56,199.598,17.029c2.313,12.342-37.501,40.866-79.526,52.071
							c-50.892,13.568-88.696-2.293-114.033,27.311c-8.614,10.064-12.422,21.768-14.279,29.675l260.347-25.858L2280.543,2469.974z"
							/>
					</g>
					
						<linearGradient id="SVGID_00000054955933479928174870000015941330190429961659_" gradientUnits="userSpaceOnUse" x1="2061.8582" y1="2526.0803" x2="2142.2473" y2="2522.9585">
						<stop  offset="0.1" style="stop-color:#311944"/>
						<stop  offset="0.6853" style="stop-color:#6D2F66"/>
						<stop  offset="1" style="stop-color:#893976"/>
					</linearGradient>
					<path style="fill:url(#SVGID_00000054955933479928174870000015941330190429961659_);" d="M2033.793,2460.453
						c-2.915-0.033-6.994-0.444-11.435,2.122c-0.949,0.548-1.787,1.154-2.522,1.77l2.046-0.707c3.29-0.932,7.821,0.405,9.513,3.731
						c2.077,4.086,2.825,13.497,3.279,18.158c1.291,13.258,9.218,95.655,9.218,95.655c0.593,6.941,5.831,12.174,12.014,12.011
						l232.632-13.269c1.717-0.043,3.413-0.604,4.828-1.733c2.952-2.354,4.284-6.427,3.6-10.291l-11.448-95.205
						c-0.97-5.483-5.128-9.459-9.957-9.514L2033.793,2460.453z"/>
					
						<linearGradient id="SVGID_00000181057591658276322390000009224568193384833697_" gradientUnits="userSpaceOnUse" x1="2186.9841" y1="2795.7344" x2="2159.0701" y2="2482.0364">
						<stop  offset="0.1" style="stop-color:#311944"/>
						<stop  offset="0.267" style="stop-color:#371B47"/>
						<stop  offset="0.4803" style="stop-color:#462150"/>
						<stop  offset="0.7186" style="stop-color:#612A5F"/>
						<stop  offset="0.9736" style="stop-color:#853774"/>
						<stop  offset="1" style="stop-color:#893976"/>
					</linearGradient>
					<path style="fill:url(#SVGID_00000181057591658276322390000009224568193384833697_);" d="M2036.368,2460.482
						c-2.913-0.033-6.371-0.472-10.229,0.524c-1.041,0.269-2.707,0.764-3.442,1.38c0,0,8.181-1.871,11.274,5.01
						c1.887,4.198,2.823,13.492,3.277,18.152c1.29,13.254,9.212,95.626,9.212,95.626c0.593,6.938,5.828,12.17,12.006,12.007
						l235.036-6.186c1.715-0.045,3.408-0.606,4.822-1.736c2.948-2.356,4.279-6.427,3.596-10.288l-13.981-102.251
						c-0.969-5.482-5.125-9.457-9.951-9.511L2036.368,2460.482z"/>
					
						<linearGradient id="SVGID_00000145046925674780905500000012524331243085536954_" gradientUnits="userSpaceOnUse" x1="2200.5916" y1="2868.5002" x2="2153.2478" y2="2435.7317">
						<stop  offset="0" style="stop-color:#311944"/>
						<stop  offset="1" style="stop-color:#893976"/>
					</linearGradient>
					<path style="opacity:0.1;fill:url(#SVGID_00000145046925674780905500000012524331243085536954_);" d="M2301.921,2574.972
						l-13.981-102.251c-0.969-5.482-5.125-9.457-9.951-9.511l-241.622-2.728c-2.913-0.033-6.371-0.472-10.229,0.524
						c-1.041,0.269-2.707,0.764-3.441,1.38c0,0,8.181-1.871,11.274,5.01c0.297,0.662,0.569,1.46,0.82,2.337
						c23.574,1.177,47.015,0.74,70.324,2.497c45.693,3.366,91.389,3.805,133.582,22.641c13.404,5.984,22.568,27.166,18.944,36.914
						c-2.615,7.034-11.552,6.458-14.675,15.706c-3.287,9.733,4.59,16.34,1.288,23.172c-3.464,7.167-14.003,3.782-31.122,8.952
						c-9.463,2.858-16.736,7.059-21.285,10.056l101.656-2.676c1.715-0.045,3.408-0.606,4.822-1.736
						C2301.273,2582.904,2302.604,2578.833,2301.921,2574.972z"/>
					<g>
						
							<linearGradient id="SVGID_00000016049012100725312420000012289062042672372410_" gradientUnits="userSpaceOnUse" x1="2267.3469" y1="2640.4443" x2="2124.5901" y2="2565.8213">
							<stop  offset="0" style="stop-color:#FFC444"/>
							<stop  offset="0.9964" style="stop-color:#F36F56"/>
						</linearGradient>
						<path style="fill:url(#SVGID_00000016049012100725312420000012289062042672372410_);" d="M2191.356,2606.677l-29.433,7.411
							l-3.121,0.282c-3.147,0.285-5.857-2.458-5.994-6.098l-1.299-34.414c-0.138-3.641,2.355-6.664,5.512-6.717l3.138-0.053
							l29.599,3.779c2.816-0.049,5.187-1.582,5.315,1.815l1.206,32.104C2196.406,2608.182,2194.164,2606.425,2191.356,2606.677z"/>
						
							<linearGradient id="SVGID_00000031921871908096050000000002561493629931791016_" gradientUnits="userSpaceOnUse" x1="2139.3662" y1="2577.3005" x2="2285.0605" y2="2629.4363">
							<stop  offset="0" style="stop-color:#FFC444"/>
							<stop  offset="0.9964" style="stop-color:#F36F56"/>
						</linearGradient>
						<path style="fill:url(#SVGID_00000031921871908096050000000002561493629931791016_);" d="M2193.585,2611.405l-32.604,2.949
							c-3.145,0.284-5.854-2.458-5.991-6.096l-1.299-34.405c-0.137-3.64,2.354-6.662,5.509-6.715l32.701-0.549
							c2.815-0.047,5.203,2.693,5.331,6.089l1.205,32.096C2198.565,2608.168,2196.392,2611.151,2193.585,2611.405z"/>
					</g>
				</g>
				
					<linearGradient id="SVGID_00000016756195988170934540000002452006818522237854_" gradientUnits="userSpaceOnUse" x1="2169.0605" y1="2531.9478" x2="2156.8911" y2="2395.188">
					<stop  offset="0" style="stop-color:#FFC444"/>
					<stop  offset="0.9964" style="stop-color:#F36F56"/>
				</linearGradient>
				<path style="fill:url(#SVGID_00000016756195988170934540000002452006818522237854_);" d="M2154.168,2380.992
					c0,0-2.741,18.159-5.482,19.872s-11.307,11.307-9.594,17.474s-4.799,20.241,7.365,23.654c12.165,3.413,26.147,7.06,27.55-3.843
					c1.403-10.903-2.023-23.238-1.68-32.489c0.343-9.251,5.139-18.502,5.139-18.502L2154.168,2380.992z"/>
				
					<linearGradient id="SVGID_00000129918125827586934470000008849633510582896777_" gradientUnits="userSpaceOnUse" x1="2522.5503" y1="2704.1941" x2="2006.3207" y2="1963.0723">
					<stop  offset="0.0036" style="stop-color:#6165D7"/>
					<stop  offset="1" style="stop-color:#AA80F9"/>
				</linearGradient>
				<path style="fill:url(#SVGID_00000129918125827586934470000008849633510582896777_);" d="M2039.245,1922.519
					c-16.26,79.262-2.226,130.632,14.729,163.561c34.325,66.664,93.316,82.387,103.135,141.52
					c7.084,42.653,10.165,126.761-10.652,154.045c18.764,7.488,20.73,7.067,34.891,7.067c18.981-10.841,59.432-83.19,76.492-175.505
					C2278.537,2101.222,2191.956,1968.988,2039.245,1922.519z"/>
				
					<linearGradient id="SVGID_00000135651047664619001370000005023793280907063960_" gradientUnits="userSpaceOnUse" x1="1920.4369" y1="1974.8055" x2="1920.4369" y2="1839.1">
					<stop  offset="0" style="stop-color:#FFC444"/>
					<stop  offset="0.9964" style="stop-color:#F36F56"/>
				</linearGradient>
				<path style="fill:url(#SVGID_00000135651047664619001370000005023793280907063960_);" d="M1988.617,1921.681
					c-8.057-3.292-47.15-11.248-55.818-28.193c-9.594-18.749-12.838-44.552-12.838-44.552s-26.974,7.166-23.024,21.102
					c3.951,13.935-2.773,45.873-18.255,53.007c-10.841,4.995-24.27,6.998-27.181,10.339c-0.317,0.048-0.517,0.094-0.588,0.138
					c-2.231,1.393,4.715,12.106,32.581,27.638c96.16-14.48,106.283-30.947,106.704-36.608
					C1990.622,1923.32,1990.17,1922.315,1988.617,1921.681z"/>
				<g>
					
						<linearGradient id="SVGID_00000037680843919164150150000008700782783065643951_" gradientUnits="userSpaceOnUse" x1="1947.8453" y1="1933.8129" x2="1891.6755" y2="1791.1517">
						<stop  offset="0" style="stop-color:#444B8C"/>
						<stop  offset="0.9964" style="stop-color:#3E4177"/>
					</linearGradient>
					<path style="fill:url(#SVGID_00000037680843919164150150000008700782783065643951_);" d="M1883.86,1842.381
						c-12.51-10.465-14.235-11.666-15.815-15.503c-6.335-15.401,4.191-38.032,19.845-44.65c0.814-0.343,11.322-4.66,15.814-0.31
						c3.815,3.692-0.889,9.593,2.17,17.054c2.865,6.985,9.123,7.024,21.395,15.503c10.109,6.982,16.392,11.323,18.294,17.985
						c3.923,13.734-11.353,35.319-26.356,35.967C1913.812,1868.66,1912.129,1866.029,1883.86,1842.381z"/>
					<g>
						
							<linearGradient id="SVGID_00000048466032222590678910000018168722137941590176_" gradientUnits="userSpaceOnUse" x1="-362.1754" y1="2184.3416" x2="-299.3862" y2="2062.2515" gradientTransform="matrix(0.827 0.5622 -0.5622 0.827 3357.9539 289.0357)">
							<stop  offset="0" style="stop-color:#FFC444"/>
							<stop  offset="0.9964" style="stop-color:#F36F56"/>
						</linearGradient>
						<path style="fill:url(#SVGID_00000048466032222590678910000018168722137941590176_);" d="M1917.917,1870.7
							c0,0-11.209,14.946-30.357,11.836c-17.145-2.784-15.947-41.716-4.136-48.867c3.94-2.385,11.412-2.813,17.238-0.559
							c3.442,1.332,4.495,2.916,10.161,4.983c5.224,1.905,6.797,1.457,8.282,2.975c1.86,1.897,2.94,6.214-1.528,17.201
							c3.613-3.017,7.687-3.915,10.359-2.325c0.426,0.255,1.535,1.175,2.083,2.46
							C1932.003,1863.055,1927.424,1868.31,1917.917,1870.7z"/>
					</g>
				</g>
				<g>
					
						<linearGradient id="SVGID_00000145769431488926829360000016306446341941236110_" gradientUnits="userSpaceOnUse" x1="1984.9768" y1="1858.7524" x2="1996.3031" y2="2024.6823" gradientTransform="matrix(-1 0 0 1 3882.3601 0)">
						<stop  offset="0" style="stop-color:#444B8C"/>
						<stop  offset="0.9964" style="stop-color:#26264F"/>
					</linearGradient>
					<path style="fill:url(#SVGID_00000145769431488926829360000016306446341941236110_);" d="M1909.838,1957.892
						c0,0-5.435,29.012-13.93,29.578c-8.495,0.566-14.724,1.699-14.724,1.699l-9.502-35.48
						C1871.682,1953.69,1884.069,1963.778,1909.838,1957.892z"/>
					
						<linearGradient id="SVGID_00000005258095847508912550000014022966879773657509_" gradientUnits="userSpaceOnUse" x1="1954.3224" y1="2189.3284" x2="1954.3224" y2="1816.6089" gradientTransform="matrix(-1 0 0 1 3882.3601 0)">
						<stop  offset="0" style="stop-color:#444B8C"/>
						<stop  offset="0.9964" style="stop-color:#26264F"/>
					</linearGradient>
					<path style="fill:url(#SVGID_00000005258095847508912550000014022966879773657509_);" d="M1899.939,1985.051
						c0,0,18.904,212.239,85.163,246.217c-1.699,6.796,0,62.011,0,62.011s-61.765-18.598-65.286-17.369
						c-3.521,1.229-74.804-116.925-38.632-286.741L1899.939,1985.051z"/>
				</g>
			</g>
			<g>
				<g>
					
						<linearGradient id="SVGID_00000002347500297715406980000016127604010048086428_" gradientUnits="userSpaceOnUse" x1="1392.6259" y1="2155.562" x2="1484.8309" y2="2155.562">
						<stop  offset="0" style="stop-color:#FFC444"/>
						<stop  offset="0.9964" style="stop-color:#F36F56"/>
					</linearGradient>
					<path style="fill:url(#SVGID_00000002347500297715406980000016127604010048086428_);" d="M1392.626,2160.735
						c0,0,25.671-22.62,30.869-30.877c5.199-8.258,5.343,7.932,0.138,11.201c-5.205,3.269,73.41-7.614,59.558,6.019
						s-23.842,26.482-42.451,27.345c-18.609,0.864-40.561,6.51-44.355,8.993C1392.592,2185.898,1392.626,2160.735,1392.626,2160.735
						z"/>
					
						<linearGradient id="SVGID_00000104681470957809644270000002876139711878044068_" gradientUnits="userSpaceOnUse" x1="840.2668" y1="2333.8979" x2="923.3272" y2="2001.6553" gradientTransform="matrix(-1 0 0 1 1777.72 0)">
						<stop  offset="0" style="stop-color:#FF9085"/>
						<stop  offset="1" style="stop-color:#FB6FBB"/>
					</linearGradient>
					<path style="fill:url(#SVGID_00000104681470957809644270000002876139711878044068_);" d="M884.526,2003.177
						c-6.303,2.383-102.435,40.613-122.196,140.948c-1.596,8.106-17.04,94.309,41.42,155.207
						c65.553,68.287,191.781,66.594,241.885,9.507c11.684-13.312,17.848-28.068,21.301-40.465l0,0l-13.202-35.073
						c-16.108-19.446-38.041-24.055-49.755-26.941c-28.876-7.117-50.678,5.745-67.215-8.18
						c-9.151-7.704-10.968-18.793-12.592-28.698c-5.532-33.738,13.512-54.506,14.897-75.311c1.036-15.555,6.48-49.634-13.82-71.857
						C912.394,2008.241,894.588,2004.409,884.526,2003.177z"/>
					
						<linearGradient id="SVGID_00000154400834403570124090000009523687208712216961_" gradientUnits="userSpaceOnUse" x1="606.8124" y1="3011.071" x2="646.2133" y2="3046.1182" gradientTransform="matrix(-0.9902 -0.14 -0.14 0.9902 1880.5627 206.9384)">
						<stop  offset="0" style="stop-color:#444B8C"/>
						<stop  offset="0.9964" style="stop-color:#26264F"/>
					</linearGradient>
					<path style="fill:url(#SVGID_00000154400834403570124090000009523687208712216961_);" d="M847.068,3121.374
						c-1.121-6.177-21.069-11.768-30.946-3.494c-4.904,4.107-8.282,12.435-5.443,16.195c1.031,1.368-3.196,3.775,0.855,3.822
						C824.971,3138.053,848.184,3127.512,847.068,3121.374z"/>
					
						<linearGradient id="SVGID_00000116952094560192810260000015243642983021832359_" gradientUnits="userSpaceOnUse" x1="-280.4993" y1="3046.1672" x2="-280.4993" y2="2977.5281" gradientTransform="matrix(-0.9902 -0.14 -0.14 0.9902 964.3617 77.4224)">
						<stop  offset="0" style="stop-color:#FFC444"/>
						<stop  offset="0.9964" style="stop-color:#F36F56"/>
					</linearGradient>
					<path style="fill:url(#SVGID_00000116952094560192810260000015243642983021832359_);" d="M826.161,3123.622l-20.515-2.9
						c9.504-11.443,7.745-47.883,7.745-47.883l21.817,4.868c0,0-2.485,10.002-6.714,24.758
						C827.044,3107.515,826.398,3115.42,826.161,3123.622z"/>
					
						<linearGradient id="SVGID_00000106139944262434089910000000868667759500695477_" gradientUnits="userSpaceOnUse" x1="610.7737" y1="3006.6184" x2="650.1746" y2="3041.6655" gradientTransform="matrix(-0.9902 -0.14 -0.14 0.9902 1880.5627 206.9384)">
						<stop  offset="0" style="stop-color:#444B8C"/>
						<stop  offset="0.9964" style="stop-color:#26264F"/>
					</linearGradient>
					<path style="fill:url(#SVGID_00000106139944262434089910000000868667759500695477_);" d="M827.98,3121.094
						c0,0-24.699-5.69-27.37-0.791c-2.672,4.899-4.746,18.017,10.924,17.594C827.204,3137.474,829.372,3125.249,827.98,3121.094z"/>
					
						<linearGradient id="SVGID_00000016068762326140692370000001478257352434746554_" gradientUnits="userSpaceOnUse" x1="640.6921" y1="3125.3333" x2="680.0948" y2="3160.3821" gradientTransform="matrix(-1 0 0 1 1777.72 0)">
						<stop  offset="0" style="stop-color:#444B8C"/>
						<stop  offset="0.9964" style="stop-color:#26264F"/>
					</linearGradient>
					<path style="fill:url(#SVGID_00000016068762326140692370000001478257352434746554_);" d="M1128.554,3144.536
						c-1.975-5.959-22.509-8.703-31.131,0.871c-4.28,4.753-6.46,13.472-3.123,16.797c1.214,1.212-2.635,4.185,1.382,3.666
						C1109.009,3164.145,1130.517,3150.457,1128.554,3144.536z"/>
					
						<linearGradient id="SVGID_00000160154086995203288370000014291673637655906218_" gradientUnits="userSpaceOnUse" x1="-246.6631" y1="3160.4514" x2="-246.6631" y2="3091.8088" gradientTransform="matrix(-1 0 0 1 852.4098 0)">
						<stop  offset="0" style="stop-color:#FFC444"/>
						<stop  offset="0.9964" style="stop-color:#F36F56"/>
					</linearGradient>
					<path style="fill:url(#SVGID_00000160154086995203288370000014291673637655906218_);" d="M1108.166,3149.688h-20.718
						c7.809-12.661,0.966-48.496,0.966-48.496l22.284,1.768c0,0-1.061,10.252-3.183,25.452
						C1106.789,3133.617,1107.254,3141.534,1108.166,3149.688z"/>
					
						<linearGradient id="SVGID_00000069389228893747504380000011984660235129562022_" gradientUnits="userSpaceOnUse" x1="1250.1886" y1="2253.3691" x2="681.8452" y2="3400.2036">
						<stop  offset="0" style="stop-color:#444B8C"/>
						<stop  offset="0.9964" style="stop-color:#26264F"/>
					</linearGradient>
					<path style="fill:url(#SVGID_00000069389228893747504380000011984660235129562022_);" d="M1161.862,2366.19
						c9.597,31.695,23.304,82.848,32.126,147.028c25.167,183.062-28.323,188.901-18.334,391.757
						c3.188,64.753-56.097,214.064-61.323,217.362c-2.53,0.245-5.273,0.41-8.199,0.321c-5.157-0.156-12.427-0.946-20.881-3.481
						c-9.391-1.618-43.251-93.329-35.402-147.857c5.553-38.593,3.943-80.011,0.724-162.846
						c-0.522-13.423-34.863-261.136-34.863-261.136l0,0c-10.446,91.689-22.459,169.596-32.875,230
						c-33.461,194.062-142.258,311.522-147.933,313.405c-1.122,0.45-11.33,4.159-19.677-1.342c-3.715-2.449-4.98-5.608-4.98-5.608
						c-2.91-2.279,0.858-193.749,34.043-337.848c48.167-209.156,27.193-258.096,42.454-351.518
						C899.946,2313.591,1161.862,2366.19,1161.862,2366.19z"/>
					
						<linearGradient id="SVGID_00000068658298347630180890000009753169390431944107_" gradientUnits="userSpaceOnUse" x1="1310.848" y1="2418.5603" x2="661.1512" y2="1966.72">
						<stop  offset="0" style="stop-color:#FF9085"/>
						<stop  offset="1" style="stop-color:#FB6FBB"/>
					</linearGradient>
					<path style="fill:url(#SVGID_00000068658298347630180890000009753169390431944107_);" d="M1174.744,2397.795
						c-28.919,14.846-103.421,41.423-192.177,28.214c-40.558-6.025-73.001-19.506-95.827-31.556
						c2.774-8.412,4.957-16.369,6.638-23.894c12.163-54.813-2.705-87.324-10.207-117.561
						c-12.141-49.062-12.345-45.356-22.348-84.323c-16.528-64.294-19.233-129.974-7.889-143.434
						c30.601-36.239,85.733-37.535,114.379-38.399c31.965-0.932,105.467-12.208,145.957,24.213c0.705,0.637-7.594,5.07-3.501,9.844
						c3.797,4.433,16.801,20.007,28.577,41.013c8.549,15.232,16.256,32.988,24.031,59.429c10.73,36.535,15.481,68.818,17.665,89.416
						c0.591,5.706,1,10.526,1.296,14.277C1188.748,2322.361,1181.406,2367.262,1174.744,2397.795z"/>
					
						<linearGradient id="SVGID_00000102508131874879561930000017349290473892248215_" gradientUnits="userSpaceOnUse" x1="644.6536" y1="3120.8806" x2="684.0558" y2="3155.929" gradientTransform="matrix(-1 0 0 1 1777.72 0)">
						<stop  offset="0" style="stop-color:#444B8C"/>
						<stop  offset="0.9964" style="stop-color:#26264F"/>
					</linearGradient>
					<path style="fill:url(#SVGID_00000102508131874879561930000017349290473892248215_);" d="M1109.615,3146.931
						c0,0-25.252-2.177-27.211,3.048c-1.959,5.224-2.177,18.504,13.279,15.892
						C1111.139,3163.258,1111.574,3150.849,1109.615,3146.931z"/>
					<g>
						
							<linearGradient id="SVGID_00000149376327543975622430000008422015755405275790_" gradientUnits="userSpaceOnUse" x1="918.757" y1="1949.0659" x2="1067.752" y2="1949.0659">
							<stop  offset="0" style="stop-color:#FFC444"/>
							<stop  offset="0.9964" style="stop-color:#F36F56"/>
						</linearGradient>
						<path style="fill:url(#SVGID_00000149376327543975622430000008422015755405275790_);" d="M1049.165,1950.664
							c9.323-15.764,5.169-33.772,4.233-37.663c-3.922-16.292-5.38-18.763-8.404-22.209l-4.275-4.521c0,0-0.265-0.198-0.547-0.391
							c-2.973-2.045-14.075-5.369-16.471-5.488c-7.656-0.385-23.236,27.069-32.156,69.375c-0.724,1.51-1.442,3.036-2.152,4.578
							c-4.426,9.598-8.221,19.038-11.48,28.241c-51.738,4.375-58.919,10.444-59.149,13.95c-0.486,7.38,28.994,15.906,51.164,19.153
							c48.351,7.079,98.052-5.673,97.825-14.689c-0.099-3.925-9.708-9.04-50.697-14.408c0.959-6.783,1.917-13.566,2.875-20.349
							C1023.262,1965.505,1042.298,1962.279,1049.165,1950.664z"/>
						<path style="fill:#26264F;" d="M1058.891,1878.422c-3.489,12.914-13.259,25.094-16.952,26.485
							c-0.477,0.18-3.207,1.36-6.045,3.866c-0.387,0.34-0.759,0.761-1.144,1.331c-5.003,7.39,5.393,20.428,1.921,23.409
							c-2.519,2.163-10.377-3.722-12.033-1.716c-1.559,1.886,4.568,8.29,2.762,10.566c-1.363,1.718-5.391-1.26-9.024,0.961
							c-1.811,1.106-1.708,2.393-4.417,6.528c-1.532,2.338-3.466,4.828-4.802,6.144c-6.49,6.398-19.88,5.797-21.505,2.112
							c-0.451-1.026,0.319-1.583,0.384-4.609c0,0,0.06-2.803-0.96-6.335c-1.458-5.046-6.946-9.839-12.097-16.129
							c-9.539-11.647-10.815-19.749-11.126-22.453c-0.11-0.964-0.148-1.678-0.175-2.194c-0.53-10.345,3.188-24.343,9.764-31.806
							c11.018-12.504,25.379-1.345,42.436-12.097c19.678-12.405,16.58-37.359,25.537-37.635
							C1051.292,1824.543,1065.342,1854.543,1058.891,1878.422z"/>
						
							<linearGradient id="SVGID_00000043447700970021596150000007904592395009177266_" gradientUnits="userSpaceOnUse" x1="1022.3003" y1="1935.9677" x2="1034.8508" y2="1935.9677">
							<stop  offset="0" style="stop-color:#FFC444"/>
							<stop  offset="0.9964" style="stop-color:#F36F56"/>
						</linearGradient>
						<path style="fill:url(#SVGID_00000043447700970021596150000007904592395009177266_);" d="M1032.835,1929.236
							c-2.008-5.197-8.666-2.591-10.198,3.032c-1.535,5.622,2.362,12.933,7.952,13.232
							C1036.179,1945.8,1035.536,1936.231,1032.835,1929.236z"/>
					</g>
					<g>
						
							<linearGradient id="SVGID_00000076602270525099751190000002340233537243515048_" gradientUnits="userSpaceOnUse" x1="861.1145" y1="2262.2617" x2="899.3704" y2="2262.2617">
							<stop  offset="0" style="stop-color:#FF9085"/>
							<stop  offset="1" style="stop-color:#FB6FBB"/>
						</linearGradient>
						<path style="fill:url(#SVGID_00000076602270525099751190000002340233537243515048_);" d="M896.93,2350.764
							c-0.051,0-0.102-0.003-0.153-0.009c-0.752-0.083-1.294-0.761-1.211-1.513c3.771-33.941-3.264-58.609-9.472-80.373
							c-1.534-5.377-2.982-10.455-4.245-15.552c-6.899-27.835-9.919-38.582-13.116-49.959c-2.084-7.411-4.237-15.074-7.574-27.883
							c-0.19-0.732,0.249-1.481,0.981-1.672c0.723-0.189,1.48,0.248,1.672,0.981c3.33,12.783,5.481,20.434,7.559,27.832
							c3.204,11.398,6.229,22.164,13.139,50.041c1.251,5.05,2.694,10.107,4.22,15.459c6.277,22.007,13.392,46.95,9.561,81.427
							C898.213,2350.245,897.619,2350.764,896.93,2350.764z"/>
					</g>
					<path style="fill:#26264F;" d="M1032.778,1919.129l4.8,11.519c0,0,4.801,13.825,11.137,8.642
						c5.176-4.236,6.125-3.858,6.298-3.577c0.033,0.054,0.028,0.12,0.028,0.12c0.082,0,0.152-2.758,0.203-5.185
						c1.207,3.33,2.689,8.605,2.688,15.17c-0.001,6.377-0.001,13.205-4.992,18.432c-0.289,0.303-5.727,5.833-13.057,5.569
						c0,0-2.882-0.103-13.826-5.183c0,0,14.977-5.761,15.746-7.873c2.088-5.744-5.222-11.097-8.066-24.771
						C1032.641,1926.719,1032.614,1922.195,1032.778,1919.129z"/>
					
						<linearGradient id="SVGID_00000155845257660693319690000012985708090910079144_" gradientUnits="userSpaceOnUse" x1="886.7399" y1="2312.8638" x2="1184.4402" y2="2312.8638">
						<stop  offset="0" style="stop-color:#FF9085"/>
						<stop  offset="1" style="stop-color:#FB6FBB"/>
					</linearGradient>
					<path style="opacity:0.3;fill:url(#SVGID_00000155845257660693319690000012985708090910079144_);" d="M1174.744,2397.795
						c-28.919,14.846-103.421,41.423-192.177,28.214c-40.558-6.025-73.001-19.506-95.827-31.556
						c2.774-8.412,4.957-16.369,6.638-23.894c59.043,41.354,83.732,1.137,121.858-8.344c39.672-9.844,90.689,10.617,59.633-81.004
						c-31.078-91.621,20.461-84.96,20.461-84.96l84.71,14.505c0.591,5.706,1,10.526,1.296,14.277
						C1188.748,2322.361,1181.406,2367.262,1174.744,2397.795z"/>
					
						<linearGradient id="SVGID_00000003794487838298384400000014529523248771248521_" gradientUnits="userSpaceOnUse" x1="1016.471" y1="2454.5242" x2="395.5745" y2="2022.7131" gradientTransform="matrix(-1 0 0 1 1777.72 0)">
						<stop  offset="0" style="stop-color:#FF9085"/>
						<stop  offset="1" style="stop-color:#FB6FBB"/>
					</linearGradient>
					<path style="fill:url(#SVGID_00000003794487838298384400000014529523248771248521_);" d="M1393.153,2157.204
						c11.564,8.093,17.767,19.083,20.982,26.098c-8.503,19.956-27.787,57.013-67.7,84.322
						c-65.444,44.778-161.402,46.284-228.24-4.78c-79.853-61.007-93.194-177.995-59.654-228.096
						c3.861-5.767,16.554-24.729,36.26-26.904c12.445-1.375,29.384,3.758,56.147,35.091c55.765,65.292,36.068,106.06,69.013,125.162
						C1269.365,2196.74,1342.778,2121.952,1393.153,2157.204z"/>
					<g>
						
							<linearGradient id="SVGID_00000083057138458212626490000017403642054795617469_" gradientUnits="userSpaceOnUse" x1="1053.3042" y1="2232.1848" x2="1169.7284" y2="2232.1848">
							<stop  offset="0" style="stop-color:#FF9085"/>
							<stop  offset="1" style="stop-color:#FB6FBB"/>
						</linearGradient>
						<path style="fill:url(#SVGID_00000083057138458212626490000017403642054795617469_);" d="M1168.36,2290.926
							c-0.096,0-0.194-0.01-0.292-0.031c-0.79-0.171-79.383-18.232-114.682-115.613c-0.257-0.711,0.11-1.498,0.822-1.755
							c0.713-0.259,1.498,0.11,1.756,0.821c34.76,95.897,111.91,113.7,112.685,113.869c0.74,0.161,1.209,0.89,1.048,1.629
							C1169.558,2290.488,1168.99,2290.926,1168.36,2290.926z"/>
					</g>
				</g>
			</g>
			
				<linearGradient id="SVGID_00000100359532102772937700000009741487745358714784_" gradientUnits="userSpaceOnUse" x1="1444.8658" y1="2133.5254" x2="1477.1111" y2="2166.3464">
				<stop  offset="0" style="stop-color:#FFC444"/>
				<stop  offset="0.9964" style="stop-color:#F36F56"/>
			</linearGradient>
			<path style="fill:url(#SVGID_00000100359532102772937700000009741487745358714784_);" d="M1467.319,2140.354
				c0,0-5.825-11.192-13.933-5.71c-8.109,5.482-19.492,9.251-11.916,11.192C1449.046,2147.778,1467.319,2140.354,1467.319,2140.354z
				"/>
		</g>
		<g>
			<g>
				
					<linearGradient id="SVGID_00000031899527770825637480000009873826248531886262_" gradientUnits="userSpaceOnUse" x1="5867.0498" y1="2168.3015" x2="5608.5879" y2="2604.8152" gradientTransform="matrix(1 0 0 1 -3022.4941 0)">
					<stop  offset="0" style="stop-color:#FFC444"/>
					<stop  offset="0.3138" style="stop-color:#FBA94A"/>
					<stop  offset="0.9964" style="stop-color:#F36F56"/>
				</linearGradient>
				<polygon style="fill:url(#SVGID_00000031899527770825637480000009873826248531886262_);" points="2841.62,2560.189 
					2606.118,2531.396 2606.118,2184.068 2841.62,2139.459 				"/>
				<g>
					
						<linearGradient id="SVGID_00000008151306402140298720000017725772302144337305_" gradientUnits="userSpaceOnUse" x1="6103.5288" y1="2178.9016" x2="5835.4463" y2="2631.6633" gradientTransform="matrix(1 0 0 1 -3022.4941 0)">
						<stop  offset="0" style="stop-color:#FFC444"/>
						<stop  offset="0.3138" style="stop-color:#FBA94A"/>
						<stop  offset="0.9964" style="stop-color:#F36F56"/>
					</linearGradient>
					<polygon style="fill:url(#SVGID_00000008151306402140298720000017725772302144337305_);" points="3128.877,2541.889 
						2841.62,2560.189 2841.62,2139.459 3128.877,2179.115 					"/>
				</g>
			</g>
			<g>
				
					<linearGradient id="SVGID_00000133522881224390087820000007657895237830559882_" gradientUnits="userSpaceOnUse" x1="6153.8872" y1="2515.5552" x2="5780.8804" y2="3145.5222" gradientTransform="matrix(1 0 0 1 -3022.4941 0)">
					<stop  offset="0" style="stop-color:#FFC444"/>
					<stop  offset="0.3138" style="stop-color:#FBA94A"/>
					<stop  offset="0.9964" style="stop-color:#F36F56"/>
				</linearGradient>
				<polygon style="fill:url(#SVGID_00000133522881224390087820000007657895237830559882_);" points="3185.375,3019.536 
					2799.314,3046.689 2799.314,2481.249 3185.375,2508.401 				"/>
				
					<linearGradient id="SVGID_00000010275315365504989300000010932628465926003378_" gradientUnits="userSpaceOnUse" x1="2797.4536" y1="2516.7031" x2="2449.7864" y2="3103.8748">
					<stop  offset="0" style="stop-color:#FFC444"/>
					<stop  offset="0.3138" style="stop-color:#FBA94A"/>
					<stop  offset="0.9964" style="stop-color:#F36F56"/>
				</linearGradient>
				<polygon style="fill:url(#SVGID_00000010275315365504989300000010932628465926003378_);" points="2799.144,2481.244 
					2799.144,3046.696 2481.574,3007.99 2481.574,2517.341 2575.759,2506.667 2705.339,2491.919 				"/>
				<polygon style="fill:#FFFFFF;" points="2705.944,2491.919 2705.944,2585.302 2574.774,2591.863 2574.774,2506.667 				"/>
			</g>
			<g>
				<polygon style="fill:#FFFFFF;" points="3106.358,2256.616 3026.966,2251.6 3026.966,2189.399 3106.358,2196.626 				"/>
			</g>
			<g>
				<polygon style="fill:#FFFFFF;" points="3147.781,2610.563 3064.936,2610.563 3064.936,2541.54 3147.781,2546.556 				"/>
			</g>
		</g>
		<g>
			
				<linearGradient id="SVGID_00000029015001182186817380000011614646968572857000_" gradientUnits="userSpaceOnUse" x1="792.9869" y1="1309.8962" x2="404.9569" y2="1434.4268">
				<stop  offset="0" style="stop-color:#FCB148"/>
				<stop  offset="0.0521" style="stop-color:#FDBA46"/>
				<stop  offset="0.1424" style="stop-color:#FFC244"/>
				<stop  offset="0.3183" style="stop-color:#FFC444"/>
				<stop  offset="0.4849" style="stop-color:#FDB946"/>
				<stop  offset="0.7754" style="stop-color:#F99C4D"/>
				<stop  offset="0.8658" style="stop-color:#F8924F"/>
				<stop  offset="1" style="stop-color:#F8924F"/>
			</linearGradient>
			<path style="fill:url(#SVGID_00000029015001182186817380000011614646968572857000_);" d="M1239.692,1295.816
				c0,180.012-140.758,321.618-320.664,316.094c-187.228-5.75-344.693-167.449-344.693-360.95
				c0-193.501,157.465-333.969,344.693-314.473C1098.933,955.22,1239.692,1115.804,1239.692,1295.816z"/>
			
				<linearGradient id="SVGID_00000155140445284652315030000000591965453886121374_" gradientUnits="userSpaceOnUse" x1="1106.8805" y1="923.6512" x2="760.4712" y2="1687.8948">
				<stop  offset="0" style="stop-color:#FFDB44"/>
				<stop  offset="1" style="stop-color:#FEEF06"/>
			</linearGradient>
			<path style="fill:url(#SVGID_00000155140445284652315030000000591965453886121374_);" d="M1288.306,1280.295
				c0,180.012-140.759,321.618-320.664,316.093c-187.228-5.75-344.693-167.448-344.693-360.95
				c0-193.501,157.465-333.969,344.693-314.473C1147.547,939.698,1288.306,1100.283,1288.306,1280.295z"/>
			
				<linearGradient id="SVGID_00000060005498098935717060000002385709464349106870_" gradientUnits="userSpaceOnUse" x1="1043.1584" y1="1730.6089" x2="976.318" y2="1365.462">
				<stop  offset="0" style="stop-color:#FCB148"/>
				<stop  offset="0.0521" style="stop-color:#FDBA46"/>
				<stop  offset="0.1424" style="stop-color:#FFC244"/>
				<stop  offset="0.3183" style="stop-color:#FFC444"/>
				<stop  offset="0.4849" style="stop-color:#FDB946"/>
				<stop  offset="0.7754" style="stop-color:#F99C4D"/>
				<stop  offset="0.8658" style="stop-color:#F8924F"/>
				<stop  offset="1" style="stop-color:#F8924F"/>
			</linearGradient>
			<path style="fill:url(#SVGID_00000060005498098935717060000002385709464349106870_);" d="M1274.185,1279.343
				c0,172.085-134.68,307.227-306.543,301.662c-178.533-5.781-328.431-160.098-328.431-344.47s149.897-318.477,328.431-300.186
				C1139.505,953.957,1274.185,1107.258,1274.185,1279.343z"/>
			
				<linearGradient id="SVGID_00000130635606617418690880000008259415025205968775_" gradientUnits="userSpaceOnUse" x1="901.444" y1="1139.5785" x2="1176.9021" y2="1724.3236">
				<stop  offset="0" style="stop-color:#FCB148"/>
				<stop  offset="0.0521" style="stop-color:#FDBA46"/>
				<stop  offset="0.1424" style="stop-color:#FFC244"/>
				<stop  offset="0.3183" style="stop-color:#FFC444"/>
				<stop  offset="0.4849" style="stop-color:#FDB946"/>
				<stop  offset="0.7754" style="stop-color:#F99C4D"/>
				<stop  offset="0.8658" style="stop-color:#F8924F"/>
				<stop  offset="1" style="stop-color:#F8924F"/>
			</linearGradient>
			<path style="fill:url(#SVGID_00000130635606617418690880000008259415025205968775_);" d="M1264.072,1278.661
				c0,166.408-130.319,296.932-296.429,291.355c-172.333-5.786-316.848-154.83-316.848-332.7s144.515-307.428,316.848-289.978
				C1133.752,964.158,1264.072,1112.254,1264.072,1278.661z"/>
			<g>
				
					<linearGradient id="SVGID_00000047765193571279306330000014481091261561467032_" gradientUnits="userSpaceOnUse" x1="890.4695" y1="1013.7489" x2="1028.9794" y2="1532.8594">
					<stop  offset="0" style="stop-color:#FFDB44"/>
					<stop  offset="1" style="stop-color:#FEEF06"/>
				</linearGradient>
				<path style="fill:url(#SVGID_00000047765193571279306330000014481091261561467032_);" d="M965.941,1003.95L965.941,1003.95
					c8.84,0.841,15.994,8.798,15.994,17.775v30.638c17.675,1.973,35.375,5.046,53.1,9.212c13.069,3.072,26.051,6.728,38.945,10.967
					c7.726,2.54,12.991,10.341,12.203,18.386l-3.763,38.419c-0.999,10.193-11.075,16.179-20.56,11.949
					c-8.493-3.787-17.201-7.032-26.126-9.733c-15.574-4.712-31.997-7.784-49.28-9.209l-4.519-0.372v87.744
					c46.111,12.901,79.976,30.257,101.861,52.086c21.78,21.725,32.631,48.801,32.631,81.306c0,35.151-11.997,63.298-36.086,84.526
					c-24.218,21.341-58.173,33.344-102.081,35.942v33.816c0,8.981-7.159,15.976-16.007,15.625l-0.284-0.011
					c-8.865-0.353-16.064-7.944-16.064-16.956v-33.358l-7.126-0.322c-20.584-0.929-40.3-3.029-59.138-6.305
					c-13.951-2.427-27.574-5.559-40.867-9.399c-8.039-2.322-13.558-9.98-12.82-18.208l4.427-49.387
					c0.957-10.677,11.681-16.889,21.834-12.885c11.833,4.668,23.815,8.6,35.942,11.798c18.899,4.984,38.054,8.181,57.464,9.6
					l0.285-97.604c-44.262-10.952-77.401-27.174-99.172-48.661c-21.874-21.589-32.849-49.217-32.849-82.808
					c0-34.763,11.901-61.597,35.613-80.429c23.591-18.738,57.128-28.059,100.394-28.035v-31.323
					C949.891,1009.726,957.084,1003.107,965.941,1003.95z M949.891,1121.075c-13.68,0.995-24.347,4.752-31.982,11.276
					c-7.647,6.535-11.476,15.317-11.476,26.339c0,10.442,3.541,19.17,10.616,26.176c7.064,6.995,18.02,12.581,32.841,16.754
					V1121.075z M978.26,1297.814v89.506c14.871,0.029,26.274-3.521,34.234-10.641c7.946-7.108,11.915-17.148,11.915-30.13
					c0-11.836-3.688-21.652-11.072-29.458C1005.94,1309.272,994.258,1302.848,978.26,1297.814z"/>
			</g>
			
				<linearGradient id="SVGID_00000056386717690698149770000008452659615665053323_" gradientUnits="userSpaceOnUse" x1="820.405" y1="1177.4203" x2="1095.3075" y2="1760.9857">
				<stop  offset="0" style="stop-color:#FCB148"/>
				<stop  offset="0.0521" style="stop-color:#FDBA46"/>
				<stop  offset="0.1424" style="stop-color:#FFC244"/>
				<stop  offset="0.3183" style="stop-color:#FFC444"/>
				<stop  offset="0.4849" style="stop-color:#FDB946"/>
				<stop  offset="0.7754" style="stop-color:#F99C4D"/>
				<stop  offset="0.8658" style="stop-color:#F8924F"/>
				<stop  offset="1" style="stop-color:#F8924F"/>
			</linearGradient>
			<path style="opacity:0.3;fill:url(#SVGID_00000056386717690698149770000008452659615665053323_);" d="M914,1319.412
				c10.015-98.917,100.924-140.792,89.061-231.781c-7.312-56.08-49.818-103.341-97.234-140.243
				c-143.821,15.083-255.033,134.171-255.033,289.929c0,177.871,144.516,326.914,316.848,332.7
				c16.732,0.562,33.074-0.308,48.964-2.391C948.166,1499.521,905.396,1404.394,914,1319.412z"/>
		</g>
		<g>
			
				<linearGradient id="SVGID_00000044179515480020107110000000115827146631028650_" gradientUnits="userSpaceOnUse" x1="1278.6669" y1="830.3658" x2="1046.944" y2="904.7327">
				<stop  offset="0" style="stop-color:#FCB148"/>
				<stop  offset="0.0521" style="stop-color:#FDBA46"/>
				<stop  offset="0.1424" style="stop-color:#FFC244"/>
				<stop  offset="0.3183" style="stop-color:#FFC444"/>
				<stop  offset="0.4849" style="stop-color:#FDB946"/>
				<stop  offset="0.7754" style="stop-color:#F99C4D"/>
				<stop  offset="0.8658" style="stop-color:#F8924F"/>
				<stop  offset="1" style="stop-color:#F8924F"/>
			</linearGradient>
			<path style="fill:url(#SVGID_00000044179515480020107110000000115827146631028650_);" d="M1545.429,821.958
				c0,107.499-84.058,192.063-191.493,188.764c-111.808-3.433-205.843-99.997-205.843-215.552
				c0-115.555,94.034-199.439,205.843-187.796C1461.371,618.561,1545.429,714.458,1545.429,821.958z"/>
			
				<linearGradient id="SVGID_00000013170936280928177880000015136887124094571393_" gradientUnits="userSpaceOnUse" x1="1466.1173" y1="599.7088" x2="1259.2493" y2="1056.0984">
				<stop  offset="0" style="stop-color:#FFDB44"/>
				<stop  offset="1" style="stop-color:#FEEF06"/>
			</linearGradient>
			<path style="fill:url(#SVGID_00000013170936280928177880000015136887124094571393_);" d="M1574.461,812.689
				c0,107.499-84.058,192.063-191.493,188.764c-111.809-3.433-205.843-99.997-205.843-215.551
				c0-115.555,94.035-199.439,205.843-187.797C1490.402,609.292,1574.461,705.19,1574.461,812.689z"/>
			
				<linearGradient id="SVGID_00000155837435434699225540000005396073656152611245_" gradientUnits="userSpaceOnUse" x1="1428.0638" y1="1081.6062" x2="1388.1482" y2="863.5485">
				<stop  offset="0" style="stop-color:#FCB148"/>
				<stop  offset="0.0521" style="stop-color:#FDBA46"/>
				<stop  offset="0.1424" style="stop-color:#FFC244"/>
				<stop  offset="0.3183" style="stop-color:#FFC444"/>
				<stop  offset="0.4849" style="stop-color:#FDB946"/>
				<stop  offset="0.7754" style="stop-color:#F99C4D"/>
				<stop  offset="0.8658" style="stop-color:#F8924F"/>
				<stop  offset="1" style="stop-color:#F8924F"/>
			</linearGradient>
			<path style="fill:url(#SVGID_00000155837435434699225540000005396073656152611245_);" d="M1566.028,812.12
				c0,102.766-80.428,183.469-183.061,180.146c-106.616-3.452-196.132-95.607-196.132-205.71s89.515-190.188,196.132-179.264
				C1485.6,617.807,1566.028,709.355,1566.028,812.12z"/>
			
				<linearGradient id="SVGID_00000183938915805045135170000011818272258949587092_" gradientUnits="userSpaceOnUse" x1="1343.4351" y1="728.6558" x2="1507.9327" y2="1077.8529">
				<stop  offset="0" style="stop-color:#FCB148"/>
				<stop  offset="0.0521" style="stop-color:#FDBA46"/>
				<stop  offset="0.1424" style="stop-color:#FFC244"/>
				<stop  offset="0.3183" style="stop-color:#FFC444"/>
				<stop  offset="0.4849" style="stop-color:#FDB946"/>
				<stop  offset="0.7754" style="stop-color:#F99C4D"/>
				<stop  offset="0.8658" style="stop-color:#F8924F"/>
				<stop  offset="1" style="stop-color:#F8924F"/>
			</linearGradient>
			<path style="fill:url(#SVGID_00000183938915805045135170000011818272258949587092_);" d="M1559.988,811.713
				c0,99.375-77.824,177.321-177.021,173.991c-102.914-3.455-189.215-92.461-189.215-198.681s86.301-183.59,189.215-173.169
				C1482.164,623.898,1559.988,712.338,1559.988,811.713z"/>
			<g>
				
					<linearGradient id="SVGID_00000121995036279688722990000017830025356662920612_" gradientUnits="userSpaceOnUse" x1="1336.8813" y1="653.5131" x2="1419.5964" y2="963.5146">
					<stop  offset="0" style="stop-color:#FFDB44"/>
					<stop  offset="1" style="stop-color:#FEEF06"/>
				</linearGradient>
				<path style="fill:url(#SVGID_00000121995036279688722990000017830025356662920612_);" d="M1381.951,647.661L1381.951,647.661
					c5.279,0.502,9.551,5.254,9.551,10.615v18.296c10.555,1.178,21.125,3.013,31.71,5.501c7.805,1.834,15.557,4.018,23.257,6.549
					c4.614,1.517,7.758,6.175,7.287,10.98l-2.247,22.943c-0.596,6.087-6.614,9.662-12.278,7.136
					c-5.072-2.262-10.272-4.199-15.602-5.812c-9.3-2.814-19.108-4.649-29.429-5.5l-2.699-0.222v52.399
					c27.537,7.704,47.76,18.068,60.829,31.105c13.006,12.974,19.486,29.143,19.486,48.554c0,20.991-7.164,37.8-21.55,50.477
					c-14.463,12.744-34.739,19.912-60.961,21.464v20.194c0,5.363-4.276,9.541-9.559,9.331l-0.169-0.007
					c-5.294-0.211-9.593-4.744-9.593-10.126v-19.921l-4.255-0.192c-12.292-0.555-24.067-1.809-35.316-3.765
					c-8.331-1.449-16.467-3.32-24.405-5.613c-4.801-1.387-8.097-5.96-7.656-10.873l2.644-29.493
					c0.571-6.376,6.976-10.086,13.039-7.694c7.067,2.787,14.222,5.135,21.464,7.045c11.286,2.976,22.725,4.885,34.316,5.733
					l0.17-58.287c-26.432-6.54-46.222-16.228-59.224-29.06c-13.063-12.892-19.617-29.391-19.617-49.451
					c0-20.76,7.107-36.784,21.267-48.031c14.088-11.19,34.116-16.756,59.953-16.742V656.49
					C1372.367,651.111,1376.662,647.158,1381.951,647.661z M1372.367,717.606c-8.169,0.594-14.539,2.838-19.099,6.733
					c-4.567,3.902-6.853,9.147-6.853,15.729c0,6.235,2.115,11.448,6.34,15.632c4.218,4.177,10.761,7.513,19.612,10.005V717.606z
					 M1389.308,823.151v53.451c8.88,0.017,15.69-2.103,20.444-6.355c4.745-4.245,7.115-10.241,7.115-17.993
					c0-7.068-2.202-12.93-6.612-17.592C1405.838,829.993,1398.862,826.157,1389.308,823.151z"/>
			</g>
			
				<linearGradient id="SVGID_00000101817715147427178920000012304004719337258408_" gradientUnits="userSpaceOnUse" x1="1295.0404" y1="751.2541" x2="1459.2061" y2="1099.7466">
				<stop  offset="0" style="stop-color:#FCB148"/>
				<stop  offset="0.0521" style="stop-color:#FDBA46"/>
				<stop  offset="0.1424" style="stop-color:#FFC244"/>
				<stop  offset="0.3183" style="stop-color:#FFC444"/>
				<stop  offset="0.4849" style="stop-color:#FDB946"/>
				<stop  offset="0.7754" style="stop-color:#F99C4D"/>
				<stop  offset="0.8658" style="stop-color:#F8924F"/>
				<stop  offset="1" style="stop-color:#F8924F"/>
			</linearGradient>
			<path style="opacity:0.3;fill:url(#SVGID_00000101817715147427178920000012304004719337258408_);" d="M1350.933,836.048
				c5.981-59.071,60.27-84.078,53.185-138.415c-4.367-33.49-29.75-61.713-58.066-83.75c-85.887,9.007-152.3,80.124-152.3,173.139
				c0,106.221,86.302,195.226,189.215,198.681c9.992,0.335,19.751-0.184,29.24-1.428
				C1371.336,943.606,1345.795,886.798,1350.933,836.048z"/>
		</g>
		<g>
			<g>
				
					<linearGradient id="SVGID_00000088816184099576293720000015739459404590044544_" gradientUnits="userSpaceOnUse" x1="2512.334" y1="1257.8514" x2="3038.6069" y2="1257.8514">
					<stop  offset="0.1" style="stop-color:#311944"/>
					<stop  offset="0.6853" style="stop-color:#6D2F66"/>
					<stop  offset="1" style="stop-color:#893976"/>
				</linearGradient>
				<path style="fill:url(#SVGID_00000088816184099576293720000015739459404590044544_);" d="M3038.607,1241.076
					c0,145.505-117.247,271.298-262.325,280.996c-145.573,9.731-263.948-101.041-263.948-247.446s118.375-272.27,263.948-281.1
					C2921.36,984.727,3038.607,1095.571,3038.607,1241.076z"/>
			</g>
			<g>
				
					<linearGradient id="SVGID_00000155109917766238791820000012167540088633382301_" gradientUnits="userSpaceOnUse" x1="2991.7869" y1="602.8976" x2="2555.9939" y2="2071.9441">
					<stop  offset="0" style="stop-color:#FF9085"/>
					<stop  offset="1" style="stop-color:#FB6FBB"/>
				</linearGradient>
				<path style="fill:url(#SVGID_00000155109917766238791820000012167540088633382301_);" d="M3060.641,1241.076
					c0,145.505-117.247,271.298-262.325,280.996c-145.573,9.731-263.948-101.041-263.948-247.446s118.375-272.27,263.948-281.1
					C2943.394,984.727,3060.641,1095.571,3060.641,1241.076z"/>
				<path style="fill:#FFFFFF;" d="M2789.048,1400.805c-11.41,0.746-22.026-4.562-27.932-14.046l-99.195-159.285
					c-9.296-14.927-4.287-35.372,11.182-45.662c15.457-10.284,35.517-6.528,44.801,8.393l68.793,110.569l90.771-184.867
					c8.146-16.591,27.718-24.202,43.703-17.005c15.983,7.193,22.342,26.463,14.207,43.043l-117.302,239.095
					c-5.372,10.947-16.05,18.481-27.883,19.671C2789.811,1400.747,2789.43,1400.78,2789.048,1400.805z"/>
			</g>
		</g>
	</g>
</g>
</svg>
