<svg xmlns="http://www.w3.org/2000/svg" height="1200" width="1600" version="1.1" xmlns:xlink="http://www.w3.org/1999/xlink" xmlns:svgjs="http://svgjs.com/svgjs"><rect fill="#ffffff" width="1600" height="1200"></rect><g><path d="M801.38 209.76C666.72 259.93 445.22 350.72 358.61 437.58 272 524.62 300.92 628.05 332.95 690.38 364.99 752.35 413.19 789.69 438.77 789.69H1157.32C1199.07 789.69 1279.16 690.38 1295.32 599.22 1311.48 508.06 1269.66 400.23 1176.67 313.37 1083.76 226.33 1013.09 131.05 801.38 209.76Z" fill="#ffffcc" opacity="1" stroke-width="3" stroke="none"></path></g><g><path d="M904.29 680.32C904.1 665.79 917.91 653.79 931.9 653.79H984.77C996.22 653.79 1001.31 657.61 1005.67 663.97 1010.03 670.32 1010.76 671.78 1014.21 677.96 1017.66 684.14 1018.56 686.49 1018.56 697.76 1018.56 708.11 1015.65 707.88 1015.17 707.78 1015.17 707.77 1015.16 707.77 1015.15 707.78 1015.14 707.78 1015.14 707.78 1015.13 707.79 1015.12 707.79 1015.12 707.8 1015.11 707.81 1015.11 707.82 1015.11 707.82 1015.11 707.83 1015.1 714.41 1025.56 717.56 1029.74 714.12 1032.79 711.59 1043.27 702.62 1048.69 697.96 1050.49 696.42 1051.73 695.36 1051.96 695.16 1051.97 695.15 1051.99 695.15 1052 695.15 1052.01 695.15 1052.02 695.15 1052.03 695.16L1058.86 702.26C1058.87 702.26 1058.87 702.27 1058.87 702.28 1058.88 702.28 1058.88 702.29 1058.88 702.3 1058.88 702.3 1058.88 702.31 1058.87 702.32 1058.87 702.33 1058.87 702.33 1058.86 702.34 1058.61 702.57 1057.22 703.84 1055.1 705.78 1045.23 714.79 1019.44 738.32 1017.75 739.64 1016.95 740.26 1016.31 741.06 1015.89 741.98 1015.17 743.49 1014.84 745.46 1014.84 747.9 1014.84 751.9 1016.93 753.98 1016.93 757.9V772.53C1016.93 775.16 1015.29 778.07 1010.57 778.07H938C934.73 778.07 933.36 773.79 933.36 770.43V759.99C933.36 755.17 935.57 753.13 935.87 752.87 935.88 752.86 935.89 752.85 935.9 752.84 935.9 752.83 935.9 752.81 935.89 752.8 934.16 749.67 931.5 744.83 928.62 739.54 923.2 729.6 917 718.11 914.83 713.57 910.65 704.85 904.47 694.86 904.29 680.32ZM935.81 720.71C935.82 720.72 935.83 720.73 935.84 720.73 935.85 720.73 935.86 720.73 935.87 720.73 935.88 720.73 935.9 720.72 935.9 720.71 935.91 720.7 935.91 720.69 935.91 720.68V710.31C935.73 707.58 932.64 704.5 932.64 702.13V692.86C932.64 688.14 935 684.51 942.27 684.51H995.67C995.68 684.51 995.69 684.5 995.7 684.5 1001.5 680.87 1001.86 677.78 999.5 672.33 997.14 666.88 995.68 663.97 987.15 663.97H934.82C925.55 663.97 921.92 667.24 918.11 671.24 914.29 675.24 910.29 685.77 917.02 695.58 922.14 703.08 931.62 715.33 935.81 720.71Z" fill="#006633" opacity="1" stroke-width="3" stroke="none"></path><path d="M1055.94 705.01C1028.68 732.88 1017.8 738.68 1015.89 741.98L1015.91 735.28C1015.91 734.72 1016.04 734.17 1016.28 733.67 1016.52 733.17 1016.87 732.73 1017.31 732.39L1054.43 702.74 1055.94 705.01Z" fill="#000000" opacity="1" stroke-width="3" stroke="none"></path><path d="M1048.69 697.96C1050.22 701.01 1052.41 703.68 1055.1 705.77 1055.92 706.39 1057.62 703.41 1063.72 698.49 1064.62 697.76 1064.81 697.04 1067.45 696.58 1070.09 696.12 1087.43 692.41 1088.98 691.77 1090.52 691.13 1092.25 681.95 1080.71 671.96 1069.18 661.96 1064.45 663.87 1063.54 665.88 1062.64 667.87 1058.64 684.68 1058.09 686.77 1057.55 688.87 1057.09 689.86 1055.82 691.13 1052.18 694.78 1048.38 697.33 1048.69 697.96Z" fill="#006633" opacity="1" stroke-width="3" stroke="none"></path><path d="M1088.27 691.65L1086.79 691.22C1086.79 691.22 1071.99 686.95 1064.36 668.78 1064.09 668.14 1063.83 667.49 1063.59 666.83" stroke="#000000" stroke-width="3" stroke-linecap="round" stroke-linejoin="round" opacity="1" fill="none"></path><path d="M1011.43 707.94H940.08" stroke="#000000" stroke-width="3" stroke-linecap="round" stroke-linejoin="round" opacity="1" fill="none"></path><path d="M939.36 753H1012.76" stroke="#000000" stroke-width="3" stroke-linecap="round" stroke-linejoin="round" opacity="1" fill="none"></path><path d="M935.91 720.84V752.84C933.11 748.62 930.67 744.17 928.62 739.54L935.91 720.84Z" fill="#000000" opacity="1" stroke-width="3" stroke="none"></path><path d="M935.91 720.84V752.84" stroke="#000000" stroke-width="3" stroke-linecap="round" stroke-linejoin="round" opacity="1" fill="none"></path></g><g><path d="M529.83 759.41C529.14 759.45 528.81 744.48 537.42 742.36 546.03 740.22 541.61 758.7 529.83 759.41Z" fill="#99c665" opacity="1" stroke-width="3" stroke="none"></path><path d="M529.53 759.26C530.22 759.3 530.54 744.33 521.94 742.21 513.33 740.07 517.75 758.55 529.53 759.26Z" fill="#99c665" opacity="1" stroke-width="3" stroke="none"></path><path d="M489.58 760.16C488.88 760.2 488.56 745.23 497.16 743.11 505.78 740.99 501.36 759.46 489.58 760.16Z" fill="#99c665" opacity="1" stroke-width="3" stroke="none"></path><path d="M489.28 760.01C489.97 760.05 490.29 745.08 481.69 742.96 473.08 740.82 477.5 759.31 489.28 760.01Z" fill="#99c665" opacity="1" stroke-width="3" stroke="none"></path><path d="M447.67 760.16C446.98 760.2 446.66 745.23 455.26 743.11 463.87 740.99 459.45 759.46 447.67 760.16Z" fill="#99c665" opacity="1" stroke-width="3" stroke="none"></path><path d="M447.37 760.01C448.07 760.05 448.39 745.08 439.79 742.96 431.17 740.82 435.59 759.31 447.37 760.01Z" fill="#99c665" opacity="1" stroke-width="3" stroke="none"></path><path d="M575.08 760.62C574.39 760.66 574.06 745.7 582.67 743.57 591.28 741.43 586.86 759.91 575.08 760.62Z" fill="#99c665" opacity="1" stroke-width="3" stroke="none"></path><path d="M574.78 760.47C575.47 760.51 575.79 745.55 567.19 743.42 558.58 741.28 563 759.76 574.78 760.47Z" fill="#99c665" opacity="1" stroke-width="3" stroke="none"></path><path d="M618.55 759.56C617.85 759.6 617.53 744.63 626.13 742.51 634.75 740.37 630.33 758.85 618.55 759.56Z" fill="#99c665" opacity="1" stroke-width="3" stroke="none"></path><path d="M618.25 759.41C618.94 759.45 619.26 744.48 610.66 742.36 602.05 740.22 606.47 758.7 618.25 759.41Z" fill="#99c665" opacity="1" stroke-width="3" stroke="none"></path><path d="M652.59 759.71C651.9 759.75 651.57 744.78 660.18 742.66 668.79 740.52 664.37 759 652.59 759.71Z" fill="#99c665" opacity="1" stroke-width="3" stroke="none"></path><path d="M652.28 759.56C652.97 759.6 653.29 744.63 644.69 742.51 636.09 740.37 640.51 758.85 652.28 759.56Z" fill="#99c665" opacity="1" stroke-width="3" stroke="none"></path><path d="M425.91 779.35C425.91 779.35 425.9 779.35 425.9 779.35 425.9 779.35 425.9 779.35 425.89 779.35 425.89 779.34 425.89 779.34 425.89 779.33 425.89 779.33 425.89 779.33 425.89 779.33 426.35 777.18 426.97 775.09 427.72 773.08 429.98 767.39 434.63 759.84 443.14 759.84 456.93 759.84 456.93 765.06 468.32 761.89 479.7 758.71 487.29 758.48 499.37 761.89 511.45 765.29 511.97 758.93 526.1 759.16 540.25 759.39 538.7 764.16 550.6 763.02 562.5 761.87 562.16 759.61 574.58 759.38 587 759.15 589.77 764.38 595.11 763.23 600.46 762.1 607.35 758.47 618.91 758.7 630.47 758.93 633.22 762.55 638.06 761.65 642.89 760.76 649.62 756.44 658.24 760.52 663.09 762.82 665.75 768.41 667.11 772.88 667.68 774.88 668.11 776.95 668.4 779.06 668.4 779.07 668.4 779.08 668.4 779.09 668.4 779.1 668.39 779.11 668.39 779.12 668.38 779.12 668.38 779.13 668.37 779.13 668.37 779.14 668.36 779.14 668.35 779.14H667.29L425.91 779.35Z" fill="#99cb65" opacity="1" stroke-width="3" stroke="none"></path><path d="M425.91 779.44C425.9 779.44 425.89 779.44 425.88 779.43 425.87 779.43 425.87 779.42 425.86 779.42 425.78 779.28 426.64 775.88 427.72 773.08 430.27 772.16 432.89 771.69 435.53 771.68 440.11 771.74 444.67 772.38 449.15 773.56 451.9 774.21 454.28 774.76 456.51 774.76 458.13 774.79 459.74 774.43 461.26 773.67 465.92 771.31 472.28 768.6 480.07 768.6 484.31 768.61 488.53 769.42 492.6 771.01 498.6 773.35 505.89 774.59 513.71 774.59 520.93 774.59 528.13 773.53 533.46 771.68 535.22 771.06 537.04 770.75 538.86 770.75 542.12 770.75 545.05 771.72 548.15 772.74 551.53 773.85 555.02 775 559.22 775 562.8 775 567.53 773.98 572.53 772.91 578.36 771.65 584.97 770.22 590.85 770.22 593.81 770.14 596.77 770.63 599.62 771.68L600.36 771.97C606.67 774.51 611.23 776.34 615.65 776.34 619.27 776.34 622.57 775.11 626.34 772.36 628.21 770.98 630.54 770.31 633.46 770.31 637.95 770.31 642.96 771.88 647.81 773.4 651.92 774.68 655.79 775.89 658.73 775.89 659.39 775.9 660.04 775.82 660.68 775.66 662.27 775.2 663.82 774.54 665.32 773.7 665.92 773.38 666.49 773.09 667.05 772.84 667.05 772.83 667.06 772.83 667.07 772.83 667.08 772.83 667.09 772.84 667.09 772.85 667.1 772.85 667.11 772.87 667.11 772.87 667.7 774.83 668.15 776.85 668.45 778.91 668.47 779.01 668.48 779.08 668.48 779.1 668.49 779.12 668.49 779.13 668.49 779.14 668.49 779.15 668.48 779.16 668.48 779.17 668.48 779.18 668.47 779.19 668.46 779.2 668.45 779.2 668.44 779.2 668.43 779.2L425.91 779.44Z" fill="#558722" opacity="1" stroke-width="3" stroke="none"></path></g><g><path d="M1297.03 796.49H310.43C307.99 796.49 305.64 795.52 303.92 793.79 302.19 792.06 301.22 789.72 301.22 787.28 301.22 784.84 302.19 782.49 303.92 780.76 305.64 779.04 307.99 778.07 310.43 778.07H1297.03C1299.47 778.07 1301.82 779.04 1303.54 780.76 1305.27 782.49 1306.24 784.84 1306.24 787.28 1306.24 789.72 1305.27 792.06 1303.54 793.79 1301.82 795.52 1299.47 796.49 1297.03 796.49Z" fill="#ffffcc" opacity="1" stroke-width="3" stroke="none"></path></g><g><path d="M718.76 692.22L715.54 720.85 692.75 707.26V688.49L718.76 692.22Z" fill="#f5b998" opacity="1" stroke-width="3" stroke="none"></path><path d="M716.08 446.56C716.08 446.56 716.62 438.65 722.25 434.61 727.89 430.57 739.82 429.6 745.85 434.55 751.89 439.5 753.49 453.2 750.42 460.66 749.66 462.25 748.37 463.53 746.77 464.27 740.58 467.54 729.5 466.54 729.5 466.54L716.08 446.56Z" fill="#000000" opacity="1" stroke-width="3" stroke="none"></path><path d="M873.96 745.74C875.25 746.02 885.81 739.48 886.52 739.04 886.52 739.04 886.54 739.03 886.55 739.04 886.57 739.04 886.58 739.04 886.58 739.05L927.22 773.26C927.23 773.27 927.23 773.28 927.23 773.28 927.24 773.3 927.24 773.3 927.24 773.31 927.2 773.77 926.65 779.17 919.47 779.03 916.12 778.96 881.02 776.73 880.65 776.71H880.65L824.42 778.26C824.41 778.26 824.4 778.25 824.39 778.25 824.39 778.25 824.38 778.24 824.37 778.24 824.37 778.23 824.36 778.22 824.36 778.21 824.36 778.2 824.36 778.19 824.36 778.18 824.64 777.15 827.58 766.28 827.82 761.44 828.08 756.52 827.59 741.04 827.56 740.03 827.56 740.02 827.56 740 827.55 739.99 827.54 739.97 827.53 739.97 827.51 739.97L823.61 739.38C823.6 739.38 823.59 739.37 823.59 739.36 823.58 739.36 823.57 739.36 823.57 739.35 823.56 739.34 823.56 739.33 823.56 739.33 823.56 739.31 823.56 739.31 823.56 739.3 823.7 738.75 825.69 733.32 827.18 733.1L829.74 733.15C831.36 732.93 873.75 745.69 873.96 745.74Z" fill="#2d2d2d" opacity="1" stroke-width="3" stroke="none"></path><path d="M853.91 615.42C853.91 615.42 855.23 616.47 858.48 619.63 861.84 622.9 867.26 628.42 875.23 637.17 890.92 654.38 888.11 685.69 868.81 704.61 850.37 722.68 829.72 735.94 827.91 737.1 827.9 737.11 827.89 737.11 827.88 737.12 827.88 737.14 827.88 737.15 827.88 737.16 827.88 737.17 827.89 737.19 827.9 737.19 827.91 737.2 827.92 737.2 827.93 737.21L850.71 741.49 857.55 742.2 858.96 777.61 851.49 780.41C835.54 780.09 799.48 778.85 780.32 778.46 755.95 777.98 752.03 770.09 751.77 769.48 751.76 769.47 751.76 769.46 751.75 769.46 751.74 769.45 751.73 769.45 751.71 769.45L736.47 769.14C724.8 768.91 711.53 754.56 718.37 738.61 725.21 722.66 764.62 673.17 769.86 668.45 775.08 663.72 775.89 660.52 779.11 658.17 782.33 655.82 783.13 644.98 783.13 644.98L853.91 615.42Z" fill="#2a4538" opacity="1" stroke-width="3" stroke="none"></path><path d="M816.5 677.42L791.16 682.54C791.16 682.54 752.95 727.24 748.54 738.01 744.1 748.78 751.76 769.45 751.76 769.45" stroke="#2b2b2b" stroke-width="3" stroke-linecap="round" stroke-linejoin="round" opacity="1" fill="none"></path><path d="M813.96 663.56C838.36 655.92 854.05 634.29 858.48 619.63 855.65 616.17 853.91 615.43 853.91 615.43L783.12 644.99C783.12 644.99 782.31 655.84 779.1 658.19 778.48 658.65 777.9 659.17 777.37 659.73 785.06 664.19 797.77 668.63 813.96 663.56Z" fill="#2d2d2d" opacity="1" stroke-width="3" stroke="none"></path><path d="M856.86 619.38C855.52 621.49 846.26 639.75 828.71 649.38 818.2 655.15 809.35 658.07 802.22 659.28 802.21 659.29 802.19 659.3 802.18 659.31 802.18 659.32 802.17 659.33 802.17 659.35 802.32 661.04 802.32 662.73 802.17 664.41 801.62 670.02 799.75 668.65 798.68 671.85 797.61 675.05 798.68 677.48 797.34 681.21 796.01 684.94 792.51 687.28 789.29 692.04 786.09 696.8 783.67 701.85 782.86 702.09 782.71 702.14 782.49 702.01 782.16 701.75 780.74 700.6 777.37 696.89 769.72 694.33 761.64 691.62 756.34 689.97 754.86 688.19 754.63 687.95 754.48 687.64 754.43 687.31 754.17 685.17 757.11 679.86 757.92 677.2 758.73 674.52 758.46 667.02 758.73 664.34 759 661.65 763.55 659.61 762.75 653.96 762.04 648.98 761.74 646.11 764.06 637.67 764.07 637.66 764.06 637.64 764.06 637.63 764.05 637.62 764.04 637.61 764.03 637.6 761.57 636.39 758.96 635.54 756.28 635.07 752.13 634.2 738.21 630.39 737.3 630.14 737.29 630.13 737.28 630.14 737.26 630.14 737.25 630.15 737.24 630.16 737.23 630.17 736.91 630.79 733.17 637.95 732.15 640.75 731.91 641.38 731.66 641.95 731.4 642.49 730.48 644.42 729.58 645.89 730 648.21 730.54 651.17 729.2 654.09 728.4 657.03 727.59 659.96 730 664.57 729.47 668.3 728.93 672.04 724.11 676.25 724.11 676.25 724.11 676.25 724.11 677.58 722.77 681.58 721.43 685.57 721.43 693.88 719.82 693.85 718.22 693.82 694.9 692.54 692.75 691.97 690.6 691.38 691.68 687.39 691.94 682.56 692.21 677.74 692.21 676.41 690.6 672.08 688.98 667.76 688.98 663.99 690.86 661.09 692.75 658.18 694.09 654.19 693.01 648.53 691.94 642.88 693.55 635.95 694.62 631.67 695.69 627.39 696.75 622.86 696.22 620.17 695.69 617.49 696.21 605.43 696.49 593.63 696.77 581.83 699.71 568.48 704.54 561.61 709.36 554.74 712.85 548.37 714.19 544.38 714.41 543.73 714.61 543.14 714.78 542.59 715.1 541.55 715.32 540.68 715.51 539.93 715.85 538.62 716.06 537.64 716.34 536.65 716.87 534.78 723.84 523.66 730.01 520.03 732.81 518.38 734.2 517.01 735.48 516.5 737.04 515.91 738.44 516.59 741.81 519.74 747.99 525.49 745.3 524.36 755.76 526.99 766.24 529.61 777.49 528.76 788.48 537.56 799.48 546.36 801.62 553.92 807.52 558.06 813.42 562.19 828.71 576.45 837.29 581.45 845.88 586.45 845.32 589.64 847.21 596.65 849.08 603.66 849.34 606.08 854.71 610.76 860.08 615.43 858.2 617.26 856.86 619.38Z" fill="#99cb65" opacity="1" stroke-width="3" stroke="none"></path><path d="M735.51 516.57C735.5 516.56 735.5 516.55 735.5 516.55 735.49 516.54 735.48 516.53 735.47 516.53 735.47 516.53 735.46 516.52 735.45 516.52 735.44 516.52 735.44 516.52 735.43 516.53 734.16 516.99 732.65 518.26 729.95 519.84 723.78 523.47 716.89 534.79 716.36 536.66 716.3 536.9 714.78 541.55 714.78 542.59 715.26 543.23 715.86 543.77 716.54 544.18 717.23 544.58 717.99 544.84 718.78 544.95 718.78 544.95 733.52 531.92 735.87 523.37 736.37 521.12 736.25 518.77 735.51 516.57Z" fill="#606060" opacity="1" stroke-width="3" stroke="none"></path><path d="M782.16 701.75C777.33 711.98 768.91 728.89 768.91 728.89 768.91 728.89 739.15 733.12 743.71 718.46 746.9 708.22 752.04 695.13 754.86 688.19 756.34 689.97 761.64 691.62 769.72 694.33 777.37 696.89 780.74 700.6 782.16 701.75Z" fill="#f5b998" opacity="1" stroke-width="3" stroke="none"></path><path d="M814.49 583.39C814.49 583.39 814.23 610.74 812.08 619.27 809.93 627.82 805.64 641.4 805.37 644.88 805.09 648.36 806.71 650.54 804.84 653.99L802.16 659.3" stroke="#606060" stroke-width="3" stroke-linecap="round" stroke-linejoin="round" opacity="1" fill="none"></path><path d="M761.13 581.53C761.13 581.53 767.56 608.73 767.84 613.03 768.12 617.34 764.08 637.62 764.08 637.62" stroke="#606060" stroke-width="3" stroke-linecap="round" stroke-linejoin="round" opacity="1" fill="none"></path><path d="M726.54 618.37C723.99 612.99 717.63 599.9 715.95 596.47 715.94 596.45 715.93 596.44 715.92 596.44 715.9 596.43 715.89 596.43 715.88 596.44 715.86 596.44 715.85 596.45 715.84 596.47 715.84 596.48 715.84 596.5 715.84 596.51 716.79 599.33 719.79 608.42 722.25 616.95 725.19 627.19 731.4 642.49 731.4 642.49 732.55 641.36 734.16 636.34 737.26 630.13 734.04 627.1 729.49 624.6 726.54 618.37Z" fill="#606060" opacity="1" stroke-width="3" stroke="none"></path><path d="M737.26 630.13C734.04 627.1 729.49 624.6 726.54 618.37 723.99 612.99 717.63 599.9 715.95 596.47" stroke="#606060" stroke-width="3" stroke-linecap="round" stroke-linejoin="round" opacity="1" fill="none"></path><path d="M718.36 704.68C718.36 704.67 718.36 704.67 718.36 704.65 718.35 704.65 718.35 704.64 718.35 704.64 718.34 704.63 718.34 704.62 718.33 704.62 718.32 704.62 718.31 704.62 718.3 704.62L689.24 704.04C689.16 704.03 689.08 704.05 689.01 704.08 688.93 704.11 688.86 704.16 688.81 704.21 688.75 704.27 688.71 704.34 688.68 704.42 688.66 704.49 688.64 704.57 688.65 704.65 688.96 710.13 691.23 749.41 691.23 750.53 691.23 751.74 659.05 761.56 656.84 762.91 654.63 764.27 653.62 766.07 657.04 766.54 659.49 766.81 661.95 766.86 664.4 766.69 664.41 766.69 664.42 766.69 664.43 766.7 664.44 766.7 664.45 766.71 664.45 766.71 664.46 766.72 664.46 766.73 664.47 766.74 664.47 766.74 664.47 766.76 664.47 766.76 664.42 767.03 664.54 767.93 668.11 768.17 672.09 768.44 691.94 768.67 694.24 768.69 694.25 768.69 694.26 768.7 694.27 768.7 694.28 768.71 694.29 768.72 694.29 768.74 694.3 768.75 694.3 768.76 694.29 768.78 694.28 768.79 694.28 768.8 694.27 768.81 693.21 769.45 687.78 772.81 683.99 776.54 680.01 780.43 683.35 781.62 683.75 781.74 683.76 781.74 683.77 781.76 683.78 781.76 683.78 781.77 683.79 781.78 683.79 781.79 683.83 782.1 684.21 784.13 686.97 783.84 686.98 783.84 687 783.84 687 783.84 687.01 783.85 687.02 783.85 687.03 783.86 689.54 787.16 693.69 785.53 694.02 785.39 694.04 785.39 694.05 785.39 694.06 785.39 695.9 785.91 697.84 785.95 699.68 785.5 702.9 784.75 709.12 781.86 710.33 781.28 711.54 780.71 713.95 780.55 719.78 780.27 725.61 779.98 734.26 780.16 737.48 779.02 740.7 777.87 744.12 773.92 746.53 770.15 748.94 766.37 772.68 733.26 772.88 731.45 773.06 729.65 767.85 722.51 758.19 718.1 748.54 713.68 743.71 712.77 743.31 713.97 742.91 715.17 730.64 747.71 729.23 750.5 727.81 753.28 727.81 754.49 725.61 755.45 723.51 756.36 714.34 757.5 713.41 757.61 713.4 757.61 713.4 757.61 713.38 757.61 713.38 757.61 713.37 757.6 713.36 757.59 713.35 757.59 713.35 757.58 713.35 757.58 713.34 757.56 713.34 757.56 713.34 757.55L718.36 704.68Z" fill="#99c665" opacity="1" stroke-width="3" stroke="none"></path><path d="M765.02 657.49C765.02 657.49 769.84 654.18 769.84 650.14" stroke="#606060" stroke-width="3" stroke-linecap="round" stroke-linejoin="round" opacity="1" fill="none"></path><path d="M695.03 656.89C697.52 655.1 699.52 652.73 700.86 649.97" stroke="#606060" stroke-width="3" stroke-linecap="round" stroke-linejoin="round" opacity="1" fill="none"></path><path d="M696.23 678.03L715.14 677.4" stroke="#606060" stroke-width="3" stroke-linecap="round" stroke-linejoin="round" opacity="1" fill="none"></path><path d="M762 679.15C762 679.15 777.9 683.09 781.71 683.57 785.53 684.04 786.33 685.86 786.33 685.86" stroke="#606060" stroke-width="3" stroke-linecap="round" stroke-linejoin="round" opacity="1" fill="none"></path><path d="M731.04 600.29C731.04 600.29 735.66 595.16 736.26 582.7" stroke="#606060" stroke-width="3" stroke-linecap="round" stroke-linejoin="round" opacity="1" fill="none"></path><path d="M726.4 546.71C726.4 546.71 735.66 544.48 741.69 530.93" stroke="#606060" stroke-width="3" stroke-linecap="round" stroke-linejoin="round" opacity="1" fill="none"></path><path d="M735.86 523.4C735.86 523.39 735.86 523.38 735.86 523.37 735.85 523.36 735.85 523.35 735.84 523.34 735.42 522.96 730.35 518.31 728.42 515.58 728.12 515.1 727.86 514.61 727.64 514.09 726.65 509.99 726.71 505.72 727.81 501.69 729.42 495.09 738.88 484.62 723.8 463.81 708.72 442.99 686.39 449.79 670.5 458.31 656.02 466.08 658.86 487.45 661.37 492.3 661.9 493.35 662.75 494.82 663.64 496.34 664.08 497.1 664.53 497.83 664.98 498.6 666.41 501.08 667.77 503.5 668.29 504.72 669.5 507.56 671.1 513.43 674.53 520.93 677.94 528.45 682.77 530.75 690.42 534.73 698.06 538.7 700.88 538.16 704.09 537.41 707.31 536.67 711.33 533.94 711.33 533.94L718.78 544.95C718.76 544.95 730.02 544.77 735.86 523.4Z" fill="#f5b998" opacity="1" stroke-width="3" stroke="none"></path><path d="M746.77 464.27L716.08 446.5V446.56L729.49 466.53C729.49 466.53 740.37 467.95 746.77 464.27Z" fill="#000000" opacity="1" stroke-width="3" stroke="none"></path><path d="M670.36 468.41C670.34 468.41 670.34 468.41 670.33 468.4 670.32 468.4 670.31 468.4 670.3 468.4 670.29 468.4 670.28 468.41 670.28 468.41 670.26 468.42 670.26 468.42 670.26 468.43 669.67 469.61 662.23 484.62 661.38 492.18 661.38 492.19 661.37 492.2 661.37 492.21 661.36 492.22 661.35 492.22 661.34 492.23 661.33 492.23 661.32 492.24 661.31 492.23 661.29 492.23 661.28 492.22 661.28 492.22 660.52 491.44 655.16 485.96 654.4 483.33 653.59 480.5 655 465.85 660.83 459.73 666.66 453.6 672.69 450.51 682.95 447.5 692.95 444.48 703.45 443.4 713.93 444.29 725.19 445.12 735.25 465.03 736.25 474.5 737.25 483.97 736.65 493.42 733.23 500.79 730.13 507.47 728.05 513.07 727.69 514.05 727.68 514.06 727.68 514.07 727.66 514.08 727.65 514.08 727.64 514.09 727.63 514.09 727.62 514.09 727.6 514.08 727.6 514.08 727.58 514.07 727.58 514.06 727.57 514.05 725.7 508.64 724.36 503.07 723.58 497.42 723.58 497.41 723.58 497.4 723.59 497.39 723.6 497.38 723.6 497.37 723.61 497.36 731.63 492.49 732.42 483.07 727.4 477.75 722.57 472.63 714.39 477.86 713.77 478.27 713.76 478.27 713.75 478.28 713.75 478.3 713.74 478.31 713.74 478.32 713.75 478.33 713.98 479.01 716.76 487.26 716.95 488.81 717.15 490.39 703.2 479.87 702.69 479.49 702.69 479.49 702.67 479.48 702.66 479.48 702.24 479.44 694.24 478.7 687 478.17 679.9 477.62 671.15 469.2 670.36 468.41Z" fill="#000000" opacity="1" stroke-width="3" stroke="none"></path><path d="M726.61 452.87C729.84 457.12 732.42 461.81 734.27 466.81" stroke="#000000" stroke-width="3" stroke-linecap="round" stroke-linejoin="round" opacity="1" fill="none"></path><path d="M694.45 768.7C694.45 768.7 705.83 759.89 713.34 757.62" stroke="#454545" stroke-width="3" stroke-linecap="round" stroke-linejoin="round" opacity="1" fill="none"></path><path d="M702.48 767.26C702.48 767.26 695.24 770.93 692.82 773.3 690.41 775.67 683.78 781.76 683.78 781.76" stroke="#454545" stroke-width="3" stroke-linecap="round" stroke-linejoin="round" opacity="1" fill="none"></path><path d="M687 783.84C687 783.84 695.43 776.56 698.25 774.41 701.06 772.26 708.9 770.19 708.9 770.19" stroke="#454545" stroke-width="3" stroke-linecap="round" stroke-linejoin="round" opacity="1" fill="none"></path><path d="M694.04 785.39C694.04 785.39 701.48 779.1 704.09 777.53 706.71 775.98 713.35 774.7 713.35 774.7" stroke="#454545" stroke-width="3" stroke-linecap="round" stroke-linejoin="round" opacity="1" fill="none"></path><path d="M664.49 766.68C664.49 766.68 664.86 764.09 668.09 763.14 671.31 762.18 678.95 759.53 678.95 759.53" stroke="#454545" stroke-width="3" stroke-linecap="round" stroke-linejoin="round" opacity="1" fill="none"></path><path d="M718.84 528.1C715.91 530.72 711.33 533.94 711.33 533.94 712.63 536.19 714.09 538.35 715.69 540.4 722.7 535.5 721.94 525.3 718.84 528.1Z" fill="#c76a37" opacity="1" stroke-width="3" stroke="none"></path><path d="M719.32 527.76C719.14 527.85 718.98 527.96 718.84 528.1 715.91 530.72 711.33 533.94 711.33 533.94" stroke="#c76a37" stroke-width="3" stroke-linecap="round" stroke-linejoin="round" opacity="1" fill="none"></path><path d="M692.85 501.2C693.93 500.93 694.5 499.52 694.11 498.06 693.72 496.58 692.53 495.61 691.45 495.87 690.37 496.13 689.81 497.55 690.19 499.01 690.58 500.48 691.77 501.46 692.85 501.2Z" fill="#691a3a" opacity="1" stroke-width="3" stroke="none"></path><path d="M674.47 506.59C675.33 506.37 675.76 505.19 675.43 503.94 675.11 502.69 674.14 501.85 673.27 502.06 672.41 502.27 671.98 503.45 672.31 504.71 672.64 505.96 673.61 506.8 674.47 506.59Z" fill="#691a3a" opacity="1" stroke-width="3" stroke="none"></path><path d="M676 496.57C677.32 497.77 678.54 499.1 679.62 500.53 680.83 502.29 679.62 506.03 679.22 508.28 678.82 510.56 677.49 513.21 680.03 513.8 681.67 514.17 683.32 514.43 684.99 514.58" stroke="#c76a37" stroke-width="3" stroke-linecap="round" stroke-linejoin="round" opacity="1" fill="none"></path><path d="M685.71 521.56C686.99 521.87 688.31 521.92 689.6 521.72 690.89 521.51 692.12 521.05 693.22 520.37 696.97 518.03 697.65 513.48 697.65 513.48" stroke="#c76a37" stroke-width="3" stroke-linecap="round" stroke-linejoin="round" opacity="1" fill="none"></path><path d="M681.58 488.01C681.57 488.02 681.56 488.03 681.56 488.05 681.47 488.53 682.18 489.67 682.34 489.93 682.35 489.94 682.36 489.96 682.38 489.96 682.39 489.96 682.41 489.96 682.42 489.95 684.81 488.55 687.38 487.51 690.08 486.85 694.64 485.74 699.53 487.12 699.67 486.78 699.8 486.44 694.76 483.2 690.08 484.18 687.02 484.89 684.13 486.2 681.58 488.01Z" fill="#000000" opacity="1" stroke-width="3" stroke="none"></path><path d="M663.64 496.36C663.64 496.35 663.64 496.34 663.64 496.34 664.3 495.35 665.2 494.56 666.27 494.04 667.29 493.51 668.38 493.16 669.51 492.97 669.52 492.97 669.53 492.97 669.54 492.98 669.56 492.98 669.57 492.99 669.57 493.01L670.39 494.66C670.39 494.66 670.4 494.67 670.4 494.68 670.4 494.69 670.4 494.7 670.39 494.71 670.39 494.71 670.39 494.72 670.38 494.72 670.37 494.73 670.36 494.74 670.36 494.74 669.79 494.92 665.74 496.34 665 498.53 664.99 498.54 664.99 498.55 664.99 498.56 664.98 498.56 664.97 498.57 664.96 498.57 664.96 498.57 664.94 498.57 664.94 498.57 664.93 498.57 664.92 498.57 664.91 498.57 663.82 497.95 663.65 496.49 663.64 496.36Z" fill="#000000" opacity="1" stroke-width="3" stroke="none"></path><path d="M722.05 479.65C722.05 479.65 719.9 483.1 720.03 489.34" stroke="#c76a37" stroke-width="3" stroke-linecap="round" stroke-linejoin="round" opacity="1" fill="none"></path><path d="M816.11 747L826.16 739.15" stroke="#2b2b2b" stroke-width="3" stroke-linecap="round" stroke-linejoin="round" opacity="1" fill="none"></path><path d="M829.25 740.42L824.14 753.33" stroke="#2b2b2b" stroke-width="3" stroke-linecap="round" stroke-linejoin="round" opacity="1" fill="none"></path><path d="M798.28 747.32L775.35 751.01" stroke="#2b2b2b" stroke-width="3" stroke-linecap="round" stroke-linejoin="round" opacity="1" fill="none"></path><path d="M799.61 756.32L785.53 769.44" stroke="#2b2b2b" stroke-width="3" stroke-linecap="round" stroke-linejoin="round" opacity="1" fill="none"></path><path d="M901.11 747.89C901.84 748.05 905.68 745.95 908.89 744.08 911.53 742.54 913.7 741.17 913.7 741.17L954.39 775.43C954.3 776.55 953.9 777.62 953.23 778.5 952.19 779.88 950.21 781.25 946.62 781.18 943.26 781.11 907.8 778.85 907.8 778.85L851.49 780.41C851.49 780.41 854.71 768.67 854.97 763.58 855.24 758.5 854.68 742.13 854.68 742.13L850.77 741.53C850.75 741.53 850.75 741.53 850.74 741.52 850.73 741.52 850.72 741.51 850.72 741.5 850.72 741.5 850.71 741.49 850.71 741.48 850.71 741.47 850.71 741.46 850.71 741.46 850.83 741.02 851.52 738.54 852.57 737.49 852.78 737.24 853.06 737.07 853.37 737 854.99 736.78 901.11 747.89 901.11 747.89Z" fill="#006633" opacity="1" stroke-width="3" stroke="none"></path><path d="M908.89 744.08L953.23 778.5C954.08 777.6 954.6 776.43 954.69 775.19 954.69 775.18 954.69 775.17 954.69 775.16 954.69 775.15 954.68 775.15 954.67 775.14L913.92 740.73C913.91 740.72 913.9 740.72 913.89 740.72 913.87 740.72 913.86 740.71 913.86 740.72 913.55 740.93 911.21 742.45 908.89 744.08Z" fill="#00130a" opacity="1" stroke-width="3" stroke="none"></path><path d="M900.97 750.51L901.79 759.57" stroke="#002211" stroke-width="3" stroke-linecap="round" stroke-linejoin="round" opacity="1" fill="none"></path><path d="M905.59 753.01L910.63 764.18" stroke="#002211" stroke-width="3" stroke-linecap="round" stroke-linejoin="round" opacity="1" fill="none"></path><path d="M854.68 742.13C854.68 740.32 854.02 737.71 852.57 737.49 851.26 738.5 850.78 741.03 850.71 741.46 850.71 741.47 850.71 741.47 850.71 741.49 850.71 741.49 850.71 741.5 850.72 741.5 850.72 741.51 850.73 741.52 850.74 741.52 850.74 741.52 850.75 741.53 850.76 741.53L854.68 742.13Z" fill="#00180c" opacity="1" stroke-width="3" stroke="none"></path><path d="M852.31 643.42L859.55 662.33" stroke="#2b2b2b" stroke-width="3" stroke-linecap="round" stroke-linejoin="round" opacity="1" fill="none"></path><path d="M714.78 542.59C715.26 543.23 715.86 543.77 716.54 544.18 717.23 544.58 717.99 544.84 718.78 544.95" stroke="#606060" stroke-width="3" stroke-linecap="round" stroke-linejoin="round" opacity="1" fill="none"></path><path d="M735.87 523.37C736.37 521.12 736.25 518.77 735.51 516.57" stroke="#606060" stroke-width="3" stroke-linecap="round" stroke-linejoin="round" opacity="1" fill="none"></path></g></svg>