<svg xmlns="http://www.w3.org/2000/svg" height="900" width="1200" version="1.1" xmlns:xlink="http://www.w3.org/1999/xlink" xmlns:svgjs="http://svgjs.com/svgjs"><rect fill="#ffffff" width="1200" height="900"></rect><g><path d="M-374.11 629.58H1580.83L1576.4 1079.58H-380.83L-377.16 629.58Z" fill="#ffffff" opacity="1" stroke-width="3" stroke="none"></path></g><g><path d="M777.37 111.94L615.78 109.16 447.54 110.82 425.45 117.78 421.22 459.84 438.41 477.63 607.85 486.33 617.25 477.34 626.24 488.71 777.37 477.65V111.94Z" fill="#ffffff" opacity="1" stroke-width="3" stroke="none"></path><path d="M448.31 111.94H421.39V477.65H448.31V111.94Z" fill="#e1e1e1" opacity="1" stroke-width="3" stroke="none"></path><path d="M626.82 111.94H608.18V477.65H626.82V111.94Z" fill="#e1e1e1" opacity="1" stroke-width="3" stroke="none"></path><path d="M766.39 103.65H432.16C429.65 103.65 427.17 104.13 424.87 105.08 422.55 106.06 420.44 107.44 418.68 109.22 416.89 110.98 415.51 113.1 414.53 115.42 413.58 117.72 413.1 120.2 413.1 122.71V477.03H429.67V302.66H591.82V477.03H608.39V302.66H769.08V477.03H785.65V122.91C785.59 117.82 783.54 112.95 779.94 109.37 776.35 105.77 771.49 103.72 766.39 103.65ZM429.67 286.3V120.22H591.82V286.1H429.67V286.3ZM608.18 286.3V120.22H768.88V286.1H608.18V286.3Z" fill="#006633" opacity="1" stroke-width="3" stroke="none"></path><path d="M795.8 497.12H403.99C402.25 497.12 400.53 496.78 398.92 496.12 397.3 495.46 395.83 494.49 394.61 493.24 393.37 492.02 392.4 490.55 391.73 488.94 391.07 487.34 390.74 485.6 390.74 483.86 390.72 482.12 391.05 480.38 391.71 478.77 392.35 477.15 393.33 475.68 394.57 474.44 395.81 473.2 397.28 472.22 398.9 471.58 400.51 470.92 402.25 470.59 403.99 470.61H795.8C797.54 470.61 799.28 470.94 800.87 471.6 802.49 472.27 803.96 473.24 805.18 474.48 806.42 475.7 807.4 477.17 808.06 478.79 808.72 480.4 809.05 482.12 809.05 483.86 809.07 485.6 808.74 487.34 808.1 488.96 807.44 490.57 806.46 492.04 805.22 493.29 803.98 494.53 802.51 495.5 800.89 496.16 799.28 496.81 797.54 497.14 795.8 497.12Z" fill="#006633" opacity="1" stroke-width="3" stroke="none"></path><path d="M744.65 497.12H796.01C797.74 497.12 799.48 496.78 801.08 496.12 802.69 495.46 804.16 494.49 805.39 493.24 806.63 492.02 807.6 490.55 808.26 488.94 808.93 487.34 809.26 485.6 809.26 483.86 809.28 482.12 808.95 480.38 808.31 478.77 807.64 477.15 806.67 475.68 805.43 474.44 804.19 473.2 802.71 472.22 801.1 471.58 799.48 470.92 797.74 470.59 796.01 470.61H744.65C742.91 470.61 741.19 470.94 739.57 471.6 737.96 472.27 736.49 473.24 735.27 474.48 734.02 475.7 733.05 477.17 732.39 478.79 731.73 480.4 731.39 482.12 731.39 483.86 731.37 485.6 731.71 487.34 732.37 488.96 733.01 490.57 733.98 492.04 735.23 493.29 736.47 494.53 737.94 495.5 739.55 496.16 741.17 496.81 742.91 497.14 744.65 497.12Z" fill="#002714" opacity="1" stroke-width="3" stroke="none"></path></g><g><path d="M332.92 219.06C331.23 216.9 329.09 215.14 326.63 213.92 324.17 212.69 321.49 212.02 318.74 211.95 316 211.89 313.28 212.43 310.77 213.54 308.26 214.66 306.03 216.31 304.23 218.38L215.17 321.46 195.47 343.62C189.98 349.81 185.55 356.86 182.34 364.48 182.79 347.21 185.75 330.09 191.15 313.67L204.48 273.13 250.31 135.66C251.18 133.05 251.46 130.29 251.13 127.57 250.81 124.84 249.88 122.23 248.42 119.9 246.96 117.58 245 115.61 242.69 114.13 240.39 112.65 237.78 111.7 235.05 111.35 230.78 110.79 226.44 111.75 222.79 114.04 219.14 116.34 216.4 119.82 215.03 123.91L186.28 210.1C183.17 219.45 182.35 229.41 183.89 239.14 185.43 248.88 189.28 258.1 195.13 266.02L198.99 271.25 185.63 311.85C179.55 330.33 176.46 349.66 176.46 369.11V527.05H182.27V393.6C182.26 376.6 188.5 360.19 199.81 347.48L222.18 322.32 228.58 322.95C238.39 323.93 248.28 322.52 257.43 318.87 266.58 315.22 274.72 309.42 281.16 301.96L332.37 242.69C335.19 239.42 336.78 235.29 336.88 230.97 336.99 226.66 335.58 222.45 332.92 219.06Z" fill="#006633" stroke-linejoin="round" opacity="1" stroke-width="3" stroke="none"></path><path d="M234.04 522.9L221.45 623.89C221.27 625.37 220.54 626.74 219.42 627.73 218.3 628.72 216.86 629.27 215.36 629.27H150.92C149.43 629.27 147.98 628.72 146.86 627.73 145.74 626.74 145.02 625.37 144.83 623.89L132.24 522.9C132.14 522.04 132.21 521.16 132.46 520.33 132.73 519.5 133.16 518.73 133.73 518.08 134.31 517.42 135.02 516.9 135.81 516.54 136.6 516.19 137.46 516 138.33 516H227.96C228.83 516 229.69 516.19 230.49 516.54 231.27 516.91 231.98 517.42 232.55 518.08 233.13 518.73 233.56 519.5 233.82 520.33 234.08 521.17 234.15 522.04 234.04 522.9Z" fill="#99cb65" opacity="1" stroke-width="3" stroke="none"></path><path d="M175.45 629.27H150.91C149.42 629.27 147.97 628.72 146.85 627.73 145.73 626.74 145.01 625.37 144.82 623.89L132.23 522.9C132.13 522.04 132.2 521.16 132.46 520.32 132.72 519.5 133.15 518.73 133.72 518.08 134.3 517.42 135 516.9 135.8 516.54 136.59 516.19 137.45 516 138.32 516H161.31L175.45 629.27Z" fill="#8fc755" opacity="1" stroke-width="3" stroke="none"></path></g><g><path d="M1072.28 371.36C1070.72 370.97 1069.07 371.19 1067.67 371.97 1066.27 372.76 1065.23 374.05 1064.75 375.59L1063.54 380.53C1060.69 389.75 1056.03 398.31 1049.84 405.73L1040.31 417.13C1034.76 423.77 1031.9 432.23 1032.28 440.87L1032.34 442.17C1032.61 448.51 1031.21 454.82 1028.27 460.44 1025.33 466.07 1020.95 470.82 1015.58 474.21V474.21C1014.6 474.83 1013.67 475.5 1012.77 476.23 1013.34 473.68 1014.08 471.18 1014.97 468.73L1021.82 449.96C1025.27 440.49 1025.35 430.11 1022.02 420.58L1011.23 389.5C1008.86 382.69 1007.48 375.57 1007.13 368.37L1006.38 356.94C1006.35 356.2 1006.16 355.48 1005.85 354.8 1005.53 354.14 1005.08 353.54 1004.53 353.04 1003.98 352.55 1003.34 352.18 1002.64 351.93 1001.94 351.68 1001.2 351.58 1000.46 351.62 999.01 351.71 997.65 352.35 996.67 353.43 995.7 354.49 995.17 355.9 995.2 357.35L995.36 364C995.63 374.44 993.72 384.83 989.77 394.49L979.8 418.87C975.68 428.96 975.48 440.23 979.24 450.46L983.77 462.8C985.57 467.69 986.75 472.78 987.31 477.96L986.13 477.31C977.83 472.66 971.69 464.92 969.07 455.77L965.81 444.38C963.61 436.69 958.81 429.99 952.23 425.44L937.34 415.12C930.61 410.46 924.72 404.7 919.9 398.08L915.43 392.34C914.95 391.68 914.34 391.11 913.63 390.69 912.92 390.26 912.14 389.97 911.33 389.86 910.52 389.73 909.68 389.76 908.88 389.96 908.08 390.16 907.33 390.51 906.67 391 906.01 391.48 905.44 392.09 905.02 392.8 904.59 393.51 904.3 394.29 904.19 395.1 904.06 395.91 904.09 396.75 904.29 397.55 904.48 398.35 904.84 399.1 905.33 399.76L908.59 403.67C914.34 411.43 918.48 420.25 920.79 429.62L924.34 444.05C926.39 452.45 931.53 459.78 938.72 464.59L939.8 465.31C945.07 468.84 949.32 473.7 952.12 479.4 954.91 485.1 956.15 491.44 955.71 497.77 955.34 503.12 956.29 508.49 958.48 513.39 960.67 518.29 964.03 522.58 968.28 525.86L992.83 544.89 1011.63 544.42 1040.69 516.21C1044.31 512.7 1047.07 508.38 1048.74 503.63 1050.42 498.86 1050.96 493.77 1050.34 488.76L1050.08 486.61C1048.91 477.16 1051.52 467.64 1057.34 460.11L1064.58 450.75C1069.47 444.42 1072.03 436.59 1071.81 428.59L1071.32 410.47C1071.1 402.3 1072.26 394.14 1074.74 386.33L1076.72 379.34C1076.98 378.52 1077.06 377.66 1076.98 376.82 1076.89 375.97 1076.63 375.14 1076.22 374.39 1075.8 373.65 1075.24 373 1074.56 372.48 1073.88 371.95 1073.11 371.58 1072.28 371.36V371.36Z" fill="#006633" stroke-linejoin="round" opacity="1" stroke-width="3" stroke="none"></path><path d="M1046.08 532.22L1034.64 624.03C1034.47 625.38 1033.81 626.62 1032.79 627.52 1031.77 628.42 1030.46 628.92 1029.1 628.92H970.52C969.15 628.92 967.84 628.43 966.81 627.52 965.8 626.62 965.15 625.38 964.98 624.03L953.53 532.22C953.43 531.44 953.51 530.64 953.74 529.88 953.97 529.12 954.36 528.42 954.88 527.84 955.41 527.24 956.05 526.76 956.77 526.44 957.5 526.12 958.28 525.95 959.07 525.95H1040.55C1041.34 525.95 1042.12 526.12 1042.85 526.44 1043.56 526.76 1044.21 527.24 1044.73 527.84 1045.26 528.43 1045.65 529.13 1045.88 529.88 1046.11 530.64 1046.18 531.44 1046.08 532.22V532.22Z" fill="#99cb65" opacity="1" stroke-width="3" stroke="none"></path><path d="M992.81 628.92H970.51C969.15 628.92 967.83 628.43 966.81 627.52 965.79 626.62 965.14 625.38 964.97 624.03L953.53 532.22C953.43 531.44 953.5 530.64 953.74 529.88 953.97 529.12 954.36 528.42 954.88 527.84 955.4 527.24 956.05 526.76 956.77 526.44 957.5 526.12 958.28 525.95 959.07 525.95H979.97L992.81 628.92Z" fill="#8fc755" opacity="1" stroke-width="3" stroke="none"></path></g><g><path d="M748.52 648.95H716.86L693.27 668.39 668.28 648.95H624.24L599.4 668.62 575.67 648.95H536.5L508.19 665.17 487.92 648.95H451.39L342.78 800.05H417.28L454.23 787.05 487.92 800.05H556.99L597.3 774.74 624.24 800.05H716.86L750.97 784.71 787.5 800.05H857.13L748.52 648.95Z" fill="#99cb65" stroke-linejoin="round" opacity="1" stroke-width="3" stroke="none"></path><path d="M556.99 800.05H624.24V648.95H575.67L556.99 800.05ZM417.28 800.05H487.92L536.5 648.95H487.92L417.28 800.05ZM716.86 648.95H668.28L716.86 800.05H787.5L716.86 648.95Z" fill="#ffffff" opacity="1" stroke-width="3" stroke="none"></path></g><g><path d="M781.24 623.57L722.12 619.24C715.3 618.74 708.76 616.34 703.25 612.29 701.66 611.12 699.85 610.28 697.94 609.81 696.02 609.35 694.02 609.26 692.07 609.56 690.12 609.86 688.25 610.54 686.56 611.56 684.87 612.59 683.4 613.93 682.23 615.53 681.06 617.12 680.22 618.92 679.75 620.84 679.28 622.76 679.19 624.75 679.49 626.7 679.79 628.65 680.48 630.53 681.5 632.22 682.52 633.9 683.87 635.37 685.46 636.54 695.52 643.93 707.47 648.33 719.92 649.24L779.04 653.57C779.41 653.59 779.79 653.61 780.15 653.61 784.05 653.61 787.79 652.09 790.59 649.38 793.39 646.68 795.03 643 795.17 639.11 795.31 635.22 793.94 631.43 791.34 628.53 788.74 625.63 785.13 623.85 781.24 623.57V623.57ZM496.74 612.29C491.23 616.34 484.69 618.74 477.87 619.24L418.75 623.57C414.87 623.85 411.25 625.63 408.65 628.53 406.06 631.43 404.68 635.22 404.82 639.11 404.96 643 406.6 646.68 409.4 649.38 412.21 652.09 415.94 653.61 419.83 653.61 420.2 653.61 420.58 653.6 420.94 653.57L480.07 649.24C492.52 648.33 504.47 643.93 514.53 636.54 517.74 634.18 519.9 630.64 520.5 626.7 521.1 622.76 520.12 618.74 517.76 615.52 515.4 612.3 511.86 610.16 507.92 609.55 503.98 608.95 499.95 609.93 496.74 612.29V612.29Z" fill="#c67e62" opacity="1" stroke-width="3" stroke="none"></path><path d="M690.95 596.39L662.42 523.86 634.24 535.04 663 607.49C667.61 619.09 675.39 629.16 685.46 636.54L703.25 612.29C697.74 608.26 693.47 602.75 690.95 596.39V596.39ZM509.03 596.39C506.51 602.74 502.25 608.25 496.74 612.29L514.53 636.54C524.61 629.16 532.38 619.09 536.98 607.48L565.74 535.03 537.74 523.94 509.03 596.39Z" fill="#d9fdb3" opacity="1" stroke-width="3" stroke="none"></path><path d="M599.86 391.37C612.31 391.37 622.39 381.29 622.39 368.84 622.39 356.41 612.31 346.32 599.86 346.32 587.43 346.32 577.34 356.41 577.34 368.84 577.34 381.29 587.43 391.37 599.86 391.37Z" fill="#17171e" opacity="1" stroke-width="3" stroke="none"></path><path d="M561.15 420.66C561.15 430.93 565.23 440.78 572.49 448.04 579.75 455.3 589.6 459.38 599.86 459.38 610.13 459.38 619.98 455.3 627.24 448.04 634.5 440.78 638.58 430.93 638.58 420.66V419.95C638.53 416.5 638.01 413.08 637.03 409.77 608.77 396.92 600.08 385.53 600.08 385.53 600.08 385.53 565.92 398.79 562.72 409.77 561.66 413.31 561.14 416.97 561.15 420.66Z" fill="#c67e62" opacity="1" stroke-width="3" stroke="none"></path><path d="M599.86 381.38H599.42C574.96 381.38 565.92 398.79 562.72 409.77 566.49 411.27 570.56 411.91 574.62 411.64 578.67 411.37 582.61 410.21 586.16 408.23 589.71 406.24 592.77 403.49 595.12 400.19 597.48 396.87 599.07 393.08 599.77 389.08 599.77 389.06 599.78 389.03 599.8 389.02 599.81 389.01 599.83 389 599.85 389 599.87 389 599.89 389.01 599.9 389.02 599.92 389.03 599.92 389.06 599.92 389.08 600.64 393.08 602.23 396.88 604.6 400.19 606.95 403.5 610.02 406.25 613.57 408.23 617.12 410.21 621.07 411.38 625.13 411.64 629.19 411.91 633.25 411.27 637.03 409.77 632.35 393.77 617.34 381.5 599.86 381.38Z" fill="#17171e" opacity="1" stroke-width="3" stroke="none"></path><path d="M595.81 438C595.81 438 599.83 441.56 603.23 437.48" stroke="#cd4f1c" stroke-width="3" stroke-linecap="round" stroke-linejoin="round" opacity="1" fill="none"></path><path d="M593.16 417.33C593.02 418.13 592.62 418.84 592 419.37 591.4 419.88 590.62 420.18 589.82 420.18 589.01 420.19 588.23 419.91 587.62 419.4 586.99 418.89 586.57 418.18 586.42 417.39" stroke="#cd4f1c" stroke-width="3" stroke-linecap="round" stroke-linejoin="round" opacity="1" fill="none"></path><path d="M612.62 417.33C612.49 418.13 612.08 418.84 611.47 419.37 610.86 419.88 610.09 420.18 609.28 420.18 608.47 420.19 607.69 419.91 607.08 419.4 606.46 418.89 606.04 418.18 605.89 417.39" stroke="#cd4f1c" stroke-width="3" stroke-linecap="round" stroke-linejoin="round" opacity="1" fill="none"></path><path d="M665.33 554.04L658.09 612.28 620.59 642.7 541.37 612.28 534.66 552.49C533.51 542.38 534.72 532.15 538.2 522.6 541.68 513.05 547.34 504.43 554.73 497.44 566.48 486.25 600.09 530.86 600.09 530.86 600.09 530.86 635.17 486.91 647.03 498.99 654.1 506.14 659.42 514.84 662.6 524.38 665.77 533.92 666.71 544.07 665.33 554.04V554.04Z" fill="#d9fdb3" opacity="1" stroke-width="3" stroke="none"></path><path d="M541.37 612.28L512.91 693.17 601.36 720.87 682.91 697.84 658.09 612.28H541.37Z" fill="#006633" opacity="1" stroke-width="3" stroke="none"></path><path d="M609.25 612.28L668.46 648.05 658.09 612.28H609.25Z" fill="#003c1e" opacity="1" stroke-width="3" stroke="none"></path><path d="M609.25 612.28C609.25 612.28 658.85 595.45 664.56 560.18L658.09 612.28H609.25Z" fill="#c5fb8c" stroke-linejoin="round" opacity="1" stroke-width="3" stroke="none"></path><path d="M530.82 691.18L479.93 643.64 542.84 649.68" fill="#006633" stroke-linecap="round" stroke-linejoin="round" opacity="1" stroke-width="3" stroke="none"></path><path d="M663.48 691.18L714.36 643.74 651.46 649.68" fill="#006633" stroke-linecap="round" stroke-linejoin="round" opacity="1" stroke-width="3" stroke="none"></path><path d="M454.32 657.52C452.1 661.2 450.74 665.33 450.32 669.61 449.91 673.89 450.47 678.21 451.94 682.24 453.41 686.28 455.78 689.93 458.85 692.93 461.93 695.94 465.63 698.21 469.7 699.59L598.96 743.38C615.95 749.13 633.76 752.07 651.7 752.07H675.92C679.23 752.07 682.47 751.12 685.26 749.33 688.05 747.54 690.27 744.99 691.65 741.98L695.8 732.95C696.21 732.06 696.39 731.08 696.32 730.1 696.26 729.12 695.94 728.17 695.41 727.35 694.88 726.52 694.16 725.84 693.29 725.37 692.43 724.9 691.46 724.65 690.48 724.65H631.33L492.95 647.28C486.44 643.64 478.77 642.67 471.56 644.58 464.36 646.5 458.18 651.14 454.32 657.52Z" fill="#c67e62" stroke-linejoin="round" opacity="1" stroke-width="3" stroke="none"></path><path d="M741.5 657.52C743.72 661.2 745.08 665.33 745.5 669.61 745.91 673.89 745.36 678.21 743.88 682.24 742.41 686.28 740.04 689.93 736.97 692.93 733.89 695.94 730.19 698.21 726.12 699.59L596.86 743.38C579.87 749.13 562.05 752.07 544.12 752.07H519.9C516.59 752.07 513.35 751.12 510.56 749.33 507.77 747.54 505.55 744.99 504.17 741.98L500.02 732.95C499.61 732.06 499.43 731.08 499.5 730.1 499.57 729.12 499.88 728.17 500.41 727.35 500.94 726.52 501.67 725.84 502.53 725.37 503.39 724.9 504.35 724.65 505.34 724.65H564.48L702.87 647.28C709.38 643.65 717.05 642.68 724.26 644.58 731.46 646.5 737.65 651.14 741.5 657.52V657.52Z" fill="#c67e62" stroke-linejoin="round" opacity="1" stroke-width="3" stroke="none"></path><path d="M647.03 498.99C644.56 509.48 638.56 518.8 630.06 525.43 621.55 532.04 611.03 535.55 600.25 535.37 589.48 535.19 579.09 531.33 570.81 524.43 562.53 517.54 556.85 508.01 554.73 497.44 567.24 485.54 583.93 479.04 601.2 479.32 618.46 479.61 634.93 486.67 647.03 498.99V498.99Z" fill="#c67e62" opacity="1" stroke-width="3" stroke="none"></path></g><g><path d="M998.35 267.76C1034.35 267.76 1063.55 238.58 1063.55 202.56 1063.55 166.55 1034.35 137.35 998.35 137.35 962.33 137.35 933.14 166.55 933.14 202.56 933.14 238.58 962.33 267.76 998.35 267.76Z" fill="#d9fdb3" opacity="1" stroke-width="3" stroke="none"></path><path d="M998.35 159.99V202.56L1032.11 236.46" stroke="#ffffff" stroke-width="3" stroke-linecap="round" stroke-linejoin="round" opacity="1" fill="none"></path></g></svg>